<svg width="1288" height="366" viewBox="0 0 1288 366" fill="none" xmlns="http://www.w3.org/2000/svg">
<g filter="url(#filter0_d_2503_2)">
<path d="M4 81.68C4 36.57 40.57 0 85.68 0H279.76C324.872 0 361.442 36.57 361.442 81.68V275.76C361.442 320.872 324.872 357.442 279.76 357.442H85.68C40.57 357.442 4 320.872 4 275.76V81.68Z" fill="black"/>
<path d="M98.9458 262.496C98.9458 239.362 117.7 220.608 140.834 220.608H182.72V262.496C182.72 285.63 163.968 304.384 140.834 304.384C117.7 304.384 98.9458 285.63 98.9458 262.496Z" fill="#24CB71"/>
<path d="M182.72 53.058V136.832H224.608C247.742 136.832 266.496 118.08 266.496 94.946C266.496 71.812 247.742 53.058 224.608 53.058H182.72Z" fill="#FF7237"/>
<path d="M224.26 220.608C247.394 220.608 266.148 201.854 266.148 178.72C266.148 155.586 247.394 136.832 224.26 136.832C201.126 136.832 182.373 155.586 182.373 178.72C182.373 201.854 201.126 220.608 224.26 220.608Z" fill="#00B6FF"/>
<path d="M98.9458 94.946C98.9458 118.08 117.7 136.834 140.834 136.834H182.72V53.058H140.834C117.7 53.058 98.9458 71.812 98.9458 94.946Z" fill="#FF3737"/>
<path d="M98.9458 178.72C98.9458 201.854 117.7 220.608 140.834 220.608H182.72V136.834H140.834C117.7 136.834 98.9458 155.586 98.9458 178.72Z" fill="#874FFF"/>
<path d="M1204.77 301.97C1193.76 301.97 1183.87 299.84 1175.11 295.582C1166.57 291.324 1159.71 285.608 1154.54 278.436C1149.6 271.04 1147.13 262.522 1147.13 252.884C1147.13 240.334 1151.17 230.136 1159.26 222.29C1167.35 214.446 1178.93 209.068 1193.99 206.154L1233.43 198.084C1241.3 196.516 1246.69 194.05 1249.61 190.688C1252.53 187.326 1254 182.396 1254 175.896L1258.04 215.23L1201.4 227.334C1193.76 228.902 1187.81 231.704 1183.54 235.738C1179.49 239.774 1177.47 245.376 1177.47 252.548C1177.47 259.946 1180.28 265.884 1185.9 270.368C1191.74 274.85 1199.61 277.092 1209.49 277.092C1217.59 277.092 1225 275.298 1231.74 271.712C1238.71 268.126 1244.11 263.194 1247.93 256.92C1251.97 250.42 1254 243.024 1254 234.73V175.896C1254 167.826 1251.07 161.552 1245.23 157.068C1239.61 152.362 1231.86 150.008 1221.97 150.008C1209.38 150.008 1199.72 153.146 1192.98 159.422C1186.23 165.698 1182.3 174.55 1181.18 185.982L1151.51 181.948C1152.63 170.068 1156.23 159.87 1162.3 151.354C1168.36 142.612 1176.46 135.888 1186.57 131.182C1196.68 126.474 1208.71 124.122 1222.64 124.122C1242.42 124.122 1257.59 129.164 1268.15 139.25C1278.72 149.336 1284 162.336 1284 178.248V296.926H1254.67V275.074C1251.75 282.47 1245.79 288.858 1236.8 294.238C1228.04 299.392 1217.36 301.97 1204.77 301.97Z" fill="black"/>
<path d="M908.086 296.926V129.164H937.416V147.992C939.662 141.492 944.608 135.888 952.25 131.182C959.89 126.474 968.768 124.122 978.882 124.122C988.772 124.122 997.874 126.25 1006.19 130.508C1014.51 134.768 1019.9 141.156 1022.37 149.672C1025.29 141.828 1030.69 135.664 1038.55 131.182C1046.65 126.474 1055.64 124.122 1065.52 124.122C1082.61 124.122 1095.64 129.052 1104.63 138.914C1113.62 148.776 1118.12 163.12 1118.12 181.948V296.926H1088.11V185.982C1088.11 174.774 1085.64 166.37 1080.7 160.766C1075.98 154.94 1069.01 152.026 1059.79 152.026C1049.68 152.026 1041.81 155.612 1036.19 162.784C1030.8 169.732 1028.1 179.93 1028.1 193.378V296.926H998.098V185.982C998.098 174.774 995.626 166.37 990.682 160.766C985.962 154.94 978.994 152.026 969.78 152.026C959.666 152.026 951.8 155.612 946.18 162.784C940.786 169.732 938.09 179.93 938.09 193.378V296.926H908.086Z" fill="black"/>
<path d="M793.358 357.442C772.456 357.442 755.486 352.624 742.45 342.986C729.414 333.348 721.1 319.9 717.504 302.642L746.834 296.254C749.306 307.236 754.588 315.754 762.678 321.806C770.77 328.082 780.996 331.22 793.358 331.22C808.19 331.22 819.316 327.408 826.732 319.788C834.374 312.392 838.196 301.298 838.196 286.504V259.946C834.824 268.238 828.53 274.962 819.316 280.116C810.326 285.272 800.212 287.85 788.974 287.85C774.14 287.85 761.106 284.488 749.868 277.764C738.63 270.816 729.864 261.178 723.572 248.85C717.278 236.524 714.132 222.29 714.132 206.154C714.132 189.792 717.278 175.448 723.572 163.12C729.864 150.792 738.518 141.268 749.53 134.544C760.768 127.596 773.916 124.122 788.974 124.122C800.212 124.122 810.438 126.698 819.654 131.854C829.092 136.784 835.498 142.948 838.87 150.344V129.164H868.2V286.504C868.2 301.298 865.278 313.96 859.434 324.496C853.59 335.254 845.05 343.434 833.812 349.038C822.8 354.64 809.314 357.442 793.358 357.442ZM792.682 261.29C807.068 261.29 818.53 256.246 827.07 246.16C835.836 236.074 840.218 222.74 840.218 206.154C840.218 189.344 835.836 175.896 827.07 165.81C818.304 155.724 806.842 150.68 792.682 150.68C778.298 150.68 766.724 155.724 757.958 165.81C749.418 175.896 745.148 189.344 745.148 206.154C745.148 222.74 749.53 236.074 758.296 246.16C767.062 256.246 778.524 261.29 792.682 261.29Z" fill="black"/>
<path d="M653.58 296.73V129.164H683.586V296.926L653.58 296.73ZM653.244 107.648V59.908H683.922V107.648H653.244Z" fill="black"/>
<path d="M481.254 296.926V59.908H512.944V296.926H481.254ZM487.66 196.74V168.162H616.78V196.74H487.66ZM487.66 88.8199V59.908H629.254V88.8199H487.66Z" fill="black"/>
</g>
<defs>
<filter id="filter0_d_2503_2" x="0" y="0" width="1288" height="365.442" filterUnits="userSpaceOnUse" color-interpolation-filters="sRGB">
<feFlood flood-opacity="0" result="BackgroundImageFix"/>
<feColorMatrix in="SourceAlpha" type="matrix" values="0 0 0 0 0 0 0 0 0 0 0 0 0 0 0 0 0 0 127 0" result="hardAlpha"/>
<feOffset dy="4"/>
<feGaussianBlur stdDeviation="2"/>
<feComposite in2="hardAlpha" operator="out"/>
<feColorMatrix type="matrix" values="0 0 0 0 0 0 0 0 0 0 0 0 0 0 0 0 0 0 0.25 0"/>
<feBlend mode="normal" in2="BackgroundImageFix" result="effect1_dropShadow_2503_2"/>
<feBlend mode="normal" in="SourceGraphic" in2="effect1_dropShadow_2503_2" result="shape"/>
</filter>
</defs>
</svg>
