<svg width="320" height="182" viewBox="0 0 320 182" fill="none" xmlns="http://www.w3.org/2000/svg">
<rect x="0.5" y="0.5" width="319" height="179" rx="5.5" fill="#F9F9F9" stroke="#C3C3C3"/>
<path d="M100.975 49.8701C102.809 49.6528 104.654 49.5442 106.5 49.545C126.788 49.545 143.04 62.4723 150 80.7165C148.315 85.1543 146.039 89.3322 143.236 93.1317M82.662 56.3093C73.788 61.8533 66.915 70.4433 63 80.7165C69.96 98.9608 86.2116 111.888 106.5 111.888C114.905 111.933 123.157 109.59 130.338 105.119M97.278 71.276C96.0661 72.5167 95.1048 73.9895 94.4489 75.6104C93.793 77.2314 93.4554 78.9687 93.4554 80.7232C93.4554 82.4777 93.793 84.2151 94.4489 85.836C95.1048 87.457 96.0661 88.9298 97.278 90.1704C98.4899 91.411 99.9286 92.3952 101.512 93.0666C103.096 93.738 104.793 94.0836 106.507 94.0836C108.22 94.0836 109.918 93.738 111.501 93.0666C113.084 92.3952 114.523 91.411 115.735 90.1704" stroke="#829DC9" stroke-width="6.5" stroke-linecap="round" stroke-linejoin="round"/>
<path d="M71.7 45.0919L141.3 116.341" stroke="#829DC9" stroke-width="6.5" stroke-linecap="round"/>
<path d="M184.531 117.625C184.531 115.715 183.965 113.848 182.904 112.26C181.843 110.672 180.335 109.435 178.57 108.704C176.806 107.973 174.864 107.782 172.991 108.154C171.118 108.527 169.397 109.447 168.047 110.797C166.697 112.147 165.777 113.868 165.404 115.741C165.032 117.614 165.223 119.556 165.954 121.32C166.685 123.085 167.922 124.593 169.51 125.654C171.098 126.715 172.965 127.281 174.875 127.281C177.435 127.278 179.89 126.26 181.7 124.45C183.51 122.64 184.528 120.185 184.531 117.625ZM171.656 117.625C171.656 116.988 171.845 116.366 172.199 115.837C172.552 115.307 173.055 114.895 173.643 114.651C174.231 114.408 174.879 114.344 175.503 114.468C176.127 114.592 176.701 114.899 177.151 115.349C177.601 115.799 177.908 116.373 178.032 116.997C178.156 117.621 178.092 118.269 177.849 118.857C177.605 119.445 177.193 119.948 176.663 120.301C176.134 120.655 175.512 120.844 174.875 120.844C174.022 120.843 173.204 120.503 172.6 119.9C171.997 119.296 171.657 118.478 171.656 117.625ZM226.375 127.281C228.285 127.281 230.152 126.715 231.74 125.654C233.328 124.593 234.565 123.085 235.296 121.32C236.027 119.556 236.218 117.614 235.846 115.741C235.473 113.868 234.553 112.147 233.203 110.797C231.853 109.447 230.132 108.527 228.259 108.154C226.386 107.782 224.444 107.973 222.68 108.704C220.915 109.435 219.407 110.672 218.346 112.26C217.285 113.848 216.719 115.715 216.719 117.625C216.722 120.185 217.74 122.64 219.55 124.45C221.361 126.26 223.815 127.278 226.375 127.281ZM226.375 114.406C227.012 114.406 227.634 114.595 228.163 114.949C228.693 115.302 229.105 115.805 229.349 116.393C229.592 116.981 229.656 117.629 229.532 118.253C229.408 118.877 229.101 119.451 228.651 119.901C228.201 120.351 227.627 120.658 227.003 120.782C226.379 120.906 225.731 120.842 225.143 120.599C224.555 120.355 224.052 119.943 223.699 119.413C223.345 118.884 223.156 118.262 223.156 117.625C223.157 116.772 223.497 115.954 224.1 115.35C224.704 114.747 225.522 114.407 226.375 114.406ZM199.016 101.531C200.925 101.531 202.792 100.965 204.38 99.9039C205.968 98.8428 207.206 97.3347 207.937 95.5703C208.668 93.8058 208.859 91.8643 208.486 89.9912C208.114 88.118 207.194 86.3975 205.844 85.047C204.493 83.6966 202.773 82.7769 200.899 82.4043C199.026 82.0317 197.085 82.2229 195.32 82.9538C193.556 83.6847 192.048 84.9223 190.987 86.5103C189.926 88.0982 189.359 89.9652 189.359 91.875C189.362 94.4351 190.381 96.8895 192.191 98.6998C194.001 100.51 196.456 101.528 199.016 101.531ZM199.016 88.6563C199.652 88.6563 200.275 88.845 200.804 89.1987C201.333 89.5524 201.746 90.0551 201.989 90.6432C202.233 91.2314 202.297 91.8786 202.173 92.503C202.048 93.1273 201.742 93.7009 201.292 94.151C200.841 94.6012 200.268 94.9077 199.644 95.0319C199.019 95.1561 198.372 95.0924 197.784 94.8487C197.196 94.6051 196.693 94.1926 196.339 93.6632C195.986 93.1339 195.797 92.5116 195.797 91.875C195.798 91.0217 196.137 90.2036 196.741 89.6002C197.344 88.9968 198.162 88.6573 199.016 88.6563ZM252.125 107.969C250.215 107.969 248.348 108.535 246.76 109.596C245.172 110.657 243.935 112.165 243.204 113.93C242.473 115.694 242.282 117.636 242.654 119.509C243.027 121.382 243.947 123.103 245.297 124.453C246.647 125.803 248.368 126.723 250.241 127.096C252.114 127.468 254.056 127.277 255.82 126.546C257.585 125.815 259.093 124.578 260.154 122.99C261.215 121.402 261.781 119.535 261.781 117.625C261.778 115.065 260.76 112.611 258.95 110.8C257.14 108.99 254.685 107.972 252.125 107.969ZM252.125 120.844C251.488 120.844 250.866 120.655 250.337 120.301C249.807 119.948 249.395 119.445 249.151 118.857C248.908 118.269 248.844 117.621 248.968 116.997C249.092 116.373 249.399 115.799 249.849 115.349C250.299 114.899 250.873 114.592 251.497 114.468C252.121 114.344 252.769 114.408 253.357 114.651C253.945 114.895 254.448 115.307 254.801 115.837C255.155 116.366 255.344 116.988 255.344 117.625C255.343 118.478 255.003 119.296 254.4 119.9C253.796 120.503 252.978 120.843 252.125 120.844ZM252.125 101.531C254.035 101.531 255.902 100.965 257.49 99.9039C259.078 98.8428 260.315 97.3347 261.046 95.5703C261.777 93.8058 261.968 91.8643 261.596 89.9912C261.223 88.118 260.303 86.3975 258.953 85.047C257.603 83.6966 255.882 82.7769 254.009 82.4043C252.136 82.0317 250.194 82.2229 248.43 82.9538C246.665 83.6847 245.157 84.9223 244.096 86.5103C243.035 88.0982 242.469 89.9652 242.469 91.875C242.472 94.4351 243.49 96.8895 245.3 98.6998C247.111 100.51 249.565 101.528 252.125 101.531ZM252.125 88.6563C252.762 88.6563 253.384 88.845 253.913 89.1987C254.443 89.5524 254.855 90.0551 255.099 90.6432C255.342 91.2314 255.406 91.8786 255.282 92.503C255.158 93.1273 254.851 93.7009 254.401 94.151C253.951 94.6012 253.377 94.9077 252.753 95.0319C252.129 95.1561 251.481 95.0924 250.893 94.8487C250.305 94.6051 249.802 94.1926 249.449 93.6632C249.095 93.1339 248.906 92.5116 248.906 91.875C248.907 91.0217 249.247 90.2036 249.85 89.6002C250.454 88.9968 251.272 88.6573 252.125 88.6563ZM226.375 101.531C228.285 101.531 230.152 100.965 231.74 99.9039C233.328 98.8428 234.565 97.3347 235.296 95.5703C236.027 93.8058 236.218 91.8643 235.846 89.9912C235.473 88.118 234.553 86.3975 233.203 85.047C231.853 83.6966 230.132 82.7769 228.259 82.4043C226.386 82.0317 224.444 82.2229 222.68 82.9538C220.915 83.6847 219.407 84.9223 218.346 86.5103C217.285 88.0982 216.719 89.9652 216.719 91.875C216.722 94.4351 217.74 96.8895 219.55 98.6998C221.361 100.51 223.815 101.528 226.375 101.531ZM226.375 88.6563C227.012 88.6563 227.634 88.845 228.163 89.1987C228.693 89.5524 229.105 90.0551 229.349 90.6432C229.592 91.2314 229.656 91.8786 229.532 92.503C229.408 93.1273 229.101 93.7009 228.651 94.151C228.201 94.6012 227.627 94.9077 227.003 95.0319C226.379 95.1561 225.731 95.0924 225.143 94.8487C224.555 94.6051 224.052 94.1926 223.699 93.6632C223.345 93.1339 223.156 92.5116 223.156 91.875C223.157 91.0217 223.497 90.2036 224.1 89.6002C224.704 88.9968 225.522 88.6573 226.375 88.6563ZM237.641 143.375C235.98 143.373 234.348 143.802 232.903 144.619C231.576 142.537 229.502 141.043 227.107 140.444C224.712 139.846 222.179 140.188 220.028 141.4C218.855 139.561 217.094 138.174 215.032 137.464C212.97 136.753 210.728 136.762 208.672 137.489V128.891C208.672 126.33 207.655 123.874 205.844 122.063C204.033 120.252 201.577 119.234 199.016 119.234C196.455 119.234 193.999 120.252 192.188 122.063C190.377 123.874 189.359 126.33 189.359 128.891V148.211C186.577 146.113 183.187 144.981 179.703 144.984C178.423 144.986 177.196 145.495 176.291 146.4C175.386 147.305 174.877 148.533 174.875 149.813V178.781H181.313V151.556C183.561 151.939 185.602 153.105 187.075 154.848C188.547 156.59 189.356 158.797 189.359 161.078V164.297H195.797V128.891C195.797 128.037 196.136 127.218 196.74 126.615C197.343 126.011 198.162 125.672 199.016 125.672C199.869 125.672 200.688 126.011 201.292 126.615C201.895 127.218 202.234 128.037 202.234 128.891V164.297H208.672V146.594C208.672 145.74 209.011 144.921 209.615 144.318C210.218 143.714 211.037 143.375 211.891 143.375C212.744 143.375 213.563 143.714 214.167 144.318C214.77 144.921 215.109 145.74 215.109 146.594V164.297H221.547V149.813C221.547 148.959 221.886 148.14 222.49 147.537C223.093 146.933 223.912 146.594 224.766 146.594C225.619 146.594 226.438 146.933 227.042 147.537C227.645 148.14 227.984 148.959 227.984 149.813V164.297H234.422V153.031C234.422 152.178 234.761 151.359 235.365 150.755C235.968 150.152 236.787 149.813 237.641 149.813C238.494 149.813 239.313 150.152 239.917 150.755C240.52 151.359 240.859 152.178 240.859 153.031V178.781H247.297V153.031C247.294 150.471 246.276 148.017 244.465 146.206C242.655 144.396 240.201 143.378 237.641 143.375Z" fill="#56C271"/>
</svg>
