<svg width="320" height="180" viewBox="0 0 320 180" fill="none" xmlns="http://www.w3.org/2000/svg">
<rect x="0.5" y="0.5" width="319" height="179" rx="5.5" fill="#F9F9F9" stroke="#C3C3C3"/>
<g opacity="0.47">
<path d="M209.917 66.6838V59.3338L202.567 58.5171C202.158 58.5171 199.708 58.1088 195.625 58.1088C178.883 58.1088 166.633 63.0088 159.692 71.5838C154.383 68.3171 147.033 66.2754 138.458 66.2754C134.375 66.2754 131.517 66.6838 131.517 66.6838L123.758 67.9088L124.167 74.8504C124.575 87.1004 130.7 110.375 151.933 110.375H152.75V124.259C137.233 126.3 124.167 131.609 124.167 131.609V139.775H205.833V131.609C205.833 131.609 192.767 126.3 177.25 124.259V111.192C202.975 110.784 209.917 81.7921 209.917 66.6838ZM165 123.442H160.917V100.575C160.917 100.575 160.1 86.6921 148.667 86.6921C148.667 86.6921 154.792 89.9588 156.425 101.8C154.792 102.209 153.158 102.209 151.933 102.209C133.15 102.209 132.333 74.8504 132.333 74.8504C132.333 74.8504 134.783 74.4421 138.458 74.4421C146.217 74.4421 158.875 76.0754 162.55 87.1004C164.592 68.7254 185.417 66.2754 195.625 66.2754C199.3 66.2754 201.75 66.6838 201.75 66.6838C201.75 66.6838 201.75 103.434 176.025 103.434H173.167C173.167 95.2671 181.333 83.0171 181.333 83.0171C169.083 87.1004 169.083 103.025 169.083 103.025V123.442H165Z" fill="#004439"/>
</g>
<path d="M111.275 84.9354C112.668 87.9757 113.457 91.2728 113.597 94.6387C113.736 98.0045 113.224 101.373 112.089 104.552C110.954 107.731 109.219 110.658 106.982 113.166C104.745 115.674 102.05 117.714 99.0516 119.17C96.0531 120.625 92.8097 121.468 89.5063 121.649C86.203 121.83 82.9044 121.346 79.7991 120.226C76.6937 119.105 73.8423 117.369 71.4076 115.117C68.973 112.865 67.0028 110.142 65.6095 107.101C62.7957 100.961 62.5027 93.9048 64.7949 87.4846C67.0872 81.0644 71.777 75.8062 77.8325 72.8669C83.8881 69.9275 90.8134 69.5476 97.085 71.8109C103.357 74.0742 108.461 78.7952 111.275 84.9354Z" stroke="#56C271" stroke-width="4.5" stroke-linecap="round" stroke-linejoin="round"/>
<path d="M93.1063 86.5251L93.5954 86.6995C97.3913 88.0693 99.293 88.7556 100.041 90.3883C100.789 92.021 100.093 93.9651 98.707 97.8535L98.5278 98.3554M86.4472 84.4139L90.4395 107.622M78.3576 93.684L78.1772 94.1833C76.7898 98.0691 76.0973 100.015 76.8455 101.647C77.5938 103.28 79.4892 103.966 83.2889 105.337L83.7791 105.514" stroke="#56C271" stroke-width="4.5" stroke-linecap="round" stroke-linejoin="round"/>
</svg>
