<svg width="320" height="180" viewBox="0 0 320 180" fill="none" xmlns="http://www.w3.org/2000/svg">
<rect x="0.5" y="0.5" width="319" height="179" rx="5.5" fill="#F9F9F9" stroke="#C3C3C3"/>
<path d="M21.811 65.4768C21.811 63.82 23.1542 62.4768 24.811 62.4768L296.811 62.4768C298.468 62.4768 299.811 63.82 299.811 65.4768V113.477C299.811 115.134 298.468 116.477 296.811 116.477L24.811 116.477C23.1542 116.477 21.811 115.134 21.811 113.477L21.811 65.4768Z" fill="white"/>
<path d="M21.811 65.4768C21.811 63.82 23.1542 62.4768 24.811 62.4768L296.811 62.4768C298.468 62.4768 299.811 63.82 299.811 65.4768V113.477C299.811 115.134 298.468 116.477 296.811 116.477L24.811 116.477C23.1542 116.477 21.811 115.134 21.811 113.477L21.811 65.4768Z" stroke="#0C419A" stroke-width="2"/>
<rect x="32.811" y="76.4768" width="224" height="26" fill="#6389C8" fill-opacity="0.6"/>
<path d="M272.221 85.7718L276.811 90.3518L281.401 85.7718L282.811 87.1818L276.811 93.1818L270.811 87.1818L272.221 85.7718Z" fill="#222324"/>
</svg>
