<svg width="483" height="452" viewBox="0 0 483 452" fill="none" xmlns="http://www.w3.org/2000/svg">
<path opacity="0.09" fill-rule="evenodd" clip-rule="evenodd" d="M204.283 6.46339C258.061 16.5465 281.103 82.4802 317.428 127.461C350.143 167.984 400.826 198.258 402.911 252.511C405.039 307.813 368.757 357.419 327.466 388.693C292.065 415.51 246.841 396.774 204.304 402.971C148.484 411.1 84.6247 472.767 43.6783 430.074C2.98978 387.644 59.7775 314.369 60.0139 252.511C60.2503 191.249 14.9191 127.914 45.0754 76.5209C77.3597 21.4093 145.711 -4.47788 204.283 6.46339Z" fill="#0C419A"/>
<path d="M103.993 244.478C103.192 242.419 104.211 240.101 106.27 239.3L196.573 204.165C198.632 203.364 200.95 204.384 201.751 206.443L220.641 254.995C221.442 257.054 220.423 259.372 218.364 260.173L128.061 295.307C126.002 296.108 123.684 295.089 122.883 293.03L103.993 244.478Z" fill="#0C419A" fill-opacity="0.6"/>
<rect x="116.01" y="254.27" width="89.0533" height="7.32426" transform="rotate(-21.2597 116.01 254.27)" fill="white"/>
<rect x="120.183" y="264.996" width="89.0533" height="7.32426" transform="rotate(-21.2597 120.183 264.996)" fill="white"/>
<rect x="125.968" y="278.485" width="41.6145" height="8.83411" rx="2.5" transform="rotate(-21.2597 125.968 278.485)" stroke="white"/>
<rect x="170.126" y="260.768" width="41.5218" height="9.83411" rx="3" transform="rotate(-21.2597 170.126 260.768)" fill="white"/>
<path d="M115.391 244.545L116.002 244.307L116.24 244.918L115.629 245.156L115.391 244.545ZM115.867 245.767L116.478 245.529L117.191 247.362L116.58 247.6L115.867 245.767ZM115.103 242.898C113.416 243.554 112.58 245.455 113.236 247.142C113.892 248.828 115.793 249.664 117.48 249.008C119.166 248.352 120.002 246.451 119.346 244.765C118.69 243.078 116.789 242.242 115.103 242.898ZM117.242 248.397C115.895 248.921 114.371 248.251 113.847 246.904C113.323 245.557 113.993 244.033 115.34 243.509C116.688 242.985 118.211 243.655 118.735 245.002C119.259 246.35 118.589 247.873 117.242 248.397Z" fill="white"/>
<path d="M337.998 237L324.431 233.544C323.356 233.27 322.271 233.922 321.999 234.988L318.544 248.555C318.272 249.621 318.912 250.713 319.988 250.987L333.555 254.442C334.63 254.716 335.715 254.064 335.986 252.998L339.442 239.431C339.714 238.365 339.074 237.274 337.998 237ZM325.821 248.345L322.21 242.265L323.924 241.247L326.519 245.602L335.748 240.121L336.764 241.845L325.821 248.345Z" fill="#0C419A"/>
<g clip-path="url(#clip0_78_135)">
<rect x="165.135" y="290" width="76.1324" height="24" rx="12" transform="rotate(24.978 165.135 290)" fill="#0C419A" fill-opacity="0.9"/>
<rect x="171.715" y="299.701" width="36" height="12" transform="rotate(24.9317 171.715 299.701)" fill="white"/>
<g clip-path="url(#clip1_78_135)">
<path d="M220.379 324.862L219.924 323.613L214.972 325.418L213.168 320.466L211.919 320.921L213.723 325.873L208.772 327.677L209.227 328.926L214.179 327.122L215.983 332.074L217.232 331.618L215.428 326.667L220.379 324.862Z" fill="white"/>
</g>
</g>
<g clip-path="url(#clip2_78_135)">
<path d="M10.4462 95.6906C10.7437 93.5016 12.7594 91.9682 14.9484 92.2656L428.151 148.417C430.34 148.715 431.873 150.731 431.576 152.92L422.554 219.309C422.256 221.498 420.24 223.032 418.051 222.734L4.8492 166.583C2.66018 166.285 1.12678 164.269 1.42426 162.08L10.4462 95.6906Z" fill="#0C419A" fill-opacity="0.25"/>
<rect x="10.9849" y="91.727" width="4" height="75" transform="rotate(7.73875 10.9849 91.727)" fill="#0C419A"/>
<path d="M21.7899 131.04C23.8722 115.717 37.9822 104.983 53.3053 107.065V107.065C68.6284 109.148 79.3622 123.258 77.2799 138.581V138.581C75.1976 153.904 61.0877 164.638 45.7645 162.555V162.555C30.4414 160.473 19.7076 146.363 21.7899 131.04V131.04Z" fill="#C7D4EA" fill-opacity="0.7"/>
<g clip-path="url(#clip3_78_135)">
<path d="M54.6781 131.049L47.2608 136.691L44.1855 132.661L42.5985 133.868L46.8797 139.496L55.8841 132.646L54.6781 131.049ZM50.8813 124.901C45.4116 124.158 40.3692 127.994 39.6258 133.464C38.8825 138.934 42.7185 143.976 48.1882 144.719C53.6579 145.463 58.7004 141.627 59.4437 136.157C60.187 130.687 56.3511 125.645 50.8813 124.901ZM48.4575 142.738C44.0778 142.142 41.0125 138.113 41.6076 133.733C42.2028 129.353 46.2323 126.288 50.612 126.883C54.9918 127.478 58.0571 131.508 57.4619 135.888C56.8667 140.267 52.8373 143.333 48.4575 142.738Z" fill="#0C419A"/>
</g>
<rect x="97.2734" y="110.767" width="194.131" height="17.4294" transform="rotate(7.95702 97.2734 110.767)" fill="#0C419A" fill-opacity="0.3"/>
<rect x="94.4231" y="131.743" width="194.131" height="17.4294" transform="rotate(7.95702 94.4231 131.743)" fill="#0C419A" fill-opacity="0.3"/>
<rect x="91.5725" y="152.719" width="194.131" height="17.4294" transform="rotate(7.95702 91.5725 152.719)" fill="#0C419A" fill-opacity="0.3"/>
<g clip-path="url(#clip4_78_135)">
<path d="M327.091 168.768L326.286 167.71L322.091 170.901L318.9 166.706L317.842 167.511L321.033 171.705L316.839 174.896L317.643 175.954L321.838 172.763L325.029 176.958L326.087 176.153L322.896 171.959L327.091 168.768Z" fill="#0C419A"/>
<rect x="339.073" y="165.251" width="58" height="17.4294" transform="rotate(7.95702 339.073 165.251)" fill="#0C419A" fill-opacity="0.7"/>
</g>
</g>
<path d="M369.164 370.482L335.452 314.803L324.976 297.47L329.965 290.048C329.965 290.048 381.163 288.812 384.909 290.048L439.838 376.698L433.605 384.12H377.417L369.164 370.482Z" fill="white"/>
<path d="M369.164 370.482L377.402 384.135H376.78L295.211 371.75L369.164 370.482Z" fill="#0C419A"/>
<path d="M295.211 371.75H295.009V314.803H335.467L369.164 370.482L295.211 371.75ZM295.009 314.803V371.75L265.042 356.906V302.434L295.009 314.803Z" fill="white"/>
<path d="M307.49 302.434H265.042M265.042 302.434L295.009 314.803M265.042 302.434V356.906L295.009 371.75M295.009 314.803H335.576M295.009 314.803V371.75M369.211 370.482H369.164L295.211 371.75H295.009M329.965 290.048L383.65 376.698H424.87" stroke="#0C419A" stroke-width="2" stroke-miterlimit="10" stroke-linecap="round" stroke-linejoin="round"/>
<path d="M295.025 371.704L295.211 371.75L376.796 384.12H433.605L439.837 376.698L384.925 290.064C381.179 288.827 329.981 290.064 329.981 290.064L324.976 297.486L335.467 314.819L369.18 370.513L377.417 384.151" stroke="#0C419A" stroke-width="2" stroke-miterlimit="10" stroke-linecap="round" stroke-linejoin="round"/>
<path d="M289.22 251.726L290.662 261.314" stroke="#0C419A" stroke-width="2" stroke-linecap="round" stroke-linejoin="round"/>
<path d="M276.334 255.653L283.787 264.081" stroke="#0C419A" stroke-width="2" stroke-linecap="round" stroke-linejoin="round"/>
<path d="M272.425 266.824L278.566 269.879" stroke="#0C419A" stroke-width="2.01246" stroke-linecap="round" stroke-linejoin="round"/>
<path d="M150.982 28.7037C150.639 26.5213 152.13 24.4742 154.312 24.1313L300.935 1.09681C303.117 0.753962 305.164 2.24519 305.507 4.42756L317.202 78.8694C317.545 81.0517 316.054 83.0988 313.871 83.4417L167.249 106.476C165.066 106.819 163.019 105.328 162.676 103.145L150.982 28.7037Z" fill="#0C419A" fill-opacity="0.3"/>
<rect x="160.24" y="33.5992" width="139.98" height="15.8645" transform="rotate(-8.92824 160.24 33.5992)" fill="white" fill-opacity="0.68"/>
<rect width="67.0981" height="8.44323" transform="matrix(0.988382 -0.151989 0.15847 0.987364 164 56.561)" fill="white" fill-opacity="0.68"/>
<rect width="67.7457" height="8.44323" transform="matrix(0.988382 -0.151989 0.15847 0.987364 235.703 45.2966)" fill="white" fill-opacity="0.68"/>
<rect width="67.0981" height="8.44323" transform="matrix(0.988382 -0.151989 0.15847 0.987364 166 71.561)" fill="white" fill-opacity="0.68"/>
<rect width="67.7457" height="8.44323" transform="matrix(0.988382 -0.151989 0.15847 0.987364 237.703 60.2966)" fill="white" fill-opacity="0.68"/>
<rect width="67.0981" height="8.44323" transform="matrix(0.988382 -0.151989 0.15847 0.987364 168 86.561)" fill="white" fill-opacity="0.68"/>
<rect width="67.7457" height="8.44323" transform="matrix(0.988382 -0.151989 0.15847 0.987364 239.703 75.2966)" fill="white" fill-opacity="0.68"/>
<defs>
<clipPath id="clip0_78_135">
<rect x="165.135" y="290" width="76.1324" height="24" rx="12" transform="rotate(24.978 165.135 290)" fill="white"/>
</clipPath>
<clipPath id="clip1_78_135">
<rect width="16" height="16" fill="white" transform="translate(210.702 315.64) rotate(24.978)"/>
</clipPath>
<clipPath id="clip2_78_135">
<path d="M10.4462 95.6906C10.7437 93.5016 12.7594 91.9682 14.9484 92.2656L428.151 148.417C430.34 148.715 431.873 150.731 431.576 152.92L422.554 219.309C422.256 221.498 420.24 223.032 418.051 222.734L4.8492 166.583C2.66018 166.285 1.12678 164.269 1.42426 162.08L10.4462 95.6906Z" fill="white"/>
</clipPath>
<clipPath id="clip3_78_135">
<rect width="24" height="24" fill="white" transform="translate(39.26 121.304) rotate(7.73875)"/>
</clipPath>
<clipPath id="clip4_78_135">
<path d="M299.53 158.691C299.827 156.502 301.843 154.969 304.032 155.266L409.132 169.549C411.321 169.846 412.854 171.862 412.557 174.051L409.864 193.869C409.566 196.058 407.551 197.591 405.362 197.294L300.262 183.011C298.073 182.714 296.539 180.698 296.837 178.509L299.53 158.691Z" fill="white"/>
</clipPath>
</defs>
</svg>
