<svg width="462" height="441" viewBox="0 0 462 441" fill="none" xmlns="http://www.w3.org/2000/svg">
<path opacity="0.09" fill-rule="evenodd" clip-rule="evenodd" d="M223.283 2.4634C277.061 12.5465 300.103 78.4802 336.428 123.461C369.143 163.984 419.826 194.258 421.911 248.511C424.039 303.813 387.757 353.419 346.466 384.693C311.065 411.51 265.841 392.774 223.304 398.971C167.484 407.1 103.625 468.767 62.6783 426.074C21.9898 383.644 78.7775 310.369 79.0139 248.511C79.2503 187.249 33.9191 123.914 64.0754 72.521C96.3597 17.4093 164.711 -8.47788 223.283 2.4634Z" fill="#0C419A"/>
<path d="M282.992 243.478C282.191 241.419 283.211 239.101 285.27 238.3L375.573 203.165C377.632 202.364 379.95 203.384 380.751 205.443L399.641 253.995C400.442 256.054 399.423 258.372 397.364 259.173L307.061 294.307C305.002 295.108 302.684 294.089 301.883 292.03L282.992 243.478Z" fill="#0C419A" fill-opacity="0.6"/>
<rect x="295.01" y="253.27" width="89.0533" height="7.32426" transform="rotate(-21.2597 295.01 253.27)" fill="white"/>
<rect x="299.183" y="263.996" width="89.0533" height="7.32426" transform="rotate(-21.2597 299.183 263.996)" fill="white"/>
<rect x="304.968" y="277.485" width="41.6145" height="8.83411" rx="2.5" transform="rotate(-21.2597 304.968 277.485)" stroke="white"/>
<rect x="349.126" y="259.768" width="41.5218" height="9.83411" rx="3" transform="rotate(-21.2597 349.126 259.768)" fill="white"/>
<path d="M294.391 243.545L295.002 243.307L295.24 243.918L294.629 244.156L294.391 243.545ZM294.867 244.767L295.478 244.529L296.191 246.362L295.58 246.6L294.867 244.767ZM294.103 241.898C292.416 242.554 291.58 244.455 292.236 246.142C292.892 247.828 294.793 248.664 296.48 248.008C298.166 247.352 299.002 245.451 298.346 243.765C297.69 242.078 295.789 241.242 294.103 241.898ZM296.242 247.397C294.895 247.921 293.371 247.251 292.847 245.904C292.323 244.557 292.993 243.033 294.34 242.509C295.688 241.985 297.211 242.655 297.735 244.002C298.259 245.35 297.589 246.873 296.242 247.397Z" fill="white"/>
<path d="M181.591 95.088L169.723 102.514C168.782 103.103 168.505 104.338 169.088 105.27L176.514 117.138C177.097 118.071 178.329 118.362 179.27 117.773L191.139 110.347C192.08 109.759 192.357 108.523 191.773 107.591L184.347 95.7227C183.764 94.7901 182.532 94.4993 181.591 95.088ZM181.387 111.73L174.496 110.143L174.944 108.2L179.886 109.331L182.295 98.8708L184.243 99.3267L181.387 111.73Z" fill="#0C419A"/>
<g clip-path="url(#clip0_24_1138)">
<rect x="191.575" y="223.287" width="76.1324" height="24" rx="12" transform="rotate(24.978 191.575 223.287)" fill="#0C419A" fill-opacity="0.9"/>
<rect x="198.155" y="232.988" width="36" height="12" transform="rotate(24.9317 198.155 232.988)" fill="white"/>
<g clip-path="url(#clip1_24_1138)">
<path d="M246.82 258.15L246.364 256.9L241.413 258.705L239.608 253.753L238.359 254.208L240.164 259.16L235.212 260.965L235.667 262.214L240.619 260.409L242.423 265.361L243.672 264.906L241.868 259.954L246.82 258.15Z" fill="white"/>
</g>
</g>
<g clip-path="url(#clip2_24_1138)">
<path d="M30.3902 166.012C30.0207 163.834 31.4868 161.769 33.6649 161.399L444.791 91.6572C446.969 91.2877 449.035 92.7538 449.404 94.9319L460.61 160.988C460.979 163.166 459.513 165.231 457.335 165.601L46.2084 235.343C44.0303 235.712 41.9652 234.246 41.5957 232.068L30.3902 166.012Z" fill="#0C419A" fill-opacity="0.25"/>
<rect x="29.7212" y="162.068" width="4" height="75" transform="rotate(-9.62779 29.7212 162.068)" fill="#0C419A"/>
<path d="M51.7678 196.364C49.1815 181.118 59.4443 166.662 74.6905 164.075C89.9366 161.489 104.393 171.752 106.979 186.998C109.565 202.244 99.3025 216.7 84.0563 219.287C68.8101 221.873 54.3541 211.61 51.7678 196.364Z" fill="#C7D4EA" fill-opacity="0.7"/>
<g clip-path="url(#clip3_24_1138)">
<path d="M83.1594 186.556L77.7644 194.155L73.6262 191.226L72.4719 192.852L78.2377 196.945L84.787 187.72L83.1594 186.556ZM77.7008 181.822C72.2586 182.745 68.5909 187.911 69.5141 193.354C70.4373 198.796 75.6035 202.463 81.0458 201.54C86.488 200.617 90.1556 195.451 89.2324 190.009C88.3092 184.566 83.1431 180.899 77.7008 181.822ZM80.7113 199.568C76.3535 200.308 72.2252 197.377 71.486 193.019C70.7467 188.661 73.6776 184.533 78.0353 183.794C82.3931 183.055 86.5214 185.985 87.2606 190.343C87.9998 194.701 85.069 198.829 80.7113 199.568Z" fill="#0C419A"/>
</g>
<rect x="117.759" y="154.484" width="194.131" height="17.4294" transform="rotate(-9.40952 117.759 154.484)" fill="#0C419A" fill-opacity="0.3"/>
<rect x="121.3" y="175.355" width="194.131" height="17.4294" transform="rotate(-9.40952 121.3 175.355)" fill="#0C419A" fill-opacity="0.3"/>
<rect x="124.84" y="196.225" width="194.131" height="17.4294" transform="rotate(-9.40952 124.84 196.225)" fill="#0C419A" fill-opacity="0.3"/>
<g clip-path="url(#clip4_24_1138)">
<path d="M354.412 141.245L353.328 140.475L350.278 144.772L345.98 141.722L345.211 142.806L349.508 145.856L346.457 150.154L347.541 150.923L350.592 146.626L354.889 149.677L355.659 148.593L351.362 145.542L354.412 141.245Z" fill="#0C419A"/>
<rect x="364.799" y="134.311" width="58" height="17.4294" transform="rotate(-9.40952 364.799 134.311)" fill="#0C419A" fill-opacity="0.7"/>
</g>
</g>
<path d="M158.164 356.482L124.452 300.803L113.976 283.47L118.965 276.048C118.965 276.048 170.163 274.812 173.909 276.048L228.838 362.698L222.605 370.12H166.417L158.164 356.482Z" fill="white"/>
<path d="M158.164 356.482L166.402 370.135H165.78L84.2112 357.75L158.164 356.482Z" fill="#0C419A"/>
<path d="M84.2112 357.75H84.0091V300.803H124.467L158.164 356.482L84.2112 357.75ZM84.0091 300.803V357.75L54.0425 342.906V288.434L84.0091 300.803Z" fill="white"/>
<path d="M96.49 288.434H54.0425M54.0425 288.434L84.0091 300.803M54.0425 288.434V342.906L84.0091 357.75M84.0091 300.803H124.576M84.0091 300.803V357.75M158.211 356.482H158.164L84.2112 357.75H84.0091M118.965 276.048L172.65 362.698H213.87" stroke="#0C419A" stroke-width="2" stroke-miterlimit="10" stroke-linecap="round" stroke-linejoin="round"/>
<path d="M84.0248 357.704L84.2113 357.75L165.796 370.12H222.605L228.838 362.698L173.925 276.064C170.179 274.827 118.981 276.064 118.981 276.064L113.976 283.486L124.467 300.819L158.18 356.513L166.417 370.151" stroke="#0C419A" stroke-width="2" stroke-miterlimit="10" stroke-linecap="round" stroke-linejoin="round"/>
<path d="M78.22 237.726L79.6621 247.314" stroke="#0C419A" stroke-width="2" stroke-linecap="round" stroke-linejoin="round"/>
<path d="M65.334 241.653L72.7874 250.081" stroke="#0C419A" stroke-width="2" stroke-linecap="round" stroke-linejoin="round"/>
<path d="M61.4254 252.824L67.5664 255.879" stroke="#0C419A" stroke-width="2.01246" stroke-linecap="round" stroke-linejoin="round"/>
<path d="M146 88C146 99.0457 137.046 108 126 108C114.954 108 106 99.0457 106 88C106 76.9543 114.954 68 126 68C137.046 68 146 76.9543 146 88ZM110 88C110 96.8366 117.163 104 126 104C134.837 104 142 96.8366 142 88C142 79.1634 134.837 72 126 72C117.163 72 110 79.1634 110 88Z" fill="white"/>
<path d="M116 70.6795C118.733 69.1014 121.801 68.1926 124.953 68.0274C128.105 67.8622 131.251 68.4453 134.135 69.7291C137.018 71.0128 139.557 72.9608 141.543 75.4136C143.529 77.8664 144.907 80.7545 145.563 83.8418L141.65 84.6734C141.125 82.2036 140.023 79.8931 138.434 77.9309C136.845 75.9686 134.814 74.4103 132.508 73.3833C130.201 72.3563 127.684 71.8898 125.163 72.0219C122.641 72.1541 120.187 72.8811 118 74.1436L116 70.6795Z" fill="#0C419A"/>
<defs>
<clipPath id="clip0_24_1138">
<rect x="191.575" y="223.287" width="76.1324" height="24" rx="12" transform="rotate(24.978 191.575 223.287)" fill="white"/>
</clipPath>
<clipPath id="clip1_24_1138">
<rect width="16" height="16" fill="white" transform="translate(237.142 248.927) rotate(24.978)"/>
</clipPath>
<clipPath id="clip2_24_1138">
<path d="M30.3902 166.012C30.0207 163.834 31.4868 161.769 33.6649 161.399L444.791 91.6572C446.969 91.2877 449.035 92.7538 449.404 94.9319L460.61 160.988C460.979 163.166 459.513 165.231 457.335 165.601L46.2084 235.343C44.0303 235.712 41.9652 234.246 41.5957 232.068L30.3902 166.012Z" fill="white"/>
</clipPath>
<clipPath id="clip3_24_1138">
<rect width="24" height="24" fill="white" transform="translate(65.5354 181.857) rotate(-9.62779)"/>
</clipPath>
<clipPath id="clip4_24_1138">
<path d="M325.1 139.854C324.731 137.676 326.197 135.611 328.375 135.241L432.947 117.502C435.125 117.133 437.19 118.599 437.56 120.777L440.905 140.495C441.274 142.673 439.808 144.738 437.63 145.108L333.058 162.847C330.88 163.216 328.815 161.75 328.445 159.572L325.1 139.854Z" fill="white"/>
</clipPath>
</defs>
</svg>
