<?xml version="1.0" encoding="utf-8"?>
<!-- Generator: Adobe Illustrator 27.2.0, SVG Export Plug-In . SVG Version: 6.00 Build 0)  -->
<svg version="1.1" id="picto_TDRA" xmlns="http://www.w3.org/2000/svg" xmlns:xlink="http://www.w3.org/1999/xlink" x="0px" y="0px"
	 viewBox="0 0 86.3 86.5" style="enable-background:new 0 0 86.3 86.5;" xml:space="preserve">
<style type="text/css">
	.st0{fill-rule:evenodd;clip-rule:evenodd;fill:#E6F6FC;}
	.st1{clip-path:url(#SVGID_00000030476531231680254520000000920859286277134490_);}
	.st2{fill:#00749C;}
	.st3{fill:#00749C;stroke:#FFFFFF;}
	.st4{fill:#00749C;stroke:#E3F7FD;}
</style>
<path id="Tracé_18048" class="st0" d="M82.3,45.8c6.9,7.3,4.8,22.4-5.9,27.6c-0.3,0.1-0.6,0.3-0.8,0.4c-18.2,8.4-22.2-7.6-38.5,5.7
	C15.9,96.8-8.2,79.1,2.7,58.3c8.9-17-2.8-31.9,4.7-45.9C14.9-1.5,40.1-7,49.7,14.7C61.1,40.5,74,37.1,82.3,45.8"/>
<g id="Groupe_4735" transform="translate(36 14)">
	<g>
		<defs>
			<rect id="SVGID_1_" x="-24" y="-1.9" width="62" height="62"/>
		</defs>
		<clipPath id="SVGID_00000099639888618138354240000010812823545081125296_">
			<use xlink:href="#SVGID_1_"  style="overflow:visible;"/>
		</clipPath>
		
			<g id="Groupe_de_masques_4734" transform="translate(0 0.001)" style="clip-path:url(#SVGID_00000099639888618138354240000010812823545081125296_);">
			<path id="Tracé_18074" class="st2" d="M-2,34.6c-0.4,0-0.7-0.1-1-0.3c-3.8-2.3-5.6-6.9-4.4-11.2c0.5-1.8,1.8-3.3,3.6-4
				c2.9-1,6,1,6.3,1.2c0.8,0.6,1,1.7,0.4,2.5c-0.6,0.8-1.7,1-2.5,0.5C0,23-1.6,22.2-2.6,22.5c-0.7,0.3-1.1,1-1.3,1.7
				c-0.1,0.4-1.2,4.3,2.9,7c0.8,0.6,1.1,1.7,0.5,2.5C-0.8,34.3-1.4,34.6-2,34.6"/>
			<path id="Tracé_18075" class="st3" d="M-16.6,52.8c-0.3,0-0.6-0.1-0.9-0.2c-0.9-0.5-1.2-1.6-0.7-2.5c0,0,0,0,0,0
				c0-0.1,3.1-5.5,1.8-10.9c-7.6-7.9-7.6-15.8-7.6-21c0-4.7,1.4-20.1,20.1-20.1h21.9c3.4,0,4.6,2.2,4.6,4.1c0,3-3,6.9-6.4,6.9
				C12.4,9,5,10.7,3.5,16.8c-0.3,1-1.3,1.5-2.2,1.3c-0.9-0.3-1.5-1.2-1.3-2.2C2,7.6,11.4,5.4,16.1,5.4c1.1-0.3,2-1,2.4-2
				C18.8,3,19,2.4,18.9,1.9c-0.3-0.2-0.6-0.2-0.9-0.2H-3.9c-14.3,0-16.4,10.3-16.4,16.4c0,5,0,11.8,6.9,18.8
				c0.2,0.2,0.4,0.5,0.5,0.8c2,7-1.8,13.9-2,14.2C-15.3,52.5-15.9,52.8-16.6,52.8"/>
			<path id="Tracé_18076" class="st4" d="M1.5,60.1c-1,0-1.8-0.8-1.8-1.8c0-0.2,0-0.4,0.1-0.6c1.3-3.6,3.3-7,5.9-9.8
				c0.7-0.7,1.9-0.7,2.6,0.1c0.7,0.7,0.7,1.8,0,2.5c-2.2,2.4-3.9,5.3-5,8.4C3,59.6,2.3,60.1,1.5,60.1"/>
			<path id="Tracé_18077" class="st2" d="M-14.7,40c-1,0-1.8-0.8-1.8-1.8c0-0.6,0.3-1.2,0.8-1.5l5.5-3.7c0.8-0.6,2-0.3,2.5,0.5
				c0.6,0.8,0.3,2-0.5,2.5l0,0l-5.5,3.7C-14,39.9-14.4,40-14.7,40"/>
			<path id="Tracé_18078" class="st3" d="M15,52c-1.6,0-3.3-0.4-4.7-1l-8.1-4c-2.4-1.2-4.3-3.8-4.3-6v-2.7c0-1,0.8-1.8,1.8-1.8
				c1,0,1.8,0.8,1.8,1.8V41c0.3,1.2,1.1,2.2,2.3,2.7l8.1,4c1.4,0.7,3,0.8,4.5,0.4l1.4-4.1c-0.9-1.1-1.5-2.6-1.6-4
				c0-2.1,2.2-3.8,3.6-4.7v-2.6c0-0.7,0.4-1.3,1-1.6l1.7-0.9l-4.2-5.5c-0.3-0.4-0.4-1-0.3-1.5c0-0.1,1.8-7.1,1.8-10.5
				c0-2.4-2.6-3.8-2.6-3.8c-0.9-0.5-1.3-1.6-0.8-2.4c0.5-0.9,1.6-1.3,2.5-0.8c0.2,0.1,4.7,2.4,4.7,7.1c-0.2,3.6-0.8,7.1-1.7,10.5
				l5,6.6c0.6,0.8,0.4,2-0.4,2.6c-0.1,0.1-0.2,0.1-0.3,0.2l-2.6,1.3v2.5c0,0.7-0.4,1.3-1,1.6c-1,0.5-2,1.2-2.7,2.1
				c0.2,0.9,0.7,1.7,1.3,2.3c0.5,0.5,0.6,1.2,0.4,1.9l-1.8,5.5c-0.1,0.2-0.2,0.4-0.3,0.5C18.3,51.5,16.6,52.2,15,52"/>
			<path id="Tracé_18079" class="st4" d="M36.2,43.7c-0.1,0-0.3,0-0.4-0.1l-7.3-1.8c-1-0.2-1.6-1.2-1.3-2.2c0.2-1,1.2-1.6,2.2-1.3
				l7.3,1.8c1,0.2,1.6,1.2,1.3,2.2C37.7,43.1,37,43.7,36.2,43.7"/>
			<path id="Tracé_18080" class="st4" d="M32.5,51c-0.4,0-0.7-0.1-1-0.3L26.1,47c-0.8-0.6-1.1-1.7-0.5-2.5c0.6-0.8,1.7-1.1,2.5-0.5
				l5.5,3.6c0.8,0.6,1.1,1.7,0.5,2.5C33.7,50.7,33.1,51,32.5,51"/>
		</g>
	</g>
</g>
</svg>
