<svg xmlns="http://www.w3.org/2000/svg" width="84.682" height="102.425" viewBox="0 0 84.682 102.425">
  <g id="Groupe_4376" data-name="Groupe 4376" transform="translate(-7863.659 -9189.076)">
    <g id="iStock-1298834280_Converted_" data-name="iStock-1298834280 [Converted]" transform="translate(7853.287 9186.161)">
      <path id="Tracé_17857" data-name="Tracé 17857" d="M229.161,50.464a5.3,5.3,0,0,0-3.817-1.624h-47.5A11.844,11.844,0,0,0,166,60.683v78.739a11.778,11.778,0,0,0,2.266,6.947l69.9-86.548Z" transform="translate(-155.628 -45.925)" fill="#b33f2e"/>
      <path id="Tracé_17858" data-name="Tracé 17858" d="M281.267,281.26l-67.137,87.3a11.815,11.815,0,0,0,9.579,4.9h61a11.844,11.844,0,0,0,11.843-11.843V297.149a5.3,5.3,0,0,0-1.481-3.674c-.95-.987-18.547-12.216-18.547-12.216" transform="translate(-201.494 -268.117)" fill="#b33f2e"/>
      <path id="Tracé_17859" data-name="Tracé 17859" d="M1433.878,72.861,1416.609,55.1c-.674-.716-2.706-3.834-3.729-4.133l-1.75,27.706,26.027-2.483C1436.926,75.18,1434.532,73.553,1433.878,72.861Z" transform="translate(-1342.181 -47.955)" fill="#830000"/>
      <path id="Tracé_17860" data-name="Tracé 17860" d="M1471.212,73.344l-20.041-20.821A5.29,5.29,0,0,0,1448.34,51V76.222h24.275A5.279,5.279,0,0,0,1471.212,73.344Z" transform="translate(-1377.64 -47.984)" fill="#ea605b"/>
      <rect id="Rectangle_2010" data-name="Rectangle 2010" width="41.843" height="3.962" transform="translate(31.385 41.906)" fill="#fff"/>
      <rect id="Rectangle_2011" data-name="Rectangle 2011" width="41.843" height="3.962" transform="translate(31.385 55.83)" fill="#fff"/>
      <path id="Tracé_17861" data-name="Tracé 17861" d="M583.961,1584.817H579.73v-18.363a38.748,38.748,0,0,1,5.573-.38c5.4,0,8.1,2,8.1,6.028,0,4.356-2.559,6.636-7.422,6.636a19.656,19.656,0,0,1-2.025-.1Zm0-9.371a11.321,11.321,0,0,0,1.6.127c2.432,0,3.824-1.191,3.824-3.217,0-2-1.267-3.015-3.824-3.015a8.088,8.088,0,0,0-1.6.153Z" transform="translate(-549.894 -1491.78)" fill="#fff"/>
      <path id="Tracé_17862" data-name="Tracé 17862" d="M930.738,1585.072a35.475,35.475,0,0,1-5.318-.38v-18.237a35.442,35.442,0,0,1,5.318-.38c6.054,0,9.448,3.344,9.448,9.245C940.186,1581.728,936.792,1585.072,930.738,1585.072Zm.329-15.629a6.668,6.668,0,0,0-1.444.152v11.954a6.615,6.615,0,0,0,1.444.152c3.419,0,5.014-1.849,5.014-6.383,0-4.051-1.646-5.875-5.014-5.875Z" transform="translate(-879.321 -1491.781)" fill="#fff"/>
      <path id="Tracé_17863" data-name="Tracé 17863" d="M1301.226,1589.979h-4.306V1571.49h11.573v3.47h-7.267v4.2h6.763v3.242h-6.763Z" transform="translate(-1233.343 -1496.942)" fill="#fff"/>
    </g>
  </g>
</svg>
