<?xml version="1.0" encoding="utf-8"?>
<!-- Generator: Adobe Illustrator 28.1.0, SVG Export Plug-In . SVG Version: 6.00 Build 0)  -->
<svg version="1.1" id="accueil_amelipro" xmlns="http://www.w3.org/2000/svg" xmlns:xlink="http://www.w3.org/1999/xlink" x="0px"
	 y="0px" viewBox="0 0 118.6 40" style="enable-background:new 0 0 118.6 40;" xml:space="preserve">
<style type="text/css">
	.st0{fill-rule:evenodd;clip-rule:evenodd;fill:#00749C;}
	.st1{opacity:0.997;}
	.st2{fill-rule:evenodd;clip-rule:evenodd;fill:#FFFFFF;}
	.st3{fill:#FFFFFF;}
</style>
<g id="btn_home">
	<path id="Path_393" class="st0" d="M0,40h40V0H0V40z"/>
	<g id="picto" transform="translate(10 9)" class="st1">
		<path id="Path_403" class="st2" d="M2,13.1v8.5C2,21.8,2.1,22,2.5,22h9v-7.7h4.3V22h2.6c0.3,0,0.5-0.2,0.5-0.3v-8.5l-8.4-8.4
			L2,13.1z M8.8,17.9H5v-3.6h3.8V17.9z"/>
		<path id="Path_404" class="st2" d="M20.6,10.1L10.5,0L5.7,4.8V2.6c0-0.5-0.5-0.9-1-0.9c-0.5,0-0.8,0.4-0.9,0.9v3.9l-3.6,3.6
			c-0.3,0.5-0.3,1.1,0,1.5c0.3,0.2,0.5,0.3,0.9,0.3s0.5-0.2,0.9-0.3l8.5-8.5l8.4,8.5c0.4,0.5,1.1,0.5,1.6,0.1c0,0,0.1-0.1,0.1-0.1
			C20.9,11.1,20.9,10.5,20.6,10.1L20.6,10.1z"/>
	</g>
</g>
<g id="logo_amelipro_blanc" transform="translate(50.369 9)">
	<g id="Group_60" transform="translate(38.852)">
		<path id="Path_394" class="st2" d="M1.6,0C0.7,0,0,0.7,0,1.6s0.7,1.6,1.6,1.6c0.9,0,1.6-0.7,1.6-1.6c0,0,0,0,0,0
			C3.2,0.7,2.5,0,1.6,0C1.6,0,1.6,0,1.6,0z"/>
	</g>
	<path id="Path_395" class="st2" d="M39,17.5h2.8V4.4H39V17.5z"/>
	<g id="Group_61" transform="translate(33.639 0.197)">
		<path id="Path_396" class="st2" d="M2.7,13.8V0H0v13.7c-0.2,1.9,1.3,3.6,3.2,3.7c0.2,0,0.4,0,0.6,0c0.5,0,0.6-0.1,0.6-0.1v-2.2
			l-0.6,0.1C3.1,15.2,2.7,14.7,2.7,13.8L2.7,13.8z"/>
	</g>
	<path id="Path_397" class="st3" d="M60.2,13.8V8.4c0-2.2,1.8-4,4-4c1.1,0,2.1,0.4,2.8,1.2c0.8,0.7,1.2,1.7,1.2,2.8v5.4
		c0,1-0.4,2.1-1.2,2.8c-0.8,0.8-1.8,1.2-2.9,1.2c-1.1,0-2.1-0.3-2.9-1.1C60.6,15.8,60.2,14.8,60.2,13.8z M62.9,13.7
		c0,0.3,0.2,0.6,0.4,0.9c0.6,0.5,1.4,0.5,2,0c0.2-0.2,0.4-0.5,0.4-0.9V8.4c0-0.4-0.2-0.7-0.4-1c-0.6-0.4-1.4-0.4-2,0
		c-0.2,0.3-0.4,0.6-0.4,1V13.7L62.9,13.7z"/>
	<path id="Path_398" class="st3" d="M51.2,13.1c0,0.7,0.3,4.5-4.3,4.5h-1.1v5.3h-2.7V4.4H47c4.5,0,4.2,3.8,4.2,4.5L51.2,13.1z
		 M45.8,15h1.4c0.2,0,0.5,0,0.7-0.1c0.2-0.1,0.4-0.2,0.5-0.4c0-0.2,0.1-0.3,0.2-0.4V8.3c0-0.3-0.1-0.5-0.3-0.8
		c-0.1-0.1-0.2-0.2-0.4-0.3c-0.2-0.1-0.5-0.1-0.7-0.1h-1.4L45.8,15L45.8,15z"/>
	<path id="Path_399" class="st3" d="M54.6,5.5V4.4h-2.5v13.2h2.5V8.5C54.6,7.7,55,7,55.9,7c0.7,0,1.2,0.5,1.3,1.2c0,0,0,0,0,0v0.2
		h2.6C59.7,4.4,56,3.3,54.6,5.5z"/>
	<path id="Path_400" class="st2" d="M28.5,4.1c-3.7,0-3.9,3-3.9,4.8v4.2c0,1.5,0.7,4.3,4,4.3c3.4,0,4-3,4-4.4h-2.6v0.5
		c0,0.4-0.2,0.9-0.5,1.2c-0.6,0.5-1.4,0.5-2,0c-0.3-0.3-0.5-0.7-0.5-1.2v-0.5l0,0v-1.8h5.5V9C32.7,7.2,32.4,4.1,28.5,4.1z M27.1,7.9
		c0-0.4,0.2-0.9,0.5-1.2c0.3-0.2,0.6-0.4,1-0.4c0.4,0,0.7,0.1,1,0.4c0.3,0.3,0.5,0.7,0.5,1.2V9h-3L27.1,7.9L27.1,7.9z"/>
	<path id="Path_401" class="st2" d="M19.2,4.4c-1,0-1.9,0.3-2.7,0.9c-0.9-0.7-2-1-3-0.9c-2.2,0-3.9,1.3-3.9,4.5v8.5h2.7V8.3
		c-0.1-0.4,0.1-0.9,0.4-1.2c0.3-0.3,0.7-0.4,1.1-0.4c0.4,0,0.7,0.1,1,0.4C15,7.4,15.1,7.8,15,8.3v9.1h2.8V8.3c0-0.4,0.2-0.9,0.5-1.2
		c0.3-0.3,0.6-0.4,1-0.4c0.4,0,0.8,0.1,1.1,0.4c0.3,0.3,0.4,0.7,0.4,1.2v9.1h2.8V8.4C23.5,5.4,21.4,4.4,19.2,4.4L19.2,4.4z"/>
	<path id="Path_402" class="st2" d="M8.4,8.2c0-1.2-0.3-3.7-3.9-3.7c-2.1-0.2-3.9,1.4-4,3.5c0,0.2,0,0.4,0,0.5h2.5V8.2
		C2.8,7.7,2.9,7.3,3.2,7c0.3-0.3,0.7-0.4,1.1-0.4c0.4,0,0.7,0.1,1,0.4c0.3,0.3,0.5,0.7,0.4,1.1v1.1c-1.2,0.3-2.4,0.7-3.4,1.3
		c-1.5,0.8-2.4,2.4-2.3,4.1c-0.1,1.7,1.3,3.1,3,3.2c1.1,0,2.2-0.4,2.8-1.3c0,0.8,0.2,0.9,0.2,0.9h2.6c-0.2-0.6-0.2-1.2-0.2-1.9
		L8.4,8.2L8.4,8.2z M5.6,14.4c0,0-0.8,1.2-1.6,1.2c-0.8,0-1.4-0.6-1.5-1.4c0-0.1,0-0.1,0-0.2c0-1,0.5-1.8,1.9-2.3
		c0.4-0.2,0.8-0.3,1.2-0.4L5.6,14.4L5.6,14.4z"/>
</g>
</svg>
