<svg id="Calque_1" data-name="Calque 1" xmlns="http://www.w3.org/2000/svg" viewBox="0 0 531.04 155.71"><defs><style>.cls-1,.cls-2{fill:#114495;}.cls-2{fill-rule:evenodd;}</style></defs><path class="cls-1" d="M276.65,124.45v-40h10.51v40.44c0,2.31,1,3,1.9,3a4.65,4.65,0,0,0,1.29-.15l1.26,7.93a13.26,13.26,0,0,1-5.29.9C279.16,136.61,276.65,131.79,276.65,124.45Z" transform="translate(0 0)"/><path class="cls-1" d="M209.22,111.65c.94-2.94,10.26-23.6,10.26-23.6h11.06v47.68h-10V106.26l-8.32,21.44h-6.36l-8.32-21.44v29.47h-10V88.05h11s9.33,20.66,10.27,23.6Z" transform="translate(0 0)"/><path class="cls-1" d="M296,125.66c0-7.64,6.41-11.89,20.47-13.41-.21-3.17-2.22-5.13-6.08-5.13-3,0-6,1.28-9.4,3.28l-3.78-7.06a28.49,28.49,0,0,1,15.17-4.78c9.08,0,14.12,5.3,14.12,16.42v20.75h-10v-3.51s-4.13,4.39-9.91,4.39C300.06,136.61,296,131.79,296,125.66Zm20.51-.63v-6.34c-7.49,1-10.43,3.37-10.43,6.12,0,2.34,1.57,3.48,4.08,3.48s4.48-1.36,6.35-3.26Z" transform="translate(0 0)"/><path class="cls-1" d="M237.92,125.66c0-7.64,6.41-11.89,20.46-13.41-.21-3.17-2.22-5.13-6.07-5.13-3,0-6,1.28-9.41,3.28l-3.74-7.06a28.55,28.55,0,0,1,15.18-4.78c9.08,0,14.11,5.3,14.11,16.42v20.75h-10v-3.51s-4.13,4.39-9.91,4.39C242,136.61,237.92,131.79,237.92,125.66Zm20.5-.63v-6.34c-7.48,1-10.42,3.37-10.42,6.12,0,2.34,1.57,3.48,4.07,3.48S256.55,126.93,258.42,125Z" transform="translate(0 0)"/><path class="cls-1" d="M356.26,84.48V102a11.3,11.3,0,0,0-8.71-3.47c-7.48,0-14.74,7.17-14.74,19s5.71,19,14.54,19c4.84,0,8.57-3.61,8.91-3.95v3.07h10.53V84.48Zm-6.17,43.31c-4.08,0-6.49-3.21-6.49-10.33,0-6.91,3-10.12,6.4-10.12a10.14,10.14,0,0,1,6.26,2.29v14.91C354.16,126.94,352.33,127.79,350.09,127.79Z" transform="translate(0 0)"/><path class="cls-1" d="M374.86,88.51c0-3.3,2.56-5.63,6.09-5.63s6.1,2.33,6.1,5.63-2.57,5.62-6.1,5.62S374.86,91.79,374.86,88.51Zm.83,10.93h10.53v36.29H375.69Z" transform="translate(0 0)"/><path class="cls-1" d="M392.75,117.6c0-11.78,7.42-19,16.34-19,10.12,0,15.7,7.51,15.7,17.42a24.49,24.49,0,0,1-.44,4.75H403.09c1,5.27,4.47,7.68,9.22,7.68,2.68,0,5-1.07,7.6-2.61l3.56,6.72a22.83,22.83,0,0,1-12.6,4.09C400.36,136.61,392.75,129.61,392.75,117.6Zm23-4c0-4-2.27-6.87-6.47-6.87-3.33,0-5.63,2.28-6.35,6.87Z" transform="translate(0 0)"/><path class="cls-1" d="M187.62,64.43v-40h10.54V64.87c0,2.31,1,3,1.9,3a4.68,4.68,0,0,0,1.29-.14l1.26,7.93a13.46,13.46,0,0,1-5.29.89C190.09,76.59,187.62,71.79,187.62,64.43Z" transform="translate(0 0)"/><path class="cls-1" d="M243.48,64.35l2.88,11.36h10.89L242.59,28H230.53L215.87,75.71h10.88l2.89-11.36ZM231.77,56l4.6-18.09h.38L241.35,56Z" transform="translate(0 0)"/><path class="cls-1" d="M259.37,71.52l4.73-6.7c3.22,2.49,6.2,3.81,9.17,3.81,3.13,0,4.49-1.22,4.49-3.12,0-2.39-3.52-3.47-7.18-4.94-4.36-1.72-9.4-4.67-9.4-10.67,0-6.76,5.37-11.36,13.57-11.36a19.9,19.9,0,0,1,12.52,4.6l-4.71,6.45c-2.53-1.87-5-3.09-7.48-3.09-2.72,0-4.06,1.08-4.06,2.89,0,2.32,3.33,3.2,7,4.57,4.5,1.7,9.57,4.29,9.57,10.92S282.53,76.59,273,76.59A22.73,22.73,0,0,1,259.37,71.52Z" transform="translate(0 0)"/><path class="cls-1" d="M290.88,71.52l4.73-6.7c3.22,2.49,6.2,3.81,9.17,3.81,3.13,0,4.49-1.22,4.49-3.12,0-2.39-3.52-3.47-7.18-4.94-4.35-1.72-9.4-4.67-9.4-10.67,0-6.76,5.38-11.36,13.57-11.36a20,20,0,0,1,12.53,4.6l-4.72,6.45c-2.52-1.87-5-3.09-7.48-3.09-2.72,0-4.06,1.08-4.06,2.89,0,2.32,3.33,3.2,7,4.57,4.5,1.7,9.57,4.29,9.57,10.92S314,76.59,304.52,76.59A22.73,22.73,0,0,1,290.88,71.52Z" transform="translate(0 0)"/><path class="cls-1" d="M365.39,39.44h10.53v5.17c2-4,6.87-5.43,9.35-5.38a10.43,10.43,0,0,1,4.24.74l-1.09,9.82a15.84,15.84,0,0,0-4.5-1.09,8.53,8.53,0,0,0-8,8.17V75.71H365.39Z" transform="translate(0 0)"/><path class="cls-1" d="M430.16,39.44h10.52V44h0c3-2.93,6-5.47,10.87-5.47,7.73,0,11,5.57,11,14.64V75.71H452V54.56c0-5.22-1.37-6.86-4.41-6.86-2.64,0-4.63,1.26-6.95,3.53V75.71H430.16Z" transform="translate(0 0)"/><path class="cls-1" d="M499,57.58c0-11.78,7.42-19,16.33-19,10.12,0,15.7,7.51,15.7,17.42a25.28,25.28,0,0,1-.43,4.75H509.35c.94,5.27,4.47,7.68,9.22,7.68,2.68,0,5-1.07,7.6-2.61l3.56,6.72a22.8,22.8,0,0,1-12.57,4C506.62,76.59,499,69.59,499,57.58Zm23-4c0-4-2.27-6.86-6.47-6.86-3.33,0-5.63,2.28-6.35,6.86Z" transform="translate(0 0)"/><path class="cls-1" d="M391.79,65.65c0-7.65,6.41-11.9,20.46-13.41-.21-3.18-2.22-5.14-6.07-5.14-3,0-6,1.28-9.41,3.28L393,43.32a28.55,28.55,0,0,1,15.18-4.78c9.08,0,14.11,5.3,14.11,16.42V75.71h-10v-3.5s-4.16,4.38-9.94,4.38C395.9,76.59,391.79,71.79,391.79,65.65Zm20.5-.64V58.67c-7.48,1-10.42,3.38-10.42,6.12,0,2.34,1.57,3.48,4.07,3.48S410.42,66.91,412.29,65Z" transform="translate(0 0)"/><path class="cls-1" d="M212,24.25c-2.18,0-5.16,1.65-5.16,4.74a4.29,4.29,0,0,0,4.24,4.34h.07a1.61,1.61,0,0,0,.31,0c-.11,3.16-3,5-4.45,5.75L209.8,43C219,40,220.9,24.3,212,24.25Z" transform="translate(0 0)"/><path class="cls-1" d="M346.16,39.44v24c-2,2.86-3.67,4-6.31,4-3,0-4.41-1.64-4.41-6.86V39.44h-10.5V62.3c0,8.59,3.67,14.34,11.15,14.32A13.14,13.14,0,0,0,346.28,72v3.74h10.44V39.44Z" transform="translate(0 0)"/><path class="cls-1" d="M487,67.91c-4.58,0-8-4-8-10.33s3.25-10.36,8.31-10.36a6.92,6.92,0,0,1,4.6,2l5-6.91a15.16,15.16,0,0,0-10.16-3.73c-9.81,0-18.37,7-18.37,19s7.51,19,17.43,19a17.5,17.5,0,0,0,11.71-4.32L493.63,65C491.53,66.72,489.41,67.91,487,67.91Z" transform="translate(0 0)"/><path class="cls-1" d="M9.16,89.11,7.9,88a3.34,3.34,0,0,0,1-2c0-.78-.26-1.18-.75-1.2s-.72.44-1.05,1.15L6.56,87a2.43,2.43,0,0,1-2.34,1.57,2.7,2.7,0,0,1-2.35-3s0-.05,0-.07a3.84,3.84,0,0,1,1.21-2.62l1.14,1a2.79,2.79,0,0,0-.73,1.7c0,.64.22,1.07.7,1.09s.72-.51,1-1.22l.48-1a2.27,2.27,0,0,1,2.38-1.58c1.38.06,2.52,1.27,2.43,3.25A4.58,4.58,0,0,1,9.16,89.11Z" transform="translate(0 0)"/><path class="cls-1" d="M1.44,77.25,0,74.79,1.34,74l1.15,2.54Zm1,1.91L3.2,74l1.56.24-.49,3.29L6,77.79,6.38,75l1.56.24L7.52,78l1.9.28.51-3.42,1.56.23-.79,5.28Z" transform="translate(0 0)"/><path class="cls-1" d="M7.77,71.89C5.09,71.21,4,69,4.51,67a3.52,3.52,0,0,1,1.65-2.16l.92,1.26a2.07,2.07,0,0,0-1,1.26c-.29,1.1.47,2.23,2.08,2.64s2.82-.1,3.12-1.28A2.19,2.19,0,0,0,10.93,67l1.39-.67a3.46,3.46,0,0,1,.52,2.91C12.33,71.24,10.48,72.59,7.77,71.89Z" transform="translate(0 0)"/><path class="cls-1" d="M10.4,63.1,6.22,61.52l.67-1.73,4.36,1.65c1.52.58,2.23.3,2.56-.57s0-1.58-1.53-2.16L7.93,57l.64-1.7,4.17,1.59c2.62,1,3.35,2.48,2.59,4.49S13,64.09,10.4,63.1Z" transform="translate(0 0)"/><path class="cls-1" d="M10.22,51.34l1.38-2.66c.81-1.56,2-2.57,3.78-1.65s1.76,2.54,1,4.11l-.52,1,2.66,1.38-.87,1.67Zm4.71-.76c.46-.87.33-1.54-.4-1.92s-1.22,0-1.68.85l-.44.85,2.08,1.08Zm.8.63-.47-1.71,5.39-.19-1,1.87Z" transform="translate(0 0)"/><path class="cls-1" d="M15.16,42.32l1-1.53,7,4.51-1,1.58Z" transform="translate(0 0)"/><path class="cls-1" d="M20.36,37.33,19,39.15l-1.25-1L21.63,33l1.26,1L21.5,35.79l5.36,4.09-1.14,1.49Z" transform="translate(0 0)"/><path class="cls-1" d="M23.66,30.6l3.55-3.81,1.16,1.07L26.09,30.3l1.23,1.14,1.93-2.08,1.16,1.08-1.94,2.07,1.4,1.28,2.36-2.53,1.16,1.08-3.65,3.9Zm.22-2.16.19-2.81,1.56.1-.47,2.74Z" transform="translate(0 0)"/><path class="cls-1" d="M37.62,26.84l.07-1.68a3.32,3.32,0,0,0,2.14-.57c.62-.48.74-1,.44-1.35s-.8-.26-1.56,0l-1.14.3a2.44,2.44,0,0,1-2.71-.76A2.7,2.7,0,0,1,35.6,19l.08-.05a3.87,3.87,0,0,1,2.79-.78v1.52a2.72,2.72,0,0,0-1.76.55c-.52.39-.68.86-.39,1.24s.86.21,1.61,0l1.1-.31a2.28,2.28,0,0,1,2.69.77c.85,1.1.67,2.75-.9,4A4.48,4.48,0,0,1,37.62,26.84Z" transform="translate(0 0)"/><path class="cls-1" d="M42.79,18.85c-1.4-2.33-.89-4.46,1-5.62s4.05-.6,5.45,1.71.93,4.52-1,5.68S44.16,21.17,42.79,18.85Zm4.82-2.91c-.86-1.43-2-1.9-3-1.32s-1.08,1.8-.22,3.23,2,2,3,1.38S48.48,17.37,47.61,15.94Z" transform="translate(0 0)"/><path class="cls-1" d="M51.7,13.65c-1.17-2.5-.19-4.72,1.72-5.61A3.57,3.57,0,0,1,56.16,8l-.39,1.52a2,2,0,0,0-1.61,0c-1,.49-1.43,1.78-.72,3.29s1.86,2.12,3,1.6A2.22,2.22,0,0,0,57.59,13l1.39.65a3.37,3.37,0,0,1-1.92,2.24C55.09,16.79,52.88,16.19,51.7,13.65Z" transform="translate(0 0)"/><path class="cls-1" d="M59.05,5.79l1.77-.65L63.69,13l-1.77.65Z" transform="translate(0 0)"/><path class="cls-1" d="M66.54,3.34l2.17-.55,4.66,7.37-1.92.51L69.32,6.85c-.44-.74-.91-1.64-1.35-2.42h0c0,.9.06,1.9,0,2.76v4.36l-1.81.5Zm.39,4.94,3.87-1,.36,1.39-3.87,1Z" transform="translate(0 0)"/><path class="cls-1" d="M74.38,1.45l1.86-.29,1,6.67,3.25-.49.24,1.56-5.11.77Z" transform="translate(0 0)"/><path class="cls-1" d="M82.48.33,87.68,0l.1,1.57-3.32.22.1,1.66,2.83-.18.1,1.58L84.66,5l.13,1.91,3.45-.22.1,1.57L83,8.63Z" transform="translate(0 0)"/><path class="cls-1" d="M96.1,24.73a1.9,1.9,0,0,0-1.41-.81l-.93-.13c-.66-.18-14.63,0-17.91,2.16h0c-.35-2.22-1.11-4.9-5-5.72-2.7-.57-8.51,2-6.56,7.81a3.85,3.85,0,0,0,2,2.19c.5.26,1.29.14,1.88,1.66.17.45.5.4.79.3s.27,0,.62.24a.43.43,0,0,0,.5.1.41.41,0,0,0,.32.12c.14,0,.46-.1.54,0,1.11.9,2.4-.5,2.89-1.38l1.79,5.43c-.43-.37-4.83-1.64-6.94.72-1.84,2-3.18,4.79-4.73,9.52a3.85,3.85,0,0,1-2.72,2.47c-2.39.88-1,2-.39,2.11a15.62,15.62,0,0,0,5.62-.22c.89-.44.23-2.49,1.21-3.76l2.2-2.83A9.26,9.26,0,0,1,69.16,49c-.73,1.77-2.91,2.7-3.56,3.54-1.15,1.48,1.48,1.6,2.18,1.36,1.76-.6,3-.57,3.74-1,1-.58.29-2.15.62-2.79.9-1.78,4-5.67,4.35-6.29a2,2,0,0,0,.13-.25,17,17,0,0,0,5.63.77c5.11-.61,6.25-4.22,5.73-7a11.87,11.87,0,0,0-2.59-5c-1.34-2.1-2.13-3.23-2.58-3.83,1.47-.36,9.6-2.59,9.63-2.52.3.66,1,.81,1.24,1,.52.29.83-.16.62-.29a1.29,1.29,0,0,1-.51-.55,10.55,10.55,0,0,1,1.77.13C96.16,26.27,96.49,25,96.1,24.73Z" transform="translate(0 0)"/><path class="cls-2" d="M168.4,73.79c-1.3-7-7.84-11.35-11.21-12.78a23,23,0,0,0-3.69-1.28l-1.12-.37h0c.24-1.52,2-1.64,3.06-3.81,3-6.16-3.16-10.5-7.72-9.5-2.16.47-3.65,1.24-4,2.89-.17.89-.86.92-2,2.1-.36.38.44,1,.57,1.26a7.53,7.53,0,0,0-.28.77c-.08.37,0,.31,0,.36a1.79,1.79,0,0,0-.22.87,2.37,2.37,0,0,0,0,2.11h0a6.69,6.69,0,0,1,.93,2.32c0,.19,0,.29-.84,0-.21-.06-8.46-2.49-9.38-3.11s-9.2-9.56-10.1-11.3c-.49-1-1-1.59-1.27-1.57-1.93.12,1.4,3.6-.47,2.41-.48-.31-1.93-1.32-2-1.4-.36-.3-.27-.15-.54-.57a2.62,2.62,0,0,0-.62-.82c-.22-.15-.34-.19-.49-.16-.3.08-.25.3-.32.32h-.33c-.48.12-.12,1.35,0,1.92a22.37,22.37,0,0,0,1.8,3.8c2.09,1.44,4.15,2.65,4.22,2.73,2.25,2.61,4.89,5.88,7.25,8.36,1.87,2,10.46,7,10.74,7.13.57.34,1.46,2.17.18,15.27-.49,4.93-4,15.41-2.33,20.83A65.64,65.64,0,0,1,141.79,118c.28,2.15-1.39,3.45-3.78,5.18-.93.68-3.55,2.29-3.82,2.54-.44.4,0,1,.54,1.27a14.7,14.7,0,0,0,2.2.94,6.35,6.35,0,0,0,4.07-.79c1.74-1,1.89-1.14,2.92-1.76,1.18-.71,2.6-.94,3-2.14.49-1.6-.86-3.89-.73-4.93,1-7.5,2.28-11.22.39-15.81-.38-.92,2.73-10.94,3-9.59.48,2.64.67,10.49.75,16.33,0,2.55,2.1,11.61,2.76,14.86,1,5-7.45,9-5.6,10.5a6.12,6.12,0,0,0,2.53,1,6,6,0,0,0,3.06-.37,6.3,6.3,0,0,0,1.73-1.52c1.8-2.24,1.24-1.62,2.67-3.22,1.23-1.38.34-3.76.19-5-.32-2.55,0-3.22-.07-7.8a42.35,42.35,0,0,1,.61-8.78c1.33-8.78,2.15-13.55,2.56-17.28v-.21s.64.23.92-.23a5.37,5.37,0,0,0,.51-2c.11-.49.31.14.31.14a8,8,0,0,1,.43,1.59,9.09,9.09,0,0,1-.7,2.16c-.35,1,.52,1.14.74,1.22a9.69,9.69,0,0,0,3.18-2.54,6.14,6.14,0,0,0,.36-2.29,35.22,35.22,0,0,0-.72-5C166.59,81.89,168.73,75.52,168.4,73.79Zm-6,10.12c-.28,1.25-.36.06-1.54,4.69l.13-.66v-2c0-5.75-4.39-18-1.74-15.39,0,0,3.21,2.23,3.83,3.93.53,1.31.34,5-.67,9.41Z" transform="translate(0 0)"/><path class="cls-1" d="M55.42,97.59c-1-.86-4.45-5.59-6.7-7.45a31.73,31.73,0,0,1-3.11-4c-4.09-5.45-5-5.76-7.84-6.25-.58-.38-.39-.83-.33-.85A3.57,3.57,0,0,0,40,74.68a2.91,2.91,0,0,0-.12-.39c-.17-.71.31-1,.3-1.68a7.55,7.55,0,0,0-.54-2.69A2,2,0,0,0,39.32,68c-2-2.52-7-2.64-9.57-.85-2.09,1.44-.86,2.44-1.51,4.48a3.14,3.14,0,0,0,.85,3.12c.1.68,2.15,2,1.75,3.44S28,80,28.06,80a2.76,2.76,0,0,0-.74.28c-3.82,2.18-7.53,5.35-8,8.84.21,2.81,4.56,6.86,7.36,9,.41,4.79,3.45,12.12,3.58,12.41.42.87-.86-.66-3.92-1.7-1.48-.5-3.44-2.53-3.86-.15-.18,1,.25,2.72-.69,4.86-.72,1.63.12,4.24,1.92,4.18,1.3,0,2.07-4,2.07-4s6.28,3.13,9.28,2.09c1.76-.61,2.15-7.62.43-13.87-.61-2.19,1.13,3.56,5.33,8.64.92,1.12.11,2,.72,6.17a11.06,11.06,0,0,1,.2,2.69c-.11,2-2,4.41,2.37,5.54s4.13,2.21,6.94.32c1.27-.85-3.87-1.37-4.88-4.41a5,5,0,0,1-.11-.66c-.12-2.4,1-8,.64-9.88-1.6-9.5-5.6-13.89-6.1-16.11-.05-6.63-.48-8.71.15-7.22a34.56,34.56,0,0,0,2.88,4.39h0a5.88,5.88,0,0,0,.52.6,7.2,7.2,0,0,0,1.2,1.14c2.77,2.42,7.18,5.31,7.77,5.94,0,0,.32,2.92,1.53,2.7s6.37-2.5,6.27-3.09C60.72,97.72,55.61,97.79,55.42,97.59ZM26.65,93.91c-.81-1.54-3-4.4-2.84-4.87,1.22-2,2.53-2.58,2.92-2.45S26.65,93.91,26.65,93.91Z" transform="translate(0 0)"/><path class="cls-1" d="M143.1,151.33c-.23-.12-3.34-1.27-6.09-5.67-1.23-2-10.47-19.09-11.73-22.43-2.5-6.61-22-18.5-22.83-19.19-.58-.47-.5-1.62-.28-2.37,1.64-5.56,1-10.54,1.31-11.29.8-1.89,2-4.64,1.11-6.43l-2-3.18S112.91,84.5,115.31,84c2.06-.44,12.44-7.57,13-7.88,1.44-.73,4.89.34,8.37-3.45,1.32-1.43.36-1.93.13-1.67a.89.89,0,0,0-1.2-.32c-.83.47-3.7,1.3-3.17.91,2.08-1.56.64-2,.64-2-.91.75-5,1.8-5.86,2.46a24.93,24.93,0,0,1-2,1.7,44.63,44.63,0,0,1-11.12,4.46c-.87.19-9.1-5.18-13.87-5.91a9.4,9.4,0,0,0-4.88.19c-1.7.48-1.56-2-.3-2.57.66-.31,1.76-.51,2.17-1.35a2.61,2.61,0,0,0-.08-2.07.72.72,0,0,0-.07-.59c-.12-.29-.1-.13-.06-.42s-.13-.38-.2-.62a.8.8,0,0,1,.07-.55c1-.84.57-1.23.44-1.35C97,62.69,95.53,62,95.39,61a11.84,11.84,0,0,0-1-3.19c-.1-.3-.27-2.16-1.1-2.91-1-.91-3.11-2-7.65-.8-1.46.4-1.2,1.1-4.85,1.78-4.37.81-6.79,7.31-6.39,10,.31,2.18,2.19,1.12,2.11,2.09-.13,1.51-.28,4,2.92,4.93.69.2,4.88-.47,6.47-.19,0,0,1.29.11.65,1.4-.32.65-4.52,2.31-5.56,2.75C78.16,78,71.16,89.57,69,90.66a24.11,24.11,0,0,0-3.56,2.13c-2.91,1.77-5.73,4-7.26,4-2.08-.13-3.77.87-5.16,4-.41.91-.18,1.39.58,1.58a1.77,1.77,0,0,0,1.28.66c.63.58,1.33.21,1.85-.08,1.64-.88,2-1.58,2.65-1.84,1.59-.52,11-4.15,13.09-5.77C75.62,93.6,82,87,83.45,87S88,89.77,87,95.31c-.35,1.89-2.71,5.3-4,7.29-2.59,3.94-.58,7.38-1.1,8.21-2.69,4.39-6,10.26-11.57,15.28-2.17,1.41-6.75,1.73-9.17,2.44-5.56,1.63-11.49,5.62-15.71,8-1.4.78-2.74-.9-4.5-1.1S39,137.89,38.1,140.3c-.28.74-.4,1.09-1.75,4.06-.52,1.16-1.91,4.73-.51,6.22,1.27,1.78,4.32-3.8,6.67-6.52,1.24-1.44,2-1.91,4.71-2.53,1.72-.4,15.35-4.1,24.35-6.07a2.87,2.87,0,0,0,.71-.16c11.7-3,23.81-18.3,24-18.23l19.81,9.72c2,1.08,2,5,4.38,9.35,1.43,2.66,3.51,5,12,13.31,1.09,1.07.2,2.84.69,4.49s1.37,1.8,3,1.67,2.81-.36,4.29-.46c1.89-.11,1.38.09,3.58.42,1.08.16,3.53.51,5.26-1.21C152.4,151.29,146,152.85,143.1,151.33Z" transform="translate(0 0)"/><path class="cls-1" d="M121.55,142.72a1.2,1.2,0,0,0-1.62-.54h0A61,61,0,0,1,62,140.69a1.21,1.21,0,0,0-1.2,2.1,63.47,63.47,0,0,0,60.28,1.56,1.21,1.21,0,0,0,.51-1.62Z" transform="translate(0 0)"/><path class="cls-1" d="M35.7,63.29a1.25,1.25,0,0,1-.5-.11,1.19,1.19,0,0,1-.61-1.58v0A63.2,63.2,0,0,1,60.41,33a1.21,1.21,0,1,1,1.22,2.09A60.9,60.9,0,0,0,36.8,62.58,1.22,1.22,0,0,1,35.7,63.29Z" transform="translate(0 0)"/><path class="cls-1" d="M139,47.79a1.21,1.21,0,0,1-.91-.41,60.93,60.93,0,0,0-37.13-20,1.21,1.21,0,1,1,.33-2.4,63.42,63.42,0,0,1,38.62,20.81,1.21,1.21,0,0,1-.91,2Z" transform="translate(0 0)"/></svg>