<?xml version="1.0" encoding="utf-8"?>
<!-- Generator: Adobe Illustrator 26.0.2, SVG Export Plug-In . SVG Version: 6.00 Build 0)  -->
<svg version="1.1" id="btn_structures" xmlns="http://www.w3.org/2000/svg" xmlns:xlink="http://www.w3.org/1999/xlink" x="0px"
	 y="0px" viewBox="0 0 34 34" style="enable-background:new 0 0 34 34;" xml:space="preserve">
<style type="text/css">
	.st0{fill:#EDEDED;}
	.st1{fill:#0087CF;}
	.st2{fill-rule:evenodd;clip-rule:evenodd;fill:#0087CF;}
</style>
<circle id="Ellipse_248" class="st0" cx="17" cy="17" r="17"/>
<g>
	<path id="Tracé_17173" class="st1" d="M26.8,14.8L26.8,14.8l-2.5-2.5V8.1h-2.1v2.1L16.9,5L7,14.8c-0.8,0.8-0.9,2.1,0,3
		c0.8,0.8,2.1,0.9,3,0c0,0,0,0,0,0l0,0l6.9-6.9l6.9,6.9c0.8,0.8,2.1,0.9,3,0C27.6,17.1,27.6,15.7,26.8,14.8
		C26.8,14.9,26.8,14.9,26.8,14.8L26.8,14.8z"/>
	<path id="Tracé_373" class="st2" d="M16.8,23c-1.2,0-2.2-1.1-2.2-2.3c0-1.2,1-2.2,2.2-2.2c1.2,0,2.2,1.1,2.2,2.3
		C19,22,18,23,16.8,23z M16.8,15.9c-2.7,0-4.9,2.2-4.9,4.9c0,0,0,0,0,0.1c0,2.6,2.2,5.9,3.7,7.5c0.6,0.6,1.2,1.4,1.2,1.4
		s0.7-0.8,1.3-1.4c1.5-1.6,3.6-4.7,3.6-7.5C21.8,18.1,19.6,15.9,16.8,15.9C16.8,15.9,16.8,15.9,16.8,15.9z"/>
</g>
</svg>
