<?xml version="1.0" encoding="utf-8"?>
<!-- Generator: Adobe Illustrator 26.0.1, SVG Export Plug-In . SVG Version: 6.00 Build 0)  -->
<svg version="1.1" id="Calque_1" xmlns="http://www.w3.org/2000/svg" xmlns:xlink="http://www.w3.org/1999/xlink" x="0px" y="0px"
	 viewBox="0 0 34 34.1" style="enable-background:new 0 0 34 34.1;" xml:space="preserve">
<style type="text/css">
	.st0{fill-rule:evenodd;clip-rule:evenodd;fill:#01B9F5;}
	.st1{fill-rule:evenodd;clip-rule:evenodd;fill:#FFFFFF;}
	.st2{fill:#FFFFFF;}
</style>
<path class="st0" d="M17,0L17,0c9.4,0,17,7.7,17,17l0,0c0,9.4-7.6,17-17,17.1l0,0C7.6,34.1,0,26.4,0,17l0,0C0,7.7,7.6,0,17,0z"/>
<g>
	<path class="st1" d="M18.1,16.8C18.1,16.8,18.1,16.8,18.1,16.8c-0.1-0.1-0.1-0.1-0.2-0.2c0-0.1,0-0.1-0.1-0.2h0l-3.4-4
		c-0.2-0.3-0.6-0.3-0.8-0.1c0,0,0,0,0,0c-0.2,0.2-0.3,0.6,0,0.8l3.3,3.9L14,19.5v0c-0.2,0.2-0.2,0.5,0,0.8c0,0,0,0,0,0
		c0.2,0.2,0.5,0.3,0.8,0.1l3.3-2.8C18.3,17.3,18.3,17,18.1,16.8z"/>
	<rect x="9.7" y="17" class="st2" width="1.5" height="0.6"/>
	<rect x="22.7" y="17" class="st2" width="1.5" height="0.6"/>
	<rect x="16.8" y="9.7" class="st2" width="0.6" height="1.5"/>
	<rect x="16.7" y="22.9" class="st2" width="0.6" height="1.5"/>
	<path class="st1" d="M25.7,13.7l-1.3,0.7l0,0c1.5,4.1-0.7,8.6-4.8,10.1c-4.1,1.5-8.6-0.7-10.1-4.8c-1.5-4.1,0.7-8.6,4.8-10.1
		c2.5-0.9,5.1-0.5,7.2,1l-0.9,1l3.9,0.8l-1-4.1l-1,1.1c-3.7-2.7-8.9-2.4-12.2,1c-3.6,3.7-3.5,9.6,0.2,13.2c1.7,1.7,4.1,2.7,6.5,2.7
		c5.2,0,9.4-4.2,9.3-9.4C26.3,15.9,26.1,14.8,25.7,13.7z"/>
</g>
</svg>
