<?xml version="1.0" encoding="utf-8"?>
<!-- Generator: Adobe Illustrator 26.0.1, SVG Export Plug-In . SVG Version: 6.00 Build 0)  -->
<svg version="1.1" id="Calque_1" xmlns="http://www.w3.org/2000/svg" xmlns:xlink="http://www.w3.org/1999/xlink" x="0px" y="0px"
	 viewBox="0 0 24 23.7" style="enable-background:new 0 0 24 23.7;" xml:space="preserve">
<style type="text/css">
	.st0{fill:#FFFFFF;}
</style>
<ellipse id="Ellipse_41" cx="12" cy="11.8" rx="12" ry="11.8"/>
<g id="_503488552" transform="translate(9.043 4.174)">
	<path id="Tracé_406" class="st0" d="M0.2,12.3L2.1,5H0.2V4.3c0.8,0,1.5,0,2.3-0.2c0.7,0,1.4,0,2.1-0.2l-2.6,9.2v0.3l0,0
		c0,0.2,0,0.4,0.2,0.5c0.1,0.1,0.2,0.2,0.3,0.2C3,14.2,3.6,13.9,4,13.4c0.6-0.7,1-1.6,1.4-2.4l0.5,0.3c-0.4,1.1-1,2.1-1.7,3
		c-0.7,0.6-1.5,1-2.4,1c-0.5,0-1-0.2-1.4-0.5C0.1,14.4,0,14,0,13.6V13C0.1,12.8,0.2,12.6,0.2,12.3L0.2,12.3z"/>
	<path id="Tracé_407" class="st0" d="M2.4,1.6c0-0.5,0-0.9,0.3-1C3,0.2,3.4,0,3.8,0c0.4,0,0.8,0.2,1,0.5c0.3,0.2,0.3,0.5,0.3,1
		c0,0.4-0.1,0.8-0.3,1C4.6,2.8,4.2,2.9,3.8,3c-0.4,0-0.7-0.2-1-0.3C2.5,2.3,2.4,1.9,2.4,1.6z"/>
</g>
</svg>
