<?xml version="1.0" encoding="utf-8"?>
<!-- Generator: Adobe Illustrator 26.0.1, SVG Export Plug-In . SVG Version: 6.00 Build 0)  -->
<svg version="1.1" id="Calque_1" xmlns="http://www.w3.org/2000/svg" xmlns:xlink="http://www.w3.org/1999/xlink" x="0px" y="0px"
	 viewBox="0 0 34 34" style="enable-background:new 0 0 34 34;" xml:space="preserve">
<style type="text/css">
	.st0{fill-rule:evenodd;clip-rule:evenodd;fill:#0087CF;}
	.st1{fill:#FFFFFF;}
</style>
<path class="st0" d="M17,0C7.6,0,0,7.6,0,17s7.6,17,17,17c9.4,0,17-7.6,17-17C34,7.6,26.4,0,17,0z"/>
<g transform="translate(47.748 -348.279)">
	<path class="st1" d="M-21.9,356.3h-17.8v18h18v-18H-21.9z M-28.8,356.6h3.2v3.2h-3.2L-28.8,356.6L-28.8,356.6z M-32.4,356.6h3.2
		v3.2h-3.2V356.6z M-35.9,356.6h3.2v3.2h-3.2L-35.9,356.6L-35.9,356.6z M-35.9,360.1h3.2v3.2h-3.2L-35.9,360.1L-35.9,360.1z
		 M-39.4,356.6h3.2v3.2h-3.2V356.6z M-39.4,360.1h3.2v3.2h-3.2V360.1z M-32.7,374h-3.2v-3.2h3.2L-32.7,374L-32.7,374z M-29.1,374
		h-3.2v-3.2h3.2V374z M-25.6,374h-3.2v-3.2h3.2L-25.6,374L-25.6,374z M-25.6,370.4h-3.2v-3.2h3.2L-25.6,370.4L-25.6,370.4z
		 M-22.1,374h-3.2v-3.2h3.2V374z M-22.1,370.4h-3.2v-3.2h3.2V370.4z M-22.1,359.8h-0.6l0,0.1l-0.1,0.3h0.7v3.2h-1.9l-0.1,0.3h2v3.2
		h-3.2v-1l-0.3-0.3l0,0v1.3h-2.9l-0.6,0.6v2.9h-3.2v-0.9l-0.3-0.3v1.2h-3.2v-0.7l-0.3,0.3v0.4h-0.5l-0.3,0.3h0.8v3.2h-3.2v-6.8h1.5
		l0.3-0.3h-1.9v-3.2h3.2v1.9l0.3-0.3v-1.5h3.2v1.1l0.3,0.3v-1.4h3.1l0.5-0.5v-1l-0.2-0.2l-0.1-0.1v1.4h-3.2v-3.2h3.2v1.1l0.3-0.1
		l0,0v-1h2.9l0.9-0.3h-0.2v-3.2h3.2L-22.1,359.8L-22.1,359.8z"/>
	<path class="st1" d="M-28.7,361.7l1.1,1.1l-4,4l-2.4-2.4l-4.9,4.9v2.6l4.9-4.9l2.4,2.4l5.3-5.3l1.1,1.1l1.9-5.4L-28.7,361.7
		L-28.7,361.7z"/>
</g>
</svg>
