<?xml version="1.0" encoding="utf-8"?>
<!-- Generator: Adobe Illustrator 26.0.1, SVG Export Plug-In . SVG Version: 6.00 Build 0)  -->
<svg version="1.1" id="Calque_1" xmlns="http://www.w3.org/2000/svg" xmlns:xlink="http://www.w3.org/1999/xlink" x="0px" y="0px"
	 viewBox="0 0 34 34" style="enable-background:new 0 0 34 34;" xml:space="preserve">
<style type="text/css">
	.st0{fill-rule:evenodd;clip-rule:evenodd;fill:#01B9F5;}
	.st1{fill:#FFFFFF;}
</style>
<path class="st0" d="M17,0C7.6,0,0,7.6,0,17s7.6,17,17,17c9.4,0,17-7.6,17-17C34,7.6,26.4,0,17,0z"/>
<g>
	<path class="st1" d="M17.8,16.2V9.2c0-0.7-0.6-1.2-1.2-1.2c-0.7,0-1.2,0.6-1.2,1.2c0,0,0,0,0,0v7.5c0,0,0,0,0,0c0,0.1,0,0.2,0,0.2
		c0,0,0,0.1,0,0.1c0,0,0,0.1,0,0.1c0,0,0,0.1,0.1,0.1s0,0.1,0,0.1c0,0.1,0.1,0.1,0.2,0.2l3.5,3.5c0.5,0.5,1.3,0.5,1.8,0
		c0.5-0.5,0.5-1.3,0-1.8c0,0,0,0,0,0L17.8,16.2z"/>
	<circle class="st1" cx="17" cy="2.3" r="1"/>
	<circle class="st1" cx="17" cy="32.3" r="1"/>
	<circle class="st1" cx="32.3" cy="17" r="1"/>
	<circle class="st1" cx="1.7" cy="17" r="1"/>
</g>
</svg>
