<svg width="51" height="60" viewBox="0 0 51 60" fill="none" xmlns="http://www.w3.org/2000/svg">
<path d="M28.7032 52.3251C35.1893 46.7573 41.6754 50.469 44.4552 44.9014C45.845 42.1176 47.2348 33.7661 47.2348 28.1985C47.2348 22.6309 49.0882 22.6309 47.235 16.1353C45.3819 9.6397 35.1898 5 27.7769 5C-0.947224 8.71176 -0.947666 41.1908 2.75867 49.5423C6.46501 57.8937 25.8026 54.8151 28.7032 52.3251Z" fill="#F6EEEB"/>
<path d="M40.9255 24.9892C44.1972 21.0113 44.3143 20.8449 45.2536 16.5506L40.9255 24.9892Z" fill="url(#paint0_linear_3407_19674)"/>
<path d="M24.7054 22.4887C25.1144 16.9022 22.5769 10.6649 17.8358 9.04324L24.7054 22.4887Z" fill="url(#paint1_linear_3407_19674)"/>
<path d="M22.1623 41.3822C15.3248 44.4016 14.958 42.4728 13.8199 41.371C10.8059 38.6807 9.93214 34.1745 9.05859 28.7715C12.5528 27.4359 16.921 27.871 21.2887 29.3803C23.9094 31.473 23.0586 27.5924 23.5586 26.9739C25.5586 24.5 24.259 24.6338 27.4038 23.3699C30.5485 22.106 39.6352 24.2724 42.2557 26.9739C43.1291 27.8744 44.333 30.8801 44.0026 31.4764C41.6366 35.7542 36.253 36.9636 30.9219 35.1488C26.5304 35.0772 28.2773 36.8782 27.4038 37.7787L24.783 39.5797L22.1623 41.3822Z" fill="url(#paint2_linear_3407_19674)"/>
<path d="M27.2385 50.7407C24.39 45.5007 24.302 45.2859 25.295 40.2024L27.2385 50.7407Z" fill="url(#paint3_linear_3407_19674)"/>
<path fill-rule="evenodd" clip-rule="evenodd" d="M37.7 48.8775C34.9811 49.3372 31.842 49.8679 28.703 52.612C25.8023 55.1477 6.46439 58.2828 2.758 49.7781C-0.948391 41.2734 -0.947948 8.19836 27.7766 4.4185C35.1896 4.4185 45.3818 9.14333 47.235 15.7581C48.3993 19.914 48.1005 21.4588 47.7175 23.4392C47.4909 24.6109 47.2347 25.935 47.2347 28.0427C47.2347 33.7125 45.845 42.2171 44.4551 45.052C43.0206 47.9779 40.5991 48.3873 37.7 48.8775ZM37.1404 48.6599C34.5372 49.1113 31.5318 49.6325 28.5264 52.3271C25.7492 54.8171 7.23446 57.8957 3.68584 49.5442C0.137215 41.1928 0.137638 8.71371 27.6395 5.00195C34.7369 5.00195 44.4953 9.64165 46.2696 16.1372C47.3843 20.2182 47.0983 21.7352 46.7315 23.6799C46.5145 24.8305 46.2693 26.1308 46.2693 28.2004C46.2693 33.7681 44.9387 42.1195 43.608 44.9033C42.2346 47.7765 39.9162 48.1785 37.1404 48.6599Z" fill="#B6B1B0"/>
<defs>
<linearGradient id="paint0_linear_3407_19674" x1="44.825" y1="16.9626" x2="43.3071" y2="21.7747" gradientUnits="userSpaceOnUse">
<stop offset="0.07" stop-color="#F6EEEB" stop-opacity="0.2"/>
<stop offset="0.84" stop-color="#9A8A89" stop-opacity="0.6"/>
</linearGradient>
<linearGradient id="paint1_linear_3407_19674" x1="28.6813" y1="22.581" x2="23.0239" y2="11.6951" gradientUnits="userSpaceOnUse">
<stop offset="0.07" stop-color="#F6EEEB" stop-opacity="0.2"/>
<stop offset="0.84" stop-color="#9A8A89" stop-opacity="0.6"/>
</linearGradient>
<linearGradient id="paint2_linear_3407_19674" x1="20.0586" y1="26.5" x2="30.1078" y2="40.7606" gradientUnits="userSpaceOnUse">
<stop stop-color="#F6EEEB" stop-opacity="0.2"/>
<stop offset="0.8" stop-color="#9A8A89" stop-opacity="0.6"/>
</linearGradient>
<linearGradient id="paint3_linear_3407_19674" x1="25.7308" y1="40.765" x2="26.1798" y2="46.4992" gradientUnits="userSpaceOnUse">
<stop offset="0.07" stop-color="#F6EEEB" stop-opacity="0.2"/>
<stop offset="0.84" stop-color="#9A8A89" stop-opacity="0.6"/>
</linearGradient>
</defs>
</svg>
