<svg width="52" height="60" viewBox="0 0 52 60" fill="none" xmlns="http://www.w3.org/2000/svg">
<path d="M30.3772 37.6331C37.439 37.0346 38.616 30.4512 39.793 25.6632C37.439 19.6782 37.439 25.6632 24.4924 22.0731C11.5458 18.4831 14.4882 24.4662 12.1343 31.6482C9.78036 38.8301 20.373 41.2241 20.373 39.4286C20.373 37.6331 23.3155 38.2316 30.3772 37.6331Z" fill="#F8F1EF"/>
<path d="M14.5739 38C14.5739 35.5 20.7927 36 22.793 35C23.2927 35 31.8088 30.5 29.5884 30.5C28.4703 30.5 15.7948 27.5 13.7948 32C11.7948 36.5 14.0739 36.5 14.5739 38Z" fill="url(#paint0_linear_3407_19815)"/>
<path fill-rule="evenodd" clip-rule="evenodd" d="M39.7426 26.479C38.608 31.1663 37.1794 37.068 30.4759 37.6331C28.4325 37.8054 26.7322 37.8785 25.3468 37.9381C21.919 38.0854 20.4187 38.1499 20.4187 39.4286C20.4187 41.2241 9.77 38.8301 12.1364 31.6482C12.6701 30.0282 12.933 28.4693 13.1694 27.0675C13.981 22.2542 14.4804 19.2928 24.5599 22.0731C30.8714 23.8141 34.1222 23.3033 36.0665 22.9979C38.1315 22.6734 38.7226 22.5805 39.9414 25.6632C39.8755 25.93 39.8095 26.2024 39.7426 26.479ZM39.0488 26.5739C37.9709 30.7404 36.6138 35.9864 30.2454 36.4887C28.3043 36.6418 26.689 36.7068 25.3729 36.7598C22.1164 36.8908 20.6912 36.9481 20.6912 38.0847C20.6912 39.6807 10.5749 37.5527 12.8229 31.1687C13.33 29.7288 13.5797 28.3431 13.8043 27.097C14.5753 22.8185 15.0497 20.1862 24.6253 22.6576C30.6212 24.2051 33.7095 23.7511 35.5565 23.4796C37.5183 23.1912 38.0798 23.1086 39.2377 25.8488C39.1751 26.0859 39.1124 26.328 39.0488 26.5739Z" fill="#B6B1B0"/>
<defs>
<linearGradient id="paint0_linear_3407_19815" x1="18.1767" y1="38" x2="18.1767" y2="30.0351" gradientUnits="userSpaceOnUse">
<stop stop-color="#9A8A89" stop-opacity="0.6"/>
<stop offset="1" stop-color="#F6EEEB" stop-opacity="0.2"/>
</linearGradient>
</defs>
</svg>
