<svg width="52" height="60" viewBox="0 0 52 60" fill="none" xmlns="http://www.w3.org/2000/svg">
<path d="M13.9414 33.6303C24.7646 46.7459 35.5882 35.9105 37.2972 33.6292L37.8673 33.06C38.8752 32.4897 29.3223 23.3641 26.474 20.5125C23.6257 17.6609 19.0684 27.3563 13.9414 33.6303Z" fill="#F8F1EF"/>
<path d="M20.6418 35.995C22.9246 35.8777 28.8666 36.1672 31.9777 35.6208C32.5609 35.5184 32.8346 34.8809 32.4512 34.4297C30.0936 31.6549 24.1896 31.7781 20.4462 32.1899C20.0816 32.23 16.4702 30.0528 17.6606 33.0433C18.851 36.0337 18.057 36.1279 20.6418 35.995Z" fill="url(#paint0_linear_3407_19801)"/>
<path d="M16.4416 31C18.4352 27.8117 27.666 20.6631 25.4414 21C23.1715 21.3438 20.1103 24.1811 19.0255 26.8175C17.2883 28.8905 16.598 29.9122 16.4416 31Z" fill="url(#paint1_linear_3407_19801)"/>
<path fill-rule="evenodd" clip-rule="evenodd" d="M37.2972 33.6292C35.5882 35.9105 24.7646 46.7459 13.9414 33.6303C15.4694 31.7604 16.9468 29.5866 18.3435 27.5317C21.6331 22.6916 24.4746 18.5108 26.474 20.5125C26.9009 20.9399 27.4784 21.5082 28.1483 22.1675C31.9486 25.9073 38.7242 32.5751 37.8673 33.06L37.2972 33.6292ZM36.3509 33.2663C34.7843 35.3194 24.8627 45.0713 14.9414 33.2673C16.3421 31.5844 17.6964 29.628 18.9767 27.7785C21.9921 23.4225 24.5968 19.6597 26.4296 21.4612C26.8209 21.8459 27.3503 22.3573 27.9644 22.9507C31.448 26.3165 37.6589 32.3176 36.8734 32.754L36.3509 33.2663Z" fill="#B6B1B0"/>
<defs>
<linearGradient id="paint0_linear_3407_19801" x1="24.5747" y1="31.626" x2="24.8751" y2="37.6423" gradientUnits="userSpaceOnUse">
<stop stop-color="#F6EEEB" stop-opacity="0.2"/>
<stop offset="1" stop-color="#9A8A89" stop-opacity="0.6"/>
</linearGradient>
<linearGradient id="paint1_linear_3407_19801" x1="16.9415" y1="30.2725" x2="23.1494" y2="21.6019" gradientUnits="userSpaceOnUse">
<stop stop-color="#9A8A89" stop-opacity="0.6"/>
<stop offset="1" stop-color="#F6EEEB" stop-opacity="0.2"/>
</linearGradient>
</defs>
</svg>
