<svg width="51" height="60" viewBox="0 0 51 60" fill="none" xmlns="http://www.w3.org/2000/svg">
<path d="M36.9529 32.5775C36.3292 42.3937 29.4582 42.3936 24.4616 41.7782L22.5879 41.7794C10.721 43.0088 13.2193 35.0344 13.2193 29.5138C13.2193 25.7825 15.7189 22.762 18.8411 21.5352C21.4345 20.5162 20.3474 19.5645 22.5878 18.4682C25.0862 17.2456 31.3356 18.4689 32.5812 21.537C34.0754 25.2175 37.4362 24.9712 36.9529 32.5775Z" fill="#F8F1EF"/>
<path d="M26.2991 30.2312C26.8631 29.1469 29.6395 29.6574 30.8319 29.1564C30.8788 29.1367 30.9248 29.1181 30.9736 29.1038C31.6078 28.9187 33.1792 28.5077 32.6265 26.914C32.0513 25.2553 23.4229 26.3611 19.3963 26.3611C15.3697 26.3611 15.3697 33.5487 17.0954 35.7603C18.8211 37.9719 18.8211 34.6545 19.3963 33.5487C19.9715 32.4429 22.2724 31.89 23.9981 32.9958C25.7238 34.1016 22.2725 35.7601 26.8743 36.8659C31.4761 37.9717 34.9275 31.8899 33.777 31.337C32.6266 30.7841 25.7238 31.337 26.2991 30.2312Z" fill="url(#paint0_linear_3407_20146)"/>
<path fill-rule="evenodd" clip-rule="evenodd" d="M24.4616 41.7782C29.4582 42.3936 36.3292 42.3937 36.9529 32.5775C37.2762 27.4894 35.8793 25.9151 34.4718 24.3287C33.7751 23.5436 33.0759 22.7555 32.5812 21.537C31.3356 18.4689 25.0862 17.2456 22.5878 18.4682C21.5334 18.9841 21.216 19.4681 20.9051 19.942C20.5554 20.4752 20.214 20.9958 18.8411 21.5352C15.7189 22.762 13.2193 25.7825 13.2193 29.5138C13.2193 30.3163 13.1665 31.1707 13.1128 32.0411C12.7966 37.1584 12.4461 42.8301 22.5879 41.7794L24.4616 41.7782ZM24.5065 40.7967C29.0867 41.3608 35.3851 41.3609 35.9568 32.3627C36.2532 27.6986 34.9727 26.2555 33.6825 24.8013C33.0439 24.0816 32.4029 23.3592 31.9494 22.2423C30.8077 19.4298 25.079 18.3084 22.7888 19.4292C21.8223 19.9021 21.5313 20.3457 21.2464 20.7802C20.9258 21.2689 20.6128 21.7461 19.3544 22.2406C16.4924 23.3652 14.2011 26.134 14.2011 29.5543C14.2011 30.2899 14.1527 31.0731 14.1034 31.871C13.8135 36.5618 13.4923 41.7609 22.7889 40.7978L24.5065 40.7967Z" fill="#B6B1B0"/>
<path d="M16.0001 31.0001C18.1976 27.1623 24.9992 23.9991 32.4995 26.5L25.9995 27.5L22.4995 28.5L16.0001 31.0001Z" fill="url(#paint1_linear_3407_20146)"/>
<path d="M25.5008 36.5019C29.001 38.5006 33.501 35 33.9992 32.0038L31.501 35V35C30.202 35.9742 28.6169 36.5004 26.9787 36.5012L25.5008 36.5019Z" fill="url(#paint2_linear_3407_20146)"/>
<defs>
<linearGradient id="paint0_linear_3407_20146" x1="23.5" y1="34.5" x2="21" y2="27.5" gradientUnits="userSpaceOnUse">
<stop stop-color="#9A8A89" stop-opacity="0.6"/>
<stop offset="1" stop-color="#F6EEEB" stop-opacity="0.2"/>
</linearGradient>
<linearGradient id="paint1_linear_3407_20146" x1="27.4995" y1="31.5" x2="21.0392" y2="22.6079" gradientUnits="userSpaceOnUse">
<stop offset="0.07" stop-color="#F6EEEB" stop-opacity="0.2"/>
<stop offset="0.496007" stop-color="#C3B7B5" stop-opacity="0.421302"/>
<stop offset="0.84" stop-color="#9A8A89" stop-opacity="0.6"/>
</linearGradient>
<linearGradient id="paint2_linear_3407_20146" x1="26.501" y1="37.5" x2="31.9175" y2="36.5325" gradientUnits="userSpaceOnUse">
<stop offset="0.07" stop-color="#F6EEEB" stop-opacity="0.2"/>
<stop offset="0.84" stop-color="#9A8A89" stop-opacity="0.6"/>
</linearGradient>
</defs>
</svg>
