<svg width="51" height="60" viewBox="0 0 51 60" fill="none" xmlns="http://www.w3.org/2000/svg">
<path d="M13.7201 42.0801C9.18154 39.7957 8.61422 33.5137 9.18154 28.3739C9.34968 24.3765 11.451 24.376 13.7201 19.8073C15.9892 15.2385 24.4993 15.8096 30.7398 16.3807C36.9804 16.9518 40.3843 22.0916 40.9516 32.3713C41.5189 42.6509 36.9804 44.3647 33.5764 44.9358C30.1725 45.5069 27.3359 42.0801 24.4993 42.0801C21.6627 42.0801 18.2586 44.3645 13.7201 42.0801Z" fill="#F8F1EF"/>
<path d="M20.4992 36.0027C21.4556 35.0463 27.8085 32.667 30.2059 33.5852C30.4108 33.6637 30.5535 33.85 30.6362 34.0532C32.3262 38.2019 33.3277 36.7843 33.8326 34.4865C34.0319 33.5791 32.4495 32.7617 32.2932 31.846C32.1423 30.9622 32.2581 29.4511 32.3914 27.7423C32.4737 26.687 30.1177 25.3597 29.0608 25.3015C27.8212 25.2332 26.4851 24.8711 25.2996 24.7672C24.9356 24.7352 24.6038 24.5368 24.4064 24.2292C23.3566 22.5938 21.8316 21.5858 19.4356 22.1697C17.1355 22.7301 17.2435 24.7575 16.2579 26.1188C15.9966 26.4798 15.4925 26.4899 15.1255 26.237C11.8897 24.0073 10.0716 23.0892 10.0013 28.1884C9.99856 28.3899 10.0622 28.5971 10.1809 28.76C15.5062 36.0661 25.6305 29.788 23.6538 31.8046C21.4992 34.0027 17.9682 38.5337 20.4992 36.0027Z" fill="url(#paint0_linear_3407_20161)"/>
<path d="M17.6935 41.9443C18.0717 38.507 18.1007 38.3783 20.2423 36.6388L17.6935 41.9443Z" fill="url(#paint1_linear_3407_20161)"/>
<path d="M35.4299 20.8448C34.4449 24.026 34.3935 24.1423 31.9999 25.3789L35.4299 20.8448Z" fill="url(#paint2_linear_3407_20161)"/>
<path d="M23.8058 31.3172C16.499 33.4961 11.4992 31.996 10.4993 28.4971L16.1586 30.2376C16.7178 30.4096 17.2919 30.5314 17.8742 30.6017L23.8058 31.3172Z" fill="url(#paint3_linear_3407_20161)"/>
<path fill-rule="evenodd" clip-rule="evenodd" d="M9.18154 28.3739C8.61422 33.5137 9.18154 39.7957 13.7201 42.0801C16.8606 43.6608 19.458 43.0539 21.7 42.53C22.698 42.2968 23.6256 42.0801 24.4993 42.0801C25.7571 42.0801 27.0148 42.7538 28.322 43.454C29.9629 44.333 31.6818 45.2537 33.5764 44.9358C36.9804 44.3647 41.5189 42.6509 40.9516 32.3713C40.3843 22.0916 36.9804 16.9518 30.7398 16.3807C24.4993 15.8096 15.9892 15.2385 13.7201 19.8073C12.7988 21.6622 11.9052 22.7641 11.1574 23.6862C10.0634 25.0353 9.28141 25.9995 9.18154 28.3739ZM10.1702 28.5205C9.63833 33.3059 10.1702 39.1546 14.4251 41.2815C17.3694 42.7532 19.8044 42.1881 21.9062 41.7004C22.8419 41.4833 23.7115 41.2815 24.5306 41.2815C25.7097 41.2815 26.8889 41.9087 28.1143 42.5606C29.6527 43.379 31.2642 44.2362 33.0404 43.9402C36.2316 43.4085 40.4865 41.8129 39.9546 32.2422C39.4228 22.6715 36.2316 17.8862 30.3811 17.3545C24.5306 16.8228 16.5524 16.2911 14.4251 20.5447C13.5614 22.2717 12.7236 23.2976 12.0226 24.1561C10.9969 25.4121 10.2638 26.3099 10.1702 28.5205Z" fill="#B6B1B0"/>
<defs>
<linearGradient id="paint0_linear_3407_20161" x1="25.499" y1="39.002" x2="25.499" y2="22.002" gradientUnits="userSpaceOnUse">
<stop stop-color="#9A8A89" stop-opacity="0.6"/>
<stop offset="1" stop-color="#F6EEEB" stop-opacity="0.02"/>
</linearGradient>
<linearGradient id="paint1_linear_3407_20161" x1="20.2631" y1="37.0631" x2="18.3472" y2="39.5017" gradientUnits="userSpaceOnUse">
<stop offset="0.07" stop-color="#F6EEEB" stop-opacity="0.2"/>
<stop offset="0.84" stop-color="#9A8A89" stop-opacity="0.6"/>
</linearGradient>
<linearGradient id="paint2_linear_3407_20161" x1="32.0559" y1="24.9733" x2="34.3054" y2="22.9749" gradientUnits="userSpaceOnUse">
<stop offset="0.07" stop-color="#F6EEEB" stop-opacity="0.2"/>
<stop offset="0.84" stop-color="#9A8A89" stop-opacity="0.6"/>
</linearGradient>
<linearGradient id="paint3_linear_3407_20161" x1="11.5721" y1="32.1078" x2="18.3759" y2="32.995" gradientUnits="userSpaceOnUse">
<stop offset="0.07" stop-color="#F6EEEB" stop-opacity="0.2"/>
<stop offset="0.84" stop-color="#9A8A89" stop-opacity="0.6"/>
</linearGradient>
</defs>
</svg>
