<svg width="52" height="60" viewBox="0 0 52 60" fill="none" xmlns="http://www.w3.org/2000/svg">
<path d="M21.6934 40C17.7926 40 12.5915 36.7902 11.9414 34.8643C11.9414 32.2967 17.1425 28.4445 19.0929 25.2347C21.0433 22.0249 23.6439 19.4571 26.2444 20.099C28.8449 20.741 39.2471 31.0124 39.8973 34.8643C40.4174 37.9459 36.2132 39.5721 34.046 40H21.6934Z" fill="#F8F1EF"/>
<path d="M24.3885 34.2525C27.6255 35.6768 31.1322 36.6515 31.9414 39.5C39.2247 39.5 38.1458 36.1515 37.3365 34.2525C36.5273 32.3535 21.1514 32.8283 24.3885 34.2525Z" fill="url(#paint0_linear_3407_19747)"/>
<path d="M37.9424 32C35.6221 29.041 24.0272 21.8295 26.2749 21.9287C28.5684 22.03 32.5782 24.4395 33.9364 26.9461C35.8835 28.8232 37.6716 30.9349 37.9424 32Z" fill="url(#paint1_linear_3407_19747)"/>
<path fill-rule="evenodd" clip-rule="evenodd" d="M11.9414 34.8643C12.5915 36.7902 17.7926 40 21.6934 40H34.046C36.2132 39.5721 40.4174 37.9459 39.8973 34.8643C39.2471 31.0124 28.8449 20.741 26.2444 20.099C23.6439 19.4571 21.0433 22.0249 19.0929 25.2347C18.3156 26.5139 17.022 27.8951 15.7471 29.2564C13.823 31.3109 11.9414 33.3199 11.9414 34.8643ZM12.9414 34.3779C13.5451 36.1112 18.3747 39 21.9969 39H33.4671C35.4795 38.6149 39.3834 37.1513 38.9004 34.3779C38.2967 30.9111 28.6376 21.6669 26.2228 21.0891C23.808 20.5114 21.3932 22.8224 19.5821 25.7112C18.8603 26.8625 17.6591 28.1056 16.4753 29.3308C14.6886 31.1798 12.9414 32.9879 12.9414 34.3779Z" fill="#B6B1B0"/>
<defs>
<linearGradient id="paint0_linear_3407_19747" x1="30.8949" y1="38.5253" x2="30.8949" y2="33" gradientUnits="userSpaceOnUse">
<stop stop-color="#9A8A89" stop-opacity="0.6"/>
<stop offset="1" stop-color="#F6EEEB" stop-opacity="0.2"/>
</linearGradient>
<linearGradient id="paint1_linear_3407_19747" x1="35.7206" y1="30.3393" x2="28.6288" y2="22.3755" gradientUnits="userSpaceOnUse">
<stop stop-color="#9A8A89" stop-opacity="0.6"/>
<stop offset="1" stop-color="#F6EEEB" stop-opacity="0.2"/>
</linearGradient>
</defs>
</svg>
