<svg width="52" height="60" viewBox="0 0 52 60" fill="none" xmlns="http://www.w3.org/2000/svg">
<path d="M38.4131 29.3685C39.5188 24.405 31.2257 21.096 27.3556 20.5445C25.6968 20.2036 17.9568 18.89 13.5338 22.199C10.7694 29.3685 14.0867 33.7805 17.9568 37.0895C21.827 40.3986 22.3798 38.744 27.3556 37.0895C32.8842 37.641 37.3073 34.332 38.4131 29.3685Z" fill="#F8F1EF"/>
<path d="M26.4697 26C24.4697 24.5 17.0126 24.5 16.5126 21.5C12.0126 21.5 12.7364 24.5 13.2364 26.5C13.7364 28.5 28.4697 27.5 26.4697 26Z" fill="url(#paint0_linear_3407_19966)"/>
<path d="M32.9707 29C34.9707 29 32.3589 34.25 31.3589 35.75C30.6737 36.95 28.7404 36.9167 27.8593 36.75C26.526 37.25 23.6593 38.35 22.8593 38.75C21.8593 39.25 18.8593 35.75 18.8593 34.25C18.8593 32.75 21.3593 32.25 25.3593 32.25C29.3593 32.25 27.0136 32.5 26.8593 33.25C26.4563 35.209 30.9707 29 32.9707 29Z" fill="url(#paint1_linear_3407_19966)"/>
<path fill-rule="evenodd" clip-rule="evenodd" d="M27.6393 20.5445C31.6583 21.096 40.2704 24.405 39.1221 29.3685C37.9738 34.332 33.3805 37.641 27.6393 37.0895C26.4784 37.4613 25.5494 37.833 24.761 38.1484C22.0403 39.2369 20.9951 39.6551 17.8791 37.0895C13.8601 33.7805 10.4152 29.3685 13.2859 22.199C17.8791 18.89 25.9167 20.2036 27.6393 20.5445ZM27.5433 21.1853C31.3613 21.6974 39.5428 24.7701 38.452 29.379C37.3611 33.988 32.9975 37.0607 27.5433 36.5485C26.4405 36.8937 25.5579 37.2389 24.8089 37.5318C22.2243 38.5426 21.2313 38.9309 18.2711 36.5485C14.453 33.4759 11.1804 29.379 13.9076 22.7216C18.2711 19.649 25.9068 20.8688 27.5433 21.1853Z" fill="#B6B1B0"/>
<defs>
<linearGradient id="paint0_linear_3407_19966" x1="17.2165" y1="22" x2="17.2165" y2="27.8191" gradientUnits="userSpaceOnUse">
<stop stop-color="#9A8A89" stop-opacity="0.6"/>
<stop offset="1" stop-color="#F6EEEB" stop-opacity="0.2"/>
</linearGradient>
<linearGradient id="paint1_linear_3407_19966" x1="25.6865" y1="32" x2="25.6865" y2="38.7985" gradientUnits="userSpaceOnUse">
<stop stop-color="#9A8A89" stop-opacity="0.6"/>
<stop offset="1" stop-color="#F6EEEB" stop-opacity="0.2"/>
</linearGradient>
</defs>
</svg>
