<svg width="51" height="60" viewBox="0 0 51 60" fill="none" xmlns="http://www.w3.org/2000/svg">
<path d="M27.4725 21.1016C24.7459 21.1016 20.8873 22.1905 17.1818 22.4009C16.5641 22.4359 16.096 22.9912 16.2251 23.5962C16.8617 26.5806 18.2635 31.5243 19.3743 34.4513C21.3989 39.7858 24.0984 40.4539 26.7978 39.7863C29.4973 39.1188 31.5219 37.1166 32.1968 33.1172C32.761 29.7737 35.5711 29.1062 34.896 23.7709C34.4441 20.1995 29.4973 21.1016 27.4725 21.1016Z" fill="#F8F1EF"/>
<path d="M31.914 28.3104C29.4935 26.8779 23.7668 31.7362 20.4061 32.9478C20.3047 32.9843 20.1989 33.004 20.0969 32.9692C19.8122 32.8722 19.3334 32.5244 18.8851 31.6249C18.1997 30.2498 14.9999 26.9607 24.3682 24.7495C33.3124 22.6385 34.8229 25.5364 34.1118 28.2411C33.8813 29.1183 32.6945 28.7724 31.914 28.3104Z" fill="url(#paint0_linear_3407_20081)"/>
<path fill-rule="evenodd" clip-rule="evenodd" d="M22.557 21.6955C24.3775 21.3881 26.0737 21.1017 27.472 21.1017C27.7744 21.1017 28.142 21.0816 28.55 21.0592C30.8741 20.932 34.5111 20.7329 34.8955 23.7709C35.3142 27.0798 34.3924 28.5933 33.4972 30.0632C32.949 30.9634 32.4107 31.8473 32.1964 33.1172C31.5214 37.1166 29.4968 39.1189 26.7974 39.7864C24.0979 40.4539 21.3985 39.7859 19.3739 34.4514C18.263 31.5244 16.8612 26.5806 16.2246 23.5963C16.0956 22.9913 16.5637 22.436 17.1813 22.4009C18.9864 22.2984 20.8278 21.9875 22.557 21.6955ZM22.8667 22.6223C24.4956 22.3472 26.0132 22.091 27.2644 22.091C27.535 22.091 27.8638 22.073 28.2289 22.053C30.3084 21.9392 33.5625 21.761 33.9065 24.4792C34.2811 27.4398 33.4563 28.794 32.6554 30.1092C32.1648 30.9147 31.6832 31.7055 31.4914 32.8417C30.8875 36.4201 29.0761 38.2116 26.6608 38.8089C24.2455 39.4061 21.8302 38.8084 20.0187 34.0354C19.0395 31.4555 17.8078 27.1244 17.2268 24.4433C17.0958 23.8387 17.5637 23.2847 18.1811 23.246C19.7563 23.1475 21.3592 22.8769 22.8667 22.6223Z" fill="#B6B1B0"/>
<defs>
<linearGradient id="paint0_linear_3407_20081" x1="23" y1="31" x2="28.5" y2="22" gradientUnits="userSpaceOnUse">
<stop stop-color="#F6EEEB" stop-opacity="0.2"/>
<stop offset="1" stop-color="#9A8A89" stop-opacity="0.6"/>
</linearGradient>
</defs>
</svg>
