<svg width="51" height="60" viewBox="0 0 51 60" fill="none" xmlns="http://www.w3.org/2000/svg">
<path d="M40.2716 44.6894C26.7904 60.5585 11.3833 46.673 9.45746 39.7303C8.49452 33.7796 9.45746 25.8446 10.4204 18.9019C11.3833 11.9591 20.0497 7 24.8644 7C29.6791 7 39.3087 7.99182 41.2346 20.8855C43.1604 33.7792 41.2346 43.5559 40.2716 44.6894Z" fill="#F8F1EF"/>
<path fill-rule="evenodd" clip-rule="evenodd" d="M8.48163 40.4576C10.5242 47.5547 26.8651 61.7487 41.1633 45.5269C42.1846 44.3682 44.2272 34.3743 42.1846 21.1941C40.142 8.01386 29.6651 6.5 24.5586 6.5C19.4521 6.5 10.5242 12.0693 9.50293 19.1663C8.48163 26.2634 7.46033 34.3747 8.48163 40.4576ZM9.45746 39.7303C11.3833 46.673 26.7904 60.5585 40.2716 44.6894C41.2345 43.5559 43.1604 33.7792 41.2345 20.8855C39.3087 7.99182 29.6791 7 24.8644 7C20.0497 7 11.3833 11.9591 10.4204 18.9018C9.45746 25.8446 8.49452 33.7796 9.45746 39.7303Z" fill="#B6B1B0"/>
<path d="M24.7597 28.4082H15.3451C14.9179 28.4082 14.5379 28.1368 14.3993 27.7328L11.596 19.5657C11.3518 18.8541 11.9511 18.1379 12.6945 18.2528L24.8346 20.1284C24.8969 20.138 24.9598 20.1417 25.0227 20.1395L38.5693 19.6599C39.2798 19.6347 39.7889 20.3382 39.5429 21.0053L38.2291 24.5672C38.1882 24.678 38.1673 24.7951 38.1673 24.9132V31.5947C38.1673 32.2824 37.4893 32.7648 36.8396 32.5395L25.0874 28.4634C24.982 28.4268 24.8712 28.4082 24.7597 28.4082Z" fill="url(#paint0_linear_3407_19516)"/>
<path d="M40.114 42.9314C40.3012 37.3913 40.2917 37.1727 38.2213 32.9139L40.114 42.9314Z" fill="url(#paint1_linear_3407_19516)"/>
<path d="M17.7863 40.929C19.932 33.5526 20.0381 33.2682 24.4993 28.4676L17.7863 40.929Z" fill="url(#paint2_linear_3407_19516)"/>
<defs>
<linearGradient id="paint0_linear_3407_19516" x1="23.6673" y1="28.7143" x2="27.4217" y2="16.0119" gradientUnits="userSpaceOnUse">
<stop stop-color="#9A8A89" stop-opacity="0.6"/>
<stop offset="1" stop-color="#F6EEEB" stop-opacity="0.2"/>
</linearGradient>
<linearGradient id="paint1_linear_3407_19516" x1="38.1232" y1="33.5474" x2="39.9834" y2="38.6476" gradientUnits="userSpaceOnUse">
<stop offset="0.07" stop-color="#F6EEEB" stop-opacity="0.2"/>
<stop offset="0.84" stop-color="#9A8A89" stop-opacity="0.6"/>
</linearGradient>
<linearGradient id="paint2_linear_3407_19516" x1="24.3513" y1="29.3411" x2="19.7038" y2="35.2619" gradientUnits="userSpaceOnUse">
<stop offset="0.07" stop-color="#F6EEEB" stop-opacity="0.2"/>
<stop offset="0.84" stop-color="#9A8A89" stop-opacity="0.6"/>
</linearGradient>
</defs>
</svg>
