<svg width="52" height="60" viewBox="0 0 52 60" fill="none" xmlns="http://www.w3.org/2000/svg">
<path d="M38.4131 30.6315C39.5188 35.595 31.2257 38.904 27.3556 39.4555C25.6968 39.7964 17.9568 41.11 13.5338 37.801C10.7694 30.6315 14.0867 26.2195 17.9568 22.9105C21.827 19.6014 22.3798 21.256 27.3556 22.9105C32.8842 22.359 37.3073 25.668 38.4131 30.6315Z" fill="#F8F1EF"/>
<path d="M26.4697 34C24.4697 35.5 17.0126 35.5 16.5126 38.5C12.0126 38.5 12.7364 35.5 13.2364 33.5C13.7364 31.5 28.4697 32.5 26.4697 34Z" fill="url(#paint0_linear_3407_19828)"/>
<path d="M32.9707 31C34.9707 31 32.3589 25.75 31.3589 24.25C30.6737 23.05 28.7404 23.0833 27.8593 23.25C26.526 22.75 23.6593 21.65 22.8593 21.25C21.8593 20.75 18.8593 24.25 18.8593 25.75C18.8593 27.25 21.3593 27.75 25.3593 27.75C29.3593 27.75 27.0136 27.5 26.8593 26.75C26.4563 24.791 30.9707 31 32.9707 31Z" fill="url(#paint1_linear_3407_19828)"/>
<path fill-rule="evenodd" clip-rule="evenodd" d="M27.6393 39.4555C31.6583 38.904 40.2704 35.595 39.1221 30.6315C37.9738 25.668 33.3805 22.359 27.6393 22.9105C26.4784 22.5387 25.5494 22.167 24.761 21.8516C22.0403 20.7631 20.9951 20.3449 17.8791 22.9105C13.8601 26.2195 10.4152 30.6315 13.2859 37.801C17.8791 41.11 25.9167 39.7964 27.6393 39.4555ZM27.5433 38.8147C31.3613 38.3026 39.5428 35.2299 38.452 30.621C37.3611 26.012 32.9975 22.9393 27.5433 23.4515C26.4405 23.1063 25.5579 22.7611 24.8089 22.4682C22.2243 21.4574 21.2313 21.0691 18.2711 23.4515C14.453 26.5241 11.1804 30.621 13.9076 37.2784C18.2711 40.351 25.9068 39.1312 27.5433 38.8147Z" fill="#B6B1B0"/>
<defs>
<linearGradient id="paint0_linear_3407_19828" x1="17.2165" y1="38" x2="17.2165" y2="32.1809" gradientUnits="userSpaceOnUse">
<stop stop-color="#9A8A89" stop-opacity="0.6"/>
<stop offset="1" stop-color="#F6EEEB" stop-opacity="0.2"/>
</linearGradient>
<linearGradient id="paint1_linear_3407_19828" x1="25.6865" y1="28" x2="25.6865" y2="21.2015" gradientUnits="userSpaceOnUse">
<stop stop-color="#9A8A89" stop-opacity="0.6"/>
<stop offset="1" stop-color="#F6EEEB" stop-opacity="0.2"/>
</linearGradient>
</defs>
</svg>
