<svg width="51" height="60" viewBox="0 0 51 60" fill="none" xmlns="http://www.w3.org/2000/svg">
<path d="M17.4409 38.8789C14.4508 38.8789 15.0488 31.5335 15.0488 24.188C15.0725 21.1268 24.0195 17.4554 27.0096 18.0675C29.9998 18.6796 28.8037 21.7402 31.7938 21.7402C34.784 21.7402 37.1761 26.0244 35.382 34.5941C33.5879 43.1638 25.2155 41.9395 22.2254 41.9395C19.2353 41.9395 20.4311 38.8789 17.4409 38.8789Z" fill="#F8F1EF"/>
<path d="M18.4382 33.7743C15.9472 31.8109 17.1927 28.8657 18.4382 27.3931C21.5 23.7741 28 25.3922 34.5 32.3931C36.5987 34.6535 35.8592 37.3474 31.5 34.8931C27.1408 32.4388 20.9292 35.7378 18.4382 33.7743Z" fill="url(#paint0_linear_3407_20042)"/>
<path fill-rule="evenodd" clip-rule="evenodd" d="M15.0236 27.3803C14.9507 33.5205 14.887 38.8789 17.4409 38.8789C18.936 38.8789 19.3846 39.6441 19.8332 40.4092C20.2817 41.1744 20.7303 41.9395 22.2254 41.9395C22.5186 41.9395 22.8637 41.9513 23.2492 41.9645C26.7945 42.0855 33.7639 42.3233 35.382 34.5941C37.1761 26.0244 34.784 21.7402 31.7938 21.7402C30.2557 21.7402 29.8253 20.9304 29.363 20.0605C28.9265 19.2394 28.4616 18.3648 27.0096 18.0675C24.0195 17.4554 15.0725 21.1268 15.0488 24.188C15.0488 25.2597 15.0361 26.3314 15.0236 27.3803ZM16.0214 27.5986C15.9554 33.2271 15.8978 38.139 18.2085 38.139C19.5611 38.139 19.967 38.8404 20.3729 39.5418C20.7787 40.2432 21.1846 40.9446 22.5373 40.9446C22.8026 40.9446 23.1147 40.9554 23.4635 40.9674C26.6712 41.0783 32.9768 41.2964 34.4409 34.2113C36.0641 26.3557 33.8998 22.4285 31.1944 22.4285C29.8028 22.4285 29.4134 21.6862 28.9951 20.8888C28.6002 20.1361 28.1796 19.3344 26.8658 19.0619C24.1605 18.5008 16.0656 21.8662 16.0442 24.6724C16.0442 25.6547 16.0327 26.6371 16.0214 27.5986Z" fill="#B6B1B0"/>
<defs>
<linearGradient id="paint0_linear_3407_20042" x1="26" y1="27.3926" x2="26" y2="35.3926" gradientUnits="userSpaceOnUse">
<stop stop-color="#9A8A89" stop-opacity="0.6"/>
<stop offset="1" stop-color="#F6EEEB" stop-opacity="0.2"/>
</linearGradient>
</defs>
</svg>
