<svg width="52" height="60" viewBox="0 0 52 60" fill="none" xmlns="http://www.w3.org/2000/svg">
<path d="M30.1894 20C34.0902 20 39.2913 23.2098 39.9414 25.1357C39.9414 27.7033 34.7403 31.5555 32.7899 34.7653C30.8395 37.9751 28.239 40.5429 25.6384 39.901C23.0379 39.259 12.6357 28.9876 11.9855 25.1357C11.4654 22.0541 15.6697 20.4279 17.8368 20H30.1894Z" fill="#F8F1EF"/>
<path d="M27.4627 28.2658C23.9882 26.2937 20.311 24.4441 19.4424 20.5C11.6248 20.5 12.5738 24.8706 13.4424 27.5C14.311 30.1294 30.9372 30.2378 27.4627 28.2658Z" fill="url(#paint0_linear_3407_19912)"/>
<path fill-rule="evenodd" clip-rule="evenodd" d="M39.9414 25.1357C39.2913 23.2098 34.0902 20 30.1894 20H17.8368C15.6697 20.4279 11.4654 22.0541 11.9855 25.1357C12.6357 28.9876 23.0379 39.259 25.6384 39.901C28.239 40.5429 30.8395 37.9751 32.7899 34.7653C33.5672 33.4861 34.8608 32.1049 36.1357 30.7436C38.0598 28.6891 39.9414 26.6801 39.9414 25.1357ZM38.9414 25.6221C38.3377 23.8888 33.5081 21 29.8859 21H18.4157C16.4034 21.3851 12.4994 22.8487 12.9824 25.6221C13.5861 29.0889 23.2453 38.3331 25.6601 38.9109C28.0748 39.4886 30.4896 37.1776 32.3007 34.2888C33.0225 33.1375 34.2237 31.8944 35.4075 30.6692C37.1942 28.8202 38.9414 27.0121 38.9414 25.6221Z" fill="#B6B1B0"/>
<defs>
<linearGradient id="paint0_linear_3407_19912" x1="20.4788" y1="22.3497" x2="20.4788" y2="30" gradientUnits="userSpaceOnUse">
<stop stop-color="#9A8A89" stop-opacity="0.6"/>
<stop offset="1" stop-color="#F6EEEB" stop-opacity="0.2"/>
</linearGradient>
</defs>
</svg>
