<svg width="51" height="60" viewBox="0 0 51 60" fill="none" xmlns="http://www.w3.org/2000/svg">
<path d="M27.6767 43.9998C33.4959 43.9998 37.8966 44.3143 39.5592 41C40.3906 36.0286 36.9451 31.4596 35.9899 27.4284C35.0591 23.5 31.002 14.9998 24.3514 14.9998C17.7008 14.9998 9.38755 31.5712 9.38755 37.3712C9.38755 43.1712 7.7249 43.9998 11.8815 43.9998H27.6767Z" fill="#F8F1EF"/>
<path d="M17.7213 37.6179C14.1289 39.0588 14.3474 40.8406 13.6289 43.002C17.2213 44.4429 35.6832 44.102 37.1202 39.0588C37.5597 37.5157 21.3137 36.177 17.7213 37.6179Z" fill="url(#paint0_linear_3407_19601)"/>
<path fill-rule="evenodd" clip-rule="evenodd" d="M30.5844 44.0436C29.6378 44.0208 28.6629 43.9974 27.6761 43.9974H11.8809C8.86765 43.9974 8.91258 43.562 9.16528 41.1128C9.26116 40.1834 9.38696 38.9642 9.38696 37.3688C9.38696 31.5688 17.7002 14.9974 24.3508 14.9974C31.0014 14.9974 35.0459 23.392 35.9893 27.426C36.3943 29.1577 37.2673 30.8831 38.1505 32.6288C39.5991 35.492 41.0752 38.4095 40.5588 41.498C39.1781 44.2502 35.2196 44.155 30.5844 44.0436ZM30.9493 43.096C29.8437 43.0478 28.6879 42.9974 27.5125 42.9974H12.7045C9.87958 42.9974 9.9217 42.592 10.1586 40.3117C10.2485 39.4465 10.3664 38.3113 10.3664 36.826C10.3664 31.426 18.1601 15.9974 24.395 15.9974C30.6299 15.9974 34.2564 23.8573 35.3061 27.5688C35.8161 29.3719 36.6261 31.0332 37.4104 32.6416C38.7704 35.431 40.053 38.0614 39.5587 40.9972C38.3358 43.418 34.9751 43.2715 30.9493 43.096Z" fill="#B6B1B0"/>
<defs>
<linearGradient id="paint0_linear_3407_19601" x1="24.7403" y1="33.1761" x2="24.7403" y2="43.8564" gradientUnits="userSpaceOnUse">
<stop offset="0.17859" stop-color="#F6EEEB" stop-opacity="0.2"/>
<stop offset="1" stop-color="#9A8A89" stop-opacity="0.6"/>
</linearGradient>
</defs>
</svg>
