<svg width="52" height="60" viewBox="0 0 52 60" fill="none" xmlns="http://www.w3.org/2000/svg">
<path d="M13.9414 26.3697C24.7646 13.2541 35.5882 24.0895 37.2972 26.3708L37.8673 26.94C38.8752 27.5103 29.3223 36.6359 26.474 39.4875C23.6257 42.3391 19.0684 32.6437 13.9414 26.3697Z" fill="#F8F1EF"/>
<path d="M20.6418 24.005C22.9246 24.1223 28.8666 23.8328 31.9777 24.3792C32.5609 24.4816 32.8346 25.1191 32.4512 25.5703C30.0936 28.3451 24.1896 28.2219 20.4462 27.8101C20.0816 27.77 16.4702 29.9472 17.6606 26.9567C18.851 23.9663 18.057 23.8721 20.6418 24.005Z" fill="url(#paint0_linear_3407_19939)"/>
<path d="M16.4416 29C18.4352 32.1883 27.666 39.3369 25.4414 39C23.1715 38.6562 20.1103 35.8189 19.0255 33.1825C17.2883 31.1095 16.598 30.0878 16.4416 29Z" fill="url(#paint1_linear_3407_19939)"/>
<path fill-rule="evenodd" clip-rule="evenodd" d="M37.2972 26.3708C35.5882 24.0895 24.7646 13.2541 13.9414 26.3697C15.4694 28.2396 16.9468 30.4134 18.3435 32.4683C21.6331 37.3084 24.4746 41.4892 26.474 39.4875C26.9009 39.0601 27.4784 38.4918 28.1483 37.8325C31.9486 34.0927 38.7242 27.4249 37.8673 26.94L37.2972 26.3708ZM36.3509 26.7337C34.7843 24.6806 24.8627 14.9287 14.9414 26.7327C16.3421 28.4156 17.6964 30.372 18.9767 32.2215C21.9921 36.5775 24.5968 40.3403 26.4296 38.5388C26.8209 38.1541 27.3503 37.6427 27.9644 37.0493C31.448 33.6835 37.6589 27.6824 36.8734 27.246L36.3509 26.7337Z" fill="#B6B1B0"/>
<defs>
<linearGradient id="paint0_linear_3407_19939" x1="24.5747" y1="28.374" x2="24.8751" y2="22.3577" gradientUnits="userSpaceOnUse">
<stop stop-color="#F6EEEB" stop-opacity="0.2"/>
<stop offset="1" stop-color="#9A8A89" stop-opacity="0.6"/>
</linearGradient>
<linearGradient id="paint1_linear_3407_19939" x1="16.9415" y1="29.7275" x2="23.1494" y2="38.3981" gradientUnits="userSpaceOnUse">
<stop stop-color="#9A8A89" stop-opacity="0.6"/>
<stop offset="1" stop-color="#F6EEEB" stop-opacity="0.2"/>
</linearGradient>
</defs>
</svg>
