<svg width="52" height="60" viewBox="0 0 52 60" fill="none" xmlns="http://www.w3.org/2000/svg">
<path d="M21.3571 22.3669C14.2953 22.9654 13.1184 29.5488 11.9414 34.3368C14.2953 40.3218 14.2953 34.3368 27.242 37.9269C40.1886 41.5169 37.2462 35.5338 39.6001 28.3518C41.954 21.1699 31.3613 18.7759 31.3613 20.5714C31.3613 22.3669 28.4189 21.7684 21.3571 22.3669Z" fill="#F8F1EF"/>
<path d="M37.1612 22C37.1612 24.5 30.9424 24 28.9421 25C28.4424 25 24.2214 27 26.4418 27C27.5598 27 35.9403 32.5 37.9403 28C39.9403 23.5 37.6612 23.5 37.1612 22Z" fill="url(#paint0_linear_3407_19858)"/>
<path fill-rule="evenodd" clip-rule="evenodd" d="M11.9918 33.521C13.1264 28.8337 14.555 22.932 21.2585 22.3669C23.3019 22.1946 25.0021 22.1215 26.3875 22.0619C29.8154 21.9146 31.3156 21.8501 31.3156 20.5714C31.3156 18.7759 41.9644 21.1699 39.598 28.3518C39.0642 29.9718 38.8014 31.5307 38.565 32.9325C37.7534 37.7458 37.254 40.7072 27.1745 37.9269C20.863 36.1859 17.6121 36.6967 15.6679 37.0021C13.6029 37.3266 13.0118 37.4195 11.793 34.3368C11.8589 34.07 11.9248 33.7976 11.9918 33.521ZM12.6856 33.4261C13.7634 29.2596 15.1206 24.0136 21.4889 23.5113C23.4301 23.3582 25.0454 23.2932 26.3615 23.2402C29.618 23.1092 31.0432 23.0519 31.0432 21.9153C31.0432 20.3193 41.1595 22.4473 38.9114 28.8313C38.4044 30.2712 38.1547 31.6569 37.9301 32.903C37.159 37.1815 36.6846 39.8138 27.1091 37.3424C21.1132 35.7949 18.0249 36.2489 16.1778 36.5204C14.2161 36.8088 13.6546 36.8914 12.4967 34.1512C12.5593 33.9141 12.6219 33.672 12.6856 33.4261Z" fill="#B6B1B0"/>
<defs>
<linearGradient id="paint0_linear_3407_19858" x1="33.5582" y1="22" x2="33.5582" y2="29.9649" gradientUnits="userSpaceOnUse">
<stop stop-color="#9A8A89" stop-opacity="0.6"/>
<stop offset="1" stop-color="#F6EEEB" stop-opacity="0.2"/>
</linearGradient>
</defs>
</svg>
