<svg width="51" height="60" viewBox="0 0 51 60" fill="none" xmlns="http://www.w3.org/2000/svg">
<path d="M39.1744 42.8293C44.7879 40.3557 42.9165 28.605 41.6691 23.6577C40.9854 19.9483 37.9267 17.4736 35.4318 16.2368C32.937 15 32.3132 16.2368 29.8184 16.2368C27.3235 16.2368 29.9013 15 20.4627 15C12.978 15 8.54586 22.6174 7.98829 24.2761C7.36467 26.1313 6.11704 33.5535 7.9882 38.5007C9.85935 43.448 15.4728 45.9216 17.9677 44.6848C20.4626 43.448 26.076 42.8293 28.5709 42.8293C31.0658 42.8293 33.561 45.303 39.1744 42.8293Z" fill="#F8F1EF"/>
<path d="M35.2 38.2271C38.262 40.1363 41.324 33.2193 41.982 29.967C41.9946 29.9049 42 29.842 42 29.7786C41.9999 27.749 41.9946 27.028 41.6524 25.8926C41.3882 25.0161 40.1714 25.0275 39.8055 25.8667C38.9525 27.8226 37.8878 29.4753 35.2 31.8021C32.3701 34.252 32.7789 31.0944 33.1316 27.1773C33.2234 26.1584 31.2958 25.1937 30.2766 25.2833C28.4964 25.4398 26.4009 24.8644 24.6185 24.7545C24.2785 24.7336 23.9653 24.5603 23.7631 24.2862C22.531 22.6159 20.734 21.5762 17.8909 22.1671C15.1075 22.7456 15.3319 24.887 14.0497 26.2455C13.7812 26.5301 13.3459 26.534 13.0088 26.3354C9.21483 24.1003 8.05093 23.723 8.00165 28.878C7.99948 29.1054 8.0798 29.3356 8.2278 29.5084C14.4506 36.7717 25.279 29.8994 22.8364 31.8021C20.3636 33.7283 19.1273 41.4381 20.9818 38.2271C22.8364 35.0162 28.4 32.4445 30.8727 33.7293C33.3455 35.0141 32.1091 36.2999 35.2 38.2271Z" fill="url(#paint0_linear_3407_20177)"/>
<path fill-rule="evenodd" clip-rule="evenodd" d="M41.6691 23.6577C42.9165 28.605 44.7879 40.3557 39.1744 42.8293C35.2262 44.5691 32.8207 43.8616 30.8728 43.2887C30.0512 43.047 29.3111 42.8293 28.5709 42.8293C26.076 42.8293 20.4626 43.448 17.9677 44.6848C15.4728 45.9216 9.85935 43.448 7.9882 38.5007C6.11704 33.5535 7.36467 26.1313 7.98829 24.2761C8.54586 22.6174 12.978 15 20.4627 15C26.6963 15 27.6886 15.5395 28.3625 15.9059C28.7089 16.0942 28.9712 16.2368 29.8184 16.2368C30.734 16.2368 31.3976 16.0702 31.9942 15.9205C33.0231 15.6622 33.8526 15.4539 35.4318 16.2368C37.9267 17.4736 40.9854 19.9483 41.6691 23.6577ZM40.743 24.0805C41.9212 28.698 43.6886 39.6653 38.387 41.974C34.6581 43.5979 32.3862 42.9375 30.5465 42.4028C29.7706 42.1772 29.0715 41.974 28.3725 41.974C26.0163 41.974 20.7147 42.5515 18.3584 43.7058C16.0021 44.8602 10.7005 42.5515 8.9333 37.934C7.16609 33.3166 8.34442 26.3892 8.93339 24.6577C9.45998 23.1096 13.6459 16 20.7147 16C26.6021 16 27.5393 16.5035 28.1757 16.8455C28.5029 17.0213 28.7506 17.1544 29.5507 17.1544C30.4154 17.1544 31.0422 16.9989 31.6056 16.8591C32.5774 16.618 33.3608 16.4237 34.8523 17.1544C37.2086 18.3087 40.0974 20.6184 40.743 24.0805Z" fill="#B6B1B0"/>
<path d="M17.6322 42.9695C18.254 40.3577 18.288 40.2581 20.0005 38.7032L17.6322 42.9695Z" fill="url(#paint1_linear_3407_20177)"/>
<path d="M36.423 18.5821C35.8538 23.144 35.8139 23.3194 33.099 26.2166L36.423 18.5821Z" fill="url(#paint2_linear_3407_20177)"/>
<path d="M23.0013 31.4974C17.001 33.498 11.9999 33.4976 8.00104 29.4967L13.6531 31.1127C14.5473 31.3683 15.4728 31.498 16.4029 31.4979L23.0013 31.4974Z" fill="url(#paint3_linear_3407_20177)"/>
<defs>
<linearGradient id="paint0_linear_3407_20177" x1="25" y1="39" x2="25" y2="22" gradientUnits="userSpaceOnUse">
<stop stop-color="#9A8A89" stop-opacity="0.6"/>
<stop offset="1" stop-color="#F6EEEB" stop-opacity="0.02"/>
</linearGradient>
<linearGradient id="paint1_linear_3407_20177" x1="19.9721" y1="39.0175" x2="18.4269" y2="41.1239" gradientUnits="userSpaceOnUse">
<stop offset="0.07" stop-color="#F6EEEB" stop-opacity="0.2"/>
<stop offset="0.84" stop-color="#9A8A89" stop-opacity="0.6"/>
</linearGradient>
<linearGradient id="paint2_linear_3407_20177" x1="33.0852" y1="25.6739" x2="35.338" y2="21.8222" gradientUnits="userSpaceOnUse">
<stop offset="0.07" stop-color="#F6EEEB" stop-opacity="0.2"/>
<stop offset="0.84" stop-color="#9A8A89" stop-opacity="0.6"/>
</linearGradient>
<linearGradient id="paint3_linear_3407_20177" x1="8.63821" y1="31.9452" x2="16.5102" y2="33.4124" gradientUnits="userSpaceOnUse">
<stop offset="0.07" stop-color="#F6EEEB" stop-opacity="0.2"/>
<stop offset="0.84" stop-color="#9A8A89" stop-opacity="0.6"/>
</linearGradient>
</defs>
</svg>
