<svg width="51" height="60" viewBox="0 0 51 60" fill="none" xmlns="http://www.w3.org/2000/svg">
<g clip-path="url(#clip0_3407_19658)">
<path d="M41.1592 45.1187C46.9697 45.1187 49.875 37.4535 49.875 33.6208C49.875 29.7867 45.0329 25.954 46.9697 15.4142C48.9066 4.87448 41.1592 2 36.3172 2C31.4751 2 31.4751 4.87448 15.012 6.7908C-1.45113 8.70712 -2.41955 35.5371 2.42254 47.9932C7.26463 60.4493 20.8225 59.4912 22.7593 54.7004C24.6961 49.9095 35.3487 45.1187 41.1592 45.1187Z" fill="#F6EEEB"/>
<path fill-rule="evenodd" clip-rule="evenodd" d="M50.0586 34.0579C50.0586 37.9459 47.1426 45.7218 41.3106 45.7218C35.4787 45.7218 24.7867 50.5818 22.8427 55.4418C20.8988 60.3017 7.29083 61.2737 2.43085 48.6378C-2.42912 36.0019 -1.45712 8.7845 15.0668 6.8405C25.0864 5.66172 29.0304 4.12556 31.6664 3.09885C33.3776 2.43235 34.5376 1.98053 36.4507 1.98053C41.3106 1.98053 49.0866 4.89651 47.1426 15.5885C45.8497 22.6994 47.5664 26.8007 48.8613 29.8946C49.5134 31.4526 50.0586 32.7552 50.0586 34.0579ZM49.0866 33.6878C49.0866 37.4131 46.2627 44.8637 40.6149 44.8637C34.9671 44.8637 24.6129 49.5204 22.7303 54.177C20.8477 58.8336 7.66954 59.7649 2.96306 47.6577C-1.74342 35.5504 -0.802124 9.47182 15.1999 7.60917C24.9031 6.47971 28.7225 5.00781 31.2753 4.02405C32.9325 3.38544 34.0558 2.95253 35.9084 2.95253C40.6149 2.95253 48.1453 5.74651 46.2627 15.9911C45.0107 22.8045 46.6731 26.7343 47.9271 29.6987C48.5586 31.1915 49.0866 32.4396 49.0866 33.6878Z" fill="#B6B1B0"/>
<path d="M31.6987 17.7968C34.0929 11.9583 39.7061 6.87556 45.1729 7.51151L31.6987 17.7968Z" fill="url(#paint0_linear_3407_19658)"/>
<path d="M15.5029 36.4116C11.1957 40.8428 11.0379 41.0296 9.30752 45.9987L15.5029 36.4116Z" fill="url(#paint1_linear_3407_19658)"/>
<path d="M31.8887 16.3341C27.8643 15.1819 13.6478 18.2372 13.1227 18.9698C17.9827 20.9141 19.9267 24.8021 13.1227 33.55C21.2562 35.228 30.787 31.1715 33.0476 29.9266C33.2928 31.4924 33.6388 32.3743 33.4987 32.8074C32.8282 34.8801 31.5922 38.2776 33.4319 38.7356C43.1939 38.1762 43.6483 31.8291 44.8425 30.0474C45.2405 29.4535 44.6145 27.4138 44.3794 27.0986C42.6951 24.8372 39.6318 24.6029 36.8701 26.1066C35.4375 26.3309 33.9683 26.3786 33.4078 25.9348L34.0673 23.8639V23.8639C34.2988 21.2889 33.5973 18.7165 32.0906 16.6156L31.8887 16.3341Z" fill="url(#paint2_linear_3407_19658)"/>
<path d="M8.66292 10.6815C13.2231 13.9373 13.3801 14.0842 13.8892 19.0019L8.66292 10.6815Z" fill="url(#paint3_linear_3407_19658)"/>
</g>
<defs>
<linearGradient id="paint0_linear_3407_19658" x1="31.4856" y1="14.6192" x2="40.4576" y2="5.24013" gradientUnits="userSpaceOnUse">
<stop offset="0.07" stop-color="#F6EEEB" stop-opacity="0.2"/>
<stop offset="0.84" stop-color="#9A8A89" stop-opacity="0.6"/>
</linearGradient>
<linearGradient id="paint1_linear_3407_19658" x1="9.85472" y1="45.5462" x2="12.1521" y2="39.9433" gradientUnits="userSpaceOnUse">
<stop offset="0.07" stop-color="#F6EEEB" stop-opacity="0.2"/>
<stop offset="0.84" stop-color="#9A8A89" stop-opacity="0.6"/>
</linearGradient>
<linearGradient id="paint2_linear_3407_19658" x1="35.3558" y1="36.8906" x2="38.5082" y2="17.4594" gradientUnits="userSpaceOnUse">
<stop stop-color="#F6EEEB" stop-opacity="0.2"/>
<stop offset="0.8" stop-color="#9A8A89" stop-opacity="0.6"/>
</linearGradient>
<linearGradient id="paint3_linear_3407_19658" x1="12.9022" y1="17.8669" x2="9.05543" y2="11.5897" gradientUnits="userSpaceOnUse">
<stop offset="0.07" stop-color="#F6EEEB" stop-opacity="0.2"/>
<stop offset="0.84" stop-color="#9A8A89" stop-opacity="0.6"/>
</linearGradient>
<clipPath id="clip0_3407_19658">
<rect width="50.1176" height="60" fill="white" transform="matrix(1 0 0 -1 0.0585938 60)"/>
</clipPath>
</defs>
</svg>
