<svg width="51" height="60" viewBox="0 0 51 60" fill="none" xmlns="http://www.w3.org/2000/svg">
<path d="M33.5591 38.8789C36.5492 38.8789 35.9512 31.5335 35.9512 24.188C35.9275 21.1268 26.9805 17.4554 23.9904 18.0675C21.0002 18.6796 22.1963 21.7402 19.2062 21.7402C16.216 21.7402 13.8239 26.0244 15.618 34.5941C17.4121 43.1638 25.7845 41.9395 28.7746 41.9395C31.7647 41.9395 30.5689 38.8789 33.5591 38.8789Z" fill="#F8F1EF"/>
<path d="M32.5618 33.7743C35.0528 31.8109 33.8073 28.8657 32.5618 27.3931C29.5 23.7741 23 25.3922 16.5 32.3931C14.4013 34.6535 15.1408 37.3474 19.5 34.8931C23.8592 32.4388 30.0708 35.7378 32.5618 33.7743Z" fill="url(#paint0_linear_3407_20133)"/>
<path fill-rule="evenodd" clip-rule="evenodd" d="M35.9764 27.3803C36.0493 33.5205 36.113 38.8789 33.5591 38.8789C32.064 38.8789 31.6154 39.6441 31.1668 40.4092C30.7183 41.1744 30.2697 41.9395 28.7746 41.9395C28.4814 41.9395 28.1363 41.9513 27.7508 41.9645C24.2055 42.0855 17.2361 42.3233 15.618 34.5941C13.8239 26.0244 16.216 21.7402 19.2062 21.7402C20.7443 21.7402 21.1747 20.9304 21.637 20.0605C22.0735 19.2394 22.5384 18.3648 23.9904 18.0675C26.9805 17.4554 35.9275 21.1268 35.9512 24.188C35.9512 25.2597 35.9639 26.3314 35.9764 27.3803ZM34.9786 27.5986C35.0446 33.2271 35.1022 38.139 32.7915 38.139C31.4389 38.139 31.033 38.8404 30.6271 39.5418C30.2213 40.2432 29.8154 40.9446 28.4627 40.9446C28.1974 40.9446 27.8853 40.9554 27.5365 40.9674C24.3288 41.0783 18.0232 41.2964 16.5591 34.2113C14.9359 26.3557 17.1002 22.4285 19.8056 22.4285C21.1972 22.4285 21.5866 21.6862 22.0049 20.8888C22.3998 20.1361 22.8204 19.3344 24.1342 19.0619C26.8395 18.5008 34.9344 21.8662 34.9558 24.6724C34.9558 25.6547 34.9673 26.6371 34.9786 27.5986Z" fill="#B6B1B0"/>
<defs>
<linearGradient id="paint0_linear_3407_20133" x1="25" y1="27.3926" x2="25" y2="35.3926" gradientUnits="userSpaceOnUse">
<stop stop-color="#9A8A89" stop-opacity="0.6"/>
<stop offset="1" stop-color="#F6EEEB" stop-opacity="0.2"/>
</linearGradient>
</defs>
</svg>
