<svg width="52" height="60" viewBox="0 0 52 60" fill="none" xmlns="http://www.w3.org/2000/svg">
<path d="M13.042 30.6315C11.9362 35.595 20.2294 38.904 24.0995 39.4555C25.7583 39.7964 33.4983 41.11 37.9213 37.801C40.6857 30.6315 37.3684 26.2195 33.4983 22.9105C29.6281 19.6014 29.0753 21.256 24.0995 22.9105C18.5709 22.359 14.1477 25.668 13.042 30.6315Z" fill="#F8F1EF"/>
<path d="M30.2176 33.5C32.2176 35 34.4414 35.5 34.9414 38.5C39.4414 38.5 38.7176 35.5 38.2176 33.5C37.7176 31.5 28.2176 32 30.2176 33.5Z" fill="url(#paint0_linear_3407_19706)"/>
<path d="M20.0961 27.75C18.0961 27.75 19.0961 25.75 20.0961 24.25C20.7813 23.05 22.7147 23.0833 23.5957 23.25C24.929 22.75 27.7957 21.65 28.5957 21.25C29.5957 20.75 32.5957 24.25 32.5957 25.75C32.5957 27.25 30.0957 27.75 26.0957 27.75C22.0957 27.75 24.4414 27.5 24.5957 26.75C24.9987 24.791 22.0961 27.75 20.0961 27.75Z" fill="url(#paint1_linear_3407_19706)"/>
<path fill-rule="evenodd" clip-rule="evenodd" d="M23.8138 39.4555C19.7948 38.904 11.1827 35.595 12.331 30.6315C13.4793 25.668 18.0726 22.359 23.8138 22.9105C24.9747 22.5387 25.9038 22.167 26.6921 21.8516C29.4128 20.7631 30.458 20.3449 33.5741 22.9105C37.5931 26.2195 41.0379 30.6315 38.1672 37.801C33.5741 41.11 25.5364 39.7964 23.8138 39.4555ZM23.9098 38.8147C20.0918 38.3026 11.9103 35.2299 13.0012 30.621C14.092 26.012 18.4556 22.9393 23.9098 23.4515C25.0127 23.1063 25.8953 22.7611 26.6442 22.4682C29.2289 21.4574 30.2218 21.0691 33.1821 23.4515C37.0001 26.5241 40.2727 30.621 37.5455 37.2784C33.1821 40.351 25.5463 39.1312 23.9098 38.8147Z" fill="#B6B1B0"/>
<defs>
<linearGradient id="paint0_linear_3407_19706" x1="34.2376" y1="38" x2="34.2376" y2="32.1809" gradientUnits="userSpaceOnUse">
<stop stop-color="#9A8A89" stop-opacity="0.6"/>
<stop offset="1" stop-color="#F6EEEB" stop-opacity="0.2"/>
</linearGradient>
<linearGradient id="paint1_linear_3407_19706" x1="25.7686" y1="28" x2="25.7686" y2="21.2015" gradientUnits="userSpaceOnUse">
<stop stop-color="#9A8A89" stop-opacity="0.6"/>
<stop offset="1" stop-color="#F6EEEB" stop-opacity="0.2"/>
</linearGradient>
</defs>
</svg>
