<svg width="51" height="60" viewBox="0 0 51 60" fill="none" xmlns="http://www.w3.org/2000/svg">
<path d="M36.2136 41.8579C42.0404 41.8575 45.278 32.0565 43.6299 27.1559C41.982 18.1073 23.8529 10.0025 19.7328 14.0864C13.2182 20.5436 11.4925 23.8876 7.37232 28.7884C3.25217 33.6892 9.84441 41.8569 13.1409 45.1249C16.054 48.0128 21.8797 47.2049 24.6774 45.1249C27.9735 42.6743 31.2692 41.8582 36.2136 41.8579Z" fill="#F8F1EF"/>
<path d="M20.2261 39.5762L39.4707 36.1282C34.8167 33.3682 15.5722 33.368 12.0817 33.368C8.59122 33.368 14.4087 36.128 12.0817 36.128C9.75471 36.128 6.14372 34.5481 8.4707 37.9971C10.7977 41.4461 11.6437 42.9284 13.9707 44.9978C15.8323 46.6534 20.1204 46.131 22.8352 45.9011L20.2261 39.5762Z" fill="url(#paint0_linear_3407_19614)"/>
<path fill-rule="evenodd" clip-rule="evenodd" d="M43.6299 27.1559C45.278 32.0565 42.0404 41.8575 36.2136 41.8579C31.2692 41.8582 27.9735 42.6743 24.6774 45.1249C21.8797 47.2049 16.054 48.0128 13.1409 45.1249C9.84441 41.8569 3.25217 33.6892 7.37232 28.7884C8.74556 27.155 9.85281 25.6945 10.96 24.234C13.1748 21.3127 15.3895 18.3914 19.7328 14.0864C23.8529 10.0025 41.982 18.1073 43.6299 27.1559ZM42.6525 27.3232C44.2138 31.9356 41.1466 41.16 35.6265 41.1603C30.9423 41.1607 27.8201 41.9287 24.6974 44.2352C22.047 46.1928 16.5279 46.9532 13.7682 44.2352C10.6452 41.1594 4.39988 33.4722 8.30318 28.8597C9.60414 27.3223 10.6531 25.9477 11.7021 24.5732C13.8003 21.8237 15.8984 19.0743 20.0131 15.0225C23.9164 11.1788 41.0913 18.8068 42.6525 27.3232Z" fill="#B6B1B0"/>
<defs>
<linearGradient id="paint0_linear_3407_19614" x1="18.0227" y1="44.9192" x2="16.4877" y2="30.8888" gradientUnits="userSpaceOnUse">
<stop stop-color="#9A8A89" stop-opacity="0.6"/>
<stop offset="1" stop-color="#F6EEEB" stop-opacity="0.2"/>
</linearGradient>
</defs>
</svg>
