<svg width="51" height="60" viewBox="0 0 51 60" fill="none" xmlns="http://www.w3.org/2000/svg">
<path d="M23.5275 21.1016C26.2541 21.1016 30.1127 22.1905 33.8182 22.4009C34.4359 22.4359 34.904 22.9912 34.7749 23.5962C34.1383 26.5806 32.7365 31.5243 31.6257 34.4513C29.6011 39.7858 26.9016 40.4539 24.2022 39.7863C21.5027 39.1188 19.4781 37.1166 18.8032 33.1172C18.239 29.7737 15.4289 29.1062 16.104 23.7709C16.5559 20.1995 21.5027 21.1016 23.5275 21.1016Z" fill="#F8F1EF"/>
<path d="M20.0234 27.3397C22.3855 26.2313 27.9635 30.0324 31.2238 30.9656C31.3079 30.9897 31.3932 31.0028 31.4782 30.9823C31.7513 30.9162 32.2316 30.65 32.6803 29.9277C33.3465 28.8555 36.4568 26.2906 27.3507 24.5664C18.6868 22.9259 17.1989 25.1645 17.8729 27.2674C18.13 28.0697 19.2607 27.6977 20.0234 27.3397Z" fill="url(#paint0_linear_3407_20094)"/>
<path fill-rule="evenodd" clip-rule="evenodd" d="M33.5478 21.1016H23.5284C23.226 21.1016 22.8584 21.0815 22.4504 21.0592C20.1263 20.9319 16.4893 20.7329 16.1049 23.7709C15.6862 27.0797 16.608 28.5933 17.5032 30.0632C18.0514 30.9634 18.5897 31.8473 18.804 33.1172C19.479 37.1166 21.5036 39.1189 24.203 39.7864C26.9025 40.4539 29.6019 39.7859 31.6265 34.4514C32.7437 31.5077 33.9464 25.4942 34.5271 22.2654C34.6366 21.6565 34.1665 21.1016 33.5478 21.1016ZM32.5473 22.0909H23.736C23.4654 22.0909 23.1366 22.0729 22.7715 22.0529C20.692 21.9391 17.4379 21.761 17.0939 24.4792C16.7193 27.4398 17.5441 28.794 18.345 30.1092C18.8356 30.9146 19.3172 31.7055 19.509 32.8417C20.1129 36.4201 21.9243 38.2116 24.3396 38.8089C26.7549 39.4061 29.1702 38.8084 30.9817 34.0354C31.9674 31.4382 33.0057 26.1702 33.5274 23.2541C33.6363 22.6451 33.1659 22.0909 32.5473 22.0909Z" fill="#B6B1B0"/>
<defs>
<linearGradient id="paint0_linear_3407_20094" x1="28.6806" y1="29.4404" x2="24.8707" y2="21.6692" gradientUnits="userSpaceOnUse">
<stop stop-color="#F6EEEB" stop-opacity="0.2"/>
<stop offset="1" stop-color="#9A8A89" stop-opacity="0.6"/>
</linearGradient>
</defs>
</svg>
