<svg width="51" height="60" viewBox="0 0 51 60" fill="none" xmlns="http://www.w3.org/2000/svg">
<path d="M11.3247 44H38.2318C39.5769 44 41.5979 39.3333 40.9251 35.3333C40.4304 32.3925 40.2545 32 38.9069 26.6667C37.2729 20.1997 32.178 17.3333 26.1239 16C15.3611 18 14.6908 22 13.3454 26.6667C8.6367 32 9.98205 40 11.3247 44Z" fill="#F8F1EF"/>
<path d="M28.9019 41.8404C25.16 42.2962 17.8592 41.6308 15.0631 41.6308C11.939 41.6308 13.1887 40.7994 11.939 37.4767C11.8009 37.1093 11.6703 36.8232 11.5542 36.6048C10.7841 36.042 11.0125 35.5864 11.5542 36.6048C12.1123 37.0126 13.195 37.4767 15.0631 37.4767C19.6256 37.4767 26.7908 37.4779 29.4316 40.6361C29.8278 41.1098 29.5148 41.7657 28.9019 41.8404Z" fill="url(#paint0_linear_3407_19587)"/>
<path d="M10.0594 34C12.9283 29.386 22.6976 17.6081 19.4963 18.0957C16.2298 18.5933 14.6207 22.6847 13.0596 26.5C10.5596 29.5 10.2844 32.4257 10.0594 34Z" fill="url(#paint1_linear_3407_19587)"/>
<path fill-rule="evenodd" clip-rule="evenodd" d="M39.0495 45H10.4064C8.97711 40.7143 7.54496 32.1429 12.5575 26.4286C12.6199 26.2106 12.681 25.994 12.7417 25.7788C14.0723 21.059 15.2027 17.0494 26.1604 15C32.6051 16.4286 38.0287 19.4997 39.7681 26.4286C40.0894 27.7081 40.348 28.7223 40.562 29.561C41.3035 32.4681 41.5078 33.2689 41.9165 35.7143C42.6327 40 40.4813 45 39.0495 45ZM38.2318 44H11.3247C9.98205 40 8.63669 32 13.3454 26.6667C13.4041 26.4632 13.4615 26.261 13.5184 26.0602C14.7684 21.655 15.8303 17.9128 26.1239 16C32.178 17.3333 37.2729 20.1997 38.9069 26.6667C39.2087 27.8609 39.4517 28.8074 39.6527 29.5903C40.3493 32.3036 40.5412 33.051 40.9251 35.3333C41.5979 39.3333 39.5769 44 38.2318 44Z" fill="#B6B1B0"/>
<defs>
<linearGradient id="paint0_linear_3407_19587" x1="20.0616" y1="34.524" x2="20.0616" y2="43.6613" gradientUnits="userSpaceOnUse">
<stop stop-color="#F6EEEB" stop-opacity="0.2"/>
<stop offset="1" stop-color="#9A8A89" stop-opacity="0.6"/>
</linearGradient>
<linearGradient id="paint1_linear_3407_19587" x1="10.0596" y1="31.5" x2="19.0596" y2="19" gradientUnits="userSpaceOnUse">
<stop stop-color="#9A8A89" stop-opacity="0.6"/>
<stop offset="1" stop-color="#F6EEEB" stop-opacity="0.2"/>
</linearGradient>
</defs>
</svg>
