<svg width="52" height="60" viewBox="0 0 52 60" fill="none" xmlns="http://www.w3.org/2000/svg">
<path d="M30.1894 40C34.0902 40 39.2913 36.7902 39.9414 34.8643C39.9414 32.2967 34.7403 28.4445 32.7899 25.2347C30.8395 22.0249 28.239 19.4571 25.6384 20.099C23.0379 20.741 12.6357 31.0124 11.9855 34.8643C11.4654 37.9459 15.6697 39.5721 17.8368 40H30.1894Z" fill="#F8F1EF"/>
<path d="M33.1835 34.1562C28.5509 35.4709 21.9815 36.8706 20.8233 39.5C10.3999 39.5 13.1648 35.6393 14.653 34.1562C18.8232 30 37.8162 32.8415 33.1835 34.1562Z" fill="url(#paint0_linear_3407_19787)"/>
<path d="M13.9403 32.0031C16.2605 29.0441 30.0705 24.9036 27.8227 25.0029C25.5292 25.1042 19.3044 24.4426 17.9463 26.9492C15.9991 28.8264 14.211 30.938 13.9403 32.0031Z" fill="url(#paint1_linear_3407_19787)"/>
<path fill-rule="evenodd" clip-rule="evenodd" d="M39.9414 34.8643C39.2913 36.7902 34.0902 40 30.1894 40H17.8368C15.6697 39.5721 11.4654 37.9459 11.9855 34.8643C12.6357 31.0124 23.0379 20.741 25.6384 20.099C28.239 19.4571 30.8395 22.0249 32.7899 25.2347C33.5672 26.5139 34.8608 27.8951 36.1357 29.2564C38.0598 31.3109 39.9414 33.3199 39.9414 34.8643ZM38.9414 34.3779C38.3377 36.1112 33.5081 39 29.8859 39H18.4157C16.4034 38.6149 12.4994 37.1513 12.9824 34.3779C13.5861 30.9111 23.2453 21.6669 25.6601 21.0891C28.0748 20.5114 30.4896 22.8224 32.3007 25.7112C33.0225 26.8625 34.2237 28.1056 35.4075 29.3308C37.1942 31.1798 38.9414 32.9879 38.9414 34.3779Z" fill="#B6B1B0"/>
<defs>
<linearGradient id="paint0_linear_3407_19787" x1="23.8718" y1="38.1002" x2="23.8718" y2="33" gradientUnits="userSpaceOnUse">
<stop stop-color="#9A8A89" stop-opacity="0.6"/>
<stop offset="1" stop-color="#F6EEEB" stop-opacity="0.2"/>
</linearGradient>
<linearGradient id="paint1_linear_3407_19787" x1="16.1622" y1="30.3432" x2="23.254" y2="22.3794" gradientUnits="userSpaceOnUse">
<stop stop-color="#9A8A89" stop-opacity="0.6"/>
<stop offset="1" stop-color="#F6EEEB" stop-opacity="0.2"/>
</linearGradient>
</defs>
</svg>
