<svg width="52" height="60" viewBox="0 0 52 60" fill="none" xmlns="http://www.w3.org/2000/svg">
<path d="M21.3571 37.6331C14.2953 37.0346 13.1184 30.4512 11.9414 25.6632C14.2953 19.6782 14.2953 25.6632 27.242 22.0731C40.1886 18.4831 37.2462 24.4662 39.6001 31.6482C41.954 38.8301 31.3613 41.2241 31.3613 39.4286C31.3613 37.6331 28.4189 38.2316 21.3571 37.6331Z" fill="#F8F1EF"/>
<path d="M37.1612 38C37.1612 35.5 30.9424 36 28.9421 35C28.4424 35 24.2214 33 26.4418 33C27.5598 33 35.9403 27.5 37.9403 32C39.9403 36.5 37.6612 36.5 37.1612 38Z" fill="url(#paint0_linear_3407_19720)"/>
<path fill-rule="evenodd" clip-rule="evenodd" d="M11.9918 26.479C13.1264 31.1663 14.555 37.068 21.2585 37.6331C23.3019 37.8054 25.0021 37.8785 26.3875 37.9381C29.8154 38.0854 31.3156 38.1499 31.3156 39.4286C31.3156 41.2241 41.9644 38.8301 39.598 31.6482C39.0642 30.0282 38.8014 28.4693 38.565 27.0675C37.7534 22.2542 37.254 19.2928 27.1745 22.0731C20.863 23.8141 17.6121 23.3033 15.6679 22.9979C13.6029 22.6734 13.0118 22.5805 11.793 25.6632C11.8589 25.93 11.9248 26.2024 11.9918 26.479ZM12.6856 26.5739C13.7634 30.7404 15.1206 35.9864 21.4889 36.4887C23.4301 36.6418 25.0454 36.7068 26.3615 36.7598C29.618 36.8908 31.0432 36.9481 31.0432 38.0847C31.0432 39.6807 41.1595 37.5527 38.9114 31.1687C38.4044 29.7288 38.1547 28.3431 37.9301 27.097C37.159 22.8185 36.6846 20.1862 27.1091 22.6576C21.1132 24.2051 18.0249 23.7511 16.1778 23.4796C14.2161 23.1912 13.6546 23.1086 12.4967 25.8488C12.5593 26.0859 12.6219 26.328 12.6856 26.5739Z" fill="#B6B1B0"/>
<defs>
<linearGradient id="paint0_linear_3407_19720" x1="33.5582" y1="38" x2="33.5582" y2="30.0351" gradientUnits="userSpaceOnUse">
<stop stop-color="#9A8A89" stop-opacity="0.6"/>
<stop offset="1" stop-color="#F6EEEB" stop-opacity="0.2"/>
</linearGradient>
</defs>
</svg>
