<svg width="51" height="60" viewBox="0 0 51 60" fill="none" xmlns="http://www.w3.org/2000/svg">
<path d="M13.9036 41.8579C8.07678 41.8575 4.83922 32.0565 6.48728 27.1559C8.13519 18.1073 26.2642 10.0025 30.3844 14.0864C36.8989 20.5436 38.6247 23.8876 42.7449 28.7884C46.865 33.6892 40.2728 41.8569 36.9763 45.1249C34.0632 48.0128 28.2375 47.2049 25.4398 45.1249C22.1437 42.6743 18.848 41.8582 13.9036 41.8579Z" fill="#F8F1EF"/>
<path d="M31.685 39.5607L21.5586 29.4961C24.4598 26.6879 34.5862 33.2441 36.7621 33.2441C38.938 33.2441 35.3115 36.0523 36.7621 36.0523C38.2127 36.0523 42.0092 35.4869 40.5586 38.9961C39.108 42.5053 38.2127 42.3681 36.7621 44.4736C35.6016 46.1581 31.7509 46.23 30.0586 45.9961L31.685 39.5607Z" fill="url(#paint0_linear_3407_19547)"/>
<path fill-rule="evenodd" clip-rule="evenodd" d="M6.48728 27.1559C4.83922 32.0565 8.07678 41.8575 13.9036 41.8579C18.848 41.8582 22.1437 42.6743 25.4398 45.1249C28.2375 47.2049 34.0632 48.0128 36.9763 45.1249C40.2728 41.8569 46.865 33.6892 42.7449 28.7884C41.3716 27.155 40.2644 25.6945 39.1571 24.234C36.9423 21.3127 34.7277 18.3914 30.3844 14.0864C26.2642 10.0025 8.13518 18.1073 6.48728 27.1559ZM7.46472 27.3232C5.90339 31.9356 8.97056 41.16 14.4907 41.1603C19.1748 41.1607 22.2971 41.9287 25.4198 44.2352C28.0702 46.1928 33.5892 46.9532 36.349 44.2352C39.472 41.1594 45.7173 33.4722 41.814 28.8597C40.513 27.3223 39.4641 25.9477 38.4151 24.5732C36.3169 21.8237 34.2188 19.0743 30.1041 15.0225C26.2008 11.1788 9.02589 18.8068 7.46472 27.3232Z" fill="#B6B1B0"/>
<defs>
<linearGradient id="paint0_linear_3407_19547" x1="33.0586" y1="44.9961" x2="35.5586" y2="30.9961" gradientUnits="userSpaceOnUse">
<stop stop-color="#9A8A89" stop-opacity="0.6"/>
<stop offset="1" stop-color="#F6EEEB" stop-opacity="0.2"/>
</linearGradient>
</defs>
</svg>
