<svg width="51" height="60" viewBox="0 0 51 60" fill="none" xmlns="http://www.w3.org/2000/svg">
<path d="M14.8455 24.5972C23.3138 15.0208 32.414 18.0061 36.3118 24.6606C36.3588 24.7408 36.3939 24.8296 36.4157 24.92C38.0723 31.7945 36.3368 35.831 29.5299 40.4394C22.6777 45.0786 20.3936 38.1198 17.5386 35.8002C14.7164 33.5074 13.0101 31.7811 14.6256 25.0207C14.6625 24.8663 14.7404 24.7161 14.8455 24.5972Z" fill="#F8F1EF"/>
<path d="M17.9468 26.0458C22.2547 24.0882 28.688 25.2214 32.5488 26.6568C33.4207 26.981 33.2249 28.0385 32.3001 28.1394C27.7762 28.633 23.4094 28.8803 19.9932 28.8803C15.9004 28.8803 19.5464 32.3543 17.5 32C15.4536 31.6457 12.4898 28.5257 17.9468 26.0458Z" fill="url(#paint0_linear_3407_20120)"/>
<path fill-rule="evenodd" clip-rule="evenodd" d="M36.3118 24.6606C32.414 18.0061 23.3138 15.0208 14.8455 24.5972C14.7404 24.7161 14.6625 24.8663 14.6256 25.0207C13.0101 31.7811 14.7164 33.5074 17.5386 35.8002C18.2126 36.3478 18.8547 37.1539 19.5327 38.005C21.7266 40.759 24.2953 43.9835 29.5299 40.4394C36.3368 35.831 38.0723 31.7945 36.4157 24.92C36.3939 24.8296 36.3588 24.7408 36.3118 24.6606ZM35.368 24.7682C31.8086 18.5483 23.5081 15.7596 15.7816 24.7042C15.6793 24.8226 15.6039 24.9712 15.5684 25.1236C14.0981 31.4397 15.6557 33.0544 18.2309 35.1986C18.8462 35.711 19.4326 36.4653 20.0516 37.2616C22.0547 39.8387 24.4001 42.856 29.1795 39.5397C35.3923 35.2288 36.978 31.4528 35.4681 25.0239C35.4472 24.935 35.4133 24.8475 35.368 24.7682Z" fill="#B6B1B0"/>
<defs>
<linearGradient id="paint0_linear_3407_20120" x1="25" y1="25" x2="25" y2="30" gradientUnits="userSpaceOnUse">
<stop stop-color="#9A8A89" stop-opacity="0.6"/>
<stop offset="1" stop-color="#F6EEEB" stop-opacity="0.2"/>
</linearGradient>
</defs>
</svg>
