<svg width="51" height="60" viewBox="0 0 51 60" fill="none" xmlns="http://www.w3.org/2000/svg">
<path d="M10.7524 46.0381C26.9809 58.8508 39.6198 48.0297 41.6483 41.2813C42.6626 35.4971 41.6486 26.0674 40.2143 19.5687C38.7589 12.9746 30.0717 8 25.0003 8C19.929 8 12.5819 9.87505 9.78683 22.2639C5.92471 39.3823 9.57415 45.1079 10.7524 46.0381Z" fill="#F8F1EF"/>
<path d="M30.1242 30.1205C31.5049 34.7406 31.5513 34.9268 31.5635 39.0014L30.1242 30.1205Z" fill="url(#paint0_linear_3407_19627)"/>
<path d="M21.9715 32.4462C20.061 38.4367 19.9977 38.6785 20.1107 44.0006L21.9715 32.4462Z" fill="url(#paint1_linear_3407_19627)"/>
<path fill-rule="evenodd" clip-rule="evenodd" d="M41.6483 41.2813C39.6198 48.0297 26.9809 58.8508 10.7524 46.0381C9.57415 45.1079 5.92471 39.3823 9.78684 22.2639C12.5819 9.87505 19.929 8 25.0003 8C30.0717 8 38.7589 12.9746 40.2143 19.5687C41.6486 26.0674 42.6626 35.4971 41.6483 41.2813ZM40.6725 40.7685C38.7633 47.2101 26.8678 57.5394 11.5939 45.3091C10.485 44.4212 7.05023 38.9559 10.6852 22.6155C13.3158 10.7898 20.2307 9 25.0037 9C29.7768 9 37.953 13.7485 39.3228 20.0428C40.6727 26.2462 41.6271 35.2472 40.6725 40.7685Z" fill="#B6B1B0"/>
<path d="M20.4175 31C33.9731 30.1943 32.9304 28.5828 36.0586 21.3313C32.9304 21.3313 26.6739 22.9427 22.503 23.7484C18.332 24.5542 22.503 19.7198 20.4175 21.3313C18.332 22.9427 7.90461 27.7771 16.2465 26.9714C24.5885 26.1656 20.4175 28.5828 20.4175 31Z" fill="url(#paint2_linear_3407_19627)"/>
<path d="M16.722 13.3465C19.1266 17.6498 19.2102 17.8262 19.5845 22.003L16.722 13.3465Z" fill="url(#paint3_linear_3407_19627)"/>
<defs>
<linearGradient id="paint0_linear_3407_19627" x1="31.3693" y1="38.4912" x2="31.9551" y2="33.8713" gradientUnits="userSpaceOnUse">
<stop offset="0.07" stop-color="#F6EEEB" stop-opacity="0.2"/>
<stop offset="0.84" stop-color="#9A8A89" stop-opacity="0.6"/>
</linearGradient>
<linearGradient id="paint1_linear_3407_19627" x1="20.3839" y1="43.3404" x2="19.837" y2="37.244" gradientUnits="userSpaceOnUse">
<stop offset="0.07" stop-color="#F6EEEB" stop-opacity="0.2"/>
<stop offset="0.84" stop-color="#9A8A89" stop-opacity="0.6"/>
</linearGradient>
<linearGradient id="paint2_linear_3407_19627" x1="26.2015" y1="31" x2="23.9501" y2="21.0137" gradientUnits="userSpaceOnUse">
<stop stop-color="#9A8A89" stop-opacity="0.6"/>
<stop offset="1" stop-color="#F6EEEB" stop-opacity="0.2"/>
</linearGradient>
<linearGradient id="paint3_linear_3407_19627" x1="19.2585" y1="21.541" x2="18.647" y2="16.7502" gradientUnits="userSpaceOnUse">
<stop offset="0.07" stop-color="#F6EEEB" stop-opacity="0.2"/>
<stop offset="0.84" stop-color="#9A8A89" stop-opacity="0.6"/>
</linearGradient>
</defs>
</svg>
