<svg width="51" height="60" viewBox="0 0 51 60" fill="none" xmlns="http://www.w3.org/2000/svg">
<path d="M39.7925 44H12.8854C11.5403 44 9.5193 39.3333 10.1921 35.3333C10.6867 32.3925 10.8626 32 12.2102 26.6667C13.8443 20.1997 18.9392 17.3333 24.9933 16C35.7561 18 36.4264 22 37.7717 26.6667C42.4805 32 41.1351 40 39.7925 44Z" fill="#F8F1EF"/>
<path d="M16.4519 41.8281C21.3348 42.308 31.0781 41.6308 34.7895 41.6308C38.9001 41.6308 37.2559 40.7994 38.9001 37.4767C39.0819 37.1093 39.2537 36.8232 39.4065 36.6048C40.4198 36.042 40.1192 35.5864 39.4065 36.6048C38.6721 37.0126 37.2476 37.4767 34.7895 37.4767C28.8341 37.4767 19.5083 37.4779 15.9677 40.5612C15.4483 41.0136 15.7664 41.7607 16.4519 41.8281Z" fill="url(#paint0_linear_3407_19573)"/>
<path d="M41.0578 34C38.1889 29.386 28.4196 17.6081 31.6209 18.0957C34.8874 18.5933 36.4965 22.6847 38.0576 26.5C40.5576 29.5 40.8328 32.4257 41.0578 34Z" fill="url(#paint1_linear_3407_19573)"/>
<path fill-rule="evenodd" clip-rule="evenodd" d="M12.0677 45H40.7108C42.1401 40.7143 43.5722 32.1429 38.5597 26.4286C38.4973 26.2106 38.4362 25.994 38.3755 25.7788C37.0449 21.059 35.9145 17.0494 24.9568 15C18.5121 16.4286 13.0885 19.4997 11.3491 26.4286C11.0278 27.7081 10.7691 28.7223 10.5552 29.561C9.81365 32.4681 9.60936 33.2689 9.20071 35.7143C8.48451 40 10.6359 45 12.0677 45ZM12.8854 44H39.7925C41.1351 40 42.4805 32 37.7717 26.6667C37.7131 26.4632 37.6557 26.261 37.5987 26.0602C36.3488 21.655 35.2869 17.9128 24.9933 16C18.9392 17.3333 13.8443 20.1997 12.2102 26.6667C11.9085 27.8609 11.6655 28.8074 11.4645 29.5903C10.7679 32.3036 10.576 33.051 10.1921 35.3333C9.5193 39.3333 11.5403 44 12.8854 44Z" fill="#B6B1B0"/>
<defs>
<linearGradient id="paint0_linear_3407_19573" x1="28.2125" y1="34.524" x2="28.2125" y2="43.6613" gradientUnits="userSpaceOnUse">
<stop stop-color="#F6EEEB" stop-opacity="0.2"/>
<stop offset="1" stop-color="#9A8A89" stop-opacity="0.6"/>
</linearGradient>
<linearGradient id="paint1_linear_3407_19573" x1="41.0576" y1="31.5" x2="32.0576" y2="19" gradientUnits="userSpaceOnUse">
<stop stop-color="#9A8A89" stop-opacity="0.6"/>
<stop offset="1" stop-color="#F6EEEB" stop-opacity="0.2"/>
</linearGradient>
</defs>
</svg>
