<svg width="51" height="60" viewBox="0 0 51 60" fill="none" xmlns="http://www.w3.org/2000/svg">
<path d="M23.9764 48.0212C26.1694 51.0897 35.2118 59.7839 43.413 48.0212C46.4771 35.2055 47.078 21.6377 43.413 19.3513C39.7479 17.065 40.1385 13.6053 39.9582 12.8231C39.1471 8.822 33.8899 4.76069 23.1653 6.35513C12.4407 7.94957 8.08471 12.4321 5.9518 28.9481C5.83164 29.8807 6.79295 29.8205 6.79295 31.3548C6.79295 32.889 4.81024 37.4618 7.48389 41.5532C10.1575 45.6446 15.9254 49.6758 18.8094 48.5326C22.0838 50.6986 23.9764 48.0212 23.9764 48.0212Z" fill="#F6EEEB"/>
<path d="M28.7623 7.85447C23.5734 14.4519 23.6727 14.8952 23.1527 22.0037L28.7623 7.85447Z" fill="url(#paint0_linear_3407_19470)"/>
<path d="M27.6234 39.6987C30.1041 40.5858 37.3947 39.3316 38.5443 38.2916C39.6939 37.2515 39.0283 26.5757 27.1394 26.9734C26.0503 28.9311 25.6873 29.0535 23.8722 29.0535C22.0571 29.0535 27.6234 25.2909 24.447 24.0979C21.2705 22.9049 11.4992 22.0178 9.95639 25.138C8.41355 28.2581 8.80682 29.2982 9.95639 31.2559C12.3463 35.2938 15.8857 34.1314 21.2705 32.4183C22.0571 35.2938 23.7814 35.4162 25.1428 37.6492L27.6234 39.6681V39.6987Z" fill="url(#paint1_linear_3407_19470)"/>
<path d="M15.9426 45C15.8861 39.9851 17.8066 34.4328 20.9414 33L15.9426 45Z" fill="url(#paint2_linear_3407_19470)"/>
<path d="M26.8234 49C25.6429 44.2128 25.6134 44.0213 26.9414 40L26.8234 49Z" fill="url(#paint3_linear_3407_19470)"/>
<path opacity="0.3" d="M43.4411 48.0212C35.2638 59.7839 26.1846 51.0897 23.99 48.0212C23.99 48.0212 22.096 50.6986 18.819 48.5326C15.9329 49.6758 10.1908 45.6446 7.48505 41.5532C4.77933 37.4618 6.79359 32.889 6.79359 31.3548C6.79359 29.8205 5.83155 29.8506 5.95181 28.9481C8.05626 12.4321 12.4155 7.94958 23.1482 6.35514C33.8809 4.7607 39.142 8.82201 39.9537 12.8232C40.1642 13.6053 39.9537 17.1552 43.4111 19.3513C47.0788 21.6678 46.4775 35.2356 43.4111 48.0212H43.4411ZM42.7497 19.7725C39.3825 17.6666 39.623 14.2371 39.4126 13.5151C38.6309 9.66435 33.6103 5.78354 23.2985 7.31781C12.9867 8.85209 8.80785 13.1541 6.76353 29.0082C6.64327 29.8807 7.57524 29.8506 7.57524 31.3247C7.57524 32.7988 5.65117 37.1609 8.23664 41.1019C10.8221 45.0429 16.3238 48.8936 19.0896 47.8106C22.2463 49.8864 24.0501 47.3293 24.0501 47.3293C26.1545 50.2474 34.8429 58.6408 42.7196 47.3293C45.6658 35.0551 46.2671 22.0288 42.7196 19.8026L42.7497 19.7725Z" fill="#1A1B1B"/>
<defs>
<linearGradient id="paint0_linear_3407_19470" x1="23.7128" y1="21.2224" x2="24.7903" y2="13.0931" gradientUnits="userSpaceOnUse">
<stop offset="0.07" stop-color="#F6EEEB" stop-opacity="0.2"/>
<stop offset="0.84" stop-color="#9A8A89" stop-opacity="0.6"/>
</linearGradient>
<linearGradient id="paint1_linear_3407_19470" x1="31.1931" y1="26.7286" x2="16.8743" y2="36.4302" gradientUnits="userSpaceOnUse">
<stop stop-color="#F6EEEB" stop-opacity="0.2"/>
<stop offset="0.8" stop-color="#9A8A89" stop-opacity="0.6"/>
</linearGradient>
<linearGradient id="paint2_linear_3407_19470" x1="20.8328" y1="33.7583" x2="15.6395" y2="41.9059" gradientUnits="userSpaceOnUse">
<stop offset="0.07" stop-color="#F6EEEB" stop-opacity="0.2"/>
<stop offset="0.84" stop-color="#9A8A89" stop-opacity="0.6"/>
</linearGradient>
<linearGradient id="paint3_linear_3407_19470" x1="27.1538" y1="40.5356" x2="26.4324" y2="45.2929" gradientUnits="userSpaceOnUse">
<stop offset="0.07" stop-color="#F6EEEB" stop-opacity="0.2"/>
<stop offset="0.84" stop-color="#9A8A89" stop-opacity="0.6"/>
</linearGradient>
</defs>
</svg>
