<svg width="51" height="60" viewBox="0 0 51 60" fill="none" xmlns="http://www.w3.org/2000/svg">
<path d="M22.4411 44C16.6218 44 10.8025 40.6857 9.13988 37.3714C8.30856 32.4 14.1278 31.5714 14.1278 27.4286C14.1278 23.2857 19.1158 15 25.7663 15C32.4169 15 40.7302 31.5714 40.7302 37.3714C40.7302 43.1714 42.3928 44 38.2362 44H22.4411Z" fill="#F8F1EF"/>
<path d="M35.8398 36.7983C40.0586 38.7256 39.2148 39.6893 40.0586 42.5803C35.8398 44.5076 14.7461 45.4713 13.0586 38.7256C19.8086 36.7983 31.6211 34.871 35.8398 36.7983Z" fill="url(#paint0_linear_3407_19560)"/>
<path fill-rule="evenodd" clip-rule="evenodd" d="M9.13988 37.3714C10.8025 40.6857 16.6218 44 22.4411 44H38.2362C41.2495 44 41.2046 43.5646 40.9518 41.1153C40.856 40.186 40.7302 38.9668 40.7302 37.3714C40.7302 31.5714 32.4169 15 25.7663 15C19.1158 15 14.1278 23.2857 14.1278 27.4286C14.1278 29.3271 12.9057 30.5296 11.6616 31.7538C10.191 33.2009 8.68952 34.6782 9.13988 37.3714ZM10.1348 36.8286C11.6935 39.9143 17.1491 43 22.6047 43H37.4126C40.2375 43 40.1954 42.5946 39.9585 40.3143C39.8686 39.4491 39.7507 38.3139 39.7507 36.8286C39.7507 31.4286 31.957 16 25.7221 16C19.4872 16 14.811 23.7143 14.811 27.5714C14.811 29.339 13.6653 30.4586 12.4989 31.5983C11.1202 32.9456 9.71259 34.3211 10.1348 36.8286Z" fill="#B6B1B0"/>
<defs>
<linearGradient id="paint0_linear_3407_19560" x1="27.5971" y1="30.8571" x2="27.5971" y2="45.1429" gradientUnits="userSpaceOnUse">
<stop offset="0.17859" stop-color="#F6EEEB" stop-opacity="0.2"/>
<stop offset="1" stop-color="#9A8A89" stop-opacity="0.6"/>
</linearGradient>
</defs>
</svg>
