<svg width="51" height="60" viewBox="0 0 51 60" fill="none" xmlns="http://www.w3.org/2000/svg">
<path d="M36.1545 24.5972C27.6862 15.0208 18.586 18.0061 14.6882 24.6606C14.6412 24.7408 14.6061 24.8296 14.5843 24.92C12.9277 31.7945 14.6632 35.831 21.4701 40.4394C28.3223 45.0786 30.6064 38.1198 33.4614 35.8002C36.2836 33.5074 37.9899 31.7811 36.3744 25.0207C36.3375 24.8663 36.2596 24.7161 36.1545 24.5972Z" fill="#F8F1EF"/>
<path d="M33.0532 26.0458C28.7453 24.0882 22.312 25.2214 18.4512 26.6568C17.5793 26.981 17.7751 28.0385 18.6999 28.1394C23.2238 28.633 27.5906 28.8803 31.0068 28.8803C35.0996 28.8803 31.4536 32.3543 33.5 32C35.5464 31.6457 38.5102 28.5257 33.0532 26.0458Z" fill="url(#paint0_linear_3407_20055)"/>
<path fill-rule="evenodd" clip-rule="evenodd" d="M14.6882 24.6606C18.586 18.0061 27.6862 15.0208 36.1545 24.5972C36.2596 24.7161 36.3375 24.8663 36.3744 25.0207C37.9899 31.7811 36.2836 33.5074 33.4614 35.8002C32.7874 36.3478 32.1453 37.1539 31.4673 38.005C29.2734 40.759 26.7047 43.9835 21.4701 40.4394C14.6632 35.831 12.9277 31.7945 14.5843 24.92C14.6061 24.8296 14.6412 24.7408 14.6882 24.6606ZM15.632 24.7682C19.1914 18.5483 27.4919 15.7596 35.2184 24.7042C35.3207 24.8226 35.3961 24.9712 35.4316 25.1236C36.9019 31.4397 35.3443 33.0544 32.7691 35.1986C32.1538 35.711 31.5674 36.4653 30.9484 37.2616C28.9453 39.8387 26.5999 42.856 21.8205 39.5397C15.6077 35.2288 14.022 31.4528 15.5319 25.0239C15.5528 24.935 15.5867 24.8475 15.632 24.7682Z" fill="#B6B1B0"/>
<defs>
<linearGradient id="paint0_linear_3407_20055" x1="26" y1="25" x2="26" y2="30" gradientUnits="userSpaceOnUse">
<stop stop-color="#9A8A89" stop-opacity="0.6"/>
<stop offset="1" stop-color="#F6EEEB" stop-opacity="0.2"/>
</linearGradient>
</defs>
</svg>
