<svg width="52" height="60" viewBox="0 0 52 60" fill="none" xmlns="http://www.w3.org/2000/svg">
<path d="M21.6934 20C17.7926 20 12.5915 23.2098 11.9414 25.1357C11.9414 27.7033 17.1425 31.5555 19.0929 34.7653C21.0433 37.9751 23.6439 40.5429 26.2444 39.901C28.8449 39.259 39.2471 28.9876 39.8973 25.1357C40.4174 22.0541 36.2132 20.4279 34.046 20H21.6934Z" fill="#F8F1EF"/>
<path d="M24.4221 28.2658C27.8966 26.2937 31.5738 24.4441 32.4424 20.5C40.26 20.5 39.311 24.8706 38.4424 27.5C37.5738 30.1294 20.9476 30.2378 24.4221 28.2658Z" fill="url(#paint0_linear_3407_19899)"/>
<path fill-rule="evenodd" clip-rule="evenodd" d="M11.9414 25.1357C12.5915 23.2098 17.7926 20 21.6934 20H34.046C36.2132 20.4279 40.4174 22.0541 39.8973 25.1357C39.2471 28.9876 28.8449 39.259 26.2444 39.901C23.6439 40.5429 21.0433 37.9751 19.0929 34.7653C18.3156 33.4861 17.022 32.1049 15.7471 30.7436C13.823 28.6891 11.9414 26.6801 11.9414 25.1357ZM12.9414 25.6221C13.5451 23.8888 18.3747 21 21.9969 21H33.4671C35.4795 21.3851 39.3834 22.8487 38.9004 25.6221C38.2967 29.0889 28.6376 38.3331 26.2228 38.9109C23.808 39.4886 21.3932 37.1776 19.5821 34.2888C18.8603 33.1375 17.6591 31.8944 16.4753 30.6692C14.6886 28.8202 12.9414 27.0121 12.9414 25.6221Z" fill="#B6B1B0"/>
<defs>
<linearGradient id="paint0_linear_3407_19899" x1="31.406" y1="22.3497" x2="31.406" y2="30" gradientUnits="userSpaceOnUse">
<stop stop-color="#9A8A89" stop-opacity="0.6"/>
<stop offset="1" stop-color="#F6EEEB" stop-opacity="0.2"/>
</linearGradient>
</defs>
</svg>
