<svg width="52" height="60" viewBox="0 0 52 60" fill="none" xmlns="http://www.w3.org/2000/svg">
<path d="M13.042 29.3685C11.9362 24.405 20.2294 21.096 24.0995 20.5445C25.7583 20.2036 33.4983 18.89 37.9213 22.199C40.6857 29.3685 37.3684 33.7805 33.4983 37.0895C29.6281 40.3986 29.0753 38.744 24.0995 37.0895C18.5709 37.641 14.1477 34.332 13.042 29.3685Z" fill="#F8F1EF"/>
<path d="M30.2176 26.5C32.2176 25 34.4414 24.5 34.9414 21.5C39.4414 21.5 38.7176 24.5 38.2176 26.5C37.7176 28.5 28.2176 28 30.2176 26.5Z" fill="url(#paint0_linear_3407_19844)"/>
<path d="M20.0961 32.25C18.0961 32.25 19.0961 34.25 20.0961 35.75C20.7813 36.95 22.7147 36.9167 23.5957 36.75C24.929 37.25 27.7957 38.35 28.5957 38.75C29.5957 39.25 32.5957 35.75 32.5957 34.25C32.5957 32.75 30.0957 32.25 26.0957 32.25C22.0957 32.25 24.4414 32.5 24.5957 33.25C24.9987 35.209 22.0961 32.25 20.0961 32.25Z" fill="url(#paint1_linear_3407_19844)"/>
<path fill-rule="evenodd" clip-rule="evenodd" d="M23.8138 20.5445C19.7948 21.096 11.1827 24.405 12.331 29.3685C13.4793 34.332 18.0726 37.641 23.8138 37.0895C24.9747 37.4613 25.9038 37.833 26.6921 38.1484C29.4128 39.2369 30.458 39.6551 33.5741 37.0895C37.5931 33.7805 41.0379 29.3685 38.1672 22.199C33.5741 18.89 25.5364 20.2036 23.8138 20.5445ZM23.9098 21.1853C20.0918 21.6974 11.9103 24.7701 13.0012 29.379C14.092 33.988 18.4556 37.0607 23.9098 36.5485C25.0127 36.8937 25.8953 37.2389 26.6442 37.5318C29.2289 38.5426 30.2218 38.9309 33.1821 36.5485C37.0001 33.4759 40.2727 29.379 37.5455 22.7216C33.1821 19.649 25.5463 20.8688 23.9098 21.1853Z" fill="#B6B1B0"/>
<defs>
<linearGradient id="paint0_linear_3407_19844" x1="34.2376" y1="22" x2="34.2376" y2="27.8191" gradientUnits="userSpaceOnUse">
<stop stop-color="#9A8A89" stop-opacity="0.6"/>
<stop offset="1" stop-color="#F6EEEB" stop-opacity="0.2"/>
</linearGradient>
<linearGradient id="paint1_linear_3407_19844" x1="25.7686" y1="32" x2="25.7686" y2="38.7985" gradientUnits="userSpaceOnUse">
<stop stop-color="#9A8A89" stop-opacity="0.6"/>
<stop offset="1" stop-color="#F6EEEB" stop-opacity="0.2"/>
</linearGradient>
</defs>
</svg>
