<svg width="52" height="60" viewBox="0 0 52 60" fill="none" xmlns="http://www.w3.org/2000/svg">
<path d="M30.1894 40C34.0902 40 39.2913 36.7902 39.9414 34.8643C39.9414 32.2967 34.7403 28.4445 32.7899 25.2347C30.8395 22.0249 28.239 19.4571 25.6384 20.099C23.0379 20.741 12.6357 31.0124 11.9855 34.8643C11.4654 37.9459 15.6697 39.5721 17.8368 40H30.1894Z" fill="#F8F1EF"/>
<path d="M27.4627 31.7342C23.9882 33.7063 20.311 35.5559 19.4424 39.5C11.6248 39.5 12.5738 35.1294 13.4424 32.5C14.311 29.8706 30.9372 29.7622 27.4627 31.7342Z" fill="url(#paint0_linear_3407_19774)"/>
<path fill-rule="evenodd" clip-rule="evenodd" d="M39.9414 34.8643C39.2913 36.7902 34.0902 40 30.1894 40H17.8368C15.6697 39.5721 11.4654 37.9459 11.9855 34.8643C12.6357 31.0124 23.0379 20.741 25.6384 20.099C28.239 19.4571 30.8395 22.0249 32.7899 25.2347C33.5672 26.5139 34.8608 27.8951 36.1357 29.2564C38.0598 31.3109 39.9414 33.3199 39.9414 34.8643ZM38.9414 34.3779C38.3377 36.1112 33.5081 39 29.8859 39H18.4157C16.4034 38.6149 12.4994 37.1513 12.9824 34.3779C13.5861 30.9111 23.2453 21.6669 25.6601 21.0891C28.0748 20.5114 30.4896 22.8224 32.3007 25.7112C33.0225 26.8625 34.2237 28.1056 35.4075 29.3308C37.1942 31.1798 38.9414 32.9879 38.9414 34.3779Z" fill="#B6B1B0"/>
<defs>
<linearGradient id="paint0_linear_3407_19774" x1="20.4788" y1="37.6503" x2="20.4788" y2="30" gradientUnits="userSpaceOnUse">
<stop stop-color="#9A8A89" stop-opacity="0.6"/>
<stop offset="1" stop-color="#F6EEEB" stop-opacity="0.2"/>
</linearGradient>
</defs>
</svg>
