<svg width="51" height="60" viewBox="0 0 51 60" fill="none" xmlns="http://www.w3.org/2000/svg">
<path d="M10.8256 42.8293C5.21211 40.3557 7.08348 28.605 8.33092 23.6577C9.01457 19.9483 12.0733 17.4736 14.5682 16.2368C17.063 15 17.6868 16.2368 20.1816 16.2368C22.6765 16.2368 20.0987 15 29.5373 15C37.022 15 41.4541 22.6174 42.0117 24.2761C42.6353 26.1313 43.883 33.5535 42.0118 38.5007C40.1406 43.448 34.5272 45.9216 32.0323 44.6848C29.5374 43.448 23.924 42.8293 21.4291 42.8293C18.9342 42.8293 16.439 45.303 10.8256 42.8293Z" fill="#F8F1EF"/>
<path d="M14.8 38.2271C11.738 40.1363 8.67597 33.2193 8.01798 29.967C8.00541 29.9049 8 29.842 8 29.7786C8.00008 27.749 8.00542 27.028 8.3476 25.8926C8.61177 25.0161 9.82856 25.0275 10.1945 25.8667C11.0475 27.8226 12.1122 29.4753 14.8 31.8021C17.6299 34.252 17.2211 31.0944 16.8684 27.1773C16.7766 26.1584 18.7042 25.1937 19.7234 25.2833C21.5036 25.4398 23.5991 24.8644 25.3815 24.7545C25.7215 24.7336 26.0347 24.5603 26.2369 24.2862C27.469 22.6159 29.266 21.5762 32.1091 22.1671C34.8925 22.7456 34.6681 24.887 35.9503 26.2455C36.2188 26.5301 36.6541 26.534 36.9912 26.3354C40.7852 24.1003 41.9491 23.723 41.9983 28.878C42.0005 29.1054 41.9202 29.3356 41.7722 29.5084C35.5494 36.7717 24.721 29.8994 27.1636 31.8021C29.6364 33.7283 30.8727 41.4381 29.0182 38.2271C27.1636 35.0162 21.6 32.4445 19.1273 33.7293C16.6545 35.0141 17.8909 36.2999 14.8 38.2271Z" fill="url(#paint0_linear_3407_19995)"/>
<path fill-rule="evenodd" clip-rule="evenodd" d="M8.33092 23.6577C7.08348 28.605 5.21211 40.3557 10.8256 42.8293C14.7738 44.5691 17.1793 43.8616 19.1272 43.2887C19.9488 43.047 20.6889 42.8293 21.4291 42.8293C23.924 42.8293 29.5374 43.448 32.0323 44.6848C34.5272 45.9216 40.1406 43.448 42.0118 38.5007C43.883 33.5535 42.6353 26.1313 42.0117 24.2761C41.4541 22.6174 37.022 15 29.5373 15C23.3037 15 22.3114 15.5395 21.6375 15.9059C21.2911 16.0942 21.0288 16.2368 20.1816 16.2368C19.266 16.2368 18.6024 16.0702 18.0058 15.9205C16.9769 15.6622 16.1474 15.4539 14.5682 16.2368C12.0733 17.4736 9.01457 19.9483 8.33092 23.6577ZM9.25698 24.0805C8.07884 28.698 6.31143 39.6653 11.613 41.974C15.3419 43.5979 17.6138 42.9375 19.4535 42.4028C20.2294 42.1772 20.9285 41.974 21.6275 41.974C23.9837 41.974 29.2853 42.5515 31.6416 43.7058C33.9979 44.8602 39.2995 42.5515 41.0667 37.934C42.8339 33.3166 41.6556 26.3892 41.0666 24.6577C40.54 23.1096 36.3541 16 29.2853 16C23.3979 16 22.4607 16.5035 21.8243 16.8455C21.4971 17.0213 21.2494 17.1544 20.4493 17.1544C19.5846 17.1544 18.9578 16.9989 18.3944 16.8591C17.4226 16.618 16.6392 16.4237 15.1477 17.1544C12.7914 18.3087 9.90265 20.6184 9.25698 24.0805Z" fill="#B6B1B0"/>
<path d="M32.3678 42.9695C31.746 40.3577 31.712 40.2581 29.9995 38.7032L32.3678 42.9695Z" fill="url(#paint1_linear_3407_19995)"/>
<path d="M13.577 18.5821C14.1462 23.144 14.1861 23.3194 16.901 26.2166L13.577 18.5821Z" fill="url(#paint2_linear_3407_19995)"/>
<path d="M26.9987 31.4974C32.999 33.498 38.0001 33.4976 41.999 29.4967L36.3469 31.1127C35.4527 31.3683 34.5272 31.498 33.5971 31.4979L26.9987 31.4974Z" fill="url(#paint3_linear_3407_19995)"/>
<defs>
<linearGradient id="paint0_linear_3407_19995" x1="25" y1="39" x2="25" y2="22" gradientUnits="userSpaceOnUse">
<stop stop-color="#9A8A89" stop-opacity="0.6"/>
<stop offset="1" stop-color="#F6EEEB" stop-opacity="0.02"/>
</linearGradient>
<linearGradient id="paint1_linear_3407_19995" x1="30.0279" y1="39.0175" x2="31.5731" y2="41.1239" gradientUnits="userSpaceOnUse">
<stop offset="0.07" stop-color="#F6EEEB" stop-opacity="0.2"/>
<stop offset="0.84" stop-color="#9A8A89" stop-opacity="0.6"/>
</linearGradient>
<linearGradient id="paint2_linear_3407_19995" x1="16.9148" y1="25.6739" x2="14.662" y2="21.8222" gradientUnits="userSpaceOnUse">
<stop offset="0.07" stop-color="#F6EEEB" stop-opacity="0.2"/>
<stop offset="0.84" stop-color="#9A8A89" stop-opacity="0.6"/>
</linearGradient>
<linearGradient id="paint3_linear_3407_19995" x1="41.3618" y1="31.9452" x2="33.4898" y2="33.4124" gradientUnits="userSpaceOnUse">
<stop offset="0.07" stop-color="#F6EEEB" stop-opacity="0.2"/>
<stop offset="0.84" stop-color="#9A8A89" stop-opacity="0.6"/>
</linearGradient>
</defs>
</svg>
