<svg width="51" height="60" viewBox="0 0 51 60" fill="none" xmlns="http://www.w3.org/2000/svg">
<path d="M13.0471 32.5775C13.6708 42.3937 20.5418 42.3936 25.5384 41.7782L27.4121 41.7794C39.279 43.0088 36.7807 35.0344 36.7807 29.5138C36.7807 25.7825 34.2811 22.762 31.1589 21.5352C28.5655 20.5162 29.6526 19.5645 27.4122 18.4682C24.9138 17.2456 18.6644 18.4689 17.4188 21.537C15.9246 25.2175 12.5638 24.9712 13.0471 32.5775Z" fill="#F8F1EF"/>
<path d="M23.7009 30.2312C23.1369 29.1469 20.3605 29.6574 19.1681 29.1564C19.1212 29.1367 19.0752 29.1181 19.0264 29.1038C18.3922 28.9187 16.8208 28.5077 17.3735 26.914C17.9487 25.2553 26.5771 26.3611 30.6037 26.3611C34.6303 26.3611 34.6303 33.5487 32.9046 35.7603C31.1789 37.9719 31.1789 34.6545 30.6037 33.5487C30.0285 32.4429 27.7276 31.89 26.0019 32.9958C24.2762 34.1016 27.7275 35.7601 23.1257 36.8659C18.5239 37.9717 15.0725 31.8899 16.223 31.337C17.3734 30.7841 24.2762 31.337 23.7009 30.2312Z" fill="url(#paint0_linear_3407_20027)"/>
<path fill-rule="evenodd" clip-rule="evenodd" d="M25.5384 41.7782C20.5418 42.3936 13.6708 42.3937 13.0471 32.5775C12.7238 27.4894 14.1207 25.9151 15.5282 24.3287C16.2249 23.5436 16.9241 22.7555 17.4188 21.537C18.6644 18.4689 24.9138 17.2456 27.4122 18.4682C28.4666 18.9841 28.784 19.4681 29.0949 19.942C29.4446 20.4752 29.786 20.9958 31.1589 21.5352C34.2811 22.762 36.7807 25.7825 36.7807 29.5138C36.7807 30.3163 36.8335 31.1707 36.8872 32.0411C37.2034 37.1584 37.5539 42.8301 27.4121 41.7794L25.5384 41.7782ZM25.4935 40.7967C20.9133 41.3608 14.6149 41.3609 14.0432 32.3627C13.7468 27.6986 15.0273 26.2555 16.3175 24.8013C16.9561 24.0816 17.5971 23.3592 18.0506 22.2423C19.1923 19.4298 24.921 18.3084 27.2112 19.4292C28.1777 19.9021 28.4687 20.3457 28.7536 20.7802C29.0742 21.2689 29.3872 21.7461 30.6456 22.2406C33.5076 23.3652 35.7989 26.134 35.7989 29.5543C35.7989 30.2899 35.8473 31.0731 35.8966 31.871C36.1865 36.5618 36.5077 41.7609 27.2111 40.7978L25.4935 40.7967Z" fill="#B6B1B0"/>
<path d="M33.9999 31.0001C31.8024 27.1623 25.0008 23.9991 17.5005 26.5L24.0005 27.5L27.5005 28.5L33.9999 31.0001Z" fill="url(#paint1_linear_3407_20027)"/>
<path d="M24.4992 36.5019C20.999 38.5006 16.499 35 16.0008 32.0038L18.499 35V35C19.798 35.9742 21.3831 36.5004 23.0213 36.5012L24.4992 36.5019Z" fill="url(#paint2_linear_3407_20027)"/>
<defs>
<linearGradient id="paint0_linear_3407_20027" x1="26.5" y1="34.5" x2="29" y2="27.5" gradientUnits="userSpaceOnUse">
<stop stop-color="#9A8A89" stop-opacity="0.6"/>
<stop offset="1" stop-color="#F6EEEB" stop-opacity="0.2"/>
</linearGradient>
<linearGradient id="paint1_linear_3407_20027" x1="22.5005" y1="31.5" x2="28.9608" y2="22.6079" gradientUnits="userSpaceOnUse">
<stop offset="0.07" stop-color="#F6EEEB" stop-opacity="0.2"/>
<stop offset="0.496007" stop-color="#C3B7B5" stop-opacity="0.421302"/>
<stop offset="0.84" stop-color="#9A8A89" stop-opacity="0.6"/>
</linearGradient>
<linearGradient id="paint2_linear_3407_20027" x1="23.499" y1="37.5" x2="18.0825" y2="36.5325" gradientUnits="userSpaceOnUse">
<stop offset="0.07" stop-color="#F6EEEB" stop-opacity="0.2"/>
<stop offset="0.84" stop-color="#9A8A89" stop-opacity="0.6"/>
</linearGradient>
</defs>
</svg>
