<svg width="51" height="60" viewBox="0 0 51 60" fill="none" xmlns="http://www.w3.org/2000/svg">
<path d="M26.6565 20.8416C25.2234 20.8416 19.8284 22.02 17.0497 22.669C16.8653 22.7121 16.6933 22.8041 16.5768 22.9535C15.0804 24.8723 16.7701 28.4181 18.5203 31.996C18.5872 32.1329 18.6211 32.2841 18.6252 32.4364C18.7239 36.0957 21.1451 38.5404 23.5664 39.7767C26.0385 41.0391 30.3647 36.6209 30.3647 34.7274C30.3647 32.8338 32.8369 29.678 34.0729 28.4156C35.309 27.1533 35.309 22.7351 34.0729 20.8416C32.8369 18.948 28.5106 20.8416 26.6565 20.8416Z" fill="#F8F1EF"/>
<path d="M24.5041 28C21.3031 28 21.0614 28.8547 19.9488 30.564C19.7698 30.839 19.4492 31.0248 19.1454 30.901C18.1128 30.48 17.6707 28.8017 18.2717 27.5C18.9642 26 19.6567 25 22.4266 25C25.1966 25 25.1966 24.5 27.2741 23.5C29.3516 22.5 34.1991 23 34.8915 25C35.584 27 32.8141 29 30.7366 28C28.6591 27 27.9666 28 24.5041 28Z" fill="url(#paint0_linear_3407_20068)"/>
<path fill-rule="evenodd" clip-rule="evenodd" d="M17.0497 22.669C19.8284 22.02 25.2234 20.8416 26.6565 20.8416C27.2179 20.8416 28.0059 20.668 28.8662 20.4785C30.8471 20.0421 33.2111 19.5214 34.0729 20.8416C35.309 22.7351 35.309 27.1533 34.0729 28.4156C32.8369 29.678 30.3647 32.8338 30.3647 34.7274C30.3647 36.6209 26.0385 41.0391 23.5664 39.7767C21.1451 38.5404 18.7239 36.0957 18.6252 32.4364C18.6211 32.2841 18.5872 32.1329 18.5203 31.996C16.7701 28.4181 15.0804 24.8723 16.5768 22.9535C16.6933 22.8041 16.8653 22.7121 17.0497 22.669ZM17.9691 23.3951C20.4639 22.8096 25.2576 21.7574 26.5348 21.7574C27.0371 21.7574 27.7421 21.6012 28.5118 21.4306C30.2843 21.0379 32.3994 20.5692 33.1705 21.7574C34.2765 23.4616 34.2765 27.438 33.1705 28.5741C32.0646 29.7102 29.8527 32.5505 29.8527 34.2546C29.8527 35.9588 25.9818 39.9352 23.7699 38.7991C21.6083 37.6888 19.4467 35.4959 19.3495 32.2146C19.345 32.0631 19.3116 31.9128 19.2453 31.7764C17.6901 28.5782 16.1941 25.4113 17.4975 23.6825C17.6119 23.5308 17.7841 23.4385 17.9691 23.3951Z" fill="#B6B1B0"/>
<defs>
<linearGradient id="paint0_linear_3407_20068" x1="26.5" y1="31" x2="26.5" y2="23" gradientUnits="userSpaceOnUse">
<stop stop-color="#F6EEEB" stop-opacity="0.2"/>
<stop offset="1" stop-color="#9A8A89" stop-opacity="0.6"/>
</linearGradient>
</defs>
</svg>
