<svg width="51" height="60" viewBox="0 0 51 60" fill="none" xmlns="http://www.w3.org/2000/svg">
<path d="M9.96277 44.6894C23.444 60.5585 38.851 46.673 40.7769 39.7303C41.7399 33.7796 40.7769 25.8446 39.814 18.9019C38.851 11.9591 30.1847 7 25.37 7C20.5553 7 10.9257 7.99182 8.99982 20.8855C7.07394 33.7792 8.99982 43.5559 9.96277 44.6894Z" fill="#F8F1EF"/>
<path fill-rule="evenodd" clip-rule="evenodd" d="M41.7527 40.4576C39.7101 47.5547 23.3693 61.7487 9.07107 45.5269C8.04977 44.3682 6.00716 34.3743 8.04977 21.1941C10.0924 8.01386 20.5693 6.5 25.6758 6.5C30.7823 6.5 39.7101 12.0693 40.7314 19.1663C41.7527 26.2634 42.774 34.3747 41.7527 40.4576ZM40.7769 39.7303C38.851 46.673 23.444 60.5585 9.96277 44.6894C8.99983 43.5559 7.07394 33.7792 8.99983 20.8855C10.9257 7.99182 20.5553 7 25.37 7C30.1847 7 38.851 11.9591 39.814 18.9018C40.7769 25.8446 41.7399 33.7796 40.7769 39.7303Z" fill="#B6B1B0"/>
<path d="M23.8769 28.4082H14.4623C14.0351 28.4082 13.6551 28.1368 13.5164 27.7328L10.7132 19.5657C10.469 18.8541 11.0683 18.1379 11.8117 18.2528L23.9518 20.1284C24.014 20.138 24.077 20.1417 24.1399 20.1395L37.6865 19.6599C38.397 19.6347 38.9061 20.3382 38.6601 21.0053L37.3463 24.5672C37.3054 24.678 37.2845 24.7951 37.2845 24.9132V31.5947C37.2845 32.2824 36.6065 32.7648 35.9568 32.5395L24.2045 28.4634C24.0992 28.4268 23.9884 28.4082 23.8769 28.4082Z" fill="url(#paint0_linear_3407_19643)"/>
<path d="M38.8947 42.922C38.6282 37.3852 38.6008 37.1681 36.1891 33.0929L38.8947 42.922Z" fill="url(#paint1_linear_3407_19643)"/>
<path d="M11.7394 42.9191C11.8242 35.2375 11.85 34.935 14.8573 29.1122L11.7394 42.9191Z" fill="url(#paint2_linear_3407_19643)"/>
<defs>
<linearGradient id="paint0_linear_3407_19643" x1="22.7845" y1="28.7143" x2="26.5389" y2="16.0119" gradientUnits="userSpaceOnUse">
<stop stop-color="#9A8A89" stop-opacity="0.6"/>
<stop offset="1" stop-color="#F6EEEB" stop-opacity="0.2"/>
</linearGradient>
<linearGradient id="paint1_linear_3407_19643" x1="36.1432" y1="33.7323" x2="38.4143" y2="38.6633" gradientUnits="userSpaceOnUse">
<stop offset="0.07" stop-color="#F6EEEB" stop-opacity="0.2"/>
<stop offset="0.84" stop-color="#9A8A89" stop-opacity="0.6"/>
</linearGradient>
<linearGradient id="paint2_linear_3407_19643" x1="14.9495" y1="29.9934" x2="12.0637" y2="36.9452" gradientUnits="userSpaceOnUse">
<stop offset="0.07" stop-color="#F6EEEB" stop-opacity="0.2"/>
<stop offset="0.84" stop-color="#9A8A89" stop-opacity="0.6"/>
</linearGradient>
</defs>
</svg>
