<svg width="52" height="60" viewBox="0 0 52 60" fill="none" xmlns="http://www.w3.org/2000/svg">
<g clip-path="url(#clip0_3407_19500)">
<path d="M9.65716 45.1187C3.84666 45.1187 0.941406 37.4535 0.941406 33.6208C0.941406 29.7867 5.78349 25.954 3.84666 15.4142C1.90982 4.87448 9.65716 2 14.4993 2C19.3413 2 19.3413 4.87448 35.8044 6.7908C52.2675 8.70712 53.236 35.5371 48.3939 47.9932C43.5518 60.4493 29.9939 59.4912 28.0571 54.7004C26.1203 49.9095 15.4677 45.1187 9.65716 45.1187Z" fill="#F6EEEB"/>
<path fill-rule="evenodd" clip-rule="evenodd" d="M0.755859 34.0579C0.755859 37.9459 3.67184 45.7218 9.50381 45.7218C15.3358 45.7218 26.0277 50.5818 27.9717 55.4418C29.9157 60.3017 43.5236 61.2737 48.3836 48.6378C53.2436 36.0019 52.2716 8.7845 35.7477 6.8405C25.728 5.66172 21.784 4.12556 19.148 3.09885C17.4368 2.43235 16.2768 1.98053 14.3638 1.98053C9.50381 1.98053 1.72785 4.89651 3.67184 15.5885C4.96473 22.6994 3.2481 26.8007 1.95317 29.8946C1.30104 31.4526 0.755859 32.7552 0.755859 34.0579ZM1.72785 33.6878C1.72785 37.4131 4.55174 44.8637 10.1995 44.8637C15.8473 44.8637 26.2016 49.5204 28.0842 54.177C29.9668 58.8336 43.1449 59.7649 47.8514 47.6577C52.5579 35.5504 51.6166 9.47182 35.6145 7.60917C25.9114 6.47971 22.0919 5.00781 19.5391 4.02405C17.882 3.38544 16.7586 2.95253 14.906 2.95253C10.1995 2.95253 2.66915 5.74651 4.55174 15.9911C5.8038 22.8045 4.14138 26.7343 2.88735 29.6987C2.25581 31.1915 1.72785 32.4396 1.72785 33.6878Z" fill="#B6B1B0"/>
<path d="M18.4565 18.6562C20.8507 12.8177 26.4639 7.73493 31.9307 8.37089L18.4565 18.6562Z" fill="url(#paint0_linear_3407_19500)"/>
<path d="M16.831 37.2398C13.4072 40.3338 13.2846 40.4671 12.2963 44.3131L16.831 37.2398Z" fill="url(#paint1_linear_3407_19500)"/>
<path d="M18.9257 39.0721C22.9502 40.2243 37.1667 37.1691 37.6918 36.4364C32.8318 34.4922 30.8878 30.6042 37.6917 21.8562C29.5583 20.1783 20.0275 24.2348 17.7669 25.4797C17.5217 23.9138 17.1757 23.0319 17.3158 22.5988C17.9863 20.5261 19.2222 17.1286 17.3825 16.6706C7.62058 17.23 7.1662 23.5772 5.97198 25.3589C5.57396 25.9528 6.19998 27.9924 6.43508 28.3076C8.11936 30.5691 11.1827 30.8033 13.9443 29.2996C15.377 29.0753 16.8461 29.0276 17.4067 29.4714L16.7471 31.5424V31.5424C16.5157 34.1173 17.2172 36.6897 18.7239 38.7906L18.9257 39.0721Z" fill="url(#paint2_linear_3407_19500)"/>
<path d="M5.93726 12.6705C6.91321 18.1879 6.9782 18.3929 11.198 20.9691L5.93726 12.6705Z" fill="url(#paint3_linear_3407_19500)"/>
</g>
<defs>
<linearGradient id="paint0_linear_3407_19500" x1="18.2434" y1="15.4786" x2="27.2154" y2="6.09951" gradientUnits="userSpaceOnUse">
<stop offset="0.07" stop-color="#F6EEEB" stop-opacity="0.2"/>
<stop offset="0.84" stop-color="#9A8A89" stop-opacity="0.6"/>
</linearGradient>
<linearGradient id="paint1_linear_3407_19500" x1="12.7447" y1="44.0101" x2="14.6584" y2="39.9418" gradientUnits="userSpaceOnUse">
<stop offset="0.07" stop-color="#F6EEEB" stop-opacity="0.2"/>
<stop offset="0.84" stop-color="#9A8A89" stop-opacity="0.6"/>
</linearGradient>
<linearGradient id="paint2_linear_3407_19500" x1="15.4587" y1="18.5157" x2="12.3063" y2="37.9469" gradientUnits="userSpaceOnUse">
<stop stop-color="#F6EEEB" stop-opacity="0.2"/>
<stop offset="0.8" stop-color="#9A8A89" stop-opacity="0.6"/>
</linearGradient>
<linearGradient id="paint3_linear_3407_19500" x1="10.5984" y1="19.5897" x2="6.58808" y2="13.4157" gradientUnits="userSpaceOnUse">
<stop offset="0.07" stop-color="#F6EEEB" stop-opacity="0.2"/>
<stop offset="0.84" stop-color="#9A8A89" stop-opacity="0.6"/>
</linearGradient>
<clipPath id="clip0_3407_19500">
<rect width="50.1176" height="60" fill="white" transform="matrix(1 0 0 -1 0.941406 60)"/>
</clipPath>
</defs>
</svg>
