<svg width="51" height="60" viewBox="0 0 51 60" fill="none" xmlns="http://www.w3.org/2000/svg">
<path d="M24.3435 20.8416C25.7766 20.8416 31.1716 22.02 33.9503 22.669C34.1347 22.7121 34.3067 22.8041 34.4232 22.9535C35.9196 24.8723 34.2299 28.4181 32.4797 31.996C32.4128 32.1329 32.3789 32.2841 32.3748 32.4364C32.2761 36.0957 29.8549 38.5404 27.4336 39.7767C24.9615 41.0391 20.6353 36.6209 20.6353 34.7274C20.6353 32.8338 18.1631 29.678 16.9271 28.4156C15.691 27.1533 15.691 22.7351 16.9271 20.8416C18.1631 18.948 22.4894 20.8416 24.3435 20.8416Z" fill="#F8F1EF"/>
<path d="M26.4955 28C29.6965 28 29.9383 28.8547 31.0508 30.564C31.2298 30.839 31.5426 31.0241 31.8665 30.9719C32.5004 30.87 31.9216 30.4567 31.3429 29.2031C30.6504 27.7031 31.343 25 28.573 25C25.803 25 25.803 24.5 23.7256 23.5C21.6481 22.5 18.7629 23.5 18.0705 25.5C17.378 27.5 18.1856 29 20.2631 28C22.3406 27 23.0331 28 26.4955 28Z" fill="url(#paint0_linear_3407_20107)"/>
<path fill-rule="evenodd" clip-rule="evenodd" d="M26.126 20.7466C25.359 20.7987 24.7295 20.8416 24.3432 20.8416C23.7818 20.8416 22.9938 20.668 22.1335 20.4785C20.1526 20.0421 17.7886 19.5214 16.9267 20.8416C15.6907 22.7351 15.6907 27.1533 16.9267 28.4156C18.1628 29.678 20.635 32.8338 20.635 34.7274C20.635 36.6209 24.9612 41.0391 27.4333 39.7767C29.8546 38.5404 32.2758 36.0958 32.3745 32.4364C32.3786 32.2841 32.4124 32.1339 32.4777 31.9963C34.208 28.3501 35.3082 23.1033 33.7595 21.061C33.6451 20.91 33.4735 20.817 33.2875 20.7811C31.2883 20.3953 28.2029 20.6053 26.126 20.7466ZM26.0881 21.6739C25.3808 21.72 24.8057 21.7574 24.4649 21.7574C23.9626 21.7574 23.2576 21.6012 22.4879 21.4306C20.7154 21.0379 18.6003 20.5692 17.8292 21.7574C16.7232 23.4616 16.7232 27.438 17.8292 28.5741C18.9351 29.7102 21.147 32.5505 21.147 34.2546C21.147 35.9588 25.0179 39.9352 27.2298 38.7991C29.3914 37.6888 31.5529 35.4959 31.6502 32.2146C31.6547 32.0631 31.688 31.9138 31.753 31.7768C33.3015 28.511 34.5863 23.8321 33.2565 21.9801C33.1457 21.8258 32.9736 21.7326 32.7869 21.6975C30.9699 21.356 28.0306 21.5474 26.0881 21.6739Z" fill="#B6B1B0"/>
<defs>
<linearGradient id="paint0_linear_3407_20107" x1="24.4995" y1="31" x2="24.4995" y2="23" gradientUnits="userSpaceOnUse">
<stop stop-color="#F6EEEB" stop-opacity="0.2"/>
<stop offset="1" stop-color="#9A8A89" stop-opacity="0.6"/>
</linearGradient>
</defs>
</svg>
