<svg width="51" height="60" viewBox="0 0 51 60" fill="none" xmlns="http://www.w3.org/2000/svg">
<path d="M13.8729 42.6954C9.58381 40.118 11.0493 33.1233 9.07863 28.2525C9.02788 28.1271 8.99919 27.9904 9.0026 27.8551C9.12034 23.1867 13.207 23.116 15.2652 18.3094C17.3536 13.4324 23.6188 14.8258 32.6685 16.916C41.7183 19.0062 41.7183 28.7609 40.326 33.6374C38.9875 38.3256 39.6299 44.0885 28.4917 44.0885C17.3536 44.0885 20.8343 46.8788 13.8729 42.6954Z" fill="#F8F1EF"/>
<path d="M25.5485 34.4564C17.5811 33.0895 22.4756 28.3513 22.6089 26.2284C22.6126 26.1702 22.6172 26.111 22.6278 26.0537C24.1327 17.8544 31.4194 21.3055 30.6879 24.757C29.9537 28.2209 33.6247 26.1429 36.5614 26.1429C39.4982 26.1429 37.1882 18.2724 39 22.5C40.5 26 40.9666 28.9141 38.764 31.6853C36.5614 34.4564 33.6246 35.842 25.5485 34.4564Z" fill="url(#paint0_linear_3407_19982)"/>
<path fill-rule="evenodd" clip-rule="evenodd" d="M10.3198 34.1983C10.7521 37.6935 11.17 41.0714 13.8726 42.6954C18.1536 45.2681 18.4856 45.2034 20.697 44.7721C22.0816 44.5022 24.2029 44.0885 28.4914 44.0885C38.0119 44.0885 38.9252 39.878 39.8256 35.7271C39.9786 35.0218 40.1312 34.3183 40.3256 33.6374C41.7179 28.7609 41.7179 19.0062 32.6682 16.916C23.6184 14.8258 17.3532 13.4324 15.2648 18.3094C14.3491 20.4479 13.0319 21.6489 11.8414 22.7345C10.3559 24.0889 9.06759 25.2637 9.00223 27.8551C8.99881 27.9904 9.02751 28.1271 9.07826 28.2525C9.8072 30.0542 10.066 32.1464 10.3198 34.1983ZM11.2373 33.9184C11.6426 37.1806 12.0343 40.3333 14.568 41.8491C18.5815 44.2502 18.8927 44.1898 20.966 43.7873C22.264 43.5353 24.2527 43.1493 28.2731 43.1493C37.1986 43.1493 38.0549 39.2195 38.899 35.3453C39.0424 34.687 39.1855 34.0304 39.3678 33.3949C40.673 28.8435 40.673 19.7391 32.1889 17.7883C23.7048 15.8374 17.8311 14.5369 15.8733 19.0888C15.0148 21.0847 13.7799 22.2057 12.6638 23.2188C11.2739 24.4805 10.0682 25.575 10.0024 27.9836C9.99874 28.1194 10.0278 28.2564 10.0788 28.3823C10.758 30.0609 11 32.0084 11.2373 33.9184Z" fill="#B6B1B0"/>
<defs>
<linearGradient id="paint0_linear_3407_19982" x1="31" y1="35" x2="31" y2="21" gradientUnits="userSpaceOnUse">
<stop stop-color="#9A8A89" stop-opacity="0.6"/>
<stop offset="1" stop-color="#F6EEEB" stop-opacity="0.2"/>
</linearGradient>
</defs>
</svg>
