<svg width="52" height="60" viewBox="0 0 52 60" fill="none" xmlns="http://www.w3.org/2000/svg">
<path d="M37.9414 33.6303C27.1182 46.7459 16.2946 35.9105 14.5856 33.6292L14.0156 33.06C13.0076 32.4897 22.5605 23.3641 25.4088 20.5125C28.2571 17.6609 32.8144 27.3563 37.9414 33.6303Z" fill="#F8F1EF"/>
<path d="M29.8831 36.2015C27.8368 35.9299 22.473 35.8124 19.6961 35.0639C19.1477 34.916 18.9309 34.2894 19.3093 33.8658C21.6646 31.2289 27.0214 31.7562 30.3846 32.4245C30.7109 32.4893 34.1628 30.5672 32.8311 33.4648C31.4995 36.3624 32.2095 36.5104 29.8831 36.2015Z" fill="url(#paint0_linear_3407_19733)"/>
<path d="M35.4412 31C33.4476 27.8117 24.2168 20.6631 26.4414 21C28.7113 21.3438 31.7725 24.1811 32.8573 26.8175C34.5945 28.8905 35.2848 29.9122 35.4412 31Z" fill="url(#paint1_linear_3407_19733)"/>
<path fill-rule="evenodd" clip-rule="evenodd" d="M14.5856 33.6292C16.2946 35.9105 27.1182 46.7459 37.9414 33.6303C36.4134 31.7604 34.936 29.5866 33.5393 27.5317C30.2498 22.6916 27.4082 18.5108 25.4088 20.5125C24.9819 20.9399 24.4044 21.5082 23.7345 22.1675C19.9342 25.9073 13.1587 32.5751 14.0156 33.06L14.5856 33.6292ZM15.5319 33.2663C17.0985 35.3194 27.0201 45.0713 36.9414 33.2673C35.5407 31.5844 34.1864 29.628 32.9061 27.7785C29.8907 23.4225 27.286 19.6597 25.4532 21.4612C25.0619 21.8459 24.5325 22.3573 23.9184 22.9507C20.4349 26.3165 14.2239 32.3176 15.0094 32.754L15.5319 33.2663Z" fill="#B6B1B0"/>
<defs>
<linearGradient id="paint0_linear_3407_19733" x1="26.6989" y1="31.5809" x2="25.9158" y2="37.5536" gradientUnits="userSpaceOnUse">
<stop stop-color="#F6EEEB" stop-opacity="0.2"/>
<stop offset="1" stop-color="#9A8A89" stop-opacity="0.6"/>
</linearGradient>
<linearGradient id="paint1_linear_3407_19733" x1="34.9413" y1="30.2725" x2="28.7334" y2="21.6019" gradientUnits="userSpaceOnUse">
<stop stop-color="#9A8A89" stop-opacity="0.6"/>
<stop offset="1" stop-color="#F6EEEB" stop-opacity="0.2"/>
</linearGradient>
</defs>
</svg>
