<svg width="51" height="60" viewBox="0 0 51 60" fill="none" xmlns="http://www.w3.org/2000/svg">
<path d="M36.2799 42.0801C40.8185 39.7957 41.3858 33.5137 40.8185 28.3739C40.6503 24.3765 38.549 24.376 36.2799 19.8073C34.0108 15.2385 25.5007 15.8096 19.2602 16.3807C13.0196 16.9518 9.61572 22.0916 9.0484 32.3713C8.48109 42.6509 13.0196 44.3647 16.4236 44.9358C19.8275 45.5069 22.6641 42.0801 25.5007 42.0801C28.3373 42.0801 31.7414 44.3645 36.2799 42.0801Z" fill="#F8F1EF"/>
<path d="M27.9668 36.2399C26.8961 35.2638 19.7639 32.8308 17.1101 33.7905C16.9013 33.8661 16.75 34.0485 16.6594 34.2513C14.7183 38.5992 13.5908 36.9486 13.0436 34.4946C12.8457 33.6068 14.4104 33.2061 14.7193 32.3506C15.0325 31.4834 14.8463 29.578 14.6634 27.4251C14.5755 26.3907 16.658 25.3199 17.6954 25.3612C19.2991 25.4252 21.1278 24.9163 22.7051 24.8049C23.0554 24.7801 23.3772 24.5963 23.5775 24.3078C24.7496 22.6191 26.4573 21.571 29.1535 22.17C31.7749 22.7523 31.5928 24.8916 32.7715 26.2752C33.0397 26.59 33.5029 26.5962 33.8528 26.3758C37.5271 24.0612 39.5952 23.0554 39.679 28.2731C39.6825 28.4895 39.6095 28.7102 39.4742 28.8791C33.5314 36.301 22.2424 29.9194 24.4472 31.97C26.8511 34.2056 30.7907 38.8143 27.9668 36.2399Z" fill="url(#paint0_linear_3407_20011)"/>
<path d="M32.3065 41.9443C31.9283 38.507 31.8993 38.3783 29.7577 36.6388L32.3065 41.9443Z" fill="url(#paint1_linear_3407_20011)"/>
<path d="M13.886 21.622C13.6744 24.2366 13.6805 24.334 15.4118 25.5977L13.886 21.622Z" fill="url(#paint2_linear_3407_20011)"/>
<path d="M26.1922 31.3172C33.499 33.4961 38.4989 31.996 39.4987 28.4971L33.8394 30.2376C33.2802 30.4096 32.7061 30.5314 32.1238 30.6017L26.1922 31.3172Z" fill="url(#paint3_linear_3407_20011)"/>
<path fill-rule="evenodd" clip-rule="evenodd" d="M40.8185 28.3739C41.3858 33.5137 40.8185 39.7957 36.2799 42.0801C33.1394 43.6608 30.542 43.0539 28.3 42.53C27.302 42.2968 26.3744 42.0801 25.5007 42.0801C24.2429 42.0801 22.9852 42.7538 21.678 43.454C20.0371 44.333 18.3182 45.2537 16.4236 44.9358C13.0196 44.3647 8.48108 42.6509 9.0484 32.3713C9.61572 22.0916 13.0196 16.9518 19.2602 16.3807C25.5007 15.8096 34.0108 15.2385 36.2799 19.8073C37.2012 21.6622 38.0948 22.7641 38.8426 23.6862C39.9366 25.0353 40.7186 25.9995 40.8185 28.3739ZM39.8298 28.5205C40.3617 33.3059 39.8298 39.1546 35.5749 41.2815C32.6306 42.7532 30.1956 42.1881 28.0938 41.7004C27.1581 41.4833 26.2885 41.2815 25.4694 41.2815C24.2903 41.2815 23.1111 41.9087 21.8857 42.5606C20.3473 43.379 18.7358 44.2362 16.9596 43.9402C13.7684 43.4085 9.51352 41.8129 10.0454 32.2422C10.5772 22.6715 13.7684 17.8862 19.6189 17.3545C25.4694 16.8228 33.4476 16.2911 35.5749 20.5447C36.4386 22.2717 37.2764 23.2976 37.9774 24.1561C39.0031 25.4121 39.7362 26.3099 39.8298 28.5205Z" fill="#B6B1B0"/>
<defs>
<linearGradient id="paint0_linear_3407_20011" x1="22.3885" y1="39.2905" x2="22.3885" y2="21.9994" gradientUnits="userSpaceOnUse">
<stop stop-color="#9A8A89" stop-opacity="0.6"/>
<stop offset="1" stop-color="#F6EEEB" stop-opacity="0.02"/>
</linearGradient>
<linearGradient id="paint1_linear_3407_20011" x1="29.7369" y1="37.0631" x2="31.6528" y2="39.5017" gradientUnits="userSpaceOnUse">
<stop offset="0.07" stop-color="#F6EEEB" stop-opacity="0.2"/>
<stop offset="0.84" stop-color="#9A8A89" stop-opacity="0.6"/>
</linearGradient>
<linearGradient id="paint2_linear_3407_20011" x1="15.5016" y1="25.2729" x2="14.3525" y2="23.3189" gradientUnits="userSpaceOnUse">
<stop offset="0.07" stop-color="#F6EEEB" stop-opacity="0.2"/>
<stop offset="0.84" stop-color="#9A8A89" stop-opacity="0.6"/>
</linearGradient>
<linearGradient id="paint3_linear_3407_20011" x1="38.426" y1="32.1078" x2="31.6221" y2="32.995" gradientUnits="userSpaceOnUse">
<stop offset="0.07" stop-color="#F6EEEB" stop-opacity="0.2"/>
<stop offset="0.84" stop-color="#9A8A89" stop-opacity="0.6"/>
</linearGradient>
</defs>
</svg>
