<svg width="51" height="60" viewBox="0 0 51 60" fill="none" xmlns="http://www.w3.org/2000/svg">
<path d="M36.1271 42.6954C40.4162 40.118 38.9507 33.1233 40.9214 28.2525C40.9721 28.1271 41.0008 27.9904 40.9974 27.8551C40.8797 23.1867 36.793 23.116 34.7348 18.3094C32.6464 13.4324 26.3812 14.8258 17.3315 16.916C8.28171 19.0062 8.28171 28.7609 9.67398 33.6374C11.0125 38.3256 10.3701 44.0885 21.5083 44.0885C32.6464 44.0885 29.1657 46.8788 36.1271 42.6954Z" fill="#F8F1EF"/>
<path d="M24.4515 34.4564C32.4189 33.0895 27.5244 28.3513 27.3911 26.2284C27.3874 26.1702 27.3828 26.111 27.3722 26.0537C25.8673 17.8544 18.5806 21.3055 19.3121 24.757C20.0463 28.2209 16.3753 26.1429 13.4386 26.1429C10.5018 26.1429 12.8118 18.2724 11 22.5C9.5 26 9.03341 28.9141 11.236 31.6853C13.4386 34.4564 16.3754 35.842 24.4515 34.4564Z" fill="url(#paint0_linear_3407_20193)"/>
<path fill-rule="evenodd" clip-rule="evenodd" d="M39.6802 34.1983C39.2479 37.6935 38.83 41.0714 36.1274 42.6954C31.8464 45.2681 31.5144 45.2034 29.303 44.7721C27.9184 44.5022 25.7971 44.0885 21.5086 44.0885C11.9881 44.0885 11.0748 39.878 10.1744 35.7271C10.0214 35.0218 9.86875 34.3183 9.67435 33.6374C8.28209 28.7609 8.28209 19.0062 17.3318 16.916C26.3816 14.8258 32.6468 13.4324 34.7352 18.3094C35.6509 20.4479 36.9681 21.6489 38.1586 22.7345C39.6441 24.0889 40.9324 25.2637 40.9978 27.8551C41.0012 27.9904 40.9725 28.1271 40.9217 28.2525C40.1928 30.0542 39.934 32.1464 39.6802 34.1983ZM38.7627 33.9184C38.3574 37.1806 37.9657 40.3333 35.432 41.8491C31.4185 44.2502 31.1073 44.1898 29.034 43.7873C27.736 43.5353 25.7473 43.1493 21.7269 43.1493C12.8014 43.1493 11.9451 39.2195 11.101 35.3453C10.9576 34.687 10.8145 34.0304 10.6322 33.3949C9.32698 28.8435 9.32698 19.7391 17.8111 17.7883C26.2952 15.8374 32.1689 14.5369 34.1267 19.0888C34.9852 21.0847 36.2201 22.2057 37.3362 23.2188C38.7261 24.4805 39.9318 25.575 39.9976 27.9836C40.0013 28.1194 39.9722 28.2564 39.9212 28.3823C39.242 30.0609 39 32.0084 38.7627 33.9184Z" fill="#B6B1B0"/>
<defs>
<linearGradient id="paint0_linear_3407_20193" x1="19" y1="35" x2="19" y2="21" gradientUnits="userSpaceOnUse">
<stop stop-color="#9A8A89" stop-opacity="0.6"/>
<stop offset="1" stop-color="#F6EEEB" stop-opacity="0.2"/>
</linearGradient>
</defs>
</svg>
