<svg width="52" height="60" viewBox="0 0 52 60" fill="none" xmlns="http://www.w3.org/2000/svg">
<path d="M30.3772 22.3669C37.439 22.9654 38.616 29.5488 39.793 34.3368C37.439 40.3218 37.439 34.3368 24.4924 37.9269C11.5458 41.5169 14.4882 35.5338 12.1343 28.3518C9.78036 21.1699 20.373 18.7759 20.373 20.5714C20.373 22.3669 23.3155 21.7684 30.3772 22.3669Z" fill="#F8F1EF"/>
<path d="M14.5739 22C14.5739 24.5 20.7927 24 22.793 25C23.2927 25 31.8088 29.5 29.5884 29.5C28.4703 29.5 15.7948 32.5 13.7948 28C11.7948 23.5 14.0739 23.5 14.5739 22Z" fill="url(#paint0_linear_3407_19953)"/>
<path fill-rule="evenodd" clip-rule="evenodd" d="M39.7426 33.521C38.608 28.8337 37.1794 22.932 30.4759 22.3669C28.4325 22.1946 26.7322 22.1215 25.3468 22.0619C21.919 21.9146 20.4187 21.8501 20.4187 20.5714C20.4187 18.7759 9.77 21.1699 12.1364 28.3518C12.6701 29.9718 12.933 31.5307 13.1694 32.9325C13.981 37.7458 14.4804 40.7072 24.5599 37.9269C30.8714 36.1859 34.1222 36.6967 36.0665 37.0021C38.1315 37.3266 38.7226 37.4195 39.9414 34.3368C39.8755 34.07 39.8095 33.7976 39.7426 33.521ZM39.0488 33.4261C37.9709 29.2596 36.6138 24.0136 30.2454 23.5113C28.3043 23.3582 26.689 23.2932 25.3729 23.2402C22.1164 23.1092 20.6912 23.0519 20.6912 21.9153C20.6912 20.3193 10.5749 22.4473 12.8229 28.8313C13.33 30.2712 13.5797 31.6569 13.8043 32.903C14.5753 37.1815 15.0497 39.8138 24.6253 37.3424C30.6212 35.7949 33.7095 36.2489 35.5565 36.5204C37.5183 36.8088 38.0798 36.8914 39.2377 34.1512C39.1751 33.9141 39.1124 33.672 39.0488 33.4261Z" fill="#B6B1B0"/>
<defs>
<linearGradient id="paint0_linear_3407_19953" x1="18.1767" y1="22" x2="18.1767" y2="29.9649" gradientUnits="userSpaceOnUse">
<stop stop-color="#9A8A89" stop-opacity="0.6"/>
<stop offset="1" stop-color="#F6EEEB" stop-opacity="0.2"/>
</linearGradient>
</defs>
</svg>
