<svg width="52" height="60" viewBox="0 0 52 60" fill="none" xmlns="http://www.w3.org/2000/svg">
<path d="M21.2968 52.3251C14.8107 46.7573 8.32458 50.469 5.54482 44.9014C4.15496 42.1176 2.76524 33.7661 2.76524 28.1985C2.76524 22.6309 0.911797 22.6309 2.76497 16.1353C4.61813 9.6397 14.8102 5 22.2231 5C50.9472 8.71176 50.9477 41.1908 47.2413 49.5423C43.535 57.8937 24.1974 54.8151 21.2968 52.3251Z" fill="#F6EEEB"/>
<path d="M9.07448 24.9892C6.35516 22.0598 6.2602 21.9354 5.78484 18.5217L9.07448 24.9892Z" fill="url(#paint0_linear_3407_19484)"/>
<path d="M23.8838 22.7424C25.6377 17.4227 30.3635 12.6258 35.3647 12.9363L23.8838 22.7424Z" fill="url(#paint1_linear_3407_19484)"/>
<path d="M27.8377 41.3822C34.6752 44.4016 35.042 42.4728 36.1801 41.371C39.1941 38.6807 40.0679 34.1745 40.9414 28.7715C37.4472 27.4359 33.079 27.871 28.7113 29.3803C26.0906 31.473 26.9414 27.5924 26.4414 26.9739C24.4414 24.5 25.741 24.6338 22.5962 23.3699C19.4515 22.106 10.3648 24.2724 7.74432 26.9739C6.87094 27.8744 5.66695 30.8801 5.99736 31.4764C8.36341 35.7542 13.747 36.9636 19.0781 35.1488C23.4696 35.0772 21.7227 36.8782 22.5962 37.7787L25.217 39.5797L27.8377 41.3822Z" fill="url(#paint2_linear_3407_19484)"/>
<path d="M17.8312 47.4507C19.0652 41.6157 19.1376 41.3951 23.1925 38.1723L17.8312 47.4507Z" fill="url(#paint3_linear_3407_19484)"/>
<path fill-rule="evenodd" clip-rule="evenodd" d="M12.3 48.8775C15.0189 49.3372 18.158 49.8679 21.297 52.612C24.1977 55.1477 43.5356 58.2828 47.242 49.7781C50.9484 41.2734 50.9479 8.19836 22.2234 4.4185C14.8104 4.4185 4.61817 9.14333 2.76498 15.7581C1.60067 19.914 1.89947 21.4588 2.28251 23.4392C2.50914 24.6109 2.76525 25.935 2.76525 28.0427C2.76525 33.7125 4.15499 42.2171 5.54488 45.052C6.97936 47.9779 9.40086 48.3873 12.3 48.8775ZM12.8596 48.6599C15.4628 49.1113 18.4682 49.6325 21.4736 52.3271C24.2508 54.8171 42.7655 57.8957 46.3142 49.5442C49.8628 41.1928 49.8624 8.71371 22.3605 5.00195C15.2631 5.00195 5.50472 9.64165 3.73041 16.1372C2.61566 20.2182 2.90174 21.7352 3.26847 23.6799C3.48546 24.8305 3.73067 26.1308 3.73067 28.2004C3.73067 33.7681 5.06125 42.1195 6.39198 44.9033C7.7654 47.7765 10.0838 48.1785 12.8596 48.6599Z" fill="#B6B1B0"/>
<defs>
<linearGradient id="paint0_linear_3407_19484" x1="6.15167" y1="18.8165" x2="7.47354" y2="22.4708" gradientUnits="userSpaceOnUse">
<stop offset="0.07" stop-color="#F6EEEB" stop-opacity="0.2"/>
<stop offset="0.84" stop-color="#9A8A89" stop-opacity="0.6"/>
</linearGradient>
<linearGradient id="paint1_linear_3407_19484" x1="20.1736" y1="21.3104" x2="29.5572" y2="13.4075" gradientUnits="userSpaceOnUse">
<stop offset="0.07" stop-color="#F6EEEB" stop-opacity="0.2"/>
<stop offset="0.84" stop-color="#9A8A89" stop-opacity="0.6"/>
</linearGradient>
<linearGradient id="paint2_linear_3407_19484" x1="29.9414" y1="26.5" x2="19.8922" y2="40.7606" gradientUnits="userSpaceOnUse">
<stop stop-color="#F6EEEB" stop-opacity="0.2"/>
<stop offset="0.8" stop-color="#9A8A89" stop-opacity="0.6"/>
</linearGradient>
<linearGradient id="paint3_linear_3407_19484" x1="23.1589" y1="38.8832" x2="19.7787" y2="43.5369" gradientUnits="userSpaceOnUse">
<stop offset="0.07" stop-color="#F6EEEB" stop-opacity="0.2"/>
<stop offset="0.84" stop-color="#9A8A89" stop-opacity="0.6"/>
</linearGradient>
</defs>
</svg>
