<svg width="52" height="60" viewBox="0 0 52 60" fill="none" xmlns="http://www.w3.org/2000/svg">
<path d="M37.9414 26.3697C27.1182 13.2541 16.2946 24.0895 14.5856 26.3708L14.0156 26.94C13.0076 27.5103 22.5605 36.6359 25.4088 39.4875C28.2571 42.3391 32.8144 32.6437 37.9414 26.3697Z" fill="#F8F1EF"/>
<path d="M29.8831 23.7985C27.8368 24.0701 22.473 24.1876 19.6961 24.9361C19.1477 25.084 18.9309 25.7106 19.3093 26.1342C21.6646 28.7711 27.0214 28.2438 30.3846 27.5755C30.7109 27.5107 34.1628 29.4328 32.8311 26.5352C31.4995 23.6376 32.2095 23.4896 29.8831 23.7985Z" fill="url(#paint0_linear_3407_19871)"/>
<path d="M35.4412 29C33.4476 32.1883 24.2168 39.3369 26.4414 39C28.7113 38.6562 31.7725 35.8189 32.8573 33.1825C34.5945 31.1095 35.2848 30.0878 35.4412 29Z" fill="url(#paint1_linear_3407_19871)"/>
<path fill-rule="evenodd" clip-rule="evenodd" d="M14.5856 26.3708C16.2946 24.0895 27.1182 13.2541 37.9414 26.3697C36.4134 28.2396 34.936 30.4134 33.5393 32.4683C30.2498 37.3084 27.4082 41.4892 25.4088 39.4875C24.9819 39.0601 24.4044 38.4918 23.7345 37.8325C19.9342 34.0927 13.1587 27.4249 14.0156 26.94L14.5856 26.3708ZM15.5319 26.7337C17.0985 24.6806 27.0201 14.9287 36.9414 26.7327C35.5407 28.4156 34.1864 30.372 32.9061 32.2215C29.8907 36.5775 27.286 40.3403 25.4532 38.5388C25.0619 38.1541 24.5325 37.6427 23.9184 37.0493C20.4349 33.6835 14.2239 27.6824 15.0094 27.246L15.5319 26.7337Z" fill="#B6B1B0"/>
<defs>
<linearGradient id="paint0_linear_3407_19871" x1="26.6989" y1="28.4191" x2="25.9158" y2="22.4464" gradientUnits="userSpaceOnUse">
<stop stop-color="#F6EEEB" stop-opacity="0.2"/>
<stop offset="1" stop-color="#9A8A89" stop-opacity="0.6"/>
</linearGradient>
<linearGradient id="paint1_linear_3407_19871" x1="34.9413" y1="29.7275" x2="28.7334" y2="38.3981" gradientUnits="userSpaceOnUse">
<stop stop-color="#9A8A89" stop-opacity="0.6"/>
<stop offset="1" stop-color="#F6EEEB" stop-opacity="0.2"/>
</linearGradient>
</defs>
</svg>
