<svg width="51" height="60" viewBox="0 0 51 60" fill="none" xmlns="http://www.w3.org/2000/svg">
<path d="M27.0236 48.0212C24.8306 51.0897 15.7882 59.7839 7.58705 48.0212C4.52286 35.2055 3.92204 21.6377 7.58705 19.3513C11.2521 17.065 10.8615 13.6053 11.0418 12.8231C11.8529 8.822 17.1101 4.76069 27.8347 6.35513C38.5593 7.94957 42.9153 12.4321 45.0482 28.9481C45.1684 29.8807 44.2071 29.8205 44.2071 31.3548C44.2071 32.889 46.1898 37.4618 43.5161 41.5532C40.8425 45.6446 35.0746 49.6758 32.1906 48.5326C28.9162 50.6986 27.0236 48.0212 27.0236 48.0212Z" fill="#F6EEEB"/>
<path d="M22.1724 7.85447C27.3735 14.4519 27.2739 14.8952 27.7952 22.0037L22.1724 7.85447Z" fill="url(#paint0_linear_3407_19690)"/>
<path d="M23.3766 39.6987C20.8959 40.5858 13.6053 39.3316 12.4557 38.2916C11.3061 37.2515 11.9717 26.5757 23.8606 26.9734C24.9497 28.9311 25.3127 29.0535 27.1278 29.0535C28.9429 29.0535 23.3766 25.2909 26.553 24.0979C29.7295 22.9049 39.5008 22.0178 41.0436 25.138C42.5865 28.2581 42.1932 29.2982 41.0436 31.2559C38.6537 35.2938 35.1143 34.1314 29.7295 32.4183C28.9429 35.2938 27.2186 35.4162 25.8572 37.6492L23.3766 39.6681V39.6987Z" fill="url(#paint1_linear_3407_19690)"/>
<path d="M35.0574 45C35.1139 39.9851 33.1934 34.4328 30.0586 33L35.0574 45Z" fill="url(#paint2_linear_3407_19690)"/>
<path d="M24.1766 49C25.3571 44.2128 25.3866 44.0213 24.0586 40L24.1766 49Z" fill="url(#paint3_linear_3407_19690)"/>
<path opacity="0.3" d="M7.55888 48.0212C15.7362 59.7839 24.8154 51.0897 27.01 48.0212C27.01 48.0212 28.904 50.6986 32.181 48.5326C35.0671 49.6758 40.8092 45.6446 43.5149 41.5532C46.2207 37.4618 44.2064 32.889 44.2064 31.3548C44.2064 29.8205 45.1684 29.8506 45.0482 28.9481C42.9437 12.4321 38.5845 7.94958 27.8518 6.35514C17.1191 4.7607 11.858 8.82201 11.0463 12.8232C10.8358 13.6053 11.0463 17.1552 7.58895 19.3513C3.92119 21.6678 4.52246 35.2356 7.58895 48.0212H7.55888ZM8.25035 19.7725C11.6175 17.6666 11.377 14.2371 11.5874 13.5151C12.3691 9.66435 17.3897 5.78354 27.7015 7.31781C38.0133 8.85209 42.1921 13.1541 44.2365 29.0082C44.3567 29.8807 43.4248 29.8506 43.4248 31.3247C43.4248 32.7988 45.3488 37.1609 42.7634 41.1019C40.1779 45.0429 34.6762 48.8936 31.9104 47.8106C28.7537 49.8864 26.9499 47.3293 26.9499 47.3293C24.8455 50.2474 16.1571 58.6408 8.28041 47.3293C5.33418 35.0551 4.73291 22.0288 8.28041 19.8026L8.25035 19.7725Z" fill="#1A1B1B"/>
<defs>
<linearGradient id="paint0_linear_3407_19690" x1="27.2337" y1="21.2224" x2="26.1587" y2="13.0925" gradientUnits="userSpaceOnUse">
<stop offset="0.07" stop-color="#F6EEEB" stop-opacity="0.2"/>
<stop offset="0.84" stop-color="#9A8A89" stop-opacity="0.6"/>
</linearGradient>
<linearGradient id="paint1_linear_3407_19690" x1="19.8069" y1="26.7286" x2="34.1257" y2="36.4302" gradientUnits="userSpaceOnUse">
<stop stop-color="#F6EEEB" stop-opacity="0.2"/>
<stop offset="0.8" stop-color="#9A8A89" stop-opacity="0.6"/>
</linearGradient>
<linearGradient id="paint2_linear_3407_19690" x1="30.1672" y1="33.7583" x2="35.3605" y2="41.9059" gradientUnits="userSpaceOnUse">
<stop offset="0.07" stop-color="#F6EEEB" stop-opacity="0.2"/>
<stop offset="0.84" stop-color="#9A8A89" stop-opacity="0.6"/>
</linearGradient>
<linearGradient id="paint3_linear_3407_19690" x1="23.8462" y1="40.5356" x2="24.5676" y2="45.2929" gradientUnits="userSpaceOnUse">
<stop offset="0.07" stop-color="#F6EEEB" stop-opacity="0.2"/>
<stop offset="0.84" stop-color="#9A8A89" stop-opacity="0.6"/>
</linearGradient>
</defs>
</svg>
