<svg width="541" height="357" viewBox="0 0 541 357" fill="none" xmlns="http://www.w3.org/2000/svg">
<rect width="541" height="357" fill="#E7ECF5"/>
<rect x="63" y="88" width="415" height="181" fill="white"/>
<g clip-path="url(#clip0_7702_6545)">
<rect x="169" y="125" width="76.9005" height="16.0209" rx="8.01047" fill="#E7ECF5"/>
<g filter="url(#filter0_f_7702_6545)">
<path d="M146.726 125.194L165.822 125.194L169.435 141.215L150.081 141.215L146.726 125.194Z" fill="white" fill-opacity="0.8"/>
</g>
</g>
<g clip-path="url(#clip1_7702_6545)">
<rect x="169" y="190.151" width="76.9005" height="16.0209" rx="8.01047" fill="#E7ECF5"/>
<g filter="url(#filter1_f_7702_6545)">
<path d="M146.726 190.346L165.822 190.346L169.435 206.367L150.081 206.367L146.726 190.346Z" fill="white" fill-opacity="0.8"/>
</g>
</g>
<g clip-path="url(#clip2_7702_6545)">
<rect x="169" y="146.358" width="204" height="22.4293" rx="11.2147" fill="#E7ECF5"/>
<g filter="url(#filter2_f_7702_6545)">
<path d="M109.913 146.63L160.571 146.63L170.155 169.059L118.813 169.059L109.913 146.63Z" fill="white" fill-opacity="0.8"/>
</g>
</g>
<g clip-path="url(#clip3_7702_6545)">
<rect x="169" y="211.516" width="204" height="22.4293" rx="11.2147" fill="#E7ECF5"/>
<g filter="url(#filter3_f_7702_6545)">
<path d="M109.913 211.787L160.571 211.787L170.155 234.216L118.813 234.216L109.913 211.787Z" fill="white" fill-opacity="0.8"/>
</g>
</g>
<defs>
<filter id="filter0_f_7702_6545" x="122.726" y="101.194" width="70.709" height="64.0205" filterUnits="userSpaceOnUse" color-interpolation-filters="sRGB">
<feFlood flood-opacity="0" result="BackgroundImageFix"/>
<feBlend mode="normal" in="SourceGraphic" in2="BackgroundImageFix" result="shape"/>
<feGaussianBlur stdDeviation="12" result="effect1_foregroundBlur_7702_6545"/>
</filter>
<filter id="filter1_f_7702_6545" x="122.726" y="166.346" width="70.709" height="64.0205" filterUnits="userSpaceOnUse" color-interpolation-filters="sRGB">
<feFlood flood-opacity="0" result="BackgroundImageFix"/>
<feBlend mode="normal" in="SourceGraphic" in2="BackgroundImageFix" result="shape"/>
<feGaussianBlur stdDeviation="12" result="effect1_foregroundBlur_7702_6545"/>
</filter>
<filter id="filter2_f_7702_6545" x="85.9131" y="122.63" width="108.242" height="70.4297" filterUnits="userSpaceOnUse" color-interpolation-filters="sRGB">
<feFlood flood-opacity="0" result="BackgroundImageFix"/>
<feBlend mode="normal" in="SourceGraphic" in2="BackgroundImageFix" result="shape"/>
<feGaussianBlur stdDeviation="12" result="effect1_foregroundBlur_7702_6545"/>
</filter>
<filter id="filter3_f_7702_6545" x="85.9131" y="187.787" width="108.242" height="70.4297" filterUnits="userSpaceOnUse" color-interpolation-filters="sRGB">
<feFlood flood-opacity="0" result="BackgroundImageFix"/>
<feBlend mode="normal" in="SourceGraphic" in2="BackgroundImageFix" result="shape"/>
<feGaussianBlur stdDeviation="12" result="effect1_foregroundBlur_7702_6545"/>
</filter>
<clipPath id="clip0_7702_6545">
<rect x="169" y="125" width="76.9005" height="16.0209" rx="8.01047" fill="white"/>
</clipPath>
<clipPath id="clip1_7702_6545">
<rect x="169" y="190.151" width="76.9005" height="16.0209" rx="8.01047" fill="white"/>
</clipPath>
<clipPath id="clip2_7702_6545">
<rect x="169" y="146.358" width="204" height="22.4293" rx="11.2147" fill="white"/>
</clipPath>
<clipPath id="clip3_7702_6545">
<rect x="169" y="211.516" width="204" height="22.4293" rx="11.2147" fill="white"/>
</clipPath>
</defs>
</svg>
