<svg width="541" height="357" viewBox="0 0 541 357" fill="none" xmlns="http://www.w3.org/2000/svg">
<rect width="541" height="357" fill="#E7ECF5"/>
<rect x="63" y="88" width="415" height="181" fill="white"/>
<rect opacity="0.5" x="293" y="164" width="97" height="13" rx="6.5" fill="#CED9EB"/>
<rect opacity="0.5" x="293" y="181" width="116" height="13" rx="6.5" fill="#CED9EB"/>
<path d="M179.102 194.323H179.994L181.394 198.575H180.573L179.922 196.318C179.777 195.867 179.657 195.392 179.536 194.917H179.512C179.391 195.392 179.271 195.867 179.126 196.318L178.45 198.575H177.678L179.102 194.323ZM178.523 196.841H180.549V197.435H178.523V196.841Z" fill="#0C419A"/>
<path d="M181.852 199.169C181.852 198.907 182.021 198.67 182.31 198.48V198.456C182.142 198.361 182.021 198.171 182.021 197.933C182.021 197.696 182.19 197.458 182.383 197.339V197.316C182.166 197.149 181.949 196.84 181.949 196.46C181.949 195.724 182.552 195.32 183.227 195.32C183.396 195.32 183.565 195.344 183.71 195.391H184.868V195.938H184.264C184.361 196.057 184.457 196.247 184.457 196.484C184.457 197.197 183.903 197.577 183.227 197.577C183.082 197.577 182.938 197.553 182.793 197.482C182.696 197.553 182.624 197.648 182.624 197.791C182.624 197.981 182.745 198.076 183.155 198.076H183.734C184.506 198.076 184.916 198.313 184.916 198.86C184.916 199.501 184.24 200 183.179 200C182.431 200 181.852 199.739 181.852 199.169ZM184.216 199.002C184.216 198.765 184.023 198.693 183.637 198.693H183.203C183.034 198.693 182.889 198.67 182.769 198.646C182.6 198.765 182.528 198.931 182.528 199.074C182.528 199.359 182.841 199.525 183.348 199.525C183.854 199.525 184.216 199.287 184.216 199.002ZM183.806 196.46C183.806 196.057 183.565 195.819 183.251 195.819C182.938 195.819 182.696 196.057 182.696 196.46C182.696 196.864 182.938 197.102 183.251 197.102C183.565 197.102 183.806 196.864 183.806 196.46Z" fill="#0C419A"/>
<path d="M185.664 194.394C185.664 194.133 185.857 193.966 186.146 193.966C186.412 193.966 186.629 194.133 186.629 194.394C186.629 194.631 186.436 194.821 186.146 194.821C185.881 194.821 185.664 194.655 185.664 194.394ZM185.76 195.392H186.532V198.599H185.76V195.392Z" fill="#0C419A"/>
<path d="M188.341 195.391L188.39 195.962H188.414C188.655 195.534 188.993 195.32 189.331 195.32C189.499 195.32 189.596 195.344 189.692 195.391L189.572 196.033C189.451 196.009 189.379 195.985 189.234 195.985C188.969 195.985 188.655 196.152 188.462 196.65V198.598H187.69V195.391H188.341Z" fill="#0C419A"/>
<path d="M191.743 196.983C191.743 195.938 192.467 195.296 193.239 195.296C194.107 195.296 194.59 195.914 194.59 196.817C194.59 196.959 194.566 197.102 194.566 197.173H192.491C192.563 197.743 192.925 198.076 193.456 198.076C193.745 198.076 193.962 197.981 194.204 197.838L194.469 198.313C194.155 198.527 193.769 198.67 193.359 198.67C192.443 198.67 191.743 198.052 191.743 196.983ZM193.938 196.674C193.938 196.175 193.721 195.89 193.263 195.89C192.877 195.89 192.539 196.175 192.491 196.674H193.938Z" fill="#0C419A"/>
<path d="M196.158 195.391L196.206 195.819H196.23C196.52 195.534 196.857 195.296 197.292 195.296C197.991 195.296 198.281 195.772 198.281 196.579V198.575H197.509V196.674C197.509 196.152 197.364 195.938 197.002 195.938C196.713 195.938 196.52 196.08 196.254 196.342V198.575H195.482V195.391H196.158Z" fill="#0C419A"/>
<path d="M199.149 198.218L199.511 197.743C199.801 197.957 200.09 198.1 200.404 198.1C200.766 198.1 200.934 197.933 200.934 197.719C200.934 197.458 200.573 197.339 200.235 197.197C199.801 197.031 199.318 196.793 199.318 196.27C199.318 195.724 199.776 195.32 200.5 195.32C200.959 195.32 201.32 195.51 201.586 195.7L201.248 196.152C201.031 195.985 200.79 195.867 200.524 195.867C200.187 195.867 200.042 196.009 200.042 196.223C200.042 196.484 200.38 196.579 200.717 196.698C201.151 196.864 201.658 197.078 201.658 197.672C201.658 198.218 201.224 198.67 200.404 198.67C199.945 198.67 199.463 198.48 199.149 198.218Z" fill="#0C419A"/>
<path d="M202.334 196.983C202.334 195.938 203.057 195.296 203.829 195.296C204.698 195.296 205.18 195.914 205.18 196.817C205.18 196.959 205.156 197.102 205.156 197.173H203.082C203.154 197.743 203.516 198.076 204.046 198.076C204.336 198.076 204.553 197.981 204.794 197.838L205.06 198.313C204.746 198.527 204.36 198.67 203.95 198.67C203.033 198.67 202.334 198.052 202.334 196.983ZM204.505 196.674C204.505 196.175 204.288 195.89 203.829 195.89C203.443 195.89 203.106 196.175 203.057 196.674H204.505Z" fill="#0C419A"/>
<path d="M206.748 195.391L206.797 195.819H206.821C207.086 195.534 207.4 195.296 207.81 195.296C208.292 195.296 208.558 195.51 208.703 195.867C209.016 195.534 209.33 195.296 209.74 195.296C210.415 195.296 210.753 195.772 210.753 196.579V198.575H209.981V196.674C209.981 196.152 209.812 195.938 209.474 195.938C209.257 195.938 209.04 196.057 208.799 196.342V198.575H208.027V196.674C208.027 196.152 207.858 195.938 207.52 195.938C207.327 195.938 207.086 196.057 206.845 196.342V198.575H206.073V195.391H206.748Z" fill="#0C419A"/>
<path d="M212.611 198.266L212.514 198.599H211.911V193.99H212.683V195.178L212.659 195.7C212.924 195.463 213.262 195.297 213.6 195.297C214.42 195.297 214.878 195.938 214.878 196.912C214.878 198.005 214.203 198.646 213.479 198.646C213.214 198.67 212.9 198.527 212.611 198.266ZM214.106 196.959C214.106 196.318 213.889 195.938 213.407 195.938C213.166 195.938 212.948 196.057 212.707 196.294V197.791C212.924 197.981 213.166 198.052 213.359 198.052C213.769 198.052 214.106 197.672 214.106 196.959Z" fill="#0C419A"/>
<path d="M215.843 197.767V193.99H216.615V197.815C216.615 198.005 216.712 198.076 216.784 198.076C216.808 198.076 216.857 198.076 216.905 198.052L217.001 198.622C216.905 198.67 216.784 198.694 216.591 198.694C216.036 198.67 215.843 198.314 215.843 197.767Z" fill="#0C419A"/>
<path d="M217.653 196.983C217.653 195.938 218.376 195.296 219.148 195.296C220.017 195.296 220.499 195.914 220.499 196.817C220.499 196.959 220.475 197.102 220.475 197.173H218.401C218.473 197.743 218.835 198.076 219.366 198.076C219.655 198.076 219.872 197.981 220.113 197.838L220.379 198.313C220.065 198.527 219.679 198.67 219.269 198.67C218.352 198.67 217.653 198.052 217.653 196.983ZM219.824 196.674C219.824 196.175 219.607 195.89 219.148 195.89C218.762 195.89 218.425 196.175 218.376 196.674H219.824Z" fill="#0C419A"/>
<path d="M221.899 197.648C221.609 197.648 221.392 197.838 221.392 198.1C221.392 198.409 221.633 198.551 221.874 198.551C221.899 198.551 221.923 198.551 221.923 198.551C221.923 198.884 221.681 199.193 221.247 199.335L221.416 199.739C222.067 199.525 222.453 199.026 222.453 198.385C222.453 197.933 222.26 197.648 221.899 197.648Z" fill="#0C419A"/>
<path d="M225.734 195.391L225.783 195.724H225.807C226.072 195.487 226.434 195.296 226.796 195.296C227.616 195.296 228.074 195.938 228.074 196.936C228.074 198.028 227.399 198.67 226.675 198.67C226.386 198.67 226.096 198.551 225.831 198.313L225.855 198.836V199.834H225.083V195.391H225.734ZM227.278 196.959C227.278 196.318 227.061 195.938 226.579 195.938C226.338 195.938 226.12 196.057 225.879 196.294V197.791C226.12 197.981 226.337 198.052 226.53 198.052C226.941 198.052 227.278 197.672 227.278 196.959Z" fill="#0C419A"/>
<path d="M229.667 195.391L229.715 195.962H229.739C229.98 195.534 230.318 195.32 230.656 195.32C230.825 195.32 230.921 195.344 231.018 195.391L230.897 196.033C230.776 196.009 230.704 195.985 230.559 195.985C230.294 195.985 229.98 196.152 229.787 196.65V198.598H229.015V195.391H229.667Z" fill="#0C419A"/>
<path d="M231.331 196.983C231.331 195.914 232.079 195.296 232.875 195.296C233.671 195.296 234.419 195.914 234.419 196.983C234.419 198.052 233.671 198.67 232.875 198.67C232.079 198.67 231.331 198.052 231.331 196.983ZM233.623 196.983C233.623 196.342 233.334 195.914 232.851 195.914C232.369 195.914 232.079 196.342 232.079 196.983C232.079 197.625 232.369 198.052 232.851 198.052C233.334 198.052 233.623 197.625 233.623 196.983Z" fill="#0C419A"/>
<path d="M235.384 197.506V195.985H234.926V195.415L235.432 195.392L235.529 194.513H236.156V195.392H236.976V195.985H236.156V197.506C236.156 197.886 236.301 198.076 236.615 198.076C236.735 198.076 236.856 198.028 236.952 198.005L237.073 198.551C236.904 198.599 236.663 198.67 236.397 198.67C235.674 198.67 235.384 198.195 235.384 197.506Z" fill="#0C419A"/>
<path d="M237.58 196.983C237.58 195.938 238.303 195.296 239.075 195.296C239.944 195.296 240.426 195.914 240.426 196.817C240.426 196.959 240.402 197.102 240.402 197.173H238.327C238.4 197.743 238.762 198.076 239.292 198.076C239.582 198.076 239.799 197.981 240.04 197.838L240.306 198.313C239.992 198.527 239.606 198.67 239.196 198.67C238.279 198.67 237.58 198.052 237.58 196.983ZM239.751 196.674C239.751 196.175 239.534 195.89 239.075 195.89C238.689 195.89 238.352 196.175 238.303 196.674H239.751ZM238.665 194.489L239.63 193.349L240.161 193.847L239.051 194.845L238.665 194.489Z" fill="#0C419A"/>
<path d="M241.102 199.169C241.102 198.907 241.271 198.67 241.56 198.48V198.456C241.391 198.361 241.271 198.171 241.271 197.933C241.271 197.696 241.439 197.458 241.632 197.339V197.316C241.415 197.149 241.198 196.84 241.198 196.46C241.198 195.724 241.801 195.32 242.477 195.32C242.646 195.32 242.815 195.344 242.959 195.391H244.117V195.938H243.514C243.611 196.057 243.707 196.247 243.707 196.484C243.707 197.197 243.152 197.577 242.477 197.577C242.332 197.577 242.187 197.553 242.043 197.482C241.946 197.553 241.874 197.648 241.874 197.791C241.874 197.981 241.994 198.076 242.404 198.076H242.983C243.755 198.076 244.166 198.313 244.166 198.86C244.166 199.501 243.49 200 242.429 200C241.681 200 241.102 199.739 241.102 199.169ZM243.466 199.002C243.466 198.765 243.273 198.693 242.887 198.693H242.453C242.284 198.693 242.139 198.67 242.018 198.646C241.85 198.765 241.777 198.931 241.777 199.074C241.777 199.359 242.091 199.525 242.597 199.525C243.104 199.525 243.466 199.287 243.466 199.002ZM243.056 196.46C243.056 196.057 242.815 195.819 242.501 195.819C242.187 195.819 241.946 196.057 241.946 196.46C241.946 196.864 242.187 197.102 242.501 197.102C242.815 197.102 243.056 196.864 243.056 196.46Z" fill="#0C419A"/>
<path d="M244.648 196.983C244.648 195.938 245.372 195.296 246.144 195.296C247.012 195.296 247.495 195.914 247.495 196.817C247.495 196.959 247.471 197.102 247.471 197.173H245.396C245.468 197.743 245.83 198.076 246.361 198.076C246.65 198.076 246.867 197.981 247.109 197.838L247.374 198.313C247.06 198.527 246.674 198.67 246.264 198.67C245.348 198.67 244.648 198.052 244.648 196.983ZM246.819 196.674C246.819 196.175 246.602 195.89 246.144 195.89C245.758 195.89 245.42 196.175 245.372 196.674H246.819Z" fill="#0C419A"/>
<path d="M249.063 195.391L249.111 195.962H249.135C249.376 195.534 249.714 195.32 250.052 195.32C250.221 195.32 250.317 195.344 250.414 195.391L250.293 196.033C250.172 196.009 250.1 195.985 249.955 195.985C249.69 195.985 249.376 196.152 249.183 196.65V198.598H248.411V195.391H249.063Z" fill="#0C419A"/>
<path d="M252.464 196.983C252.464 195.914 253.236 195.296 254.105 195.296C254.515 195.296 254.828 195.463 255.046 195.653L254.684 196.152C254.515 196.009 254.346 195.914 254.153 195.914C253.622 195.914 253.26 196.342 253.26 196.983C253.26 197.625 253.622 198.052 254.129 198.052C254.394 198.052 254.611 197.933 254.804 197.767L255.118 198.266C254.804 198.527 254.418 198.67 254.057 198.67C253.14 198.67 252.464 198.052 252.464 196.983Z" fill="#0C419A"/>
<path d="M256.71 193.99V195.178L256.686 195.795C256.951 195.534 257.289 195.32 257.723 195.32C258.423 195.32 258.712 195.795 258.712 196.603V198.599H257.941V196.698C257.941 196.176 257.796 195.962 257.434 195.962C257.144 195.962 256.951 196.104 256.686 196.366V198.599H255.914V193.99H256.71Z" fill="#0C419A"/>
<path d="M259.629 197.72C259.629 197.031 260.208 196.674 261.535 196.532C261.535 196.199 261.39 195.89 260.956 195.89C260.642 195.89 260.329 196.033 260.039 196.199L259.75 195.7C260.112 195.487 260.57 195.273 261.077 195.273C261.897 195.273 262.283 195.772 262.283 196.651V198.551H261.68L261.632 198.195H261.607C261.318 198.432 260.98 198.622 260.594 198.622C260.015 198.67 259.629 198.29 259.629 197.72ZM261.535 197.743V197.031C260.642 197.149 260.353 197.363 260.353 197.696C260.353 197.981 260.546 198.1 260.811 198.1C261.101 198.076 261.294 197.957 261.535 197.743Z" fill="#0C419A"/>
<path d="M263.2 196.983C263.2 195.914 263.972 195.296 264.84 195.296C265.25 195.296 265.564 195.463 265.781 195.653L265.419 196.152C265.25 196.009 265.081 195.914 264.888 195.914C264.358 195.914 263.996 196.342 263.996 196.983C263.996 197.625 264.358 198.052 264.864 198.052C265.13 198.052 265.347 197.933 265.54 197.767L265.853 198.266C265.54 198.527 265.154 198.67 264.792 198.67C263.875 198.67 263.2 198.052 263.2 196.983Z" fill="#0C419A"/>
<path d="M266.625 197.387V195.392H267.397V197.292C267.397 197.815 267.542 198.028 267.904 198.028C268.193 198.028 268.386 197.91 268.628 197.577V195.392H269.4V198.599H268.772L268.724 198.123H268.676C268.386 198.456 268.073 198.67 267.639 198.67C266.939 198.67 266.625 198.195 266.625 197.387Z" fill="#0C419A"/>
<path d="M270.509 195.391H271.137L271.185 195.819H271.209C271.499 195.534 271.836 195.296 272.271 195.296C272.97 195.296 273.26 195.772 273.26 196.579V198.575H272.536V196.674C272.536 196.152 272.391 195.938 272.029 195.938C271.74 195.938 271.547 196.08 271.281 196.342V198.575H270.509V195.391Z" fill="#0C419A"/>
<path d="M135.195 179.166L134.906 178.905C135.026 178.763 135.123 178.596 135.147 178.43C135.147 178.24 135.075 178.145 134.978 178.145C134.858 178.145 134.809 178.24 134.737 178.43L134.616 178.691C134.52 178.881 134.351 179.071 134.061 179.071C133.724 179.048 133.482 178.763 133.507 178.335C133.507 178.097 133.627 177.884 133.796 177.717L134.061 177.955C133.965 178.074 133.893 178.192 133.893 178.359C133.893 178.501 133.941 178.62 134.061 178.62C134.182 178.62 134.23 178.501 134.303 178.335L134.423 178.097C134.544 177.86 134.713 177.717 134.978 177.741C135.316 177.765 135.581 178.05 135.557 178.525C135.509 178.691 135.388 178.976 135.195 179.166Z" fill="#0C419A"/>
<path d="M133.338 176.339L133 175.769L133.314 175.579L133.603 176.173L133.338 176.339ZM133.579 176.791L133.772 175.555L134.158 175.603L134.037 176.387L134.447 176.434L134.544 175.769L134.93 175.817L134.833 176.482L135.292 176.553L135.412 175.745L135.798 175.793L135.605 177.052L133.579 176.791Z" fill="#0C419A"/>
<path d="M134.858 175.057C134.206 174.89 133.941 174.391 134.061 173.893C134.134 173.655 134.303 173.465 134.472 173.37L134.689 173.679C134.568 173.75 134.472 173.845 134.447 173.988C134.375 174.249 134.568 174.51 134.954 174.605C135.364 174.7 135.63 174.581 135.702 174.296C135.75 174.13 135.702 173.988 135.605 173.869L135.943 173.703C136.088 173.916 136.136 174.154 136.064 174.391C135.967 174.914 135.509 175.223 134.858 175.057Z" fill="#0C419A"/>
<path d="M135.485 172.99L134.472 172.61L134.64 172.182L135.702 172.586C136.064 172.729 136.233 172.657 136.329 172.443C136.402 172.23 136.329 172.063 135.967 171.921L134.906 171.517L135.051 171.113L136.064 171.493C136.691 171.731 136.86 172.087 136.691 172.562C136.498 173.061 136.112 173.204 135.485 172.99Z" fill="#0C419A"/>
<path d="M135.461 170.187L135.798 169.545C135.991 169.165 136.281 168.928 136.715 169.141C137.125 169.355 137.149 169.735 136.932 170.115L136.812 170.353L137.463 170.686L137.246 171.089L135.461 170.187ZM136.595 169.997C136.715 169.783 136.667 169.64 136.498 169.545C136.329 169.45 136.209 169.545 136.088 169.735L135.991 169.949L136.474 170.21L136.595 169.997ZM136.788 170.163L136.667 169.759L137.97 169.712L137.728 170.163H136.788Z" fill="#0C419A"/>
<path d="M136.619 168.049L136.86 167.668L138.549 168.737L138.307 169.118L136.619 168.049Z" fill="#0C419A"/>
<path d="M137.897 166.861L137.56 167.288L137.246 167.051L138.187 165.839L138.5 166.077L138.163 166.505L139.465 167.479L139.2 167.835L137.897 166.861Z" fill="#0C419A"/>
<path d="M138.693 165.246L139.562 164.343L139.851 164.604L139.296 165.174L139.586 165.436L140.044 164.937L140.334 165.198L139.875 165.697L140.213 166.006L140.792 165.412L141.082 165.673L140.213 166.6L138.693 165.246ZM138.742 164.747L138.79 164.082L139.176 164.105L139.055 164.747H138.742Z" fill="#0C419A"/>
<path d="M142.071 164.366L142.095 163.963C142.288 163.963 142.481 163.939 142.602 163.82C142.746 163.701 142.77 163.582 142.698 163.487C142.626 163.392 142.505 163.416 142.312 163.487L142.047 163.559C141.83 163.63 141.564 163.606 141.395 163.369C141.202 163.107 141.275 162.727 141.588 162.466C141.781 162.323 142.023 162.252 142.264 162.276V162.632C142.095 162.632 141.974 162.656 141.83 162.751C141.709 162.846 141.661 162.965 141.733 163.036C141.805 163.131 141.95 163.084 142.119 163.036L142.384 162.965C142.65 162.894 142.867 162.917 143.036 163.155C143.229 163.416 143.205 163.796 142.819 164.105C142.626 164.295 142.336 164.39 142.071 164.366Z" fill="#0C419A"/>
<path d="M143.301 162.466C142.963 161.92 143.084 161.397 143.542 161.136C144.001 160.851 144.507 160.993 144.845 161.539C145.183 162.086 145.062 162.609 144.604 162.894C144.17 163.155 143.639 163.012 143.301 162.466ZM144.483 161.777C144.266 161.444 144.001 161.326 143.76 161.468C143.518 161.611 143.494 161.896 143.711 162.228C143.928 162.561 144.194 162.704 144.435 162.561C144.652 162.418 144.676 162.11 144.483 161.777Z" fill="#0C419A"/>
<path d="M145.448 161.231C145.159 160.637 145.4 160.114 145.858 159.9C146.1 159.782 146.341 159.805 146.51 159.877L146.413 160.233C146.293 160.185 146.148 160.185 146.027 160.233C145.786 160.352 145.689 160.661 145.858 161.017C146.027 161.397 146.317 161.516 146.582 161.397C146.727 161.326 146.823 161.207 146.847 161.064L147.185 161.231C147.113 161.468 146.968 161.658 146.727 161.753C146.268 161.967 145.738 161.825 145.448 161.231Z" fill="#0C419A"/>
<path d="M147.233 159.378L147.668 159.235L148.367 161.088L147.933 161.231L147.233 159.378Z" fill="#0C419A"/>
<path d="M149.043 158.784L149.574 158.642L150.707 160.399L150.249 160.518L149.742 159.615C149.646 159.449 149.525 159.235 149.429 159.045C149.429 159.259 149.453 159.497 149.453 159.711V160.756L148.995 160.875L149.043 158.784ZM149.139 159.948L150.08 159.711L150.177 160.043L149.236 160.281L149.139 159.948Z" fill="#0C419A"/>
<path d="M150.925 158.332L151.383 158.261L151.624 159.853L152.396 159.734L152.444 160.114L151.214 160.304L150.925 158.332Z" fill="#0C419A"/>
<path d="M152.879 158.071L154.133 158L154.157 158.38L153.361 158.428L153.385 158.831L154.061 158.784L154.085 159.164L153.409 159.212L153.433 159.663L154.278 159.615L154.302 159.995L153.023 160.067L152.879 158.071Z" fill="#0C419A"/>
<path d="M199.728 187.552V178.05H202.261V187.647C202.261 188.194 202.503 188.36 202.72 188.36C202.816 188.36 202.889 188.36 203.033 188.336L203.347 190.213C203.057 190.332 202.647 190.427 202.068 190.427C200.331 190.45 199.728 189.286 199.728 187.552Z" fill="#0C419A"/>
<path d="M183.468 184.512C183.685 183.823 185.953 178.905 185.953 178.905H188.631V190.237H186.219V183.229L184.216 188.312H182.672L180.67 183.229V190.237H178.257V178.905H180.935C180.935 178.905 183.179 183.823 183.42 184.512H183.468Z" fill="#0C419A"/>
<path d="M204.384 187.837C204.384 186.032 205.928 185.01 209.33 184.654C209.282 183.894 208.799 183.442 207.858 183.442C207.134 183.442 206.411 183.751 205.59 184.226L204.698 182.54C205.783 181.875 207.014 181.4 208.365 181.4C210.56 181.4 211.766 182.659 211.766 185.295V190.213H209.354V189.381C209.354 189.381 208.365 190.427 206.966 190.427C205.373 190.45 204.384 189.286 204.384 187.837ZM209.33 187.695V186.198C207.52 186.436 206.821 187.006 206.821 187.647C206.821 188.194 207.207 188.479 207.81 188.479C208.365 188.455 208.871 188.146 209.33 187.695Z" fill="#0C419A"/>
<path d="M190.392 187.837C190.392 186.032 191.936 185.01 195.338 184.654C195.289 183.894 194.807 183.442 193.866 183.442C193.142 183.442 192.419 183.751 191.598 184.226L190.706 182.54C191.791 181.875 193.022 181.4 194.373 181.4C196.568 181.4 197.774 182.659 197.774 185.295V190.213H195.362V189.381C195.362 189.381 194.373 190.427 192.973 190.427C191.381 190.45 190.392 189.286 190.392 187.837ZM195.338 187.695V186.198C193.528 186.436 192.829 187.006 192.829 187.647C192.829 188.194 193.215 188.479 193.818 188.479C194.373 188.455 194.879 188.146 195.338 187.695Z" fill="#0C419A"/>
<path d="M218.931 178.05V182.231C218.352 181.685 217.773 181.4 216.832 181.4C215.023 181.4 213.286 183.11 213.286 185.913C213.286 188.74 214.661 190.427 216.784 190.427C217.942 190.427 218.859 189.571 218.931 189.5V190.237H221.464V178.05H218.931ZM217.436 188.36C216.446 188.36 215.867 187.6 215.867 185.913C215.867 184.274 216.591 183.514 217.411 183.514C217.87 183.514 218.376 183.656 218.931 184.06V187.6C218.425 188.146 217.99 188.36 217.436 188.36Z" fill="#0C419A"/>
<path d="M223.418 179.024C223.418 178.24 224.046 177.694 224.89 177.694C225.734 177.694 226.362 178.24 226.362 179.024C226.362 179.808 225.734 180.354 224.89 180.354C224.046 180.354 223.418 179.784 223.418 179.024ZM223.611 181.613H226.144V190.237H223.611V181.613Z" fill="#0C419A"/>
<path d="M227.737 185.913C227.737 183.11 229.522 181.4 231.669 181.4C234.106 181.4 235.457 183.181 235.457 185.533C235.457 185.984 235.408 186.459 235.36 186.673H230.222C230.439 187.932 231.307 188.502 232.441 188.502C233.092 188.502 233.647 188.241 234.274 187.885L235.143 189.476C234.274 190.094 233.116 190.45 232.103 190.45C229.57 190.45 227.737 188.788 227.737 185.913ZM233.285 184.987C233.285 184.036 232.731 183.347 231.717 183.347C230.921 183.347 230.366 183.894 230.197 184.987H233.285Z" fill="#0C419A"/>
<path d="M178.257 173.299V163.796H180.791V173.394C180.791 173.94 181.032 174.106 181.249 174.106C181.345 174.106 181.418 174.106 181.562 174.083L181.876 175.959C181.587 176.078 181.176 176.173 180.598 176.173C178.836 176.173 178.257 175.033 178.257 173.299Z" fill="#0C419A"/>
<path d="M191.719 173.275L192.418 175.983H195.048L191.502 164.652H188.583L185.036 175.983H187.666L188.366 173.275H191.719ZM188.896 171.279L190.006 166.98H190.103L191.212 171.279H188.896Z" fill="#0C419A"/>
<path d="M195.555 174.985L196.689 173.394C197.461 173.988 198.184 174.296 198.908 174.296C199.656 174.296 199.994 174.011 199.994 173.56C199.994 172.99 199.149 172.728 198.257 172.396C197.195 171.992 195.989 171.279 195.989 169.854C195.989 168.239 197.292 167.146 199.27 167.146C200.573 167.146 201.562 167.668 202.285 168.239L201.152 169.783C200.548 169.331 199.945 169.046 199.342 169.046C198.691 169.046 198.353 169.308 198.353 169.735C198.353 170.282 199.149 170.495 200.042 170.828C201.127 171.232 202.358 171.849 202.358 173.417C202.358 174.985 201.127 176.197 198.836 176.197C197.726 176.173 196.423 175.698 195.555 174.985Z" fill="#0C419A"/>
<path d="M203.154 174.985L204.288 173.394C205.06 173.988 205.783 174.296 206.507 174.296C207.255 174.296 207.593 174.011 207.593 173.56C207.593 172.99 206.748 172.728 205.856 172.396C204.794 171.992 203.588 171.279 203.588 169.854C203.588 168.239 204.891 167.146 206.869 167.146C208.172 167.146 209.161 167.668 209.885 168.239L208.751 169.783C208.148 169.331 207.545 169.046 206.941 169.046C206.29 169.046 205.952 169.308 205.952 169.735C205.952 170.282 206.748 170.495 207.641 170.828C208.727 171.232 209.957 171.849 209.957 173.417C209.957 174.985 208.727 176.197 206.435 176.197C205.325 176.173 204.022 175.698 203.154 174.985Z" fill="#0C419A"/>
<path d="M221.127 167.36H223.66V168.595C224.142 167.645 225.324 167.312 225.927 167.312C226.41 167.312 226.699 167.383 226.941 167.478L226.675 169.807C226.337 169.711 225.951 169.545 225.59 169.545C224.6 169.569 223.732 170.4 223.66 171.493V175.983H221.127V167.36Z" fill="#0C419A"/>
<path d="M236.759 167.36H239.292V168.452C240.016 167.764 240.74 167.146 241.922 167.146C243.779 167.146 244.576 168.476 244.576 170.614V175.959H242.042V170.923C242.042 169.688 241.705 169.284 240.981 169.284C240.354 169.284 239.871 169.593 239.316 170.115V175.935H236.783V167.36H236.759Z" fill="#0C419A"/>
<path d="M253.357 171.659C253.357 168.856 255.142 167.146 257.289 167.146C259.726 167.146 261.077 168.928 261.077 171.279C261.077 171.731 261.028 172.206 260.98 172.42H255.842C256.059 173.679 256.927 174.249 258.061 174.249C258.712 174.249 259.267 173.988 259.895 173.631L260.763 175.223C259.895 175.84 258.737 176.197 257.723 176.197C255.214 176.173 253.357 174.51 253.357 171.659ZM258.93 170.733C258.93 169.783 258.375 169.094 257.362 169.094C256.565 169.094 256.011 169.64 255.842 170.733H258.93Z" fill="#0C419A"/>
<path d="M227.495 173.584C227.495 171.778 229.039 170.757 232.441 170.4C232.393 169.64 231.91 169.189 230.969 169.189C230.246 169.189 229.522 169.498 228.702 169.973L227.809 168.286C228.895 167.621 230.125 167.146 231.476 167.146C233.671 167.146 234.878 168.405 234.878 171.042V175.959H232.465V175.128C232.465 175.128 231.476 176.173 230.077 176.173C228.485 176.173 227.495 175.033 227.495 173.584ZM232.441 173.441V171.945C230.632 172.182 229.932 172.752 229.932 173.394C229.932 173.94 230.318 174.225 230.921 174.225C231.5 174.201 232.007 173.892 232.441 173.441Z" fill="#0C419A"/>
<path d="M184.12 163.749C183.589 163.749 182.865 164.153 182.865 164.865C182.865 165.507 183.372 165.887 183.903 165.887C183.927 165.887 183.951 165.887 183.975 165.887C183.951 166.647 183.251 167.075 182.913 167.265L183.589 168.191C185.808 167.502 186.267 163.773 184.12 163.749Z" fill="#0C419A"/>
<path d="M216.495 167.36V173.061C215.988 173.75 215.602 174.012 214.975 174.012C214.251 174.012 213.913 173.631 213.913 172.372V167.36H211.38V172.8C211.38 174.843 212.273 176.197 214.082 176.197C215.723 176.197 216.543 175.104 216.543 175.104V175.983H219.052V167.36H216.495Z" fill="#0C419A"/>
<path d="M250.462 174.13C249.352 174.13 248.532 173.156 248.532 171.683C248.532 170.187 249.328 169.213 250.534 169.213C250.92 169.213 251.258 169.355 251.644 169.688L252.85 168.049C252.223 167.526 251.427 167.17 250.39 167.17C248.025 167.17 245.951 168.833 245.951 171.683C245.951 174.534 247.76 176.197 250.148 176.197C251.089 176.197 252.151 175.912 252.971 175.176L252.054 173.441C251.572 173.845 251.041 174.13 250.462 174.13Z" fill="#0C419A"/>
<path d="M156.159 163.868C156.111 163.773 155.942 163.701 155.822 163.678C155.677 163.654 155.604 163.654 155.604 163.654C155.436 163.606 152.082 163.654 151.286 164.176C151.214 163.654 151.021 163.012 150.104 162.822C149.453 162.68 148.054 163.298 148.512 164.675C148.584 164.913 148.753 165.079 148.994 165.198C149.115 165.269 149.308 165.222 149.453 165.602C149.501 165.697 149.573 165.697 149.646 165.673C149.694 165.649 149.718 165.673 149.79 165.721C149.863 165.768 149.911 165.744 149.911 165.744C149.911 165.744 149.935 165.768 149.983 165.768C150.008 165.768 150.104 165.744 150.104 165.768C150.369 165.982 150.683 165.649 150.804 165.436C150.924 165.792 151.238 166.718 151.238 166.718C151.141 166.623 150.08 166.338 149.573 166.885C149.139 167.36 148.801 168.025 148.44 169.141C148.343 169.45 148.15 169.593 147.788 169.735C147.209 169.949 147.547 170.21 147.692 170.234C148.054 170.305 148.874 170.258 149.043 170.187C149.26 170.092 149.091 169.593 149.332 169.284C149.549 169.023 149.718 168.785 149.863 168.619C149.863 168.975 149.863 169.165 149.67 169.617C149.501 170.044 148.97 170.258 148.801 170.448C148.512 170.804 149.163 170.828 149.332 170.781C149.766 170.638 150.056 170.638 150.225 170.543C150.466 170.4 150.297 170.02 150.369 169.878C150.587 169.45 151.334 168.524 151.431 168.381C151.455 168.357 151.455 168.334 151.455 168.31C151.986 168.476 152.589 168.524 152.806 168.5C154.036 168.357 154.302 167.502 154.181 166.813C154.061 166.196 153.675 165.816 153.554 165.626C153.24 165.127 153.047 164.865 152.927 164.723C153.289 164.628 155.243 164.105 155.243 164.129C155.315 164.295 155.484 164.319 155.532 164.367C155.653 164.438 155.725 164.319 155.677 164.295C155.58 164.224 155.556 164.176 155.556 164.176C155.725 164.176 155.87 164.2 155.99 164.2C156.183 164.224 156.256 163.939 156.159 163.868Z" fill="#0C419A"/>
<path fill-rule="evenodd" clip-rule="evenodd" d="M173.601 175.508C173.288 173.845 171.72 172.824 170.899 172.467C170.345 172.23 170.103 172.182 170.007 172.158C169.886 172.111 169.79 172.087 169.741 172.063C169.79 171.707 170.224 171.683 170.489 171.161C171.213 169.688 169.717 168.666 168.632 168.904C168.101 169.023 167.763 169.189 167.667 169.593C167.618 169.807 167.45 169.807 167.184 170.092C167.088 170.187 167.281 170.329 167.329 170.4C167.329 170.424 167.281 170.495 167.257 170.59C167.232 170.685 167.257 170.662 167.257 170.685C167.257 170.685 167.208 170.781 167.208 170.899C167.208 170.899 167.088 171.137 167.208 171.398C167.232 171.469 167.377 171.612 167.425 171.945C167.425 171.992 167.425 172.016 167.232 171.945C167.184 171.921 165.182 171.351 164.965 171.208C164.724 171.042 162.745 168.928 162.528 168.524C162.408 168.286 162.287 168.144 162.215 168.144C161.756 168.167 162.552 168.999 162.094 168.714C161.973 168.643 161.636 168.405 161.611 168.381C161.515 168.31 161.539 168.334 161.491 168.239C161.443 168.144 161.394 168.072 161.346 168.049C161.298 168.025 161.274 168.001 161.225 168.001C161.153 168.025 161.177 168.072 161.153 168.072C161.153 168.072 161.105 168.072 161.081 168.072C160.96 168.096 161.057 168.381 161.081 168.524C161.081 168.547 161.394 169.284 161.491 169.403C161.997 169.735 162.48 170.044 162.504 170.044C163.059 170.662 163.686 171.446 164.265 172.04C164.723 172.515 166.798 173.702 166.846 173.726C166.991 173.797 167.208 174.249 166.895 177.361C166.774 178.525 165.93 181.019 166.34 182.302C166.605 183.133 166.895 183.704 167.208 185.984C167.281 186.483 166.871 186.816 166.292 187.219C166.074 187.386 165.423 187.766 165.375 187.813C165.278 187.908 165.375 188.051 165.495 188.122C165.64 188.17 165.881 188.312 166.026 188.336C166.267 188.383 166.629 188.36 167.015 188.146C167.425 187.908 167.474 187.885 167.715 187.718C168.004 187.552 168.342 187.505 168.439 187.219C168.559 186.839 168.222 186.293 168.27 186.055C168.511 184.274 168.825 183.395 168.366 182.302C168.27 182.088 169.018 179.713 169.09 180.021C169.211 180.639 169.259 182.516 169.283 183.894C169.283 184.511 169.79 186.649 169.959 187.433C170.2 188.621 168.173 189.571 168.608 189.928C168.704 189.999 168.969 190.118 169.211 190.165C169.5 190.213 169.717 190.165 169.959 190.07C170.103 190.023 170.32 189.761 170.369 189.714C170.803 189.191 170.658 189.334 171.02 188.954C171.309 188.621 171.092 188.051 171.068 187.766C170.996 187.172 171.068 187.006 171.044 185.913C171.044 184.654 171.116 184.298 171.189 183.822C171.502 181.732 171.695 180.592 171.816 179.713V179.665C171.816 179.665 171.961 179.713 172.033 179.618C172.154 179.428 172.13 179.261 172.154 179.143C172.178 179.024 172.226 179.166 172.226 179.166C172.226 179.166 172.323 179.451 172.323 179.546C172.323 179.689 172.226 179.855 172.154 180.069C172.081 180.307 172.274 180.33 172.323 180.354C172.371 180.378 172.998 179.926 173.095 179.76C173.191 179.57 173.167 179.333 173.191 179.214C173.215 178.905 173.022 178.026 173.022 178.026C173.167 177.432 173.698 175.936 173.601 175.508ZM172.154 177.907C172.081 178.192 172.057 177.931 171.792 179.024L171.816 178.857C171.816 178.715 171.816 178.549 171.816 178.382C171.816 177.028 170.755 174.13 171.406 174.724C171.406 174.724 172.178 175.247 172.323 175.65C172.443 176.007 172.419 176.862 172.154 177.907Z" fill="#0C419A"/>
<path d="M146.365 181.162C146.124 180.948 145.279 179.831 144.749 179.38C144.387 179 144.29 178.81 144.001 178.406C143.012 177.123 142.794 177.028 142.119 176.933C141.974 176.838 142.022 176.743 142.047 176.719C142.939 176.387 142.65 175.627 142.626 175.603C142.577 175.437 142.698 175.365 142.698 175.199C142.698 174.938 142.65 174.748 142.577 174.558C142.601 174.439 142.626 174.273 142.505 174.106C142.022 173.512 140.816 173.489 140.189 173.893C139.682 174.225 139.972 174.463 139.827 174.962C139.731 175.247 139.827 175.508 140.02 175.722C140.044 175.888 140.551 176.197 140.454 176.529C140.358 176.886 139.779 176.957 139.779 176.957C139.706 176.981 139.658 177.005 139.61 177.028C138.693 177.551 137.801 178.311 137.68 179.119C137.728 179.784 138.79 180.758 139.465 181.281C139.562 182.421 140.285 184.155 140.334 184.226C140.43 184.44 140.117 184.06 139.393 183.822C139.031 183.704 138.573 183.229 138.452 183.799C138.404 184.036 138.5 184.44 138.283 184.963C138.114 185.343 138.307 185.96 138.742 185.96C139.055 185.96 139.248 185.01 139.248 185.01C139.248 185.01 140.768 185.747 141.492 185.509C141.926 185.367 142.022 183.704 141.588 182.207C141.443 181.684 141.854 183.062 142.867 184.25C143.084 184.511 142.891 184.725 143.036 185.723C143.084 186.103 143.084 186.198 143.084 186.364C143.06 186.839 142.601 187.41 143.663 187.671C144.749 187.956 144.652 188.193 145.327 187.742C145.641 187.552 144.387 187.41 144.145 186.697C144.145 186.673 144.121 186.578 144.121 186.531C144.097 185.96 144.363 184.654 144.266 184.179C143.88 181.922 142.915 180.877 142.794 180.354C142.794 178.786 142.674 178.287 142.819 178.644C142.843 178.715 143.18 179.261 143.518 179.689C143.542 179.736 143.591 179.784 143.639 179.831C143.735 179.95 143.832 180.045 143.928 180.093C144.604 180.663 145.665 181.352 145.81 181.494C145.81 181.494 145.882 182.183 146.172 182.136C146.437 182.088 147.716 181.542 147.692 181.399C147.643 181.209 146.389 181.209 146.365 181.162ZM139.417 180.307C139.224 179.95 138.693 179.261 138.742 179.143C139.031 178.667 139.345 178.525 139.441 178.549C139.513 178.572 139.417 180.307 139.417 180.307Z" fill="#0C419A"/>
<path d="M167.498 193.942C167.45 193.918 166.702 193.633 166.026 192.588C165.737 192.113 163.493 188.051 163.204 187.267C162.601 185.699 157.896 182.872 157.703 182.706C157.559 182.587 157.583 182.326 157.631 182.136C158.017 180.805 157.872 179.641 157.945 179.451C158.138 179 158.427 178.359 158.21 177.931L157.727 177.171C157.727 177.171 160.212 178.05 160.791 177.931C161.298 177.836 163.783 176.125 163.927 176.054C164.265 175.888 165.109 176.125 165.954 175.223C166.267 174.89 166.05 174.771 165.978 174.819C166.002 174.795 165.833 174.653 165.688 174.748C165.495 174.866 164.796 175.056 164.916 174.961C165.423 174.581 165.061 174.486 165.061 174.486C164.844 174.676 163.855 174.914 163.638 175.08C163.421 175.27 163.252 175.413 163.155 175.484C162.552 175.817 161.515 176.316 160.478 176.553C160.26 176.601 158.282 175.318 157.124 175.151C156.497 175.056 156.28 175.104 155.942 175.199C155.532 175.318 155.556 174.724 155.87 174.581C156.039 174.51 156.304 174.463 156.401 174.273C156.521 174.035 156.376 173.821 156.376 173.774C156.376 173.75 156.401 173.726 156.352 173.631C156.328 173.56 156.328 173.607 156.328 173.536C156.328 173.489 156.304 173.441 156.28 173.394C156.28 173.37 156.28 173.275 156.304 173.251C156.545 173.061 156.449 172.966 156.401 172.942C156.328 172.871 155.966 172.728 155.942 172.491C155.894 172.111 155.749 171.921 155.701 171.731C155.677 171.659 155.629 171.208 155.436 171.042C155.194 170.828 154.688 170.567 153.578 170.852C153.216 170.947 153.288 171.113 152.42 171.279C151.359 171.469 150.78 173.013 150.876 173.655C150.948 174.178 151.407 173.916 151.383 174.154C151.359 174.51 151.31 175.104 152.082 175.318C152.251 175.365 153.264 175.199 153.65 175.27C153.65 175.27 153.964 175.294 153.795 175.603C153.723 175.745 152.71 176.149 152.444 176.244C151.793 176.506 150.08 179.261 149.573 179.523C149.139 179.736 148.874 179.903 148.705 180.021C148.005 180.449 147.33 180.995 146.944 180.972C146.437 180.948 146.027 181.185 145.689 181.922C145.593 182.136 145.641 182.254 145.834 182.302C145.906 182.373 146.003 182.468 146.148 182.468C146.292 182.611 146.461 182.516 146.606 182.444C146.992 182.231 147.089 182.064 147.233 182.017C147.619 181.898 149.887 181.019 150.394 180.639C151.166 180.235 152.71 178.667 153.047 178.644C153.361 178.62 154.133 179.309 153.892 180.639C153.819 181.09 153.24 181.898 152.927 182.373C152.299 183.3 152.782 184.131 152.661 184.321C152.01 185.366 151.214 186.768 149.863 187.956C149.332 188.288 148.246 188.36 147.643 188.526C146.292 188.906 144.869 189.856 143.856 190.426C143.518 190.616 143.204 190.213 142.77 190.165C142.36 190.118 142.312 190.759 142.095 191.329C142.022 191.495 141.998 191.59 141.685 192.303C141.564 192.588 141.226 193.42 141.564 193.776C141.878 194.204 142.601 192.873 143.18 192.232C143.47 191.899 143.663 191.78 144.314 191.638C144.724 191.543 148.029 190.664 150.201 190.189C150.249 190.189 150.321 190.165 150.369 190.141C153.192 189.429 156.111 185.794 156.159 185.818L160.96 188.146C161.443 188.407 161.443 189.31 162.022 190.379C162.359 191.02 162.866 191.567 164.916 193.538C165.182 193.8 164.965 194.204 165.085 194.607C165.206 195.035 165.423 195.035 165.809 195.011C166.171 194.988 166.485 194.916 166.846 194.892C167.305 194.869 167.184 194.916 167.715 194.988C167.98 195.035 168.559 195.106 168.994 194.702C169.741 193.919 168.222 194.299 167.498 193.942Z" fill="#0C419A"/>
<path d="M162.311 191.899C162.239 191.757 162.07 191.709 161.925 191.78C159.875 192.802 157.583 193.348 155.267 193.348C152.685 193.348 150.152 192.683 147.933 191.424C147.788 191.353 147.619 191.4 147.523 191.519C147.45 191.662 147.499 191.828 147.619 191.923C149.935 193.23 152.565 193.918 155.243 193.918C157.655 193.918 160.043 193.348 162.166 192.279C162.335 192.208 162.384 192.042 162.311 191.899Z" fill="#0C419A"/>
<path d="M141.588 173.014C141.54 173.014 141.516 173.014 141.468 172.99C141.323 172.919 141.25 172.752 141.323 172.61C142.65 169.759 144.797 167.407 147.547 165.816C147.692 165.744 147.861 165.792 147.957 165.911C148.029 166.053 147.981 166.219 147.861 166.315C145.207 167.835 143.132 170.092 141.878 172.847C141.805 172.966 141.709 173.014 141.588 173.014Z" fill="#0C419A"/>
<path d="M166.509 169.332C166.436 169.332 166.34 169.308 166.292 169.237C163.976 166.647 160.791 164.961 157.341 164.485C157.173 164.462 157.076 164.319 157.1 164.153C157.124 163.987 157.269 163.892 157.438 163.915C161.033 164.414 164.338 166.172 166.75 168.857C166.847 168.975 166.847 169.165 166.726 169.26C166.654 169.308 166.581 169.332 166.509 169.332Z" fill="#0C419A"/>
<path d="M283.829 193.846C283.614 193.846 283.46 193.695 283.46 193.513V164.487C283.46 164.306 283.614 164.154 283.829 164.154C284.044 164.154 284.198 164.306 284.198 164.487V193.513C284.198 193.695 284.044 193.846 283.829 193.846Z" fill="#0C419A"/>
</svg>
