<svg width="541" height="357" viewBox="0 0 541 357" fill="none" xmlns="http://www.w3.org/2000/svg">
<rect width="541" height="357" fill="#E7ECF5"/>
<rect x="63" y="88" width="415" height="181" fill="white"/>
<path d="M235.177 202.349H236.516L238.615 208.828H237.385L236.407 205.389C236.19 204.702 236.009 203.978 235.828 203.254H235.792C235.611 203.978 235.43 204.702 235.213 205.389L234.199 208.828H233.041L235.177 202.349ZM234.308 206.186H237.348V207.091H234.308V206.186Z" fill="#0C419A"/>
<path d="M239.303 209.733C239.303 209.335 239.557 208.973 239.991 208.683V208.647C239.738 208.502 239.557 208.213 239.557 207.851C239.557 207.489 239.81 207.127 240.1 206.946V206.909C239.774 206.656 239.448 206.185 239.448 205.606C239.448 204.484 240.353 203.869 241.367 203.869C241.62 203.869 241.873 203.905 242.091 203.977H243.828V204.81H242.923C243.068 204.991 243.213 205.28 243.213 205.642C243.213 206.728 242.38 207.308 241.367 207.308C241.149 207.308 240.932 207.271 240.715 207.163C240.57 207.271 240.462 207.416 240.462 207.633C240.462 207.923 240.643 208.068 241.258 208.068H242.127C243.285 208.068 243.901 208.43 243.901 209.262C243.901 210.24 242.887 211 241.294 211C240.172 211 239.303 210.602 239.303 209.733ZM242.851 209.48C242.851 209.118 242.561 209.009 241.982 209.009H241.33C241.077 209.009 240.86 208.973 240.679 208.937C240.425 209.118 240.317 209.371 240.317 209.588C240.317 210.023 240.787 210.276 241.548 210.276C242.308 210.276 242.851 209.914 242.851 209.48ZM242.235 205.606C242.235 204.991 241.873 204.629 241.403 204.629C240.932 204.629 240.57 204.991 240.57 205.606C240.57 206.222 240.932 206.584 241.403 206.584C241.873 206.584 242.235 206.222 242.235 205.606Z" fill="#0C419A"/>
<path d="M245.023 202.457C245.023 202.059 245.312 201.806 245.747 201.806C246.145 201.806 246.471 202.059 246.471 202.457C246.471 202.819 246.181 203.109 245.747 203.109C245.348 203.109 245.023 202.855 245.023 202.457ZM245.167 203.978H246.326V208.864H245.167V203.978Z" fill="#0C419A"/>
<path d="M248.099 203.977H249.041L249.113 204.846H249.149C249.511 204.194 250.018 203.869 250.525 203.869C250.778 203.869 250.923 203.905 251.068 203.977L250.887 204.955C250.706 204.918 250.597 204.882 250.38 204.882C249.982 204.882 249.511 205.136 249.222 205.896V208.864H248.063V203.977H248.099Z" fill="#0C419A"/>
<path d="M254.145 206.403C254.145 204.81 255.231 203.833 256.389 203.833C257.692 203.833 258.416 204.774 258.416 206.149C258.416 206.366 258.38 206.584 258.38 206.692H255.267C255.376 207.561 255.919 208.068 256.715 208.068C257.149 208.068 257.475 207.923 257.837 207.706L258.235 208.43C257.765 208.756 257.185 208.973 256.57 208.973C255.195 208.973 254.145 208.032 254.145 206.403ZM257.439 205.932C257.439 205.172 257.113 204.737 256.425 204.737C255.846 204.737 255.339 205.172 255.267 205.932H257.439Z" fill="#0C419A"/>
<path d="M259.828 203.977H260.769L260.842 204.629H260.878C261.312 204.195 261.819 203.833 262.471 203.833C263.52 203.833 263.955 204.556 263.955 205.787V208.828H262.796V205.932C262.796 205.136 262.579 204.81 262.036 204.81C261.602 204.81 261.312 205.027 260.914 205.425V208.828H259.756V203.977H259.828Z" fill="#0C419A"/>
<path d="M265.258 208.285L265.801 207.561C266.235 207.887 266.67 208.104 267.14 208.104C267.683 208.104 267.937 207.851 267.937 207.525C267.937 207.127 267.394 206.946 266.887 206.728C266.235 206.475 265.511 206.113 265.511 205.317C265.511 204.484 266.199 203.869 267.285 203.869C267.973 203.869 268.516 204.158 268.914 204.448L268.407 205.136C268.081 204.882 267.719 204.701 267.321 204.701C266.814 204.701 266.597 204.918 266.597 205.244C266.597 205.642 267.104 205.787 267.611 205.968C268.262 206.222 269.023 206.547 269.023 207.452C269.023 208.285 268.371 208.973 267.14 208.973C266.452 208.973 265.728 208.683 265.258 208.285Z" fill="#0C419A"/>
<path d="M270.036 206.403C270.036 204.81 271.122 203.833 272.28 203.833C273.584 203.833 274.308 204.774 274.308 206.149C274.308 206.366 274.271 206.584 274.271 206.692H271.158C271.267 207.561 271.81 208.068 272.606 208.068C273.041 208.068 273.366 207.923 273.728 207.706L274.127 208.43C273.656 208.756 273.077 208.973 272.461 208.973C271.086 208.973 270.036 208.032 270.036 206.403ZM273.294 205.932C273.294 205.172 272.968 204.737 272.28 204.737C271.701 204.737 271.195 205.172 271.122 205.932H273.294Z" fill="#0C419A"/>
<path d="M275.719 203.977H276.661L276.733 204.629H276.769C277.167 204.195 277.638 203.833 278.253 203.833C278.977 203.833 279.375 204.158 279.593 204.701C280.063 204.195 280.534 203.833 281.149 203.833C282.163 203.833 282.67 204.556 282.67 205.787V208.828H281.511V205.932C281.511 205.136 281.258 204.81 280.751 204.81C280.425 204.81 280.099 204.991 279.737 205.425V208.828H278.579V205.932C278.579 205.136 278.326 204.81 277.819 204.81C277.529 204.81 277.167 204.991 276.805 205.425V208.828H275.647V203.977H275.719Z" fill="#0C419A"/>
<path d="M285.457 208.358L285.312 208.864H284.407V201.842H285.566V203.652L285.529 204.448C285.928 204.086 286.434 203.833 286.941 203.833C288.172 203.833 288.86 204.81 288.86 206.294C288.86 207.959 287.846 208.937 286.76 208.937C286.362 208.973 285.891 208.756 285.457 208.358ZM287.701 206.367C287.701 205.389 287.376 204.81 286.652 204.81C286.29 204.81 285.964 204.991 285.602 205.353V207.634C285.928 207.923 286.29 208.032 286.579 208.032C287.195 208.032 287.701 207.453 287.701 206.367Z" fill="#0C419A"/>
<path d="M290.308 207.597V201.842H291.466V207.67C291.466 207.959 291.611 208.068 291.719 208.068C291.756 208.068 291.828 208.068 291.9 208.032L292.045 208.901C291.9 208.973 291.719 209.009 291.43 209.009C290.597 208.973 290.308 208.43 290.308 207.597Z" fill="#0C419A"/>
<path d="M293.023 206.403C293.023 204.81 294.109 203.833 295.267 203.833C296.57 203.833 297.294 204.774 297.294 206.149C297.294 206.366 297.258 206.584 297.258 206.692H294.145C294.253 207.561 294.796 208.068 295.593 208.068C296.027 208.068 296.353 207.923 296.715 207.706L297.113 208.43C296.643 208.756 296.063 208.973 295.448 208.973C294.072 208.973 293.023 208.032 293.023 206.403ZM296.281 205.932C296.281 205.172 295.955 204.737 295.267 204.737C294.688 204.737 294.181 205.172 294.109 205.932H296.281Z" fill="#0C419A"/>
<path d="M299.394 207.417C298.959 207.417 298.633 207.706 298.633 208.104C298.633 208.575 298.995 208.792 299.357 208.792C299.394 208.792 299.43 208.792 299.43 208.792C299.43 209.299 299.068 209.769 298.416 209.987L298.67 210.602C299.647 210.276 300.226 209.516 300.226 208.539C300.226 207.851 299.937 207.417 299.394 207.417Z" fill="#0C419A"/>
<path d="M304.208 203.977H305.149L305.222 204.484H305.258C305.656 204.122 306.199 203.833 306.742 203.833C307.973 203.833 308.661 204.81 308.661 206.33C308.661 207.995 307.647 208.973 306.561 208.973C306.127 208.973 305.692 208.792 305.294 208.43L305.33 209.226V210.747H304.172V203.977H304.208ZM307.466 206.366C307.466 205.389 307.14 204.81 306.416 204.81C306.054 204.81 305.728 204.991 305.366 205.353V207.633C305.728 207.923 306.054 208.032 306.344 208.032C306.959 208.032 307.466 207.452 307.466 206.366Z" fill="#0C419A"/>
<path d="M310.109 203.977H311.05L311.122 204.846H311.158C311.52 204.194 312.027 203.869 312.534 203.869C312.787 203.869 312.932 203.905 313.077 203.977L312.896 204.955C312.715 204.918 312.606 204.882 312.389 204.882C311.991 204.882 311.52 205.136 311.231 205.896V208.864H310.073V203.977H310.109Z" fill="#0C419A"/>
<path d="M313.548 206.403C313.548 204.774 314.67 203.833 315.864 203.833C317.059 203.833 318.181 204.774 318.181 206.403C318.181 208.032 317.059 208.973 315.864 208.973C314.67 208.973 313.548 208.032 313.548 206.403ZM316.987 206.403C316.987 205.425 316.552 204.774 315.828 204.774C315.104 204.774 314.67 205.425 314.67 206.403C314.67 207.38 315.104 208.032 315.828 208.032C316.552 208.032 316.987 207.38 316.987 206.403Z" fill="#0C419A"/>
<path d="M319.629 207.199V204.883H318.941V204.014L319.701 203.978L319.846 202.638H320.787V203.978H322.018V204.883H320.787V207.199C320.787 207.778 321.005 208.068 321.475 208.068C321.656 208.068 321.837 207.996 321.982 207.959L322.163 208.792C321.909 208.864 321.547 208.973 321.149 208.973C320.063 208.973 319.629 208.249 319.629 207.199Z" fill="#0C419A"/>
<path d="M322.923 206.403C322.923 204.81 324.009 203.833 325.167 203.833C326.471 203.833 327.195 204.774 327.195 206.149C327.195 206.367 327.158 206.584 327.158 206.692H324.045C324.154 207.561 324.697 208.068 325.493 208.068C325.928 208.068 326.253 207.923 326.615 207.706L327.014 208.43C326.543 208.756 325.964 208.973 325.348 208.973C323.973 208.973 322.923 208.032 322.923 206.403ZM326.181 205.932C326.181 205.172 325.855 204.738 325.167 204.738C324.588 204.738 324.081 205.172 324.009 205.932H326.181ZM324.552 202.602L326 200.864L326.796 201.624L325.131 203.145L324.552 202.602Z" fill="#0C419A"/>
<path d="M328.208 209.733C328.208 209.335 328.462 208.973 328.896 208.683V208.647C328.643 208.502 328.462 208.213 328.462 207.851C328.462 207.489 328.715 207.127 329.005 206.946V206.909C328.679 206.656 328.353 206.185 328.353 205.606C328.353 204.484 329.258 203.869 330.272 203.869C330.525 203.869 330.778 203.905 330.996 203.977H332.733V204.81H331.828C331.973 204.991 332.118 205.28 332.118 205.642C332.118 206.728 331.285 207.308 330.272 207.308C330.054 207.308 329.837 207.271 329.62 207.163C329.475 207.271 329.367 207.416 329.367 207.633C329.367 207.923 329.548 208.068 330.163 208.068H331.032C332.19 208.068 332.806 208.43 332.806 209.262C332.806 210.24 331.792 211 330.199 211C329.077 211 328.208 210.602 328.208 209.733ZM331.756 209.48C331.756 209.118 331.466 209.009 330.887 209.009H330.235C329.982 209.009 329.765 208.973 329.584 208.937C329.33 209.118 329.222 209.371 329.222 209.588C329.222 210.023 329.692 210.276 330.453 210.276C331.213 210.276 331.756 209.914 331.756 209.48ZM331.14 205.606C331.14 204.991 330.778 204.629 330.308 204.629C329.837 204.629 329.475 204.991 329.475 205.606C329.475 206.222 329.837 206.584 330.308 206.584C330.778 206.584 331.14 206.222 331.14 205.606Z" fill="#0C419A"/>
<path d="M333.53 206.403C333.53 204.81 334.615 203.833 335.774 203.833C337.077 203.833 337.801 204.774 337.801 206.149C337.801 206.366 337.765 206.584 337.765 206.692H334.652C334.76 207.561 335.303 208.068 336.1 208.068C336.534 208.068 336.86 207.923 337.222 207.706L337.62 208.43C337.149 208.756 336.57 208.973 335.955 208.973C334.579 208.973 333.53 208.032 333.53 206.403ZM336.787 205.932C336.787 205.172 336.462 204.737 335.774 204.737C335.195 204.737 334.688 205.172 334.616 205.932H336.787Z" fill="#0C419A"/>
<path d="M339.213 203.977H340.154L340.226 204.846H340.262C340.624 204.194 341.131 203.869 341.638 203.869C341.891 203.869 342.036 203.905 342.181 203.977L342 204.955C341.819 204.918 341.71 204.882 341.493 204.882C341.095 204.882 340.624 205.136 340.335 205.896V208.864H339.177V203.977H339.213Z" fill="#0C419A"/>
<path d="M345.258 206.403C345.258 204.774 346.416 203.833 347.719 203.833C348.335 203.833 348.805 204.086 349.131 204.376L348.588 205.136C348.335 204.918 348.081 204.774 347.792 204.774C346.995 204.774 346.452 205.425 346.452 206.403C346.452 207.38 346.995 208.032 347.756 208.032C348.154 208.032 348.48 207.851 348.769 207.597L349.24 208.357C348.769 208.756 348.19 208.973 347.647 208.973C346.271 208.973 345.258 208.032 345.258 206.403Z" fill="#0C419A"/>
<path d="M350.471 201.842H351.629V203.652L351.593 204.593C351.991 204.195 352.498 203.869 353.149 203.869C354.199 203.869 354.633 204.593 354.633 205.824V208.864H353.475V205.968C353.475 205.172 353.258 204.846 352.715 204.846C352.28 204.846 351.991 205.064 351.593 205.462V208.864H350.434V201.842H350.471Z" fill="#0C419A"/>
<path d="M356.009 207.525C356.009 206.475 356.878 205.932 358.869 205.715C358.869 205.208 358.652 204.738 358 204.738C357.529 204.738 357.059 204.955 356.624 205.208L356.19 204.448C356.733 204.122 357.421 203.796 358.181 203.796C359.412 203.796 359.991 204.557 359.991 205.896V208.792H359.086L359.014 208.249H358.977C358.543 208.611 358.036 208.9 357.457 208.9C356.588 208.973 356.009 208.394 356.009 207.525ZM358.869 207.561V206.475C357.529 206.656 357.095 206.982 357.095 207.489C357.095 207.923 357.385 208.104 357.783 208.104C358.217 208.068 358.507 207.887 358.869 207.561Z" fill="#0C419A"/>
<path d="M361.366 206.403C361.366 204.774 362.525 203.833 363.828 203.833C364.443 203.833 364.914 204.086 365.24 204.376L364.697 205.136C364.443 204.918 364.19 204.774 363.9 204.774C363.104 204.774 362.561 205.425 362.561 206.403C362.561 207.38 363.104 208.032 363.864 208.032C364.262 208.032 364.588 207.851 364.878 207.597L365.348 208.357C364.878 208.756 364.299 208.973 363.756 208.973C362.38 208.973 361.366 208.032 361.366 206.403Z" fill="#0C419A"/>
<path d="M366.507 207.018V203.978H367.665V206.873C367.665 207.67 367.882 207.996 368.425 207.996C368.86 207.996 369.149 207.815 369.511 207.308V203.978H370.67V208.864H369.729L369.656 208.14H369.584C369.149 208.647 368.679 208.973 368.027 208.973C366.977 208.973 366.507 208.249 366.507 207.018Z" fill="#0C419A"/>
<path d="M372.335 203.977H373.276L373.349 204.629H373.385C373.819 204.195 374.326 203.833 374.978 203.833C376.027 203.833 376.462 204.556 376.462 205.787V208.828H375.376V205.932C375.376 205.136 375.159 204.81 374.616 204.81C374.181 204.81 373.892 205.027 373.493 205.425V208.828H372.335V203.977V203.977Z" fill="#0C419A"/>
<path d="M169.294 179.254L168.86 178.855C169.041 178.638 169.185 178.385 169.222 178.131C169.222 177.842 169.113 177.697 168.968 177.697C168.787 177.697 168.715 177.842 168.606 178.131L168.425 178.53C168.28 178.819 168.027 179.109 167.593 179.109C167.086 179.073 166.724 178.638 166.76 177.987C166.76 177.625 166.941 177.299 167.194 177.045L167.593 177.407C167.448 177.588 167.339 177.769 167.339 178.023C167.339 178.24 167.412 178.421 167.593 178.421C167.774 178.421 167.846 178.24 167.955 177.987L168.136 177.625C168.317 177.263 168.57 177.045 168.968 177.082C169.475 177.118 169.873 177.552 169.837 178.276C169.765 178.53 169.584 178.964 169.294 179.254Z" fill="#0C419A"/>
<path d="M166.507 174.946L166 174.077L166.471 173.787L166.905 174.692L166.507 174.946ZM166.869 175.633L167.158 173.751L167.738 173.823L167.557 175.018L168.172 175.09L168.317 174.077L168.896 174.149L168.751 175.163L169.439 175.271L169.62 174.041L170.199 174.113L169.91 176.032L166.869 175.633Z" fill="#0C419A"/>
<path d="M168.787 172.991C167.81 172.738 167.412 171.977 167.593 171.217C167.701 170.855 167.955 170.566 168.208 170.421L168.534 170.891C168.353 171 168.208 171.145 168.172 171.362C168.063 171.76 168.353 172.158 168.932 172.303C169.547 172.448 169.946 172.267 170.054 171.833C170.127 171.579 170.054 171.362 169.909 171.181L170.416 170.928C170.633 171.253 170.706 171.615 170.597 171.977C170.452 172.774 169.765 173.244 168.787 172.991Z" fill="#0C419A"/>
<path d="M169.729 169.842L168.208 169.262L168.462 168.611L170.054 169.226C170.597 169.443 170.851 169.335 170.996 169.009C171.104 168.683 170.996 168.43 170.453 168.213L168.86 167.597L169.077 166.982L170.597 167.561C171.539 167.923 171.792 168.466 171.539 169.19C171.249 169.95 170.67 170.167 169.729 169.842Z" fill="#0C419A"/>
<path d="M169.692 165.57L170.199 164.593C170.489 164.014 170.923 163.652 171.575 163.977C172.19 164.303 172.226 164.882 171.901 165.462L171.72 165.824L172.697 166.33L172.371 166.946L169.692 165.57ZM171.394 165.281C171.575 164.955 171.502 164.738 171.249 164.593C170.996 164.448 170.815 164.593 170.634 164.882L170.489 165.208L171.213 165.606L171.394 165.281ZM171.683 165.534L171.502 164.919L173.457 164.846L173.095 165.534H171.683Z" fill="#0C419A"/>
<path d="M171.43 162.312L171.792 161.733L174.326 163.362L173.964 163.941L171.43 162.312Z" fill="#0C419A"/>
<path d="M173.348 160.502L172.842 161.154L172.371 160.792L173.783 158.946L174.253 159.308L173.747 159.959L175.701 161.444L175.303 161.987L173.348 160.502Z" fill="#0C419A"/>
<path d="M174.543 158.041L175.846 156.665L176.281 157.063L175.448 157.932L175.882 158.33L176.57 157.57L177.005 157.968L176.317 158.729L176.824 159.199L177.692 158.294L178.127 158.692L176.824 160.104L174.543 158.041ZM174.615 157.281L174.688 156.267L175.267 156.303L175.086 157.281H174.615Z" fill="#0C419A"/>
<path d="M179.611 156.701L179.647 156.086C179.937 156.086 180.226 156.05 180.407 155.869C180.624 155.688 180.661 155.507 180.552 155.362C180.443 155.217 180.262 155.253 179.973 155.362L179.575 155.47C179.249 155.579 178.851 155.543 178.597 155.181C178.308 154.783 178.416 154.203 178.887 153.805C179.176 153.588 179.538 153.479 179.9 153.516V154.059C179.647 154.059 179.466 154.095 179.249 154.24C179.068 154.384 178.995 154.565 179.104 154.674C179.213 154.819 179.43 154.746 179.683 154.674L180.081 154.565C180.48 154.457 180.805 154.493 181.059 154.855C181.348 155.253 181.312 155.832 180.733 156.303C180.443 156.593 180.009 156.737 179.611 156.701Z" fill="#0C419A"/>
<path d="M181.457 153.805C180.95 152.973 181.131 152.176 181.819 151.778C182.507 151.344 183.267 151.561 183.774 152.394C184.281 153.226 184.1 154.022 183.412 154.457C182.76 154.855 181.964 154.638 181.457 153.805ZM183.231 152.755C182.905 152.249 182.507 152.068 182.145 152.285C181.783 152.502 181.747 152.936 182.072 153.443C182.398 153.95 182.796 154.167 183.158 153.95C183.484 153.733 183.52 153.262 183.231 152.755Z" fill="#0C419A"/>
<path d="M184.679 151.923C184.244 151.018 184.606 150.222 185.294 149.896C185.656 149.715 186.018 149.751 186.271 149.86L186.127 150.403C185.946 150.33 185.728 150.33 185.547 150.403C185.185 150.584 185.041 151.054 185.294 151.597C185.547 152.176 185.982 152.357 186.38 152.176C186.597 152.068 186.742 151.887 186.778 151.669L187.285 151.923C187.176 152.285 186.959 152.574 186.597 152.719C185.909 153.045 185.113 152.828 184.679 151.923Z" fill="#0C419A"/>
<path d="M187.357 149.1L188.009 148.882L189.059 151.706L188.407 151.923L187.357 149.1Z" fill="#0C419A"/>
<path d="M190.072 148.195L190.869 147.978L192.57 150.656L191.882 150.837L191.122 149.462C190.977 149.208 190.796 148.883 190.652 148.593C190.652 148.919 190.688 149.281 190.688 149.606V151.199L190 151.38L190.072 148.195ZM190.217 149.968L191.629 149.606L191.774 150.113L190.362 150.475L190.217 149.968Z" fill="#0C419A"/>
<path d="M192.896 147.507L193.584 147.398L193.946 149.823L195.104 149.642L195.177 150.221L193.33 150.511L192.896 147.507Z" fill="#0C419A"/>
<path d="M195.828 147.109L197.71 147L197.747 147.579L196.552 147.652L196.588 148.267L197.602 148.195L197.638 148.774L196.625 148.846L196.661 149.534L197.928 149.462L197.964 150.041L196.045 150.149L195.828 147.109Z" fill="#0C419A"/>
<path d="M266.127 192.032V177.552H269.928V192.177C269.928 193.009 270.29 193.263 270.615 193.263C270.76 193.263 270.869 193.263 271.086 193.226L271.557 196.086C271.122 196.267 270.507 196.412 269.638 196.412C267.032 196.448 266.127 194.674 266.127 192.032Z" fill="#0C419A"/>
<path d="M241.728 187.398C242.054 186.349 245.457 178.855 245.457 178.855H249.475V196.122H245.855V185.444L242.851 193.19H240.534L237.529 185.444V196.122H233.909V178.855H237.928C237.928 178.855 241.294 186.349 241.656 187.398H241.728V187.398Z" fill="#0C419A"/>
<path d="M273.113 192.466C273.113 189.715 275.43 188.159 280.534 187.616C280.461 186.457 279.737 185.769 278.326 185.769C277.24 185.769 276.154 186.24 274.923 186.964L273.584 184.394C275.213 183.38 277.059 182.656 279.086 182.656C282.38 182.656 284.19 184.575 284.19 188.593V196.086H280.57V194.819C280.57 194.819 279.086 196.412 276.986 196.412C274.597 196.448 273.113 194.674 273.113 192.466ZM280.534 192.249V189.968C277.819 190.33 276.769 191.199 276.769 192.177C276.769 193.009 277.348 193.444 278.253 193.444C279.086 193.407 279.846 192.937 280.534 192.249Z" fill="#0C419A"/>
<path d="M252.118 192.466C252.118 189.715 254.434 188.159 259.538 187.616C259.466 186.457 258.742 185.769 257.33 185.769C256.244 185.769 255.158 186.24 253.928 186.964L252.588 184.394C254.217 183.38 256.063 182.656 258.091 182.656C261.385 182.656 263.195 184.575 263.195 188.593V196.086H259.575V194.819C259.575 194.819 258.091 196.412 255.991 196.412C253.602 196.448 252.118 194.674 252.118 192.466ZM259.538 192.249V189.968C256.824 190.33 255.774 191.199 255.774 192.177C255.774 193.009 256.353 193.444 257.258 193.444C258.091 193.407 258.851 192.937 259.538 192.249Z" fill="#0C419A"/>
<path d="M294.941 177.552V183.923C294.072 183.091 293.203 182.656 291.792 182.656C289.077 182.656 286.47 185.263 286.47 189.534C286.47 193.842 288.534 196.412 291.719 196.412C293.457 196.412 294.832 195.109 294.941 195V196.122H298.742V177.552H294.941ZM292.697 193.263C291.213 193.263 290.344 192.104 290.344 189.534C290.344 187.036 291.43 185.878 292.661 185.878C293.348 185.878 294.108 186.095 294.941 186.711V192.104C294.181 192.937 293.529 193.263 292.697 193.263Z" fill="#0C419A"/>
<path d="M301.674 179.036C301.674 177.842 302.615 177.009 303.882 177.009C305.149 177.009 306.09 177.842 306.09 179.036C306.09 180.231 305.149 181.064 303.882 181.064C302.615 181.064 301.674 180.195 301.674 179.036ZM301.964 182.982H305.765V196.122H301.964V182.982Z" fill="#0C419A"/>
<path d="M308.154 189.534C308.154 185.263 310.833 182.656 314.054 182.656C317.71 182.656 319.738 185.371 319.738 188.955C319.738 189.643 319.665 190.367 319.593 190.692H311.882C312.208 192.611 313.511 193.48 315.213 193.48C316.19 193.48 317.023 193.082 317.964 192.539L319.267 194.964C317.964 195.905 316.226 196.448 314.706 196.448C310.905 196.448 308.154 193.914 308.154 189.534ZM316.48 188.122C316.48 186.674 315.647 185.625 314.127 185.625C312.932 185.625 312.1 186.457 311.846 188.122H316.48Z" fill="#0C419A"/>
<path d="M233.909 170.312V155.833H237.71V170.457C237.71 171.29 238.072 171.543 238.398 171.543C238.543 171.543 238.651 171.543 238.869 171.507L239.339 174.366C238.905 174.547 238.29 174.692 237.421 174.692C234.778 174.692 233.909 172.955 233.909 170.312Z" fill="#0C419A"/>
<path d="M254.108 170.276L255.158 174.403H259.104L253.783 157.136H249.403L244.081 174.403H248.027L249.077 170.276H254.108ZM249.873 167.235L251.538 160.683H251.683L253.348 167.235H249.873Z" fill="#0C419A"/>
<path d="M259.864 172.882L261.566 170.457C262.724 171.362 263.81 171.832 264.896 171.832C266.018 171.832 266.525 171.398 266.525 170.71C266.525 169.842 265.258 169.443 263.919 168.937C262.326 168.321 260.516 167.235 260.516 165.063C260.516 162.602 262.471 160.937 265.439 160.937C267.394 160.937 268.878 161.733 269.964 162.602L268.262 164.955C267.357 164.267 266.452 163.832 265.548 163.832C264.57 163.832 264.063 164.231 264.063 164.882C264.063 165.715 265.258 166.041 266.597 166.547C268.226 167.163 270.072 168.104 270.072 170.493C270.072 172.882 268.226 174.728 264.787 174.728C263.122 174.692 261.167 173.968 259.864 172.882Z" fill="#0C419A"/>
<path d="M271.267 172.882L272.968 170.457C274.127 171.362 275.213 171.832 276.299 171.832C277.421 171.832 277.927 171.398 277.927 170.71C277.927 169.842 276.661 169.443 275.321 168.937C273.728 168.321 271.918 167.235 271.918 165.063C271.918 162.602 273.873 160.937 276.842 160.937C278.796 160.937 280.28 161.733 281.366 162.602L279.665 164.955C278.76 164.267 277.855 163.832 276.95 163.832C275.973 163.832 275.466 164.231 275.466 164.882C275.466 165.715 276.661 166.041 278 166.547C279.629 167.163 281.475 168.104 281.475 170.493C281.475 172.882 279.629 174.728 276.19 174.728C274.525 174.692 272.57 173.968 271.267 172.882Z" fill="#0C419A"/>
<path d="M298.235 161.262H302.036V163.145C302.76 161.697 304.534 161.19 305.439 161.19C306.163 161.19 306.597 161.299 306.959 161.443L306.561 164.991C306.054 164.846 305.475 164.593 304.932 164.593C303.448 164.629 302.145 165.896 302.036 167.561V174.403H298.235V161.262V161.262Z" fill="#0C419A"/>
<path d="M321.692 161.262H325.493V162.927C326.579 161.878 327.665 160.937 329.439 160.937C332.226 160.937 333.421 162.964 333.421 166.222V174.366H329.62V166.692C329.62 164.81 329.113 164.194 328.027 164.194C327.086 164.194 326.362 164.665 325.529 165.461V174.33H321.728V161.262H321.692Z" fill="#0C419A"/>
<path d="M346.597 167.814C346.597 163.543 349.276 160.937 352.498 160.937C356.154 160.937 358.181 163.651 358.181 167.235C358.181 167.923 358.108 168.647 358.036 168.973H350.326C350.651 170.891 351.955 171.76 353.656 171.76C354.633 171.76 355.466 171.362 356.407 170.819L357.71 173.244C356.407 174.185 354.67 174.728 353.149 174.728C349.384 174.692 346.597 172.158 346.597 167.814ZM354.959 166.403C354.959 164.955 354.127 163.905 352.606 163.905C351.412 163.905 350.579 164.737 350.326 166.403H354.959Z" fill="#0C419A"/>
<path d="M307.792 170.746C307.792 167.995 310.108 166.439 315.213 165.896C315.14 164.737 314.416 164.05 313.004 164.05C311.918 164.05 310.832 164.52 309.602 165.244L308.262 162.674C309.891 161.661 311.737 160.937 313.765 160.937C317.059 160.937 318.869 162.855 318.869 166.873V174.366H315.249V173.099C315.249 173.099 313.765 174.692 311.665 174.692C309.276 174.692 307.792 172.955 307.792 170.746ZM315.213 170.529V168.249C312.498 168.611 311.448 169.48 311.448 170.457C311.448 171.289 312.027 171.724 312.932 171.724C313.801 171.688 314.561 171.217 315.213 170.529Z" fill="#0C419A"/>
<path d="M242.706 155.76C241.909 155.76 240.823 156.376 240.823 157.462C240.823 158.439 241.584 159.018 242.38 159.018C242.416 159.018 242.452 159.018 242.489 159.018C242.452 160.177 241.403 160.828 240.896 161.118L241.909 162.529C245.24 161.48 245.928 155.796 242.706 155.76Z" fill="#0C419A"/>
<path d="M291.285 161.263V169.95C290.525 171 289.946 171.398 289.005 171.398C287.919 171.398 287.412 170.819 287.412 168.901V161.263H283.611V169.552C283.611 172.665 284.95 174.729 287.665 174.729C290.127 174.729 291.357 173.064 291.357 173.064V174.403H295.122V161.263H291.285Z" fill="#0C419A"/>
<path d="M342.253 171.579C340.588 171.579 339.357 170.095 339.357 167.851C339.357 165.57 340.552 164.086 342.362 164.086C342.941 164.086 343.448 164.303 344.027 164.81L345.837 162.313C344.896 161.516 343.701 160.973 342.145 160.973C338.597 160.973 335.484 163.507 335.484 167.851C335.484 172.195 338.199 174.729 341.783 174.729C343.195 174.729 344.787 174.294 346.018 173.172L344.642 170.53C343.919 171.145 343.122 171.579 342.253 171.579Z" fill="#0C419A"/>
<path d="M200.751 155.941C200.679 155.796 200.425 155.688 200.244 155.652C200.027 155.615 199.918 155.615 199.918 155.615C199.665 155.543 194.633 155.615 193.439 156.412C193.33 155.615 193.041 154.638 191.665 154.348C190.688 154.131 188.588 155.072 189.276 157.172C189.384 157.534 189.638 157.787 190 157.968C190.181 158.077 190.47 158.005 190.688 158.584C190.76 158.729 190.869 158.729 190.977 158.692C191.05 158.656 191.086 158.692 191.194 158.765C191.303 158.837 191.375 158.801 191.375 158.801C191.375 158.801 191.412 158.837 191.484 158.837C191.52 158.837 191.665 158.801 191.665 158.837C192.063 159.163 192.534 158.656 192.715 158.33C192.896 158.873 193.366 160.285 193.366 160.285C193.222 160.14 191.629 159.706 190.869 160.538C190.217 161.262 189.71 162.276 189.167 163.977C189.022 164.448 188.733 164.665 188.19 164.882C187.321 165.208 187.828 165.606 188.045 165.643C188.588 165.751 189.819 165.679 190.072 165.57C190.398 165.425 190.145 164.665 190.507 164.195C190.832 163.796 191.086 163.434 191.303 163.181C191.303 163.724 191.303 164.014 191.013 164.701C190.76 165.353 189.964 165.679 189.71 165.968C189.276 166.511 190.253 166.548 190.507 166.475C191.158 166.258 191.593 166.258 191.846 166.113C192.208 165.896 191.955 165.317 192.063 165.1C192.389 164.448 193.511 163.036 193.656 162.819C193.692 162.783 193.692 162.747 193.692 162.71C194.488 162.964 195.393 163.036 195.719 163C197.565 162.783 197.964 161.48 197.783 160.43C197.602 159.489 197.022 158.909 196.841 158.62C196.371 157.86 196.081 157.462 195.9 157.244C196.443 157.1 199.375 156.303 199.375 156.339C199.484 156.593 199.737 156.629 199.81 156.701C199.991 156.81 200.099 156.629 200.027 156.593C199.882 156.484 199.846 156.412 199.846 156.412C200.099 156.412 200.317 156.448 200.498 156.448C200.787 156.484 200.896 156.05 200.751 155.941Z" fill="#0C419A"/>
<path fill-rule="evenodd" clip-rule="evenodd" d="M226.923 173.679C226.452 171.145 224.099 169.588 222.869 169.045C222.036 168.683 221.674 168.611 221.529 168.575C221.348 168.502 221.203 168.466 221.131 168.43C221.203 167.887 221.855 167.851 222.253 167.054C223.339 164.81 221.095 163.253 219.466 163.615C218.669 163.796 218.163 164.05 218.018 164.665C217.945 164.991 217.692 164.991 217.294 165.425C217.149 165.57 217.439 165.787 217.511 165.896C217.511 165.932 217.439 166.041 217.402 166.185C217.366 166.33 217.402 166.294 217.402 166.33C217.402 166.33 217.33 166.475 217.33 166.656C217.33 166.656 217.149 167.018 217.33 167.416C217.366 167.525 217.583 167.742 217.656 168.249C217.656 168.321 217.656 168.357 217.366 168.249C217.294 168.213 214.289 167.344 213.964 167.127C213.602 166.873 210.633 163.652 210.307 163.036C210.126 162.674 209.945 162.457 209.837 162.457C209.149 162.493 210.344 163.76 209.656 163.326C209.475 163.217 208.968 162.855 208.932 162.819C208.787 162.71 208.823 162.747 208.751 162.602C208.678 162.457 208.606 162.348 208.534 162.312C208.461 162.276 208.425 162.24 208.353 162.24C208.244 162.276 208.28 162.348 208.244 162.348C208.244 162.348 208.172 162.348 208.135 162.348C207.954 162.385 208.099 162.819 208.135 163.036C208.135 163.072 208.606 164.194 208.751 164.375C209.511 164.882 210.235 165.353 210.271 165.353C211.104 166.294 212.045 167.489 212.914 168.394C213.602 169.118 216.715 170.928 216.787 170.964C217.004 171.072 217.33 171.76 216.859 176.502C216.678 178.276 215.412 182.077 216.027 184.032C216.425 185.299 216.859 186.167 217.33 189.642C217.439 190.403 216.823 190.909 215.955 191.525C215.629 191.778 214.651 192.357 214.579 192.43C214.434 192.575 214.579 192.792 214.76 192.9C214.977 192.973 215.339 193.19 215.556 193.226C215.918 193.299 216.461 193.262 217.04 192.937C217.656 192.575 217.728 192.538 218.09 192.285C218.525 192.032 219.031 191.959 219.176 191.525C219.357 190.946 218.85 190.113 218.923 189.751C219.285 187.036 219.755 185.697 219.068 184.032C218.923 183.706 220.045 180.086 220.154 180.556C220.335 181.498 220.407 184.357 220.443 186.457C220.443 187.398 221.203 190.656 221.457 191.851C221.819 193.661 218.778 195.109 219.43 195.652C219.574 195.76 219.973 195.941 220.335 196.014C220.769 196.086 221.095 196.014 221.457 195.869C221.674 195.796 222 195.398 222.072 195.326C222.724 194.529 222.507 194.747 223.05 194.167C223.484 193.661 223.158 192.792 223.122 192.357C223.013 191.452 223.122 191.199 223.086 189.534C223.086 187.615 223.194 187.072 223.303 186.348C223.774 183.163 224.063 181.425 224.244 180.086V180.014C224.244 180.014 224.461 180.086 224.57 179.941C224.751 179.652 224.715 179.398 224.751 179.217C224.787 179.036 224.859 179.253 224.859 179.253C224.859 179.253 225.004 179.688 225.004 179.833C225.004 180.05 224.859 180.303 224.751 180.629C224.642 180.991 224.932 181.027 225.004 181.063C225.077 181.099 226.018 180.412 226.163 180.158C226.307 179.869 226.271 179.507 226.307 179.326C226.344 178.855 226.054 177.516 226.054 177.516C226.271 176.611 227.068 174.33 226.923 173.679ZM224.751 177.335C224.642 177.769 224.606 177.371 224.208 179.036L224.244 178.783C224.244 178.566 224.244 178.312 224.244 178.059C224.244 175.995 222.651 171.579 223.629 172.484C223.629 172.484 224.787 173.28 225.004 173.896C225.185 174.439 225.149 175.742 224.751 177.335Z" fill="#0C419A"/>
<path d="M186.054 182.294C185.692 181.968 184.425 180.267 183.629 179.579C183.086 179 182.941 178.71 182.507 178.095C181.022 176.14 180.697 175.995 179.683 175.851C179.466 175.706 179.538 175.561 179.574 175.525C180.914 175.018 180.479 173.86 180.443 173.823C180.371 173.57 180.552 173.461 180.552 173.208C180.552 172.81 180.479 172.52 180.371 172.231C180.407 172.05 180.443 171.796 180.262 171.543C179.538 170.638 177.728 170.602 176.787 171.217C176.027 171.724 176.461 172.086 176.244 172.846C176.099 173.28 176.244 173.679 176.534 174.004C176.57 174.258 177.33 174.728 177.185 175.235C177.041 175.778 176.172 175.887 176.172 175.887C176.063 175.923 175.991 175.959 175.918 175.995C174.543 176.792 173.203 177.95 173.022 179.181C173.095 180.195 174.688 181.679 175.701 182.475C175.846 184.213 176.932 186.855 177.004 186.964C177.149 187.29 176.679 186.71 175.593 186.348C175.05 186.167 174.362 185.443 174.181 186.312C174.108 186.674 174.253 187.29 173.927 188.086C173.674 188.665 173.964 189.606 174.615 189.606C175.086 189.606 175.375 188.158 175.375 188.158C175.375 188.158 177.656 189.28 178.742 188.918C179.394 188.701 179.538 186.167 178.887 183.887C178.67 183.09 179.285 185.19 180.805 187C181.131 187.398 180.841 187.724 181.059 189.244C181.131 189.823 181.131 189.968 181.131 190.222C181.095 190.946 180.407 191.814 182 192.213C183.629 192.647 183.484 193.009 184.498 192.321C184.968 192.032 183.086 191.814 182.724 190.728C182.724 190.692 182.688 190.547 182.688 190.475C182.651 189.606 183.05 187.615 182.905 186.891C182.326 183.452 180.878 181.86 180.697 181.063C180.697 178.674 180.516 177.914 180.733 178.457C180.769 178.566 181.276 179.398 181.783 180.05C181.819 180.122 181.891 180.195 181.964 180.267C182.108 180.448 182.253 180.593 182.398 180.665C183.412 181.534 185.004 182.584 185.222 182.801C185.222 182.801 185.33 183.851 185.765 183.778C186.163 183.706 188.081 182.873 188.045 182.656C187.973 182.366 186.09 182.366 186.054 182.294ZM175.629 180.991C175.339 180.448 174.543 179.398 174.615 179.217C175.05 178.493 175.52 178.276 175.665 178.312C175.774 178.348 175.629 180.991 175.629 180.991Z" fill="#0C419A"/>
<path d="M217.764 201.769C217.692 201.733 216.57 201.298 215.556 199.706C215.122 198.982 211.755 192.792 211.321 191.597C210.416 189.208 203.357 184.9 203.068 184.647C202.85 184.466 202.887 184.068 202.959 183.778C203.538 181.751 203.321 179.977 203.43 179.688C203.719 179 204.154 178.022 203.828 177.371L203.104 176.212C203.104 176.212 206.832 177.552 207.701 177.371C208.461 177.226 212.19 174.62 212.407 174.511C212.914 174.258 214.181 174.62 215.448 173.244C215.918 172.737 215.592 172.556 215.484 172.629C215.52 172.593 215.267 172.375 215.05 172.52C214.76 172.701 213.71 172.991 213.891 172.846C214.651 172.267 214.108 172.122 214.108 172.122C213.783 172.412 212.298 172.774 211.973 173.027C211.647 173.317 211.393 173.534 211.249 173.642C210.344 174.149 208.787 174.909 207.231 175.271C206.905 175.344 203.936 173.389 202.199 173.136C201.258 172.991 200.932 173.063 200.425 173.208C199.81 173.389 199.846 172.484 200.316 172.267C200.57 172.158 200.968 172.086 201.113 171.796C201.294 171.434 201.077 171.108 201.077 171.036C201.077 171 201.113 170.964 201.04 170.819C201.004 170.71 201.004 170.783 201.004 170.674C201.004 170.602 200.968 170.529 200.932 170.457C200.932 170.421 200.932 170.276 200.968 170.24C201.33 169.95 201.185 169.805 201.113 169.769C201.004 169.66 200.461 169.443 200.425 169.081C200.353 168.502 200.135 168.212 200.063 167.923C200.027 167.814 199.954 167.127 199.665 166.873C199.303 166.547 198.543 166.149 196.878 166.584C196.335 166.728 196.443 166.982 195.14 167.235C193.547 167.525 192.678 169.878 192.823 170.855C192.932 171.651 193.62 171.253 193.583 171.615C193.547 172.158 193.475 173.063 194.633 173.389C194.887 173.461 196.407 173.208 196.986 173.317C196.986 173.317 197.457 173.353 197.203 173.823C197.095 174.041 195.574 174.656 195.176 174.801C194.199 175.199 191.629 179.398 190.869 179.796C190.217 180.122 189.819 180.375 189.565 180.556C188.516 181.208 187.502 182.041 186.923 182.004C186.163 181.968 185.547 182.33 185.04 183.452C184.896 183.778 184.968 183.959 185.258 184.031C185.366 184.14 185.511 184.285 185.728 184.285C185.945 184.502 186.199 184.357 186.416 184.249C186.995 183.923 187.14 183.669 187.357 183.597C187.936 183.416 191.339 182.077 192.099 181.498C193.258 180.882 195.574 178.493 196.081 178.457C196.552 178.421 197.71 179.47 197.348 181.498C197.24 182.185 196.371 183.416 195.9 184.14C194.959 185.552 195.683 186.819 195.502 187.108C194.525 188.701 193.33 190.837 191.303 192.647C190.507 193.154 188.878 193.262 187.973 193.516C185.945 194.095 183.81 195.543 182.289 196.412C181.783 196.701 181.312 196.086 180.66 196.013C180.045 195.941 179.973 196.918 179.647 197.787C179.538 198.041 179.502 198.185 179.031 199.271C178.85 199.706 178.344 200.973 178.85 201.516C179.321 202.167 180.407 200.14 181.276 199.163C181.71 198.656 182 198.475 182.977 198.258C183.592 198.113 188.552 196.774 191.81 196.05C191.882 196.05 191.991 196.013 192.063 195.977C196.298 194.891 200.678 189.353 200.751 189.389L207.954 192.936C208.678 193.335 208.678 194.71 209.547 196.339C210.054 197.317 210.814 198.149 213.891 201.154C214.289 201.552 213.964 202.167 214.145 202.783C214.326 203.434 214.651 203.434 215.231 203.398C215.773 203.362 216.244 203.253 216.787 203.217C217.475 203.181 217.294 203.253 218.09 203.362C218.488 203.434 219.357 203.543 220.009 202.927C221.131 201.733 218.85 202.312 217.764 201.769Z" fill="#0C419A"/>
<path d="M209.982 198.656C209.873 198.439 209.62 198.366 209.403 198.475C206.326 200.031 202.887 200.864 199.412 200.864C195.538 200.864 191.737 199.85 188.407 197.932C188.19 197.823 187.937 197.896 187.792 198.077C187.683 198.294 187.756 198.547 187.937 198.692C191.412 200.683 195.357 201.733 199.375 201.733C202.995 201.733 206.579 200.864 209.765 199.235C210.018 199.126 210.09 198.873 209.982 198.656Z" fill="#0C419A"/>
<path d="M178.887 169.878C178.814 169.878 178.778 169.878 178.706 169.842C178.489 169.733 178.38 169.48 178.489 169.262C180.48 164.918 183.701 161.335 187.828 158.909C188.045 158.801 188.299 158.873 188.443 159.054C188.552 159.271 188.48 159.525 188.299 159.67C184.317 161.986 181.204 165.425 179.321 169.624C179.213 169.805 179.068 169.878 178.887 169.878Z" fill="#0C419A"/>
<path d="M216.28 164.267C216.172 164.267 216.027 164.231 215.955 164.122C212.479 160.177 207.701 157.607 202.525 156.883C202.271 156.846 202.127 156.629 202.163 156.376C202.199 156.122 202.416 155.978 202.67 156.014C208.063 156.774 213.022 159.453 216.642 163.543C216.787 163.724 216.787 164.014 216.606 164.159C216.498 164.231 216.389 164.267 216.28 164.267Z" fill="#0C419A"/>
</svg>
