<svg width="541" height="357" viewBox="0 0 541 357" fill="none" xmlns="http://www.w3.org/2000/svg">
<g clip-path="url(#clip0_7680_7931)">
<path d="M541 0H0V357H541V0Z" fill="#E7ECF5"/>
<path d="M478 88H63V269H478V88Z" fill="white"/>
<g clip-path="url(#clip1_7680_7931)">
<path d="M153 165H137C133.686 165 131 167.686 131 171V187C131 190.314 133.686 193 137 193H153C156.314 193 159 190.314 159 187V171C159 167.686 156.314 165 153 165Z" fill="white"/>
<path opacity="0.5" d="M146.202 174H143.798C140.596 174 138 176.462 138 179.5C138 182.538 140.596 185 143.798 185H146.202C149.404 185 152 182.538 152 179.5C152 176.462 149.404 174 146.202 174Z" fill="#CED9EB"/>
<path d="M155 165.5H135C133.067 165.5 131.5 167.067 131.5 169V189C131.5 190.933 133.067 192.5 135 192.5H155C156.933 192.5 158.5 190.933 158.5 189V169C158.5 167.067 156.933 165.5 155 165.5Z" stroke="#989B9B"/>
<path d="M189 165H173C169.686 165 167 167.686 167 171V187C167 190.314 169.686 193 173 193H189C192.314 193 195 190.314 195 187V171C195 167.686 192.314 165 189 165Z" fill="white"/>
<path opacity="0.5" d="M182.202 174H179.798C176.596 174 174 176.462 174 179.5C174 182.538 176.596 185 179.798 185H182.202C185.404 185 188 182.538 188 179.5C188 176.462 185.404 174 182.202 174Z" fill="#CED9EB"/>
<path d="M191 165.5H171C169.067 165.5 167.5 167.067 167.5 169V189C167.5 190.933 169.067 192.5 171 192.5H191C192.933 192.5 194.5 190.933 194.5 189V169C194.5 167.067 192.933 165.5 191 165.5Z" stroke="#989B9B"/>
<path d="M225 165H209C205.686 165 203 167.686 203 171V187C203 190.314 205.686 193 209 193H225C228.314 193 231 190.314 231 187V171C231 167.686 228.314 165 225 165Z" fill="white"/>
<path opacity="0.5" d="M218.202 174H215.798C212.596 174 210 176.462 210 179.5C210 182.538 212.596 185 215.798 185H218.202C221.404 185 224 182.538 224 179.5C224 176.462 221.404 174 218.202 174Z" fill="#CED9EB"/>
<path d="M227 165.5H207C205.067 165.5 203.5 167.067 203.5 169V189C203.5 190.933 205.067 192.5 207 192.5H227C228.933 192.5 230.5 190.933 230.5 189V169C230.5 167.067 228.933 165.5 227 165.5Z" stroke="#989B9B"/>
<path d="M261 165H245C241.686 165 239 167.686 239 171V187C239 190.314 241.686 193 245 193H261C264.314 193 267 190.314 267 187V171C267 167.686 264.314 165 261 165Z" fill="white"/>
<path opacity="0.5" d="M254.202 174H251.798C248.596 174 246 176.462 246 179.5C246 182.538 248.596 185 251.798 185H254.202C257.404 185 260 182.538 260 179.5C260 176.462 257.404 174 254.202 174Z" fill="#CED9EB"/>
<path d="M263 165.5H243C241.067 165.5 239.5 167.067 239.5 169V189C239.5 190.933 241.067 192.5 243 192.5H263C264.933 192.5 266.5 190.933 266.5 189V169C266.5 167.067 264.933 165.5 263 165.5Z" stroke="#989B9B"/>
<path d="M297 165H281C277.686 165 275 167.686 275 171V187C275 190.314 277.686 193 281 193H297C300.314 193 303 190.314 303 187V171C303 167.686 300.314 165 297 165Z" fill="white"/>
<path opacity="0.5" d="M290.202 174H287.798C284.596 174 282 176.462 282 179.5C282 182.538 284.596 185 287.798 185H290.202C293.404 185 296 182.538 296 179.5C296 176.462 293.404 174 290.202 174Z" fill="#CED9EB"/>
<path d="M299 165.5H279C277.067 165.5 275.5 167.067 275.5 169V189C275.5 190.933 277.067 192.5 279 192.5H299C300.933 192.5 302.5 190.933 302.5 189V169C302.5 167.067 300.933 165.5 299 165.5Z" stroke="#989B9B"/>
<path d="M333 165H317C313.686 165 311 167.686 311 171V187C311 190.314 313.686 193 317 193H333C336.314 193 339 190.314 339 187V171C339 167.686 336.314 165 333 165Z" fill="white"/>
<path opacity="0.5" d="M326.202 174H323.798C320.596 174 318 176.462 318 179.5C318 182.538 320.596 185 323.798 185H326.202C329.404 185 332 182.538 332 179.5C332 176.462 329.404 174 326.202 174Z" fill="#CED9EB"/>
<path d="M335 165.5H315C313.067 165.5 311.5 167.067 311.5 169V189C311.5 190.933 313.067 192.5 315 192.5H335C336.933 192.5 338.5 190.933 338.5 189V169C338.5 167.067 336.933 165.5 335 165.5Z" stroke="#989B9B"/>
<path d="M369 165H353C349.686 165 347 167.686 347 171V187C347 190.314 349.686 193 353 193H369C372.314 193 375 190.314 375 187V171C375 167.686 372.314 165 369 165Z" fill="white"/>
<path opacity="0.5" d="M362.202 174H359.798C356.596 174 354 176.462 354 179.5C354 182.538 356.596 185 359.798 185H362.202C365.404 185 368 182.538 368 179.5C368 176.462 365.404 174 362.202 174Z" fill="#CED9EB"/>
<path d="M371 165.5H351C349.067 165.5 347.5 167.067 347.5 169V189C347.5 190.933 349.067 192.5 351 192.5H371C372.933 192.5 374.5 190.933 374.5 189V169C374.5 167.067 372.933 165.5 371 165.5Z" stroke="#989B9B"/>
<path d="M405 165H389C385.686 165 383 167.686 383 171V187C383 190.314 385.686 193 389 193H405C408.314 193 411 190.314 411 187V171C411 167.686 408.314 165 405 165Z" fill="white"/>
<path opacity="0.5" d="M398.202 174H395.798C392.596 174 390 176.462 390 179.5C390 182.538 392.596 185 395.798 185H398.202C401.404 185 404 182.538 404 179.5C404 176.462 401.404 174 398.202 174Z" fill="#CED9EB"/>
<path d="M407 165.5H387C385.067 165.5 383.5 167.067 383.5 169V189C383.5 190.933 385.067 192.5 387 192.5H407C408.933 192.5 410.5 190.933 410.5 189V169C410.5 167.067 408.933 165.5 407 165.5Z" stroke="#989B9B"/>
</g>
</g>
<defs>
<clipPath id="clip0_7680_7931">
<rect width="541" height="357" fill="white"/>
</clipPath>
<clipPath id="clip1_7680_7931">
<rect width="280" height="28" fill="white" transform="translate(131 165)"/>
</clipPath>
</defs>
</svg>
