<svg width="541" height="357" viewBox="0 0 541 357" fill="none" xmlns="http://www.w3.org/2000/svg">
<g clip-path="url(#clip0_7680_7984)">
<path d="M541 0H0V357H541V0Z" fill="#E7ECF5"/>
<path d="M478 88H63V269H478V88Z" fill="white"/>
<g clip-path="url(#clip1_7680_7984)">
<path d="M154 165H136C133.239 165 131 167.239 131 170V188C131 190.761 133.239 193 136 193H154C156.761 193 159 190.761 159 188V170C159 167.239 156.761 165 154 165Z" fill="white"/>
<path opacity="0.5" d="M146.202 174H143.798C140.596 174 138 176.462 138 179.5C138 182.538 140.596 185 143.798 185H146.202C149.404 185 152 182.538 152 179.5C152 176.462 149.404 174 146.202 174Z" fill="#CED9EB"/>
<path d="M155 165.5H135C133.067 165.5 131.5 167.067 131.5 169V189C131.5 190.933 133.067 192.5 135 192.5H155C156.933 192.5 158.5 190.933 158.5 189V169C158.5 167.067 156.933 165.5 155 165.5Z" stroke="#989B9B"/>
<path d="M190 165H172C169.239 165 167 167.239 167 170V188C167 190.761 169.239 193 172 193H190C192.761 193 195 190.761 195 188V170C195 167.239 192.761 165 190 165Z" fill="white"/>
<path opacity="0.5" d="M182.202 174H179.798C176.596 174 174 176.462 174 179.5C174 182.538 176.596 185 179.798 185H182.202C185.404 185 188 182.538 188 179.5C188 176.462 185.404 174 182.202 174Z" fill="#CED9EB"/>
<path d="M191 165.5H171C169.067 165.5 167.5 167.067 167.5 169V189C167.5 190.933 169.067 192.5 171 192.5H191C192.933 192.5 194.5 190.933 194.5 189V169C194.5 167.067 192.933 165.5 191 165.5Z" stroke="#989B9B"/>
<path d="M191 165.5H171C169.067 165.5 167.5 167.067 167.5 169V189C167.5 190.933 169.067 192.5 171 192.5H191C192.933 192.5 194.5 190.933 194.5 189V169C194.5 167.067 192.933 165.5 191 165.5Z" stroke="#989B9B"/>
<path d="M226 165H208C205.239 165 203 167.239 203 170V188C203 190.761 205.239 193 208 193H226C228.761 193 231 190.761 231 188V170C231 167.239 228.761 165 226 165Z" fill="white"/>
<path opacity="0.5" d="M218.202 174H215.798C212.596 174 210 176.462 210 179.5C210 182.538 212.596 185 215.798 185H218.202C221.404 185 224 182.538 224 179.5C224 176.462 221.404 174 218.202 174Z" fill="#CED9EB"/>
<path d="M227 165.5H207C205.067 165.5 203.5 167.067 203.5 169V189C203.5 190.933 205.067 192.5 207 192.5H227C228.933 192.5 230.5 190.933 230.5 189V169C230.5 167.067 228.933 165.5 227 165.5Z" stroke="#989B9B"/>
<path d="M227 165.5H207C205.067 165.5 203.5 167.067 203.5 169V189C203.5 190.933 205.067 192.5 207 192.5H227C228.933 192.5 230.5 190.933 230.5 189V169C230.5 167.067 228.933 165.5 227 165.5Z" stroke="#989B9B"/>
<path d="M262 165H244C241.239 165 239 167.239 239 170V188C239 190.761 241.239 193 244 193H262C264.761 193 267 190.761 267 188V170C267 167.239 264.761 165 262 165Z" fill="white"/>
<path opacity="0.5" d="M254.202 174H251.798C248.596 174 246 176.462 246 179.5C246 182.538 248.596 185 251.798 185H254.202C257.404 185 260 182.538 260 179.5C260 176.462 257.404 174 254.202 174Z" fill="#CED9EB"/>
<path d="M263 165.5H243C241.067 165.5 239.5 167.067 239.5 169V189C239.5 190.933 241.067 192.5 243 192.5H263C264.933 192.5 266.5 190.933 266.5 189V169C266.5 167.067 264.933 165.5 263 165.5Z" stroke="#989B9B"/>
<path d="M263 165.5H243C241.067 165.5 239.5 167.067 239.5 169V189C239.5 190.933 241.067 192.5 243 192.5H263C264.933 192.5 266.5 190.933 266.5 189V169C266.5 167.067 264.933 165.5 263 165.5Z" stroke="#989B9B"/>
<path d="M298 165H280C277.239 165 275 167.239 275 170V188C275 190.761 277.239 193 280 193H298C300.761 193 303 190.761 303 188V170C303 167.239 300.761 165 298 165Z" fill="white"/>
<path opacity="0.5" d="M290.202 174H287.798C284.596 174 282 176.462 282 179.5C282 182.538 284.596 185 287.798 185H290.202C293.404 185 296 182.538 296 179.5C296 176.462 293.404 174 290.202 174Z" fill="#CED9EB"/>
<path d="M299 165.5H279C277.067 165.5 275.5 167.067 275.5 169V189C275.5 190.933 277.067 192.5 279 192.5H299C300.933 192.5 302.5 190.933 302.5 189V169C302.5 167.067 300.933 165.5 299 165.5Z" stroke="#989B9B"/>
<path d="M299 165.5H279C277.067 165.5 275.5 167.067 275.5 169V189C275.5 190.933 277.067 192.5 279 192.5H299C300.933 192.5 302.5 190.933 302.5 189V169C302.5 167.067 300.933 165.5 299 165.5Z" stroke="#989B9B"/>
<path d="M334 165H316C313.239 165 311 167.239 311 170V188C311 190.761 313.239 193 316 193H334C336.761 193 339 190.761 339 188V170C339 167.239 336.761 165 334 165Z" fill="white"/>
<path opacity="0.5" d="M326.202 174H323.798C320.596 174 318 176.462 318 179.5C318 182.538 320.596 185 323.798 185H326.202C329.404 185 332 182.538 332 179.5C332 176.462 329.404 174 326.202 174Z" fill="#CED9EB"/>
<path d="M335 165.5H315C313.067 165.5 311.5 167.067 311.5 169V189C311.5 190.933 313.067 192.5 315 192.5H335C336.933 192.5 338.5 190.933 338.5 189V169C338.5 167.067 336.933 165.5 335 165.5Z" stroke="#989B9B"/>
<path d="M335 165.5H315C313.067 165.5 311.5 167.067 311.5 169V189C311.5 190.933 313.067 192.5 315 192.5H335C336.933 192.5 338.5 190.933 338.5 189V169C338.5 167.067 336.933 165.5 335 165.5Z" stroke="#989B9B"/>
<path d="M370 165H352C349.239 165 347 167.239 347 170V188C347 190.761 349.239 193 352 193H370C372.761 193 375 190.761 375 188V170C375 167.239 372.761 165 370 165Z" fill="white"/>
<path opacity="0.5" d="M362.202 174H359.798C356.596 174 354 176.462 354 179.5C354 182.538 356.596 185 359.798 185H362.202C365.404 185 368 182.538 368 179.5C368 176.462 365.404 174 362.202 174Z" fill="#CED9EB"/>
<path d="M371 165.5H351C349.067 165.5 347.5 167.067 347.5 169V189C347.5 190.933 349.067 192.5 351 192.5H371C372.933 192.5 374.5 190.933 374.5 189V169C374.5 167.067 372.933 165.5 371 165.5Z" stroke="#989B9B"/>
<path d="M371 165.5H351C349.067 165.5 347.5 167.067 347.5 169V189C347.5 190.933 349.067 192.5 351 192.5H371C372.933 192.5 374.5 190.933 374.5 189V169C374.5 167.067 372.933 165.5 371 165.5Z" stroke="#989B9B"/>
<path d="M406 165H388C385.239 165 383 167.239 383 170V188C383 190.761 385.239 193 388 193H406C408.761 193 411 190.761 411 188V170C411 167.239 408.761 165 406 165Z" fill="white"/>
<path opacity="0.5" d="M398.202 174H395.798C392.596 174 390 176.462 390 179.5C390 182.538 392.596 185 395.798 185H398.202C401.404 185 404 182.538 404 179.5C404 176.462 401.404 174 398.202 174Z" fill="#CED9EB"/>
<path d="M407 165.5H387C385.067 165.5 383.5 167.067 383.5 169V189C383.5 190.933 385.067 192.5 387 192.5H407C408.933 192.5 410.5 190.933 410.5 189V169C410.5 167.067 408.933 165.5 407 165.5Z" stroke="#989B9B"/>
<path d="M407 165.5H387C385.067 165.5 383.5 167.067 383.5 169V189C383.5 190.933 385.067 192.5 387 192.5H407C408.933 192.5 410.5 190.933 410.5 189V169C410.5 167.067 408.933 165.5 407 165.5Z" stroke="#989B9B"/>
</g>
</g>
<defs>
<clipPath id="clip0_7680_7984">
<rect width="541" height="357" fill="white"/>
</clipPath>
<clipPath id="clip1_7680_7984">
<rect width="280" height="28" fill="white" transform="translate(131 165)"/>
</clipPath>
</defs>
</svg>
