<svg width="541" height="357" viewBox="0 0 541 357" fill="none" xmlns="http://www.w3.org/2000/svg">
<rect width="541" height="357" fill="#E7ECF5"/>
<rect x="63" y="88" width="415" height="181" fill="white"/>
<rect x="211" y="155" width="200" height="56" rx="4" fill="white"/>
<rect x="211.5" y="155.5" width="199" height="55" rx="3.5" stroke="black" stroke-opacity="0.38"/>
<rect opacity="0.5" x="227" y="173.5" width="26" height="19" rx="9.5" fill="#CED9EB"/>
<rect opacity="0.5" x="256" y="173.5" width="26" height="19" rx="9.5" fill="#CED9EB"/>
<rect opacity="0.5" x="285" y="173.5" width="26" height="19" rx="9.5" fill="#CED9EB"/>
<rect opacity="0.5" x="314" y="173.5" width="26" height="19" rx="9.5" fill="#CED9EB"/>
<rect opacity="0.5" x="343" y="173.5" width="26" height="19" rx="9.5" fill="#CED9EB"/>
<path d="M382.62 181.79C384.06 184.62 386.38 186.93 389.21 188.38L391.41 186.18C391.68 185.91 392.08 185.82 392.43 185.94C393.55 186.31 394.76 186.51 396 186.51C396.55 186.51 397 186.96 397 187.51V191C397 191.55 396.55 192 396 192C386.61 192 379 184.39 379 175C379 174.45 379.45 174 380 174H383.5C384.05 174 384.5 174.45 384.5 175C384.5 176.25 384.7 177.45 385.07 178.57C385.18 178.92 385.1 179.31 384.82 179.59L382.62 181.79Z" fill="black" fill-opacity="0.6"/>
<rect x="131" y="155" width="74" height="56" rx="4" fill="white"/>
<rect x="131.5" y="155.5" width="73" height="55" rx="3.5" stroke="black" stroke-opacity="0.38"/>
<rect width="137" height="18" transform="translate(223 146)" fill="white"/>
<path d="M228.26 160V150.816H229.464L232.782 156.584L233.776 158.488H233.832C233.804 158.021 233.771 157.541 233.734 157.046C233.706 156.542 233.692 156.047 233.692 155.562V150.816H234.798V160H233.594L230.262 154.218L229.268 152.328H229.212C229.249 152.785 229.282 153.257 229.31 153.742C229.347 154.227 229.366 154.713 229.366 155.198V160H228.26ZM239.256 160.168C238.538 160.168 238.01 159.944 237.674 159.496C237.338 159.039 237.17 158.376 237.17 157.508V153.196H238.332V157.354C238.332 157.989 238.43 158.451 238.626 158.74C238.832 159.029 239.158 159.174 239.606 159.174C239.961 159.174 240.274 159.085 240.544 158.908C240.824 158.721 241.123 158.427 241.44 158.026V153.196H242.588V160H241.636L241.538 158.936H241.496C241.179 159.309 240.843 159.608 240.488 159.832C240.134 160.056 239.723 160.168 239.256 160.168ZM244.94 160V153.196H245.892L245.99 154.176H246.032C246.33 153.849 246.657 153.579 247.012 153.364C247.366 153.14 247.744 153.028 248.146 153.028C248.668 153.028 249.074 153.145 249.364 153.378C249.662 153.602 249.882 153.919 250.022 154.33C250.376 153.947 250.736 153.635 251.1 153.392C251.464 153.149 251.851 153.028 252.262 153.028C252.962 153.028 253.48 153.257 253.816 153.714C254.161 154.162 254.334 154.82 254.334 155.688V160H253.186V155.842C253.186 155.207 253.083 154.745 252.878 154.456C252.672 154.167 252.355 154.022 251.926 154.022C251.422 154.022 250.852 154.372 250.218 155.072V160H249.07V155.842C249.07 155.207 248.967 154.745 248.762 154.456C248.556 154.167 248.234 154.022 247.796 154.022C247.292 154.022 246.722 154.372 246.088 155.072V160H244.94ZM259.361 160.168C258.754 160.168 258.204 160.028 257.709 159.748C257.214 159.459 256.822 159.048 256.533 158.516C256.244 157.984 256.099 157.349 256.099 156.612C256.099 155.865 256.244 155.226 256.533 154.694C256.832 154.162 257.214 153.751 257.681 153.462C258.148 153.173 258.638 153.028 259.151 153.028C260.019 153.028 260.686 153.317 261.153 153.896C261.629 154.475 261.867 155.249 261.867 156.22C261.867 156.341 261.862 156.463 261.853 156.584C261.853 156.696 261.844 156.794 261.825 156.878H257.233C257.28 157.597 257.504 158.171 257.905 158.6C258.316 159.029 258.848 159.244 259.501 159.244C259.828 159.244 260.126 159.197 260.397 159.104C260.677 159.001 260.943 158.871 261.195 158.712L261.601 159.468C261.312 159.655 260.98 159.818 260.607 159.958C260.243 160.098 259.828 160.168 259.361 160.168ZM257.219 156.052H260.859C260.859 155.361 260.71 154.839 260.411 154.484C260.122 154.12 259.711 153.938 259.179 153.938C258.703 153.938 258.274 154.125 257.891 154.498C257.518 154.862 257.294 155.38 257.219 156.052ZM258.955 151.978L258.367 151.404L260.341 149.066L261.153 149.836L258.955 151.978ZM263.604 160V153.196H264.556L264.654 154.428H264.696C264.93 153.999 265.214 153.658 265.55 153.406C265.886 153.154 266.246 153.028 266.628 153.028C266.899 153.028 267.142 153.075 267.356 153.168L267.132 154.176C267.02 154.139 266.918 154.111 266.824 154.092C266.731 154.073 266.614 154.064 266.474 154.064C266.185 154.064 265.882 154.181 265.564 154.414C265.256 154.647 264.986 155.053 264.752 155.632V160H263.604ZM271.023 160.168C270.473 160.168 269.955 160.028 269.469 159.748C268.993 159.468 268.606 159.062 268.307 158.53C268.018 157.998 267.873 157.359 267.873 156.612C267.873 155.847 268.018 155.198 268.307 154.666C268.606 154.134 268.993 153.728 269.469 153.448C269.955 153.168 270.473 153.028 271.023 153.028C271.583 153.028 272.101 153.168 272.577 153.448C273.053 153.728 273.436 154.134 273.725 154.666C274.024 155.198 274.173 155.847 274.173 156.612C274.173 157.359 274.024 157.998 273.725 158.53C273.436 159.062 273.053 159.468 272.577 159.748C272.101 160.028 271.583 160.168 271.023 160.168ZM271.023 159.216C271.611 159.216 272.083 158.978 272.437 158.502C272.801 158.017 272.983 157.387 272.983 156.612C272.983 155.828 272.801 155.193 272.437 154.708C272.083 154.223 271.611 153.98 271.023 153.98C270.445 153.98 269.973 154.223 269.609 154.708C269.245 155.193 269.063 155.828 269.063 156.612C269.063 157.387 269.245 158.017 269.609 158.502C269.973 158.978 270.445 159.216 271.023 159.216ZM281.204 160.168C280.355 160.168 279.673 159.86 279.16 159.244C278.647 158.619 278.39 157.741 278.39 156.612C278.39 155.875 278.525 155.24 278.796 154.708C279.076 154.167 279.44 153.751 279.888 153.462C280.345 153.173 280.831 153.028 281.344 153.028C281.736 153.028 282.077 153.098 282.366 153.238C282.655 153.378 282.949 153.569 283.248 153.812L283.192 152.65V150.032H284.354V160H283.402L283.304 159.202H283.262C283.001 159.463 282.693 159.692 282.338 159.888C281.983 160.075 281.605 160.168 281.204 160.168ZM281.456 159.202C282.053 159.202 282.632 158.889 283.192 158.264V154.708C282.903 154.447 282.623 154.265 282.352 154.162C282.091 154.05 281.82 153.994 281.54 153.994C281.176 153.994 280.845 154.106 280.546 154.33C280.257 154.545 280.023 154.848 279.846 155.24C279.669 155.623 279.58 156.075 279.58 156.598C279.58 157.41 279.743 158.049 280.07 158.516C280.397 158.973 280.859 159.202 281.456 159.202ZM289.459 160.168C288.853 160.168 288.302 160.028 287.807 159.748C287.313 159.459 286.921 159.048 286.631 158.516C286.342 157.984 286.197 157.349 286.197 156.612C286.197 155.865 286.342 155.226 286.631 154.694C286.93 154.162 287.313 153.751 287.779 153.462C288.246 153.173 288.736 153.028 289.249 153.028C290.117 153.028 290.785 153.317 291.251 153.896C291.727 154.475 291.965 155.249 291.965 156.22C291.965 156.341 291.961 156.463 291.951 156.584C291.951 156.696 291.942 156.794 291.923 156.878H287.331C287.378 157.597 287.602 158.171 288.003 158.6C288.414 159.029 288.946 159.244 289.599 159.244C289.926 159.244 290.225 159.197 290.495 159.104C290.775 159.001 291.041 158.871 291.293 158.712L291.699 159.468C291.41 159.655 291.079 159.818 290.705 159.958C290.341 160.098 289.926 160.168 289.459 160.168ZM287.317 156.052H290.957C290.957 155.361 290.808 154.839 290.509 154.484C290.22 154.12 289.809 153.938 289.277 153.938C288.801 153.938 288.372 154.125 287.989 154.498C287.616 154.862 287.392 155.38 287.317 156.052ZM298.704 160.168C297.976 160.168 297.467 159.958 297.178 159.538C296.898 159.118 296.758 158.572 296.758 157.9V154.134H295.75V153.266L296.814 153.196L296.954 151.292H297.92V153.196H299.754V154.134H297.92V157.914C297.92 158.334 297.994 158.661 298.144 158.894C298.302 159.118 298.578 159.23 298.97 159.23C299.091 159.23 299.222 159.211 299.362 159.174C299.502 159.127 299.628 159.085 299.74 159.048L299.964 159.916C299.777 159.981 299.572 160.037 299.348 160.084C299.133 160.14 298.918 160.168 298.704 160.168ZM303.915 160.168C303.308 160.168 302.757 160.028 302.263 159.748C301.768 159.459 301.376 159.048 301.087 158.516C300.797 157.984 300.653 157.349 300.653 156.612C300.653 155.865 300.797 155.226 301.087 154.694C301.385 154.162 301.768 153.751 302.235 153.462C302.701 153.173 303.191 153.028 303.705 153.028C304.573 153.028 305.24 153.317 305.707 153.896C306.183 154.475 306.421 155.249 306.421 156.22C306.421 156.341 306.416 156.463 306.407 156.584C306.407 156.696 306.397 156.794 306.379 156.878H301.787C301.833 157.597 302.057 158.171 302.459 158.6C302.869 159.029 303.401 159.244 304.055 159.244C304.381 159.244 304.68 159.197 304.951 159.104C305.231 159.001 305.497 158.871 305.749 158.712L306.155 159.468C305.865 159.655 305.534 159.818 305.161 159.958C304.797 160.098 304.381 160.168 303.915 160.168ZM301.773 156.052H305.413C305.413 155.361 305.263 154.839 304.965 154.484C304.675 154.12 304.265 153.938 303.733 153.938C303.257 153.938 302.827 154.125 302.445 154.498C302.071 154.862 301.847 155.38 301.773 156.052ZM303.509 151.978L302.921 151.404L304.895 149.066L305.707 149.836L303.509 151.978ZM309.376 160.168C308.947 160.168 308.634 160.037 308.438 159.776C308.251 159.505 308.158 159.123 308.158 158.628V150.032H309.306V158.712C309.306 158.889 309.339 159.02 309.404 159.104C309.469 159.179 309.544 159.216 309.628 159.216C309.665 159.216 309.698 159.216 309.726 159.216C309.763 159.207 309.815 159.197 309.88 159.188L310.034 160.056C309.959 160.093 309.871 160.121 309.768 160.14C309.665 160.159 309.535 160.168 309.376 160.168ZM314.54 160.168C313.934 160.168 313.383 160.028 312.888 159.748C312.394 159.459 312.002 159.048 311.712 158.516C311.423 157.984 311.278 157.349 311.278 156.612C311.278 155.865 311.423 155.226 311.712 154.694C312.011 154.162 312.394 153.751 312.86 153.462C313.327 153.173 313.817 153.028 314.33 153.028C315.198 153.028 315.866 153.317 316.332 153.896C316.808 154.475 317.046 155.249 317.046 156.22C317.046 156.341 317.042 156.463 317.032 156.584C317.032 156.696 317.023 156.794 317.004 156.878H312.412C312.459 157.597 312.683 158.171 313.084 158.6C313.495 159.029 314.027 159.244 314.68 159.244C315.007 159.244 315.306 159.197 315.576 159.104C315.856 159.001 316.122 158.871 316.374 158.712L316.78 159.468C316.491 159.655 316.16 159.818 315.786 159.958C315.422 160.098 315.007 160.168 314.54 160.168ZM312.398 156.052H316.038C316.038 155.361 315.889 154.839 315.59 154.484C315.301 154.12 314.89 153.938 314.358 153.938C313.882 153.938 313.453 154.125 313.07 154.498C312.697 154.862 312.473 155.38 312.398 156.052ZM314.134 151.978L313.546 151.404L315.52 149.066L316.332 149.836L314.134 151.978ZM318.784 162.87V153.196H319.736L319.834 153.98H319.876C320.184 153.719 320.52 153.495 320.884 153.308C321.257 153.121 321.644 153.028 322.046 153.028C322.923 153.028 323.59 153.345 324.048 153.98C324.505 154.605 324.734 155.445 324.734 156.5C324.734 157.265 324.594 157.923 324.314 158.474C324.043 159.025 323.684 159.445 323.236 159.734C322.797 160.023 322.316 160.168 321.794 160.168C321.476 160.168 321.159 160.098 320.842 159.958C320.534 159.818 320.221 159.627 319.904 159.384L319.932 160.574V162.87H318.784ZM321.598 159.202C322.158 159.202 322.62 158.964 322.984 158.488C323.357 158.003 323.544 157.34 323.544 156.5C323.544 155.753 323.404 155.151 323.124 154.694C322.853 154.227 322.396 153.994 321.752 153.994C321.462 153.994 321.168 154.073 320.87 154.232C320.58 154.391 320.268 154.619 319.932 154.918V158.488C320.24 158.749 320.538 158.936 320.828 159.048C321.117 159.151 321.374 159.202 321.598 159.202ZM326.605 160V150.032H327.753V152.748L327.711 154.148C328.038 153.84 328.379 153.579 328.733 153.364C329.097 153.14 329.513 153.028 329.979 153.028C330.698 153.028 331.221 153.257 331.547 153.714C331.883 154.162 332.051 154.82 332.051 155.688V160H330.903V155.842C330.903 155.207 330.801 154.745 330.595 154.456C330.39 154.167 330.063 154.022 329.615 154.022C329.27 154.022 328.957 154.111 328.677 154.288C328.407 154.465 328.099 154.727 327.753 155.072V160H326.605ZM336.922 160.168C336.372 160.168 335.854 160.028 335.368 159.748C334.892 159.468 334.505 159.062 334.206 158.53C333.917 157.998 333.772 157.359 333.772 156.612C333.772 155.847 333.917 155.198 334.206 154.666C334.505 154.134 334.892 153.728 335.368 153.448C335.854 153.168 336.372 153.028 336.922 153.028C337.482 153.028 338 153.168 338.476 153.448C338.952 153.728 339.335 154.134 339.624 154.666C339.923 155.198 340.072 155.847 340.072 156.612C340.072 157.359 339.923 157.998 339.624 158.53C339.335 159.062 338.952 159.468 338.476 159.748C338 160.028 337.482 160.168 336.922 160.168ZM336.922 159.216C337.51 159.216 337.982 158.978 338.336 158.502C338.7 158.017 338.882 157.387 338.882 156.612C338.882 155.828 338.7 155.193 338.336 154.708C337.982 154.223 337.51 153.98 336.922 153.98C336.344 153.98 335.872 154.223 335.508 154.708C335.144 155.193 334.962 155.828 334.962 156.612C334.962 157.387 335.144 158.017 335.508 158.502C335.872 158.978 336.344 159.216 336.922 159.216ZM341.92 160V153.196H342.872L342.97 154.176H343.012C343.339 153.849 343.684 153.579 344.048 153.364C344.412 153.14 344.828 153.028 345.294 153.028C346.013 153.028 346.536 153.257 346.862 153.714C347.198 154.162 347.366 154.82 347.366 155.688V160H346.218V155.842C346.218 155.207 346.116 154.745 345.91 154.456C345.705 154.167 345.378 154.022 344.93 154.022C344.585 154.022 344.272 154.111 343.992 154.288C343.722 154.465 343.414 154.727 343.068 155.072V160H341.92ZM352.391 160.168C351.784 160.168 351.233 160.028 350.739 159.748C350.244 159.459 349.852 159.048 349.563 158.516C349.273 157.984 349.129 157.349 349.129 156.612C349.129 155.865 349.273 155.226 349.563 154.694C349.861 154.162 350.244 153.751 350.711 153.462C351.177 153.173 351.667 153.028 352.181 153.028C353.049 153.028 353.716 153.317 354.183 153.896C354.659 154.475 354.897 155.249 354.897 156.22C354.897 156.341 354.892 156.463 354.883 156.584C354.883 156.696 354.873 156.794 354.855 156.878H350.263C350.309 157.597 350.533 158.171 350.935 158.6C351.345 159.029 351.877 159.244 352.531 159.244C352.857 159.244 353.156 159.197 353.427 159.104C353.707 159.001 353.973 158.871 354.225 158.712L354.631 159.468C354.341 159.655 354.01 159.818 353.637 159.958C353.273 160.098 352.857 160.168 352.391 160.168ZM350.249 156.052H353.889C353.889 155.361 353.739 154.839 353.441 154.484C353.151 154.12 352.741 153.938 352.209 153.938C351.733 153.938 351.303 154.125 350.921 154.498C350.547 154.862 350.323 155.38 350.249 156.052Z" fill="black" fill-opacity="0.6"/>
<rect width="57" height="18" transform="translate(138 146)" fill="white"/>
<path d="M143.26 160V150.816H144.422V160H143.26ZM146.882 160V153.196H147.834L147.932 154.176H147.974C148.3 153.849 148.646 153.579 149.01 153.364C149.374 153.14 149.789 153.028 150.256 153.028C150.974 153.028 151.497 153.257 151.824 153.714C152.16 154.162 152.328 154.82 152.328 155.688V160H151.18V155.842C151.18 155.207 151.077 154.745 150.872 154.456C150.666 154.167 150.34 154.022 149.892 154.022C149.546 154.022 149.234 154.111 148.954 154.288C148.683 154.465 148.375 154.727 148.03 155.072V160H146.882ZM156.918 160.168C156.069 160.168 155.387 159.86 154.874 159.244C154.361 158.619 154.104 157.741 154.104 156.612C154.104 155.875 154.239 155.24 154.51 154.708C154.79 154.167 155.154 153.751 155.602 153.462C156.059 153.173 156.545 153.028 157.058 153.028C157.45 153.028 157.791 153.098 158.08 153.238C158.369 153.378 158.663 153.569 158.962 153.812L158.906 152.65V150.032H160.068V160H159.116L159.018 159.202H158.976C158.715 159.463 158.407 159.692 158.052 159.888C157.697 160.075 157.319 160.168 156.918 160.168ZM157.17 159.202C157.767 159.202 158.346 158.889 158.906 158.264V154.708C158.617 154.447 158.337 154.265 158.066 154.162C157.805 154.05 157.534 153.994 157.254 153.994C156.89 153.994 156.559 154.106 156.26 154.33C155.971 154.545 155.737 154.848 155.56 155.24C155.383 155.623 155.294 156.075 155.294 156.598C155.294 157.41 155.457 158.049 155.784 158.516C156.111 158.973 156.573 159.202 157.17 159.202ZM162.416 160V153.196H163.564V160H162.416ZM163.004 151.796C162.78 151.796 162.593 151.731 162.444 151.6C162.304 151.46 162.234 151.273 162.234 151.04C162.234 150.816 162.304 150.634 162.444 150.494C162.593 150.354 162.78 150.284 163.004 150.284C163.228 150.284 163.41 150.354 163.55 150.494C163.699 150.634 163.774 150.816 163.774 151.04C163.774 151.273 163.699 151.46 163.55 151.6C163.41 151.731 163.228 151.796 163.004 151.796ZM168.605 160.168C168.008 160.168 167.466 160.028 166.981 159.748C166.496 159.468 166.113 159.062 165.833 158.53C165.553 157.998 165.413 157.359 165.413 156.612C165.413 155.847 165.562 155.198 165.861 154.666C166.169 154.134 166.57 153.728 167.065 153.448C167.569 153.168 168.11 153.028 168.689 153.028C169.137 153.028 169.52 153.107 169.837 153.266C170.164 153.425 170.444 153.611 170.677 153.826L170.089 154.582C169.893 154.405 169.683 154.26 169.459 154.148C169.244 154.036 169.002 153.98 168.731 153.98C168.32 153.98 167.952 154.092 167.625 154.316C167.308 154.531 167.056 154.839 166.869 155.24C166.692 155.632 166.603 156.089 166.603 156.612C166.603 157.387 166.794 158.017 167.177 158.502C167.569 158.978 168.078 159.216 168.703 159.216C169.02 159.216 169.314 159.151 169.585 159.02C169.856 158.88 170.094 158.717 170.299 158.53L170.803 159.3C170.495 159.571 170.154 159.785 169.781 159.944C169.408 160.093 169.016 160.168 168.605 160.168ZM173.789 160.168C173.22 160.168 172.744 160 172.361 159.664C171.988 159.319 171.801 158.843 171.801 158.236C171.801 157.489 172.132 156.92 172.795 156.528C173.467 156.127 174.526 155.847 175.973 155.688C175.973 155.399 175.931 155.123 175.847 154.862C175.772 154.601 175.632 154.391 175.427 154.232C175.231 154.064 174.946 153.98 174.573 153.98C174.181 153.98 173.812 154.055 173.467 154.204C173.122 154.353 172.814 154.521 172.543 154.708L172.095 153.91C172.412 153.705 172.8 153.509 173.257 153.322C173.724 153.126 174.228 153.028 174.769 153.028C175.6 153.028 176.202 153.285 176.575 153.798C176.948 154.302 177.135 154.979 177.135 155.828V160H176.183L176.085 159.188H176.043C175.726 159.449 175.376 159.678 174.993 159.874C174.62 160.07 174.218 160.168 173.789 160.168ZM174.125 159.244C174.452 159.244 174.76 159.165 175.049 159.006C175.338 158.847 175.646 158.623 175.973 158.334V156.444C174.844 156.584 174.05 156.794 173.593 157.074C173.145 157.354 172.921 157.713 172.921 158.152C172.921 158.535 173.038 158.815 173.271 158.992C173.504 159.16 173.789 159.244 174.125 159.244ZM181.282 160.168C180.554 160.168 180.046 159.958 179.756 159.538C179.476 159.118 179.336 158.572 179.336 157.9V154.134H178.328V153.266L179.392 153.196L179.532 151.292H180.498V153.196H182.332V154.134H180.498V157.914C180.498 158.334 180.573 158.661 180.722 158.894C180.881 159.118 181.156 159.23 181.548 159.23C181.67 159.23 181.8 159.211 181.94 159.174C182.08 159.127 182.206 159.085 182.318 159.048L182.542 159.916C182.356 159.981 182.15 160.037 181.926 160.084C181.712 160.14 181.497 160.168 181.282 160.168ZM183.927 160V153.196H185.075V160H183.927ZM184.515 151.796C184.291 151.796 184.104 151.731 183.955 151.6C183.815 151.46 183.745 151.273 183.745 151.04C183.745 150.816 183.815 150.634 183.955 150.494C184.104 150.354 184.291 150.284 184.515 150.284C184.739 150.284 184.921 150.354 185.061 150.494C185.21 150.634 185.285 150.816 185.285 151.04C185.285 151.273 185.21 151.46 185.061 151.6C184.921 151.731 184.739 151.796 184.515 151.796ZM187.624 160V154.134H186.7V153.266L187.624 153.196V152.118C187.624 151.427 187.783 150.881 188.1 150.48C188.427 150.069 188.931 149.864 189.612 149.864C189.827 149.864 190.032 149.887 190.228 149.934C190.424 149.971 190.597 150.023 190.746 150.088L190.494 150.97C190.242 150.858 189.985 150.802 189.724 150.802C189.089 150.802 188.772 151.241 188.772 152.118V153.196H190.214V154.134H188.772V160H187.624Z" fill="black" fill-opacity="0.6"/>
<rect opacity="0.5" x="147" y="174" width="26" height="19" rx="9.5" fill="#CED9EB"/>
<path d="M190.69 181.256L189.434 180L185.345 184.08L181.256 180L180 181.256L185.345 186.601L190.69 181.256Z" fill="#0C419A"/>
</svg>
