<svg width="541" height="357" viewBox="0 0 541 357" fill="none" xmlns="http://www.w3.org/2000/svg">
<rect width="541" height="357" fill="#E7ECF5"/>
<rect x="63" y="88" width="415" height="181" fill="white"/>
<g clip-path="url(#clip0_7702_5852)">
<rect width="415" height="46" transform="translate(63 88)" fill="#F7FCFE"/>
<rect opacity="0.5" x="73" y="101" width="69" height="20" rx="10" fill="#0084B2"/>
<rect x="234.5" y="101.5" width="140" height="19" rx="9.5" fill="white"/>
<rect x="234.5" y="101.5" width="140" height="19" rx="9.5" stroke="#989B9B"/>
<path d="M364.576 112.547H364.034L363.842 112.362C364.515 111.58 364.919 110.564 364.919 109.46C364.919 106.997 362.923 105 360.46 105C357.997 105 356 106.997 356 109.46C356 111.923 357.997 113.919 360.46 113.919C361.564 113.919 362.58 113.515 363.362 112.842L363.547 113.034V113.576L366.978 117L368 115.978L364.576 112.547ZM360.46 112.547C358.751 112.547 357.372 111.168 357.372 109.46C357.372 107.751 358.751 106.372 360.46 106.372C362.168 106.372 363.547 107.751 363.547 109.46C363.547 111.168 362.168 112.547 360.46 112.547Z" fill="#545859"/>
<g filter="url(#filter0_ddd_7702_5852)">
<rect x="387" y="93" width="80" height="36.0003" rx="4" fill="#0084B2"/>
</g>
<rect opacity="0.5" x="398.5" y="101" width="57" height="19" rx="9.5" fill="#CED9EB"/>
</g>
<rect opacity="0.5" x="94" y="151" width="353" height="20" rx="10" fill="#CED9EB"/>
<line x1="94" y1="180.5" x2="447" y2="180.5" stroke="#EEEEEE"/>
<rect opacity="0.5" x="94" y="191" width="353" height="20" rx="10" fill="#CED9EB"/>
<line x1="94" y1="220.5" x2="447" y2="220.5" stroke="#EEEEEE"/>
<rect opacity="0.5" x="94" y="231" width="353" height="20" rx="10" fill="#CED9EB"/>
<defs>
<filter id="filter0_ddd_7702_5852" x="382" y="89" width="90" height="46" filterUnits="userSpaceOnUse" color-interpolation-filters="sRGB">
<feFlood flood-opacity="0" result="BackgroundImageFix"/>
<feColorMatrix in="SourceAlpha" type="matrix" values="0 0 0 0 0 0 0 0 0 0 0 0 0 0 0 0 0 0 127 0" result="hardAlpha"/>
<feOffset dy="1"/>
<feGaussianBlur stdDeviation="2.5"/>
<feColorMatrix type="matrix" values="0 0 0 0 0 0 0 0 0 0 0 0 0 0 0 0 0 0 0.12 0"/>
<feBlend mode="normal" in2="BackgroundImageFix" result="effect1_dropShadow_7702_5852"/>
<feColorMatrix in="SourceAlpha" type="matrix" values="0 0 0 0 0 0 0 0 0 0 0 0 0 0 0 0 0 0 127 0" result="hardAlpha"/>
<feOffset dy="2"/>
<feGaussianBlur stdDeviation="1"/>
<feColorMatrix type="matrix" values="0 0 0 0 0 0 0 0 0 0 0 0 0 0 0 0 0 0 0.14 0"/>
<feBlend mode="normal" in2="effect1_dropShadow_7702_5852" result="effect2_dropShadow_7702_5852"/>
<feColorMatrix in="SourceAlpha" type="matrix" values="0 0 0 0 0 0 0 0 0 0 0 0 0 0 0 0 0 0 127 0" result="hardAlpha"/>
<feMorphology radius="2" operator="erode" in="SourceAlpha" result="effect3_dropShadow_7702_5852"/>
<feOffset dy="3"/>
<feGaussianBlur stdDeviation="0.5"/>
<feColorMatrix type="matrix" values="0 0 0 0 0 0 0 0 0 0 0 0 0 0 0 0 0 0 0.2 0"/>
<feBlend mode="normal" in2="effect2_dropShadow_7702_5852" result="effect3_dropShadow_7702_5852"/>
<feBlend mode="normal" in="SourceGraphic" in2="effect3_dropShadow_7702_5852" result="shape"/>
</filter>
<clipPath id="clip0_7702_5852">
<rect width="415" height="46" fill="white" transform="translate(63 88)"/>
</clipPath>
</defs>
</svg>
